<?xml version="1.0" encoding="utf-8"?>
<!-- Generator: Adobe Illustrator 24.0.1, SVG Export Plug-In . SVG Version: 6.00 Build 0)  -->
<svg version="1.1" id="Layer_1" xmlns="http://www.w3.org/2000/svg" xmlns:xlink="http://www.w3.org/1999/xlink" x="0px" y="0px"
	 viewBox="0 0 500 500" style="enable-background:new 0 0 500 500;" xml:space="preserve">
<style type="text/css">
	.st0{display:none;fill:#FDFEFE;}
	.st1{fill:#68CB87;}
	.st2{fill:#F8E64A;}
	.st3{fill:#D5D7DF;}
	.st4{fill:#006A4E;}
	.st5{fill:#68696A;}
	.st6{fill:#454647;}
	.st7{fill:#8ABAAE;}
	.st8{fill:#2E856E;}
	.st9{fill:#494A4B;}
	.st10{fill:#5A5B5C;}
	.st11{fill:#515253;}
	.st12{fill:#55C57A;}
	.st13{fill:#4CB06D;}
	.st14{fill:#414243;}
	.st15{fill:#43BF6C;}
	.st16{fill:#3CAB61;}
	.st17{fill:none;}
</style>
<path class="st0" d="M23.35,198.5c-1.23-0.02-1.48,1.25-2.3,1.77c0-22.9,0-45.81,0-68.71c1.21,2.04,1.48,4.42,2.36,6.58
	c3.29,8.09,6.93,15.96,13.49,22.04c0.76,0.7,0.57,1.52,0.57,2.33c0.01,6.26,0.04,12.51-0.01,18.77c-0.02,1.81,0.54,3.22,2.31,3.75
	c1.08,0.32,0.94,1,0.94,1.74c0,3.2-0.07,6.41,0.03,9.61c0.05,1.41-0.38,1.84-1.78,1.82c-4.2-0.07-8.39-0.03-12.59-0.01
	c-0.75,0-1.5,0.12-2.25,0.19C23.92,198.74,23.65,198.68,23.35,198.5z"/>
<path class="st1" d="M416.37,6.05c-1.83,0.71-3.66,0.74-5.5,0C412.71,6.05,414.54,6.05,416.37,6.05z"/>
<path class="st2" d="M251.92,6.05c-1.37,0.72-2.75,0.73-4.12,0C249.17,6.05,250.55,6.05,251.92,6.05z"/>
<path class="st3" d="M445.8,476.9c-0.62,0.82-1.35,0.36-1.95,0.48c-0.18-0.16-0.37-0.32-0.55-0.48
	C444.1,476.3,444.87,476.29,445.8,476.9z"/>
<path class="st4" d="M142.96,161.73c7.17-7.8,11.85-16.91,14.17-27.25v-4.58c-1.2-1.3-2.74-1.65-4.44-1.64
	c-4.27,0.02-8.54-0.08-12.8,0.05c-1.69,0.05-2.17-0.52-2.41-2.12c-0.82-5.51-4.85-9.77-10.43-10.67c-2.06-0.33-2.55-1.01-2.47-2.94
	c0.11-2.83-1.14-3.85-4.09-3.76c-0.62,0.43-1.33,0.24-2,0.24c-8.83,0-17.65,0.01-26.49,0.01c-9.37,0-18.75,0-28.12-0.01
	c-0.68,0-1.38,0.15-2.02-0.2c-2.53,0.33-2.88,2.14-2.72,4.17c0.12,1.54-0.22,2.14-1.98,2.37c-5.76,0.75-10.04,5.18-10.98,10.89
	c-0.13,0.79,0.03,1.73-0.93,2.16c-0.1,0.13-0.2,0.29-0.32,0.29c-5.5-0.04-10.99,0.18-16.49-0.1c-2.24,0.84-2.33,2.68-1.83,4.52
	c2.88,10.62,7.2,20.5,15.02,28.51c0.76,0.77,1.07,1.5,1.06,2.57c-0.04,6.09-0.02,12.17,0,18.26c0,0.81-0.22,1.68,0.36,2.42
	c0.05-0.09,0.1-0.18,0.13-0.27c-0.01,0.22-0.02,0.43-0.03,0.65c0.16,0.74,0.68,1.32,1.32,1.45c1.53,0.31,1.55,1.33,1.53,2.54
	c-0.05,2.9-0.14,5.8,0.03,8.69c0.1,1.88-0.6,2.27-2.33,2.23c-4.41-0.11-8.84-0.07-13.26-0.03c-3.22,0.04-4.64,1.56-3.84,4.67
	c2.74,10.68,7.12,20.56,14.93,28.61c0.8,0.83,1.19,1.6,1.17,2.77c-0.06,5.03-0.06,10.06,0,15.09c0.02,1.72-0.38,3.49,0.28,5.18
	c0.1-0.12,0.17-0.24,0.22-0.37c-0.01,0.36-0.02,0.73-0.04,1.09c3.75,2.21,2.78,5.86,2.82,9.21c0.01,1.14-0.1,2.29,0.03,3.41
	c0.2,1.78-0.43,2.3-2.25,2.29c-4.84-0.01-9.69-0.34-14.53,0.18c0.07,0.05,0.13,0.09,0.2,0.12c-0.19-0.01-0.37-0.03-0.56-0.06
	c-2.3,0.9-2.97,1.94-2.25,4.63c2.83,10.58,7.17,20.42,14.94,28.41c0.82,0.85,1.15,1.64,1.14,2.79c-0.05,6.18-0.02,12.36-0.03,18.54
	c0,1.51,0.14,3.12,1.66,3.73c1.55,0.6,1.76,1.56,1.68,2.94c-0.05,0.74-0.2,1.53,0.23,2.24c0.16-0.32,0.23-0.64,0.27-0.97v-0.03
	c0-0.03,0.01-0.06,0.01-0.1c0.01,0.08,0.01,0.15,0.01,0.23v0.08c0,0.54-0.05,1.08-0.21,1.62c0.73,5.39,4.84,9.71,10.45,10.59
	c1.89,0.3,2.5,0.87,2.4,2.81c-0.09,1.66,0.28,2.74,1.17,3.36h0.01c0.64,0.46,1.56,0.66,2.78,0.67c4.57,0.03,9.15,0.07,13.72-0.02
	c0.1,0,0.19,0.01,0.28,0.01c0.07,0,0.13-0.01,0.2-0.01c0.18,0,0.36,0.02,0.53,0.04c0.2-0.03,0.41-0.04,0.63-0.04
	c0.4,0,0.78,0.04,1.13,0.11h43.47c0.46-0.22,0.83-0.51,1.12-0.89c0.56-0.7,0.86-1.7,1.01-3.07c0.13-1.25,0.58-1.98,1.82-2.24
	c7.23-1.51,11.14-7.26,11.48-14.1c0.05-1.02,0.19-1.98,1.09-2.63c1.72-1.25,2.15-3.02,2.14-5.03c-0.03-5.57,0.01-11.14-0.02-16.7
	c-0.01-1.61,0.42-2.91,1.53-4.14c7.08-7.86,11.73-16.97,13.87-27.34v-4.13c-0.93-2.08-2.78-2.43-4.75-2.46
	c-3.89-0.06-7.77-0.03-11.66-0.01c-1.55,0-2.21-0.64-2.18-2.19c0.04-2.51-0.01-5.02,0.02-7.54c0.02-0.87,0.19-1.7,0.93-2.24
	c1.95-1.42,2.3-3.42,2.28-5.66c-0.05-5.41-0.01-10.82-0.02-16.23c-0.01-1.42,0.23-2.68,1.24-3.79c7.17-7.79,11.76-16.93,14.14-27.21
	v-4.58c-0.61-0.88-1.06-2.1-2.38-1.44c-0.06,0.03-0.13,0.07-0.21,0.12c-0.04,0.02-0.08,0.04-0.12,0.07c-0.07,0-0.15,0.01-0.22,0.01
	c0.01-0.07,0.01-0.13,0.01-0.19c0-0.01,0-0.01,0-0.02c0-1.53-1.39-0.96-2.13-0.99c-3.74-0.12-7.48-0.08-11.22-0.04
	c-1.64,0.02-2.37-0.61-2.32-2.29c0.06-2.36,0.01-4.73,0.02-7.1c0-1.02,0.13-2.01,1.03-2.66c1.87-1.39,2.19-3.34,2.18-5.49
	c-0.04-5.42-0.01-10.84-0.02-16.26C141.75,164.13,141.94,162.85,142.96,161.73z M43.28,181.7c0.01-4.2,0.01-8.4,0.01-12.47v-3.94
	c0.01,0.21,0.02,0.44,0.02,0.66c-0.02,1.09-0.02,2.18-0.02,3.28C43.29,173.38,43.37,177.54,43.28,181.7z M43.27,254.06
	c0.02-4.44,0.02-8.87,0.02-13.17v-3.77c0.02,0.15,0.02,0.31,0.02,0.46c-0.02,1.1-0.02,2.21-0.02,3.31
	C43.29,245.29,43.38,249.68,43.27,254.06z M31.68,272.6h-0.07c-0.15-0.01-0.3-0.01-0.45-0.02c0.1-0.01,0.19-0.01,0.28-0.01h0.81
	c0.01,0.01,0.01,0.01,0.02,0h0.01c1.46,0.01,2.91,0.02,4.37,0.02C34.99,272.61,33.33,272.66,31.68,272.6z M92,339.24v-4.96
	c7.04-0.03,14.16-2.56,19.86-7.76c5.95-5.43,8.93-12.36,9.6-20.33c2.74,0.45,3.22,0.12,3.13-2.57c-0.22-6.73-2.4-12.8-6.4-18.22
	c-6.47-8.77-16.33-13.22-26.19-13.26v-9.87c7.33-0.05,14.68-2.67,19.95-7.69c5.36-5.11,8.3-11.34,9.3-18.59
	c0.13-0.92-0.2-2.23,1.7-1.53c0.89,0.33,1.65-0.57,1.66-1.69c0.01-1.59-0.15-3.16-0.39-4.76c-2.44-16.22-15.79-27.4-32.15-27.87H92
	v-9.64c9.55-0.06,18.86-4.79,24.59-13.35c3-4.48,4.24-9.54,4.88-14.79c2.72,0.45,3.12,0.11,3.14-2.57c0.02-2.23-0.42-4.39-0.93-6.53
	c-3.5-14.74-16.86-24.89-31.68-24.95v-4.83c10.64,0,21.27,0,31.91,0.01c3.65,0,5.38,1.75,5.72,5.69c0.05,0.61,0.01,1.22,0.01,1.83
	v200.61c0,0.61,0.04,1.23-0.01,1.83c-0.29,3.94-2.21,5.78-6.15,5.78C112.99,339.24,102.49,339.24,92,339.24z M142.42,200.66
	c3.31,0,6.6,0.02,9.88-0.01C149.01,200.74,145.71,200.66,142.42,200.66z M142.26,200.66c-0.81,0-1.62,0.01-2.43,0.02
	c-0.11,0-0.18,0.25-0.4-0.01C140.37,200.66,141.33,200.66,142.26,200.66z"/>
<path class="st5" d="M134.32,128.72c0.01-6.28-5.21-10.27-10.44-10.27c-10.63,0.01-21.25,0.02-31.88,0.02
	c-10.75,0-21.5,0-32.24-0.01c-5.9-0.01-10.41,4.58-10.38,10.3c0.18,34.05,0.09,68.1,0.09,102.14c0,34.51-0.01,69.01,0,103.51
	c0.01,5.24,3.89,9.4,8.87,9.41c11.22,0.02,22.44,0.02,33.66,0.02s22.44,0,33.67,0.01c1.27,0,2.39-0.32,3.48-0.93
	c3.63-2.02,5.1-5.18,5.1-9.24C134.23,265.36,134.19,197.04,134.32,128.72z M129.63,333.45c-0.29,3.94-2.21,5.78-6.15,5.78
	c-10.49,0.01-20.99,0.01-31.48,0.01v-4.96c7.04-0.03,14.16-2.56,19.86-7.76c5.95-5.43,8.93-12.36,9.6-20.33
	c2.74,0.45,3.22,0.12,3.13-2.57c-0.22-6.73-2.4-12.8-6.4-18.22c-6.47-8.77-16.33-13.22-26.19-13.26v-9.87
	c7.33-0.05,14.68-2.67,19.95-7.69c5.36-5.11,8.3-11.34,9.3-18.59c0.13-0.92-0.2-2.23,1.7-1.53c0.89,0.33,1.65-0.57,1.66-1.69
	c0.01-1.59-0.15-3.16-0.39-4.76c-2.44-16.22-15.79-27.4-32.15-27.87H92v-9.64c9.55-0.06,18.86-4.79,24.59-13.35
	c3-4.48,4.24-9.54,4.88-14.79c2.72,0.45,3.12,0.11,3.14-2.57c0.02-2.23-0.42-4.39-0.93-6.53c-3.5-14.74-16.86-24.89-31.68-24.95
	v-4.83c10.64,0,21.27,0,31.91,0.01c3.65,0,5.38,1.75,5.72,5.69c0.05,0.61,0.01,1.22,0.01,1.83v200.61
	C129.64,332.23,129.68,332.85,129.63,333.45z"/>
<path class="st6" d="M48.96,129.6c0,68.15,0,136.3,0,204.45c-0.08,0-0.15,0-0.23,0c0-68.18,0-136.36,0-204.54
	C48.81,129.54,48.88,129.57,48.96,129.6z"/>
<path class="st7" d="M129.64,331.62c0,0.61,0.04,1.23-0.01,1.83c-0.29,3.94-2.21,5.78-6.15,5.78c-10.49,0.01-20.99,0.01-31.48,0.01
	v-4.96c7.04-0.03,14.16-2.56,19.86-7.76c5.95-5.43,8.93-12.36,9.6-20.33c2.74,0.45,3.22,0.12,3.13-2.57
	c-0.22-6.73-2.4-12.8-6.4-18.22c-6.47-8.77-16.33-13.22-26.19-13.26v-9.87c7.33-0.05,14.68-2.67,19.95-7.69
	c5.36-5.11,8.3-11.34,9.3-18.59c0.13-0.92-0.2-2.23,1.7-1.53c0.89,0.33,1.65-0.57,1.66-1.69c0.01-1.59-0.15-3.16-0.39-4.76
	c-2.44-16.22-15.79-27.4-32.15-27.87H92v-9.64c9.55-0.06,18.86-4.79,24.59-13.35c3-4.48,4.24-9.54,4.88-14.79
	c2.72,0.45,3.12,0.11,3.14-2.57c0.02-2.23-0.42-4.39-0.93-6.53c-3.5-14.74-16.86-24.89-31.68-24.95v-4.83
	c10.64,0,21.27,0,31.91,0.01c3.65,0,5.38,1.75,5.72,5.69c0.05,0.61,0.01,1.22,0.01,1.83L129.64,331.62L129.64,331.62z"/>
<path class="st8" d="M92,262.27v9.87c9.86,0.04,19.72,4.49,26.19,13.26c4,5.42,6.18,11.49,6.4,18.22c0.09,2.69-0.39,3.02-3.13,2.57
	c-0.67,7.97-3.65,14.9-9.6,20.33c-5.7,5.2-12.82,7.73-19.86,7.76v4.96c-10.73,0-21.45,0-32.18-0.01c-3.41,0-5.46-2.07-5.74-5.74
	c-0.05-0.68-0.02-1.37-0.02-2.06V131.28c0-0.69-0.04-1.38,0.02-2.06c0.32-4.05,2.1-5.72,6.17-5.73c10.58-0.01,21.17-0.01,31.75-0.01
	v4.83c14.82,0.06,28.18,10.21,31.68,24.95c0.51,2.14,0.95,4.3,0.93,6.53c-0.02,2.68-0.42,3.02-3.14,2.57
	c-0.64,5.25-1.88,10.31-4.88,14.79c-5.73,8.56-15.04,13.29-24.59,13.35v9.64h0.07c16.36,0.47,29.71,11.65,32.15,27.87
	c0.24,1.6,0.4,3.17,0.39,4.76c-0.01,1.12-0.77,2.02-1.66,1.69c-1.9-0.7-1.57,0.61-1.7,1.53c-1,7.25-3.94,13.48-9.3,18.59
	C106.68,259.6,99.33,262.22,92,262.27z"/>
<path class="st9" d="M124.61,159.79c-0.02,2.68-0.42,3.02-3.14,2.57c-0.64,5.25-1.88,10.31-4.88,14.79
	c-5.73,8.56-15.04,13.29-24.59,13.35c-5.22,0.03-10.52-1.34-15.34-4.24c-8.01-4.82-12.76-11.99-13.94-21.39
	c-0.17-1.29-0.02-2.85-2.31-2.51c-1.35,0.2-1.33-1.18-1.31-2.18c0.13-6.42,1.98-12.35,5.63-17.58c5.09-7.27,12.01-11.97,20.83-13.68
	c2.16-0.42,4.32-0.62,6.44-0.61c14.82,0.06,28.18,10.21,31.68,24.95C124.19,155.4,124.63,157.56,124.61,159.79z"/>
<path class="st9" d="M121.46,306.19c-0.67,7.97-3.65,14.9-9.6,20.33c-5.7,5.2-12.82,7.73-19.86,7.76c-8.65,0.04-17.22-3.68-23-10.86
	c-3.58-4.46-5.82-9.39-6.33-15.11c-0.1-1.12-0.04-2.53-2.16-1.95c-1.03,0.28-1.43-1.03-1.42-2.15c0.08-5.69,1.57-11,4.47-15.85
	c5.12-8.57,12.62-13.93,22.46-15.7C88,272.3,90,272.13,92,272.14c9.86,0.04,19.72,4.49,26.19,13.26c4,5.42,6.18,11.49,6.4,18.22
	C124.68,306.31,124.2,306.64,121.46,306.19z"/>
<path class="st9" d="M124.61,232.77c-0.01,1.12-0.77,2.02-1.66,1.69c-1.9-0.7-1.57,0.61-1.7,1.53c-1,7.25-3.94,13.48-9.3,18.59
	c-5.27,5.02-12.62,7.64-19.95,7.69c-5.51,0.03-11-1.38-15.61-4.3c-8.79-5.57-13.09-13.65-14.15-23.73
	c-2.69,0.51-3.28,0.12-3.11-2.58c0.71-11.6,5.99-20.54,15.81-26.77c5.21-3.3,11.04-4.91,17.06-4.75h0.07
	c16.36,0.47,29.71,11.65,32.15,27.87C124.46,229.61,124.62,231.18,124.61,232.77z"/>
<path class="st10" d="M117.73,160.14c0.64,6.21-1.34,11.74-4.99,16.55c-5.38,7.09-12.75,10.72-21.67,10.41
	c-9.28-0.32-16.52-4.64-21.49-12.5c-2.77-4.38-4.2-9.2-3.61-14.47c0.93-1.15,1.29-3.02,3.4-2.64c0.32,0.53,0.31,1.09,0.2,1.67
	c-0.32,0.99-0.3,1.97,0.03,2.95c0.4,10.73,9.33,19.92,19.94,21.03c6.43,0.67,12.01-1.26,16.85-5.45c5.27-4.56,7.93-10.28,7.54-17.32
	c-0.05-0.97-0.15-1.99,0.38-2.9c0.99-0.76,1.45,0.11,2.02,0.65C116.95,158.69,117.19,159.52,117.73,160.14z"/>
<path class="st11" d="M117.73,160.14c-1.55-0.35-1.65-2.4-3.2-2.75c-0.5-0.36-0.66-0.92-0.88-1.45c-1.68-5.76-4.71-10.55-9.93-13.75
	c-9.48-5.82-21.48-4.06-28.64,4.23c-2.36,2.73-3.77,5.87-5,9.17c-0.31,0.59-0.33,1.34-0.92,1.8c-1.07,0.91-2.14,1.83-3.2,2.74
	c-0.27-13.44,12.17-25.67,26.65-25.26C105.79,135.24,117.96,146.75,117.73,160.14z"/>
<path class="st12" d="M117.77,307.23c-0.29,10.61-9.08,20.6-20.38,23.15c-14.33,3.24-28.97-6.61-31.35-21.1
	c-0.11-0.67-0.08-1.37-0.11-2.05c-0.46-3.47,0.48-5.23,3.24-6.1c0.99,1.2,0.61,2.63,0.59,3.96c-0.16,12.91,11.07,22.57,23.1,22.07
	c11.25-0.46,20.7-9.96,21.07-21.11c0.05-1.52,0-3.05,0.26-4.55c0.7-0.98,1.29-0.38,1.84,0.17c0.59,0.59,1,1.35,1.72,1.81l-0.01,0.01
	C118.09,304.74,118.06,305.98,117.77,307.23z"/>
<path class="st13" d="M117.76,303.48c-0.92,0.6-1.03-0.4-1.49-0.73c-0.63-0.46-0.74-1.5-1.74-1.53c-0.44-0.23-0.67-0.62-0.87-1.05
	c-0.89-3.51-2.21-6.82-4.65-9.57c-7.21-8.12-18.94-10.59-28.38-4.88c-4.87,2.94-8.2,6.95-9.86,12.37c-0.25,0.8-0.59,1.57-0.95,2.33
	c-0.14,0.33-0.33,0.61-0.64,0.8c-2.06,1.48-3.61,3.23-3.24,6.01c-0.82-3.37-0.08-6.66,0.85-9.82c5.64-19.04,29.89-25.09,43.72-10.88
	C115.03,291.18,117.89,296.74,117.76,303.48z"/>
<path class="st13" d="M117.77,307.23c-0.01-1.25-0.01-2.49-0.02-3.74C118.4,304.73,118.32,305.98,117.77,307.23z"/>
<path class="st10" d="M117.73,232.05c1.07,2.94-0.05,5.75-0.84,8.43c-2.76,9.39-9.23,15.48-18.51,17.82
	c-12.84,3.24-25.16-2.68-30.59-15.03c-1.59-3.61-2.84-7.54-1.82-11.68c1.1-0.79,1.49-2.73,3.44-2.14c0.59,1.23,0.41,2.56,0.34,3.83
	c-0.53,9.82,7.88,19.54,17.74,21.47c7.59,1.49,14.14-0.73,19.67-5.65c4.02-3.57,6.09-8.5,6.93-13.86c0.44-1.47,0.34-2.96,0.1-4.45
	c-0.04-0.36,0-0.7,0.18-1.02C116.4,229.2,116.97,230.77,117.73,232.05z"/>
<path class="st11" d="M117.73,232.05c-1.24-0.52-1.68-2.16-3.21-2.29c-0.58-0.48-0.61-1.21-0.88-1.84
	c-2.71-9.61-8.99-15.29-18.81-17c-9.31-1.62-19.55,4.07-23.29,12.87c-0.57,1.33-1.05,2.69-1.5,4.07c-0.22,0.53-0.38,1.1-0.88,1.45
	c-1.24,0.52-1.68,2.16-3.2,2.29c-0.4-10.44,8.28-21.07,18.51-23.8c8.31-2.21,16.02-0.92,22.99,4.04
	c6.67,4.75,9.78,11.58,10.53,19.58C118.01,231.62,117.83,231.84,117.73,232.05z"/>
<path class="st9" d="M69.18,157.39c0.07-0.63-0.21-1.35,0.46-1.83c0.68-0.17,1.23-0.58,1.77-0.99c11.48-8.81,23.73-8.96,36.44-3.12
	c2.35,1.08,4.2,2.98,6.22,4.57c0.53,0.33,0.44,0.88,0.46,1.38c-0.11,3.63,0.3,7.27-0.91,10.86c-3.15,9.34-12.96,16.26-22.81,15.67
	c-7.24-0.43-13.22-3.72-17.46-9.48c-2.63-3.57-4.62-7.7-4.18-12.46c-0.34-0.92-0.34-1.84,0-2.75
	C69.17,158.61,69.18,158,69.18,157.39z"/>
<path class="st11" d="M69.17,159.21c0,0.92,0,1.84,0,2.75C68.49,161.05,68.49,160.13,69.17,159.21z"/>
<path class="st14" d="M114.08,156.01c-1.64,0.09-2.57-1.21-3.6-2.07c-3.24-2.71-7.04-3.89-11.05-4.86
	c-4.74-1.15-9.5-1.34-14.18-0.33c-4.87,1.05-9.69,2.5-13.34,6.29c-0.85,0.89-1.61,1.02-2.28,0.51c2.34-8.43,7.7-13.95,16.04-16.55
	c8.81-2.75,19.64,1.13,24.74,8.76C112.13,150.31,113.68,152.89,114.08,156.01z"/>
<path class="st15" d="M69.18,301.22c0-0.3,0-0.61,0-0.91c4.62-4.63,10.25-7.48,16.6-8.51c9.22-1.5,17.9,0.19,25.6,5.77
	c1.04,0.76,2.09,1.54,2.69,2.75c0.36,0.2,0.44,0.54,0.45,0.91c0.63,6.66-0.49,12.94-4.97,18.08c-5.51,6.32-12.43,9.5-21.04,8.14
	c-7.29-1.14-12.74-4.94-16.49-11.22C69.27,311.58,68.83,306.47,69.18,301.22z"/>
<path class="st16" d="M114.08,300.3c-4.86-3.76-10.03-6.94-16.22-7.89c-7.88-1.21-15.42-0.27-22.44,3.82
	c-2.15,1.25-3.87,3.15-6.23,4.07c1.27-2.34,1.79-4.98,3.14-7.31c4.85-8.39,16.34-13.19,25.71-10.06
	C106.59,285.8,112.43,291.09,114.08,300.3z"/>
<path class="st9" d="M69.18,229.3c0.02-0.5-0.08-1.04,0.46-1.38c4.71-4.33,10.23-7.15,16.53-8.06c10.45-1.5,19.92,0.82,27.91,8.06
	c0.66,0.49,0.38,1.2,0.45,1.84c0,0.31,0,0.61,0,0.92c0.36,1.53,0.35,3.06,0,4.58c-1.12,10.21-8.15,18.07-18.49,20.13
	c-12.16,2.43-24.11-5.74-26.65-18.12C68.86,234.71,69.23,231.97,69.18,229.3z"/>
<path class="st11" d="M114.53,235.26c0-1.53,0-3.06,0-4.58C115.25,232.2,115.24,233.73,114.53,235.26z"/>
<path class="st14" d="M114.08,227.92c-2.54-0.35-3.88-2.62-5.98-3.71c-8.56-4.44-17.38-5.58-26.63-2.45
	c-4.18,1.41-8.15,3.13-11.05,6.66c-0.31,0.37-0.6-0.18-0.78-0.49c1.3-7.83,8.7-15.41,16.91-17.32c11.96-2.78,24.2,4.54,27.45,16.41
	C114.07,227.3,114.05,227.62,114.08,227.92z"/>
<polyline class="st17" points="92,334.28 92,282.62 92,278.71 92,272.14 "/>
<polyline class="st17" points="92,262.27 92,259.17 92,255.81 92,255.22 92,219.99 92,219.44 92,210.65 92,210.02 92,206.76 
	92,200.14 "/>
<polyline class="st17" points="92,190.5 92,187.12 92,183.96 92,183.27 92,148.1 92,147.44 92,138.78 92,138.13 92,134.86 
	92,128.31 "/>
<path class="st4" d="M307,161.41c7.17-7.8,11.85-16.91,14.17-27.25v-4.58c-1.2-1.3-2.74-1.65-4.44-1.64
	c-4.27,0.02-8.54-0.08-12.8,0.05c-1.69,0.05-2.17-0.52-2.41-2.12c-0.82-5.51-4.85-9.77-10.43-10.67c-2.06-0.33-2.55-1.01-2.47-2.94
	c0.11-2.83-1.14-3.85-4.09-3.76c-0.62,0.43-1.33,0.24-2,0.24c-8.83,0-17.65,0.01-26.49,0.01c-9.37,0-18.75,0-28.12-0.01
	c-0.68,0-1.38,0.15-2.02-0.2c-2.53,0.33-2.88,2.14-2.72,4.17c0.12,1.54-0.22,2.14-1.98,2.37c-5.76,0.75-10.04,5.18-10.98,10.89
	c-0.13,0.79,0.03,1.73-0.93,2.16c-0.1,0.13-0.2,0.29-0.32,0.29c-5.5-0.04-10.99,0.18-16.49-0.1c-2.24,0.84-2.33,2.68-1.83,4.52
	c2.88,10.62,7.2,20.5,15.02,28.51c0.76,0.77,1.07,1.5,1.06,2.57c-0.04,6.09-0.02,12.17,0,18.26c0,0.81-0.22,1.68,0.36,2.42
	c0.05-0.09,0.1-0.18,0.13-0.27c-0.01,0.22-0.02,0.43-0.03,0.65c0.16,0.74,0.68,1.32,1.32,1.45c1.53,0.31,1.55,1.33,1.53,2.54
	c-0.05,2.9-0.14,5.8,0.03,8.69c0.1,1.88-0.6,2.27-2.33,2.23c-4.41-0.11-8.84-0.07-13.26-0.03c-3.22,0.04-4.64,1.56-3.84,4.67
	c2.74,10.68,7.12,20.56,14.93,28.61c0.8,0.83,1.19,1.6,1.17,2.77c-0.06,5.03-0.06,10.06,0,15.09c0.02,1.72-0.38,3.49,0.28,5.18
	c0.1-0.12,0.17-0.24,0.22-0.37c-0.01,0.36-0.02,0.73-0.04,1.09c3.75,2.21,2.78,5.86,2.82,9.21c0.01,1.14-0.1,2.29,0.03,3.41
	c0.2,1.78-0.43,2.3-2.25,2.29c-4.84-0.01-9.69-0.34-14.53,0.18c0.07,0.05,0.13,0.09,0.2,0.12c-0.19-0.01-0.37-0.03-0.56-0.06
	c-2.3,0.9-2.97,1.94-2.25,4.63c2.83,10.58,7.17,20.42,14.94,28.41c0.82,0.85,1.15,1.64,1.14,2.79c-0.05,6.18-0.02,12.36-0.03,18.54
	c0,1.51,0.14,3.12,1.66,3.73c1.55,0.6,1.76,1.56,1.68,2.94c-0.05,0.74-0.2,1.53,0.23,2.24c0.16-0.32,0.23-0.64,0.27-0.97v-0.03
	c0-0.03,0.01-0.06,0.01-0.1c0.01,0.08,0.01,0.15,0.01,0.23v0.08c0,0.54-0.05,1.08-0.21,1.62c0.73,5.39,4.84,9.71,10.45,10.59
	c1.89,0.3,2.5,0.87,2.4,2.81c-0.09,1.66,0.28,2.74,1.17,3.36h0.01c0.64,0.46,1.56,0.66,2.78,0.67c4.57,0.03,9.15,0.07,13.72-0.02
	c0.1,0,0.19,0.01,0.28,0.01c0.07,0,0.13-0.01,0.2-0.01c0.18,0,0.36,0.02,0.53,0.04c0.2-0.03,0.41-0.04,0.63-0.04
	c0.4,0,0.78,0.04,1.13,0.11h43.47c0.46-0.22,0.83-0.51,1.12-0.89c0.56-0.7,0.86-1.7,1.01-3.07c0.13-1.25,0.58-1.98,1.82-2.24
	c7.23-1.51,11.14-7.26,11.48-14.1c0.05-1.02,0.19-1.98,1.09-2.63c1.72-1.25,2.15-3.02,2.14-5.03c-0.03-5.57,0.01-11.14-0.02-16.7
	c-0.01-1.61,0.42-2.91,1.53-4.14c7.08-7.86,11.73-16.97,13.87-27.34v-4.13c-0.93-2.08-2.78-2.43-4.75-2.46
	c-3.89-0.06-7.77-0.03-11.66-0.01c-1.55,0-2.21-0.64-2.18-2.19c0.04-2.51-0.01-5.02,0.02-7.54c0.02-0.87,0.19-1.7,0.93-2.24
	c1.95-1.42,2.3-3.42,2.28-5.66c-0.05-5.41-0.01-10.82-0.02-16.23c-0.01-1.42,0.23-2.68,1.24-3.79c7.17-7.79,11.76-16.93,14.14-27.21
	v-4.58c-0.61-0.88-1.06-2.1-2.38-1.44c-0.06,0.03-0.13,0.07-0.21,0.12c-0.04,0.02-0.08,0.04-0.12,0.07c-0.07,0-0.15,0.01-0.22,0.01
	c0.01-0.07,0.01-0.13,0.01-0.19c0-0.01,0-0.01,0-0.02c0-1.53-1.39-0.96-2.13-0.99c-3.74-0.12-7.48-0.08-11.22-0.04
	c-1.64,0.02-2.37-0.61-2.32-2.29c0.06-2.36,0.01-4.73,0.02-7.1c0-1.02,0.13-2.01,1.03-2.66c1.87-1.39,2.19-3.34,2.18-5.49
	c-0.04-5.42-0.01-10.84-0.02-16.26C305.79,163.81,305.98,162.53,307,161.41z M207.32,181.38c0.01-4.2,0.01-8.4,0.01-12.47v-3.94
	c0.01,0.21,0.02,0.44,0.02,0.66c-0.02,1.09-0.02,2.18-0.02,3.28C207.33,173.06,207.41,177.22,207.32,181.38z M207.31,253.74
	c0.02-4.44,0.02-8.87,0.02-13.17v-3.77c0.02,0.15,0.02,0.31,0.02,0.46c-0.02,1.1-0.02,2.21-0.02,3.31
	C207.33,244.97,207.42,249.36,207.31,253.74z M195.72,272.28h-0.07c-0.15-0.01-0.3-0.01-0.45-0.02c0.1-0.01,0.19-0.01,0.28-0.01
	h0.81c0.01,0.01,0.01,0.01,0.02,0h0.01c1.46,0.01,2.91,0.02,4.37,0.02C199.03,272.29,197.37,272.34,195.72,272.28z M256.04,338.92
	v-4.96c7.04-0.03,14.16-2.56,19.86-7.76c5.95-5.43,8.93-12.36,9.6-20.33c2.74,0.45,3.22,0.12,3.13-2.57
	c-0.22-6.73-2.4-12.8-6.4-18.22c-6.47-8.77-16.33-13.22-26.19-13.26v-9.87c7.33-0.05,14.68-2.67,19.95-7.69
	c5.36-5.11,8.3-11.34,9.3-18.59c0.13-0.92-0.2-2.23,1.7-1.53c0.89,0.33,1.65-0.57,1.66-1.69c0.01-1.59-0.15-3.16-0.39-4.76
	c-2.44-16.22-15.79-27.4-32.15-27.87h-0.07v-9.64c9.55-0.06,18.86-4.79,24.59-13.35c3-4.48,4.24-9.54,4.88-14.79
	c2.72,0.45,3.12,0.11,3.14-2.57c0.02-2.23-0.42-4.39-0.93-6.53c-3.5-14.74-16.86-24.89-31.68-24.95v-4.83
	c10.64,0,21.27,0,31.91,0.01c3.65,0,5.38,1.75,5.72,5.69c0.05,0.61,0.01,1.22,0.01,1.83V331.3c0,0.61,0.04,1.23-0.01,1.83
	c-0.29,3.94-2.21,5.78-6.15,5.78C277.03,338.92,266.53,338.92,256.04,338.92z M306.46,200.34c3.31,0,6.6,0.02,9.88-0.01
	C313.05,200.42,309.75,200.34,306.46,200.34z M306.3,200.34c-0.81,0-1.62,0.01-2.43,0.02c-0.11,0-0.18,0.25-0.4-0.01
	C304.41,200.34,305.37,200.34,306.3,200.34z"/>
<path class="st5" d="M298.36,128.4c0.01-6.28-5.21-10.27-10.44-10.27c-10.63,0.01-21.25,0.02-31.88,0.02c-10.75,0-21.5,0-32.24-0.01
	c-5.9-0.01-10.41,4.58-10.38,10.3c0.18,34.05,0.09,68.1,0.09,102.14c0,34.51-0.01,69.01,0,103.51c0.01,5.24,3.89,9.4,8.87,9.41
	c11.22,0.02,22.44,0.02,33.66,0.02c11.22,0,22.44,0,33.67,0.01c1.27,0,2.39-0.32,3.48-0.93c3.63-2.02,5.1-5.18,5.1-9.24
	C298.27,265.04,298.23,196.72,298.36,128.4z M293.67,333.13c-0.29,3.94-2.21,5.78-6.15,5.78c-10.49,0.01-20.99,0.01-31.48,0.01
	v-4.96c7.04-0.03,14.16-2.56,19.86-7.76c5.95-5.43,8.93-12.36,9.6-20.33c2.74,0.45,3.22,0.12,3.13-2.57
	c-0.22-6.73-2.4-12.8-6.4-18.22c-6.47-8.77-16.33-13.22-26.19-13.26v-9.87c7.33-0.05,14.68-2.67,19.95-7.69
	c5.36-5.11,8.3-11.34,9.3-18.59c0.13-0.92-0.2-2.23,1.7-1.53c0.89,0.33,1.65-0.57,1.66-1.69c0.01-1.59-0.15-3.16-0.39-4.76
	c-2.44-16.22-15.79-27.4-32.15-27.87h-0.07v-9.64c9.55-0.06,18.86-4.79,24.59-13.35c3-4.48,4.24-9.54,4.88-14.79
	c2.72,0.45,3.12,0.11,3.14-2.57c0.02-2.23-0.42-4.39-0.93-6.53c-3.5-14.74-16.86-24.89-31.68-24.95v-4.83
	c10.64,0,21.27,0,31.91,0.01c3.65,0,5.38,1.75,5.72,5.69c0.05,0.61,0.01,1.22,0.01,1.83V331.3
	C293.68,331.91,293.72,332.53,293.67,333.13z"/>
<path class="st6" d="M212.99,129.28c0,68.15,0,136.3,0,204.45c-0.08,0-0.15,0-0.23,0c0-68.18,0-136.36,0-204.54
	C212.84,129.22,212.92,129.25,212.99,129.28z"/>
<path class="st7" d="M293.68,331.3c0,0.61,0.04,1.23-0.01,1.83c-0.29,3.94-2.21,5.78-6.15,5.78c-10.49,0.01-20.99,0.01-31.48,0.01
	v-4.96c7.04-0.03,14.16-2.56,19.86-7.76c5.95-5.43,8.93-12.36,9.6-20.33c2.74,0.45,3.22,0.12,3.13-2.57
	c-0.22-6.73-2.4-12.8-6.4-18.22c-6.47-8.77-16.33-13.22-26.19-13.26v-9.87c7.33-0.05,14.68-2.67,19.95-7.69
	c5.36-5.11,8.3-11.34,9.3-18.59c0.13-0.92-0.2-2.23,1.7-1.53c0.89,0.33,1.65-0.57,1.66-1.69c0.01-1.59-0.15-3.16-0.39-4.76
	c-2.44-16.22-15.79-27.4-32.15-27.87h-0.07v-9.64c9.55-0.06,18.86-4.79,24.59-13.35c3-4.48,4.24-9.54,4.88-14.79
	c2.72,0.45,3.12,0.11,3.14-2.57c0.02-2.23-0.42-4.39-0.93-6.53c-3.5-14.74-16.86-24.89-31.68-24.95v-4.83
	c10.64,0,21.27,0,31.91,0.01c3.65,0,5.38,1.75,5.72,5.69c0.05,0.61,0.01,1.22,0.01,1.83L293.68,331.3L293.68,331.3z"/>
<path class="st8" d="M256.04,261.95v9.87c9.86,0.04,19.72,4.49,26.19,13.26c4,5.42,6.18,11.49,6.4,18.22
	c0.09,2.69-0.39,3.02-3.13,2.57c-0.67,7.97-3.65,14.9-9.6,20.33c-5.7,5.2-12.82,7.73-19.86,7.76v4.96c-10.73,0-21.45,0-32.18-0.01
	c-3.41,0-5.46-2.07-5.74-5.74c-0.05-0.68-0.02-1.37-0.02-2.06V130.96c0-0.69-0.04-1.38,0.02-2.06c0.32-4.05,2.1-5.72,6.17-5.73
	c10.58-0.01,21.17-0.01,31.75-0.01v4.83c14.82,0.06,28.18,10.21,31.68,24.95c0.51,2.14,0.95,4.3,0.93,6.53
	c-0.02,2.68-0.42,3.02-3.14,2.57c-0.64,5.25-1.88,10.31-4.88,14.79c-5.73,8.56-15.04,13.29-24.59,13.35v9.64h0.07
	c16.36,0.47,29.71,11.65,32.15,27.87c0.24,1.6,0.4,3.17,0.39,4.76c-0.01,1.12-0.77,2.02-1.66,1.69c-1.9-0.7-1.57,0.61-1.7,1.53
	c-1,7.25-3.94,13.48-9.3,18.59C270.72,259.28,263.37,261.9,256.04,261.95z"/>
<path class="st9" d="M288.65,159.47c-0.02,2.68-0.42,3.02-3.14,2.57c-0.64,5.25-1.88,10.31-4.88,14.79
	c-5.73,8.56-15.04,13.29-24.59,13.35c-5.22,0.03-10.52-1.34-15.34-4.24c-8.01-4.82-12.76-11.99-13.94-21.39
	c-0.17-1.29-0.02-2.85-2.31-2.51c-1.35,0.2-1.33-1.18-1.31-2.18c0.13-6.42,1.98-12.35,5.63-17.58c5.09-7.27,12.01-11.97,20.83-13.68
	c2.16-0.42,4.32-0.62,6.44-0.61c14.82,0.06,28.18,10.21,31.68,24.95C288.23,155.08,288.67,157.24,288.65,159.47z"/>
<path class="st9" d="M285.5,305.87c-0.67,7.97-3.65,14.9-9.6,20.33c-5.7,5.2-12.82,7.73-19.86,7.76c-8.65,0.04-17.22-3.68-23-10.86
	c-3.58-4.46-5.82-9.39-6.33-15.11c-0.1-1.12-0.04-2.53-2.16-1.95c-1.03,0.28-1.43-1.03-1.42-2.15c0.08-5.69,1.57-11,4.47-15.85
	c5.12-8.57,12.62-13.93,22.46-15.7c1.98-0.36,3.98-0.53,5.98-0.52c9.86,0.04,19.72,4.49,26.19,13.26c4,5.42,6.18,11.49,6.4,18.22
	C288.72,305.99,288.24,306.32,285.5,305.87z"/>
<path class="st9" d="M288.65,232.45c-0.01,1.12-0.77,2.02-1.66,1.69c-1.9-0.7-1.57,0.61-1.7,1.53c-1,7.25-3.94,13.48-9.3,18.59
	c-5.27,5.02-12.62,7.64-19.95,7.69c-5.51,0.03-11-1.38-15.61-4.3c-8.79-5.57-13.09-13.65-14.15-23.73
	c-2.69,0.51-3.28,0.12-3.11-2.58c0.71-11.6,5.99-20.54,15.81-26.77c5.21-3.3,11.04-4.91,17.06-4.75h0.07
	c16.36,0.47,29.71,11.65,32.15,27.87C288.5,229.29,288.66,230.86,288.65,232.45z"/>
<path class="st10" d="M281.77,159.82c0.64,6.21-1.34,11.74-4.99,16.55c-5.38,7.09-12.75,10.72-21.67,10.41
	c-9.28-0.32-16.52-4.64-21.49-12.5c-2.77-4.38-4.2-9.2-3.61-14.47c0.93-1.15,1.29-3.02,3.4-2.64c0.32,0.53,0.31,1.09,0.2,1.67
	c-0.32,0.99-0.3,1.97,0.03,2.95c0.4,10.73,9.33,19.92,19.94,21.03c6.43,0.67,12.01-1.26,16.85-5.45c5.27-4.56,7.93-10.28,7.54-17.32
	c-0.05-0.97-0.15-1.99,0.38-2.9c0.99-0.76,1.45,0.11,2.02,0.65C280.99,158.37,281.23,159.2,281.77,159.82z"/>
<path class="st11" d="M281.77,159.82c-1.55-0.35-1.65-2.4-3.2-2.75c-0.5-0.36-0.66-0.92-0.88-1.45c-1.68-5.76-4.71-10.55-9.93-13.75
	c-9.48-5.82-21.48-4.06-28.64,4.23c-2.36,2.73-3.77,5.87-5,9.17c-0.31,0.59-0.33,1.34-0.92,1.8c-1.07,0.91-2.14,1.83-3.2,2.74
	c-0.27-13.44,12.17-25.67,26.65-25.26C269.82,134.93,282,146.43,281.77,159.82z"/>
<path class="st12" d="M281.81,306.91c-0.29,10.61-9.08,20.6-20.38,23.15c-14.33,3.24-28.97-6.61-31.35-21.1
	c-0.11-0.67-0.08-1.37-0.11-2.05c-0.46-3.47,0.48-5.23,3.24-6.1c0.99,1.2,0.61,2.63,0.59,3.96c-0.16,12.91,11.07,22.57,23.1,22.07
	c11.25-0.46,20.7-9.96,21.07-21.11c0.05-1.52,0-3.05,0.26-4.55c0.7-0.98,1.29-0.38,1.84,0.17c0.59,0.59,1,1.35,1.72,1.81l-0.01,0.01
	C282.13,304.42,282.1,305.66,281.81,306.91z"/>
<path class="st13" d="M281.8,303.17c-0.92,0.6-1.03-0.4-1.49-0.73c-0.63-0.46-0.74-1.5-1.74-1.53c-0.44-0.23-0.67-0.62-0.87-1.05
	c-0.89-3.51-2.21-6.82-4.65-9.57c-7.21-8.12-18.94-10.59-28.38-4.88c-4.87,2.94-8.2,6.95-9.86,12.37c-0.25,0.8-0.59,1.57-0.95,2.33
	c-0.14,0.33-0.33,0.61-0.64,0.8c-2.06,1.48-3.61,3.23-3.24,6.01c-0.82-3.37-0.08-6.66,0.85-9.82c5.64-19.04,29.89-25.09,43.72-10.88
	C279.07,290.86,281.92,296.43,281.8,303.17z"/>
<path class="st13" d="M284.81,306.91c-0.01-1.25-0.01-2.49-0.02-3.74C285.43,304.42,285.36,305.66,284.81,306.91z"/>
<path class="st10" d="M281.77,231.74c1.07,2.94-0.05,5.75-0.84,8.43c-2.76,9.39-9.23,15.48-18.51,17.82
	c-12.84,3.24-25.16-2.68-30.59-15.03c-1.59-3.61-2.84-7.54-1.82-11.68c1.1-0.79,1.49-2.73,3.44-2.14c0.59,1.23,0.41,2.56,0.34,3.83
	c-0.53,9.82,7.88,19.54,17.74,21.47c7.59,1.49,14.14-0.73,19.67-5.65c4.02-3.57,6.09-8.5,6.93-13.86c0.44-1.47,0.34-2.96,0.1-4.45
	c-0.04-0.36,0-0.7,0.18-1.02C280.44,228.88,281.01,230.46,281.77,231.74z"/>
<path class="st11" d="M281.77,231.74c-1.24-0.52-1.68-2.16-3.21-2.29c-0.58-0.48-0.61-1.21-0.88-1.84
	c-2.71-9.61-8.99-15.29-18.81-17c-9.31-1.62-19.55,4.07-23.29,12.87c-0.57,1.33-1.05,2.69-1.5,4.07c-0.22,0.53-0.38,1.1-0.88,1.45
	c-1.24,0.52-1.68,2.16-3.2,2.29c-0.4-10.44,8.28-21.07,18.51-23.8c8.31-2.21,16.02-0.92,22.99,4.04
	c6.67,4.75,9.78,11.58,10.53,19.58C282.05,231.31,281.86,231.53,281.77,231.74z"/>
<path class="st9" d="M233.21,157.07c0.07-0.63-0.21-1.35,0.46-1.83c0.68-0.17,1.23-0.58,1.77-0.99c11.48-8.81,23.73-8.96,36.44-3.12
	c2.35,1.08,4.2,2.98,6.22,4.57c0.53,0.33,0.44,0.88,0.46,1.38c-0.11,3.63,0.3,7.27-0.91,10.86c-3.15,9.34-12.96,16.26-22.81,15.67
	c-7.24-0.43-13.22-3.72-17.46-9.48c-2.63-3.57-4.62-7.7-4.18-12.46c-0.34-0.92-0.34-1.84,0-2.75
	C233.21,158.29,233.21,157.68,233.21,157.07z"/>
<path class="st11" d="M233.21,158.9c0,0.92,0,1.84,0,2.75C232.52,160.73,232.52,159.82,233.21,158.9z"/>
<path class="st14" d="M278.11,155.69c-1.64,0.09-2.57-1.21-3.6-2.07c-3.24-2.71-7.04-3.89-11.05-4.86
	c-4.74-1.15-9.5-1.34-14.18-0.33c-4.87,1.05-9.69,2.5-13.34,6.29c-0.85,0.89-1.61,1.02-2.28,0.51c2.34-8.43,7.7-13.95,16.04-16.55
	c8.81-2.75,19.64,1.13,24.74,8.76C276.17,149.99,277.72,152.58,278.11,155.69z"/>
<path class="st15" d="M233.21,300.9c0-0.3,0-0.61,0-0.91c4.62-4.63,10.25-7.48,16.6-8.51c9.22-1.5,17.9,0.19,25.6,5.77
	c1.04,0.76,2.09,1.54,2.69,2.75c0.36,0.2,0.44,0.54,0.45,0.91c0.63,6.66-0.49,12.94-4.97,18.08c-5.51,6.32-12.43,9.5-21.04,8.14
	c-7.29-1.14-12.74-4.94-16.49-11.22C233.3,311.26,232.86,306.15,233.21,300.9z"/>
<path class="st16" d="M278.11,299.99c-4.86-3.76-10.03-6.94-16.22-7.89c-7.88-1.21-15.42-0.27-22.44,3.82
	c-2.15,1.25-3.87,3.15-6.23,4.07c1.27-2.34,1.79-4.98,3.14-7.31c4.85-8.39,16.34-13.19,25.71-10.06
	C270.63,285.48,276.47,290.78,278.11,299.99z"/>
<path class="st9" d="M233.21,228.99c0.02-0.5-0.08-1.04,0.46-1.38c4.71-4.33,10.23-7.15,16.53-8.06c10.45-1.5,19.92,0.82,27.91,8.06
	c0.66,0.49,0.38,1.2,0.45,1.84c0,0.31,0,0.61,0,0.92c0.36,1.53,0.35,3.06,0,4.58c-1.12,10.21-8.15,18.07-18.49,20.13
	c-12.16,2.43-24.11-5.74-26.65-18.12C232.9,234.4,233.26,231.65,233.21,228.99z"/>
<path class="st11" d="M278.57,234.94c0-1.53,0-3.06,0-4.58C279.28,231.89,279.27,233.42,278.57,234.94z"/>
<path class="st14" d="M278.11,227.61c-2.54-0.35-3.88-2.62-5.98-3.71c-8.56-4.44-17.38-5.58-26.63-2.45
	c-4.18,1.41-8.15,3.13-11.05,6.66c-0.31,0.37-0.6-0.18-0.78-0.49c1.3-7.83,8.7-15.41,16.91-17.32c11.96-2.78,24.2,4.54,27.45,16.41
	C278.11,226.99,278.09,227.3,278.11,227.61z"/>
<polyline class="st17" points="256.04,333.96 256.04,282.3 256.04,278.39 256.04,271.82 "/>
<polyline class="st17" points="256.04,261.95 256.04,258.85 256.04,255.49 256.04,254.9 256.04,219.67 256.04,219.12 256.04,210.33 
	256.04,209.7 256.04,206.44 256.04,199.82 "/>
<polyline class="st17" points="256.04,190.18 256.04,186.8 256.04,183.64 256.04,182.95 256.04,147.78 256.04,147.12 256.04,138.46 
	256.04,137.81 256.04,134.54 256.04,127.99 "/>
<path class="st4" d="M465,161.41c7.17-7.8,11.85-16.91,14.17-27.25v-4.58c-1.2-1.3-2.74-1.65-4.44-1.64
	c-4.27,0.02-8.54-0.08-12.8,0.05c-1.69,0.05-2.17-0.52-2.41-2.12c-0.82-5.51-4.85-9.77-10.43-10.67c-2.06-0.33-2.55-1.01-2.47-2.94
	c0.11-2.83-1.14-3.85-4.09-3.76c-0.62,0.43-1.33,0.24-2,0.24c-8.83,0-17.65,0.01-26.49,0.01c-9.37,0-18.75,0-28.12-0.01
	c-0.68,0-1.38,0.15-2.02-0.2c-2.53,0.33-2.88,2.14-2.72,4.17c0.12,1.54-0.22,2.14-1.98,2.37c-5.76,0.75-10.04,5.18-10.98,10.89
	c-0.13,0.79,0.03,1.73-0.93,2.16c-0.1,0.13-0.2,0.29-0.32,0.29c-5.5-0.04-10.99,0.18-16.49-0.1c-2.24,0.84-2.33,2.68-1.83,4.52
	c2.88,10.62,7.2,20.5,15.02,28.51c0.76,0.77,1.07,1.5,1.06,2.57c-0.04,6.09-0.02,12.17,0,18.26c0,0.81-0.22,1.68,0.36,2.42
	c0.05-0.09,0.1-0.18,0.13-0.27c-0.01,0.22-0.02,0.43-0.03,0.65c0.16,0.74,0.68,1.32,1.32,1.45c1.53,0.31,1.55,1.33,1.53,2.54
	c-0.05,2.9-0.14,5.8,0.03,8.69c0.1,1.88-0.6,2.27-2.33,2.23c-4.41-0.11-8.84-0.07-13.26-0.03c-3.22,0.04-4.64,1.56-3.84,4.67
	c2.74,10.68,7.12,20.56,14.93,28.61c0.8,0.83,1.19,1.6,1.17,2.77c-0.06,5.03-0.06,10.06,0,15.09c0.02,1.72-0.38,3.49,0.28,5.18
	c0.1-0.12,0.17-0.24,0.22-0.37c-0.01,0.36-0.02,0.73-0.04,1.09c3.75,2.21,2.78,5.86,2.82,9.21c0.01,1.14-0.1,2.29,0.03,3.41
	c0.2,1.78-0.43,2.3-2.25,2.29c-4.84-0.01-9.69-0.34-14.53,0.18c0.07,0.05,0.13,0.09,0.2,0.12c-0.19-0.01-0.37-0.03-0.56-0.06
	c-2.3,0.9-2.97,1.94-2.25,4.63c2.83,10.58,7.17,20.42,14.94,28.41c0.82,0.85,1.15,1.64,1.14,2.79c-0.05,6.18-0.02,12.36-0.03,18.54
	c0,1.51,0.14,3.12,1.66,3.73c1.55,0.6,1.76,1.56,1.68,2.94c-0.05,0.74-0.2,1.53,0.23,2.24c0.16-0.32,0.23-0.64,0.27-0.97v-0.03
	c0-0.03,0.01-0.06,0.01-0.1c0.01,0.08,0.01,0.15,0.01,0.23v0.08c0,0.54-0.05,1.08-0.21,1.62c0.73,5.39,4.84,9.71,10.45,10.59
	c1.89,0.3,2.5,0.87,2.4,2.81c-0.09,1.66,0.28,2.74,1.17,3.36h0.01c0.64,0.46,1.56,0.66,2.78,0.67c4.57,0.03,9.15,0.07,13.72-0.02
	c0.1,0,0.19,0.01,0.28,0.01c0.07,0,0.13-0.01,0.2-0.01c0.18,0,0.36,0.02,0.53,0.04c0.2-0.03,0.41-0.04,0.63-0.04
	c0.4,0,0.78,0.04,1.13,0.11h43.47c0.46-0.22,0.83-0.51,1.12-0.89c0.56-0.7,0.86-1.7,1.01-3.07c0.13-1.25,0.58-1.98,1.82-2.24
	c7.23-1.51,11.14-7.26,11.48-14.1c0.05-1.02,0.19-1.98,1.09-2.63c1.72-1.25,2.15-3.02,2.14-5.03c-0.03-5.57,0.01-11.14-0.02-16.7
	c-0.01-1.61,0.42-2.91,1.53-4.14c7.08-7.86,11.73-16.97,13.87-27.34v-4.13c-0.93-2.08-2.78-2.43-4.75-2.46
	c-3.89-0.06-7.77-0.03-11.66-0.01c-1.55,0-2.21-0.64-2.18-2.19c0.04-2.51-0.01-5.02,0.02-7.54c0.02-0.87,0.19-1.7,0.93-2.24
	c1.95-1.42,2.3-3.42,2.28-5.66c-0.05-5.41-0.01-10.82-0.02-16.23c-0.01-1.42,0.23-2.68,1.24-3.79c7.17-7.79,11.76-16.93,14.14-27.21
	v-4.58c-0.61-0.88-1.06-2.1-2.38-1.44c-0.06,0.03-0.13,0.07-0.21,0.12c-0.04,0.02-0.08,0.04-0.12,0.07c-0.07,0-0.15,0.01-0.22,0.01
	c0.01-0.07,0.01-0.13,0.01-0.19c0-0.01,0-0.01,0-0.02c0-1.53-1.39-0.96-2.13-0.99c-3.74-0.12-7.48-0.08-11.22-0.04
	c-1.64,0.02-2.37-0.61-2.32-2.29c0.06-2.36,0.01-4.73,0.02-7.1c0-1.02,0.13-2.01,1.03-2.66c1.87-1.39,2.19-3.34,2.18-5.49
	c-0.04-5.42-0.01-10.84-0.02-16.26C463.79,163.81,463.98,162.53,465,161.41z M365.32,181.38c0.01-4.2,0.01-8.4,0.01-12.47v-3.94
	c0.01,0.21,0.02,0.44,0.02,0.66c-0.02,1.09-0.02,2.18-0.02,3.28C365.33,173.06,365.41,177.22,365.32,181.38z M365.31,253.74
	c0.02-4.44,0.02-8.87,0.02-13.17v-3.77c0.02,0.15,0.02,0.31,0.02,0.46c-0.02,1.1-0.02,2.21-0.02,3.31
	C365.33,244.97,365.42,249.36,365.31,253.74z M353.72,272.28h-0.07c-0.15-0.01-0.3-0.01-0.45-0.02c0.1-0.01,0.19-0.01,0.28-0.01
	h0.81c0.01,0.01,0.01,0.01,0.02,0h0.01c1.46,0.01,2.91,0.02,4.37,0.02C357.03,272.29,355.37,272.34,353.72,272.28z M414.04,338.92
	v-4.96c7.04-0.03,14.16-2.56,19.86-7.76c5.95-5.43,8.93-12.36,9.6-20.33c2.74,0.45,3.22,0.12,3.13-2.57
	c-0.22-6.73-2.4-12.8-6.4-18.22c-6.47-8.77-16.33-13.22-26.19-13.26v-9.87c7.33-0.05,14.68-2.67,19.95-7.69
	c5.36-5.11,8.3-11.34,9.3-18.59c0.13-0.92-0.2-2.23,1.7-1.53c0.89,0.33,1.65-0.57,1.66-1.69c0.01-1.59-0.15-3.16-0.39-4.76
	c-2.44-16.22-15.79-27.4-32.15-27.87h-0.07v-9.64c9.55-0.06,18.86-4.79,24.59-13.35c3-4.48,4.24-9.54,4.88-14.79
	c2.72,0.45,3.12,0.11,3.14-2.57c0.02-2.23-0.42-4.39-0.93-6.53c-3.5-14.74-16.86-24.89-31.68-24.95v-4.83
	c10.64,0,21.27,0,31.91,0.01c3.65,0,5.38,1.75,5.72,5.69c0.05,0.61,0.01,1.22,0.01,1.83V331.3c0,0.61,0.04,1.23-0.01,1.83
	c-0.29,3.94-2.21,5.78-6.15,5.78C435.03,338.92,424.53,338.92,414.04,338.92z M464.46,200.34c3.31,0,6.6,0.02,9.88-0.01
	C471.05,200.42,467.75,200.34,464.46,200.34z M464.3,200.34c-0.81,0-1.62,0.01-2.43,0.02c-0.11,0-0.18,0.25-0.4-0.01
	C462.41,200.34,463.37,200.34,464.3,200.34z"/>
<path class="st5" d="M456.36,128.4c0.01-6.28-5.21-10.27-10.44-10.27c-10.63,0.01-21.25,0.02-31.88,0.02c-10.75,0-21.5,0-32.24-0.01
	c-5.9-0.01-10.41,4.58-10.38,10.3c0.18,34.05,0.09,68.1,0.09,102.14c0,34.51-0.01,69.01,0,103.51c0.01,5.24,3.89,9.4,8.87,9.41
	c11.22,0.02,22.44,0.02,33.66,0.02s22.44,0,33.67,0.01c1.27,0,2.39-0.32,3.48-0.93c3.63-2.02,5.1-5.18,5.1-9.24
	C456.27,265.04,456.23,196.72,456.36,128.4z M451.67,333.13c-0.29,3.94-2.21,5.78-6.15,5.78c-10.49,0.01-20.99,0.01-31.48,0.01
	v-4.96c7.04-0.03,14.16-2.56,19.86-7.76c5.95-5.43,8.93-12.36,9.6-20.33c2.74,0.45,3.22,0.12,3.13-2.57
	c-0.22-6.73-2.4-12.8-6.4-18.22c-6.47-8.77-16.33-13.22-26.19-13.26v-9.87c7.33-0.05,14.68-2.67,19.95-7.69
	c5.36-5.11,8.3-11.34,9.3-18.59c0.13-0.92-0.2-2.23,1.7-1.53c0.89,0.33,1.65-0.57,1.66-1.69c0.01-1.59-0.15-3.16-0.39-4.76
	c-2.44-16.22-15.79-27.4-32.15-27.87h-0.07v-9.64c9.55-0.06,18.86-4.79,24.59-13.35c3-4.48,4.24-9.54,4.88-14.79
	c2.72,0.45,3.12,0.11,3.14-2.57c0.02-2.23-0.42-4.39-0.93-6.53c-3.5-14.74-16.86-24.89-31.68-24.95v-4.83
	c10.64,0,21.27,0,31.91,0.01c3.65,0,5.38,1.75,5.72,5.69c0.05,0.61,0.01,1.22,0.01,1.83V331.3
	C451.68,331.91,451.72,332.53,451.67,333.13z"/>
<path class="st6" d="M370.99,129.28c0,68.15,0,136.3,0,204.45c-0.08,0-0.15,0-0.23,0c0-68.18,0-136.36,0-204.54
	C370.84,129.22,370.92,129.25,370.99,129.28z"/>
<path class="st7" d="M451.68,331.3c0,0.61,0.04,1.23-0.01,1.83c-0.29,3.94-2.21,5.78-6.15,5.78c-10.49,0.01-20.99,0.01-31.48,0.01
	v-4.96c7.04-0.03,14.16-2.56,19.86-7.76c5.95-5.43,8.93-12.36,9.6-20.33c2.74,0.45,3.22,0.12,3.13-2.57
	c-0.22-6.73-2.4-12.8-6.4-18.22c-6.47-8.77-16.33-13.22-26.19-13.26v-9.87c7.33-0.05,14.68-2.67,19.95-7.69
	c5.36-5.11,8.3-11.34,9.3-18.59c0.13-0.92-0.2-2.23,1.7-1.53c0.89,0.33,1.65-0.57,1.66-1.69c0.01-1.59-0.15-3.16-0.39-4.76
	c-2.44-16.22-15.79-27.4-32.15-27.87h-0.07v-9.64c9.55-0.06,18.86-4.79,24.59-13.35c3-4.48,4.24-9.54,4.88-14.79
	c2.72,0.45,3.12,0.11,3.14-2.57c0.02-2.23-0.42-4.39-0.93-6.53c-3.5-14.74-16.86-24.89-31.68-24.95v-4.83
	c10.64,0,21.27,0,31.91,0.01c3.65,0,5.38,1.75,5.72,5.69c0.05,0.61,0.01,1.22,0.01,1.83L451.68,331.3L451.68,331.3z"/>
<path class="st8" d="M414.04,261.95v9.87c9.86,0.04,19.72,4.49,26.19,13.26c4,5.42,6.18,11.49,6.4,18.22
	c0.09,2.69-0.39,3.02-3.13,2.57c-0.67,7.97-3.65,14.9-9.6,20.33c-5.7,5.2-12.82,7.73-19.86,7.76v4.96c-10.73,0-21.45,0-32.18-0.01
	c-3.41,0-5.46-2.07-5.74-5.74c-0.05-0.68-0.02-1.37-0.02-2.06V130.96c0-0.69-0.04-1.38,0.02-2.06c0.32-4.05,2.1-5.72,6.17-5.73
	c10.58-0.01,21.17-0.01,31.75-0.01v4.83c14.82,0.06,28.18,10.21,31.68,24.95c0.51,2.14,0.95,4.3,0.93,6.53
	c-0.02,2.68-0.42,3.02-3.14,2.57c-0.64,5.25-1.88,10.31-4.88,14.79c-5.73,8.56-15.04,13.29-24.59,13.35v9.64h0.07
	c16.36,0.47,29.71,11.65,32.15,27.87c0.24,1.6,0.4,3.17,0.39,4.76c-0.01,1.12-0.77,2.02-1.66,1.69c-1.9-0.7-1.57,0.61-1.7,1.53
	c-1,7.25-3.94,13.48-9.3,18.59C428.72,259.28,421.37,261.9,414.04,261.95z"/>
<path class="st9" d="M446.65,159.47c-0.02,2.68-0.42,3.02-3.14,2.57c-0.64,5.25-1.88,10.31-4.88,14.79
	c-5.73,8.56-15.04,13.29-24.59,13.35c-5.22,0.03-10.52-1.34-15.34-4.24c-8.01-4.82-12.76-11.99-13.94-21.39
	c-0.17-1.29-0.02-2.85-2.31-2.51c-1.35,0.2-1.33-1.18-1.31-2.18c0.13-6.42,1.98-12.35,5.63-17.58c5.09-7.27,12.01-11.97,20.83-13.68
	c2.16-0.42,4.32-0.62,6.44-0.61c14.82,0.06,28.18,10.21,31.68,24.95C446.23,155.08,446.67,157.24,446.65,159.47z"/>
<path class="st9" d="M443.5,305.87c-0.67,7.97-3.65,14.9-9.6,20.33c-5.7,5.2-12.82,7.73-19.86,7.76c-8.65,0.04-17.22-3.68-23-10.86
	c-3.58-4.46-5.82-9.39-6.33-15.11c-0.1-1.12-0.04-2.53-2.16-1.95c-1.03,0.28-1.43-1.03-1.42-2.15c0.08-5.69,1.57-11,4.47-15.85
	c5.12-8.57,12.62-13.93,22.46-15.7c1.98-0.36,3.98-0.53,5.98-0.52c9.86,0.04,19.72,4.49,26.19,13.26c4,5.42,6.18,11.49,6.4,18.22
	C446.72,305.99,446.24,306.32,443.5,305.87z"/>
<path class="st9" d="M446.65,232.45c-0.01,1.12-0.77,2.02-1.66,1.69c-1.9-0.7-1.57,0.61-1.7,1.53c-1,7.25-3.94,13.48-9.3,18.59
	c-5.27,5.02-12.62,7.64-19.95,7.69c-5.51,0.03-11-1.38-15.61-4.3c-8.79-5.57-13.09-13.65-14.15-23.73
	c-2.69,0.51-3.28,0.12-3.11-2.58c0.71-11.6,5.99-20.54,15.81-26.77c5.21-3.3,11.04-4.91,17.06-4.75h0.07
	c16.36,0.47,29.71,11.65,32.15,27.87C446.5,229.29,446.66,230.86,446.65,232.45z"/>
<path class="st10" d="M439.77,159.82c0.64,6.21-1.34,11.74-4.99,16.55c-5.38,7.09-12.75,10.72-21.67,10.41
	c-9.28-0.32-16.52-4.64-21.49-12.5c-2.77-4.38-4.2-9.2-3.61-14.47c0.93-1.15,1.29-3.02,3.4-2.64c0.32,0.53,0.31,1.09,0.2,1.67
	c-0.32,0.99-0.3,1.97,0.03,2.95c0.4,10.73,9.33,19.92,19.94,21.03c6.43,0.67,12.01-1.26,16.85-5.45c5.27-4.56,7.93-10.28,7.54-17.32
	c-0.05-0.97-0.15-1.99,0.38-2.9c0.99-0.76,1.45,0.11,2.02,0.65C438.99,158.37,439.23,159.2,439.77,159.82z"/>
<path class="st11" d="M439.77,159.82c-1.55-0.35-1.65-2.4-3.2-2.75c-0.5-0.36-0.66-0.92-0.88-1.45c-1.68-5.76-4.71-10.55-9.93-13.75
	c-9.48-5.82-21.48-4.06-28.64,4.23c-2.36,2.73-3.77,5.87-5,9.17c-0.31,0.59-0.33,1.34-0.92,1.8c-1.07,0.91-2.14,1.83-3.2,2.74
	c-0.27-13.44,12.16-25.67,26.65-25.26C427.82,134.93,440,146.43,439.77,159.82z"/>
<path class="st12" d="M439.81,306.91c-0.29,10.61-9.08,20.6-20.38,23.15c-14.33,3.24-28.97-6.61-31.35-21.1
	c-0.11-0.67-0.08-1.37-0.11-2.05c-0.46-3.47,0.48-5.23,3.24-6.1c0.99,1.2,0.61,2.63,0.59,3.96c-0.16,12.91,11.07,22.57,23.1,22.07
	c11.25-0.46,20.7-9.96,21.07-21.11c0.05-1.52,0-3.05,0.26-4.55c0.7-0.98,1.29-0.38,1.84,0.17c0.59,0.59,1,1.35,1.72,1.81l-0.01,0.01
	C440.13,304.42,440.1,305.66,439.81,306.91z"/>
<path class="st13" d="M439.8,303.17c-0.92,0.6-1.03-0.4-1.49-0.73c-0.63-0.46-0.74-1.5-1.74-1.53c-0.44-0.23-0.67-0.62-0.87-1.05
	c-0.89-3.51-2.21-6.82-4.65-9.57c-7.21-8.12-18.94-10.59-28.38-4.88c-4.87,2.94-8.2,6.95-9.86,12.37c-0.25,0.8-0.59,1.57-0.95,2.33
	c-0.14,0.33-0.33,0.61-0.64,0.8c-2.06,1.48-3.61,3.23-3.24,6.01c-0.82-3.37-0.08-6.66,0.85-9.82c5.64-19.04,29.89-25.09,43.72-10.88
	C437.07,290.86,439.92,296.43,439.8,303.17z"/>
<path class="st13" d="M439.81,306.91c-0.01-1.25-0.01-2.49-0.02-3.74C440.43,304.42,440.36,305.66,439.81,306.91z"/>
<path class="st10" d="M439.77,231.74c1.07,2.94-0.05,5.75-0.84,8.43c-2.76,9.39-9.23,15.48-18.51,17.82
	c-12.84,3.24-25.16-2.68-30.59-15.03c-1.59-3.61-2.84-7.54-1.82-11.68c1.1-0.79,1.49-2.73,3.44-2.14c0.59,1.23,0.41,2.56,0.34,3.83
	c-0.53,9.82,7.88,19.54,17.74,21.47c7.59,1.49,14.14-0.73,19.67-5.65c4.02-3.57,6.09-8.5,6.93-13.86c0.44-1.47,0.34-2.96,0.1-4.45
	c-0.04-0.36,0-0.7,0.18-1.02C438.44,228.88,439.01,230.46,439.77,231.74z"/>
<path class="st11" d="M439.77,231.74c-1.24-0.52-1.68-2.16-3.21-2.29c-0.58-0.48-0.61-1.21-0.88-1.84
	c-2.71-9.61-8.99-15.29-18.81-17c-9.31-1.62-19.55,4.07-23.29,12.87c-0.57,1.33-1.05,2.69-1.5,4.07c-0.22,0.53-0.38,1.1-0.88,1.45
	c-1.24,0.52-1.68,2.16-3.2,2.29c-0.4-10.44,8.28-21.07,18.51-23.8c8.31-2.21,16.02-0.92,22.99,4.04
	c6.67,4.75,9.78,11.58,10.53,19.58C440.05,231.31,439.86,231.53,439.77,231.74z"/>
<path class="st9" d="M391.21,157.07c0.07-0.63-0.21-1.35,0.46-1.83c0.68-0.17,1.23-0.58,1.77-0.99c11.48-8.81,23.73-8.96,36.44-3.12
	c2.35,1.08,4.2,2.98,6.22,4.57c0.53,0.33,0.44,0.88,0.46,1.38c-0.11,3.63,0.3,7.27-0.91,10.86c-3.15,9.34-12.96,16.26-22.81,15.67
	c-7.24-0.43-13.22-3.72-17.46-9.48c-2.63-3.57-4.62-7.7-4.18-12.46c-0.34-0.92-0.34-1.84,0-2.75
	C391.21,158.29,391.21,157.68,391.21,157.07z"/>
<path class="st11" d="M391.21,158.9c0,0.92,0,1.84,0,2.75C390.52,160.73,390.52,159.82,391.21,158.9z"/>
<path class="st14" d="M436.11,155.69c-1.64,0.09-2.57-1.21-3.6-2.07c-3.24-2.71-7.04-3.89-11.05-4.86
	c-4.74-1.15-9.5-1.34-14.18-0.33c-4.87,1.05-9.69,2.5-13.34,6.29c-0.85,0.89-1.61,1.02-2.28,0.51c2.34-8.43,7.7-13.95,16.04-16.55
	c8.81-2.75,19.64,1.13,24.74,8.76C434.17,149.99,435.72,152.58,436.11,155.69z"/>
<path class="st15" d="M391.21,300.9c0-0.3,0-0.61,0-0.91c4.62-4.63,10.25-7.48,16.6-8.51c9.22-1.5,17.9,0.19,25.6,5.77
	c1.04,0.76,2.09,1.54,2.69,2.75c0.36,0.2,0.44,0.54,0.45,0.91c0.63,6.66-0.49,12.94-4.97,18.08c-5.51,6.32-12.43,9.5-21.04,8.14
	c-7.29-1.14-12.74-4.94-16.49-11.22C391.3,311.26,390.86,306.15,391.21,300.9z"/>
<path class="st16" d="M436.11,299.99c-4.86-3.76-10.03-6.94-16.22-7.89c-7.88-1.21-15.42-0.27-22.44,3.82
	c-2.15,1.25-3.87,3.15-6.23,4.07c1.27-2.34,1.79-4.98,3.14-7.31c4.85-8.39,16.34-13.19,25.71-10.06
	C428.63,285.48,434.47,290.78,436.11,299.99z"/>
<path class="st9" d="M391.21,228.99c0.02-0.5-0.08-1.04,0.46-1.38c4.71-4.33,10.23-7.15,16.53-8.06c10.45-1.5,19.92,0.82,27.91,8.06
	c0.66,0.49,0.38,1.2,0.45,1.84c0,0.31,0,0.61,0,0.92c0.36,1.53,0.35,3.06,0,4.58c-1.12,10.21-8.15,18.07-18.49,20.13
	c-12.16,2.43-24.11-5.74-26.65-18.12C390.9,234.4,391.26,231.65,391.21,228.99z"/>
<path class="st11" d="M436.57,234.94c0-1.53,0-3.06,0-4.58C437.28,231.89,437.27,233.42,436.57,234.94z"/>
<path class="st14" d="M436.11,227.61c-2.54-0.35-3.88-2.62-5.98-3.71c-8.56-4.44-17.38-5.58-26.63-2.45
	c-4.18,1.41-8.15,3.13-11.05,6.66c-0.31,0.37-0.6-0.18-0.78-0.49c1.3-7.83,8.7-15.41,16.91-17.32c11.96-2.78,24.2,4.54,27.45,16.41
	C436.11,226.99,436.09,227.3,436.11,227.61z"/>
<polyline class="st17" points="414.04,333.96 414.04,282.3 414.04,278.39 414.04,271.82 "/>
<polyline class="st17" points="414.04,261.95 414.04,258.85 414.04,255.49 414.04,254.9 414.04,219.67 414.04,219.12 414.04,210.33 
	414.04,209.7 414.04,206.44 414.04,199.82 "/>
<polyline class="st17" points="414.04,190.18 414.04,186.8 414.04,183.64 414.04,182.95 414.04,147.78 414.04,147.12 414.04,138.46 
	414.04,137.81 414.04,134.54 414.04,127.99 "/>
</svg>
