<?xml version="1.0" encoding="utf-8"?>
<!-- Generator: Adobe Illustrator 24.0.1, SVG Export Plug-In . SVG Version: 6.00 Build 0)  -->
<svg version="1.1" id="Layer_1" xmlns="http://www.w3.org/2000/svg" xmlns:xlink="http://www.w3.org/1999/xlink" x="0px" y="0px"
	 viewBox="0 0 500 500" style="enable-background:new 0 0 500 500;" xml:space="preserve">
<style type="text/css">
	.st0{fill:#006A4E;}
	.st1{fill:#FCFCFC;}
	.st2{fill:#FEFEFE;}
	.st3{fill:#2E856E;}
	.st4{fill:#EAEAEA;}
	.st5{fill:#FAFAFA;}
	.st6{fill:#F4F4F4;}
	.st7{fill:#8ABAAE;}
	.st8{fill:none;}
</style>
<path class="st0" d="M91.06,222.62c-15.03,0.09-26.35,11.35-26.38,26.26c-0.02,15.6,11.28,26.9,26.82,26.81
	c14.96-0.09,26.37-11.43,26.39-26.25C117.92,233.98,106.46,222.53,91.06,222.62z M91.13,359.15c-14.33,0.14-26.35,12.31-26.45,26.79
	c-0.1,15.1,12.05,27.51,26.73,27.33c14.49-0.18,26.42-12.17,26.49-26.62C117.97,371.65,105.67,359.02,91.13,359.15z M153.31,366.63
	c-11.28-0.14-19.95,8.09-20.18,19.14c-0.22,11.17,8.09,20,19.07,20.24c11.91,0.26,20.54-7.98,20.55-19.64
	C172.77,375.03,164.63,366.77,153.31,366.63z M153.12,229.01c-10.93-0.08-20.18,9.39-19.98,20.46c0.19,10.75,9.12,19.74,19.67,19.82
	c11.11,0.1,20.14-9.14,19.96-20.44C172.61,238.03,163.75,229.09,153.12,229.01z M200.71,228.92c-2.26,0-4.59-0.22-6.78,0.21
	c-3.45,0.66-6.17,2.76-6.05,6.49c0.11,3.72,2.89,5.71,6.4,6.18c2.55,0.35,5.17,0.16,7.76,0.17H250v-13.05H200.71z M200.28,256.35
	c-2.26,0-4.57-0.08-6.77,0.32c-3.13,0.58-5.46,2.59-5.62,5.83c-0.2,3.8,2.47,5.93,5.87,6.62c2.5,0.51,5.16,0.26,7.75,0.27H250
	v-13.04C233.42,256.34,216.85,256.35,200.28,256.35z M201.87,366.54c-2.59,0-5.19,0.02-7.78,0.08c-3.93,0.09-6.18,2.49-6.18,6.04
	c0.01,3.62,2.52,5.8,6.31,6.01c1.62,0.1,3.24,0.08,4.86,0.08H250v-12.21C233.95,366.53,217.91,366.54,201.87,366.54z M199.02,393.89
	c-2.27,0-4.6-0.1-6.78,0.38c-2.84,0.62-4.32,2.97-4.38,5.68c-0.06,2.79,1.63,5.08,4.36,5.71c2.48,0.57,5.15,0.4,7.74,0.4
	c16.68,0.01,33.36,0.01,50.04,0.01v-12.18H199.02z M90.71,85.05c-14.48,0.38-26.11,12.48-26.03,27.09
	c0.09,14.95,12.7,27.48,27.17,26.99c14.38-0.48,26.12-12.71,26.02-27.12C117.78,96.97,105.38,84.67,90.71,85.05z M91.06,222.62
	c-15.03,0.09-26.35,11.35-26.38,26.26c-0.02,15.6,11.28,26.9,26.82,26.81c14.96-0.09,26.37-11.43,26.39-26.25
	C117.92,233.98,106.46,222.53,91.06,222.62z M91.13,359.15c-14.33,0.14-26.35,12.31-26.45,26.79c-0.1,15.1,12.05,27.51,26.73,27.33
	c14.49-0.18,26.42-12.17,26.49-26.62C117.97,371.65,105.67,359.02,91.13,359.15z M152.96,92.3c-11-0.02-19.65,8.39-19.83,19.27
	c-0.18,11.56,8.33,20.16,19.91,20.11c11.32-0.04,19.53-8.03,19.71-19.2C172.95,100.88,164.55,92.32,152.96,92.3z M153.31,366.63
	c-11.28-0.14-19.95,8.09-20.18,19.14c-0.22,11.17,8.09,20,19.07,20.24c11.91,0.26,20.54-7.98,20.55-19.64
	C172.77,375.03,164.63,366.77,153.31,366.63z M153.12,229.01c-10.93-0.08-20.18,9.39-19.98,20.46c0.19,10.75,9.12,19.74,19.67,19.82
	c11.11,0.1,20.14-9.14,19.96-20.44C172.61,238.03,163.75,229.09,153.12,229.01z M200.71,228.92c-2.26,0-4.59-0.22-6.78,0.21
	c-3.45,0.66-6.17,2.76-6.05,6.49c0.11,3.72,2.89,5.71,6.4,6.18c2.55,0.35,5.17,0.16,7.76,0.17H250v-13.05H200.71z M200.28,256.35
	c-2.26,0-4.57-0.08-6.77,0.32c-3.13,0.58-5.46,2.59-5.62,5.83c-0.2,3.8,2.47,5.93,5.87,6.62c2.5,0.51,5.16,0.26,7.75,0.27H250
	v-13.04C233.42,256.34,216.85,256.35,200.28,256.35z M201.87,366.54c-2.59,0-5.19,0.02-7.78,0.08c-3.93,0.09-6.18,2.49-6.18,6.04
	c0.01,3.62,2.52,5.8,6.31,6.01c1.62,0.1,3.24,0.08,4.86,0.08H250v-12.21C233.95,366.53,217.91,366.54,201.87,366.54z M199.02,393.89
	c-2.27,0-4.6-0.1-6.78,0.38c-2.84,0.62-4.32,2.97-4.38,5.68c-0.06,2.79,1.63,5.08,4.36,5.71c2.48,0.57,5.15,0.4,7.74,0.4
	c16.68,0.01,33.36,0.01,50.04,0.01v-12.18H199.02z M250,48.54c-61.09,0-122.18,0.01-183.27,0.06C46.19,48.61,36.27,55.94,30,74.95
	v73.97c6.37,19.3,15.78,26.08,36.58,26.33c3.56,0.04,7.13,0.01,10.69,0.01c48.93,0,97.86,0,146.79,0.01c3.55,0,7.13-0.21,10.63,0.69
	c2.08,0.54,3.45,1.74,3.47,4.03c0.02,2.28-1.33,3.52-3.39,4.1c-3.81,1.07-7.72,0.75-11.6,0.75c-51.52,0.04-103.04-0.15-154.56,0.1
	c-21.47,0.11-32.15,8.21-38.61,28.21v72.01c6.47,20,17.14,27.82,38.63,28.26c3.56,0.07,7.13,0.03,10.69,0.03
	c48.62,0.01,97.24-0.07,145.86,0.13c4.6,0.02,12.59-2.45,12.47,4.79c-0.11,7.12-8.09,4.52-12.7,4.54
	c-52.83,0.22-105.66,0.05-158.49,0.18c-21.19,0.05-29.94,6.54-36.46,26.3v73.96c2.77,13.47,11.44,21.35,24.17,25.22
	c5.02,1.54,10.29,1.18,15.47,1.18c60.12,0.01,120.24,0.01,180.36,0.01v-14.79c-60.78,0-121.56,0-182.34-0.02
	c-16.38-0.01-24.76-8.06-24.94-24.12c-0.19-16.53-0.19-33.06,0-49.59c0.17-15.55,8.45-23.49,24.35-23.51
	c60.63-0.04,121.27-0.02,181.9-0.02H250v-39.93c-32.52-0.01-65.05-0.01-97.57-0.01c-27.91,0-55.82,0.07-83.72-0.02
	c-18.44-0.06-25.94-7.61-26.02-26c-0.07-15.24-0.07-30.49,0-45.73c0.07-17.81,7.57-25.43,25.49-25.45
	c60.36-0.08,120.71-0.03,181.07-0.03H250v-39.95h-1.5c-59.99,0-119.98,0.02-179.97,0c-18.24-0.01-25.76-7.59-25.84-26.04
	c-0.07-15.88-0.17-31.76,0.03-47.64c0.2-15.1,8.52-23.52,23.46-23.53c61.27-0.04,122.55-0.05,183.82-0.05V48.54z M192.24,394.27
	c-2.84,0.62-4.32,2.97-4.38,5.68c-0.06,2.79,1.63,5.08,4.36,5.71c2.48,0.57,5.15,0.4,7.74,0.4c16.68,0.01,33.36,0.01,50.04,0.01
	v-12.18h-50.98C196.75,393.89,194.42,393.79,192.24,394.27z M194.09,366.62c-3.93,0.09-6.18,2.49-6.18,6.04
	c0.01,3.62,2.52,5.8,6.31,6.01c1.62,0.1,3.24,0.08,4.86,0.08H250v-12.21c-16.05-0.01-32.09,0-48.13,0
	C199.28,366.54,196.68,366.56,194.09,366.62z M193.51,256.67c-3.13,0.58-5.46,2.59-5.62,5.83c-0.2,3.8,2.47,5.93,5.87,6.62
	c2.5,0.51,5.16,0.26,7.75,0.27H250v-13.04c-16.58-0.01-33.15,0-49.72,0C198.02,256.35,195.71,256.27,193.51,256.67z M193.93,229.13
	c-3.45,0.66-6.17,2.76-6.05,6.49c0.11,3.72,2.89,5.71,6.4,6.18c2.55,0.35,5.17,0.16,7.76,0.17H250v-13.05h-49.29
	C198.45,228.92,196.12,228.7,193.93,229.13z M133.14,249.47c0.19,10.75,9.12,19.74,19.67,19.82c11.11,0.1,20.14-9.14,19.96-20.44
	c-0.16-10.82-9.02-19.76-19.65-19.84C142.19,228.93,132.94,238.4,133.14,249.47z M133.13,385.77c-0.22,11.17,8.09,20,19.07,20.24
	c11.91,0.26,20.54-7.98,20.55-19.64c0.02-11.34-8.12-19.6-19.44-19.74C142.03,366.49,133.36,374.72,133.13,385.77z M133.13,111.57
	c-0.18,11.56,8.33,20.16,19.91,20.11c11.32-0.04,19.53-8.03,19.71-19.2c0.2-11.6-8.2-20.16-19.79-20.18
	C141.96,92.28,133.31,100.69,133.13,111.57z M64.68,385.94c-0.1,15.1,12.05,27.51,26.73,27.33c14.49-0.18,26.42-12.17,26.49-26.62
	c0.07-15-12.23-27.63-26.77-27.5C76.8,359.29,64.78,371.46,64.68,385.94z M64.68,248.88c-0.02,15.6,11.28,26.9,26.82,26.81
	c14.96-0.09,26.37-11.43,26.39-26.25c0.03-15.46-11.43-26.91-26.83-26.82C76.03,222.71,64.71,233.97,64.68,248.88z M64.68,112.14
	c0.09,14.95,12.7,27.48,27.17,26.99c14.38-0.48,26.12-12.71,26.02-27.12c-0.09-15.04-12.49-27.34-27.16-26.96
	C76.23,85.43,64.6,97.53,64.68,112.14z M199.02,393.89c-2.27,0-4.6-0.1-6.78,0.38c-2.84,0.62-4.32,2.97-4.38,5.68
	c-0.06,2.79,1.63,5.08,4.36,5.71c2.48,0.57,5.15,0.4,7.74,0.4c16.68,0.01,33.36,0.01,50.04,0.01v-12.18H199.02z M201.87,366.54
	c-2.59,0-5.19,0.02-7.78,0.08c-3.93,0.09-6.18,2.49-6.18,6.04c0.01,3.62,2.52,5.8,6.31,6.01c1.62,0.1,3.24,0.08,4.86,0.08H250
	v-12.21C233.95,366.53,217.91,366.54,201.87,366.54z M200.28,256.35c-2.26,0-4.57-0.08-6.77,0.32c-3.13,0.58-5.46,2.59-5.62,5.83
	c-0.2,3.8,2.47,5.93,5.87,6.62c2.5,0.51,5.16,0.26,7.75,0.27H250v-13.04C233.42,256.34,216.85,256.35,200.28,256.35z M200.71,228.92
	c-2.26,0-4.59-0.22-6.78,0.21c-3.45,0.66-6.17,2.76-6.05,6.49c0.11,3.72,2.89,5.71,6.4,6.18c2.55,0.35,5.17,0.16,7.76,0.17H250
	v-13.05H200.71z M153.12,229.01c-10.93-0.08-20.18,9.39-19.98,20.46c0.19,10.75,9.12,19.74,19.67,19.82
	c11.11,0.1,20.14-9.14,19.96-20.44C172.61,238.03,163.75,229.09,153.12,229.01z M153.31,366.63c-11.28-0.14-19.95,8.09-20.18,19.14
	c-0.22,11.17,8.09,20,19.07,20.24c11.91,0.26,20.54-7.98,20.55-19.64C172.77,375.03,164.63,366.77,153.31,366.63z M152.96,92.3
	c-11-0.02-19.65,8.39-19.83,19.27c-0.18,11.56,8.33,20.16,19.91,20.11c11.32-0.04,19.53-8.03,19.71-19.2
	C172.95,100.88,164.55,92.32,152.96,92.3z M91.13,359.15c-14.33,0.14-26.35,12.31-26.45,26.79c-0.1,15.1,12.05,27.51,26.73,27.33
	c14.49-0.18,26.42-12.17,26.49-26.62C117.97,371.65,105.67,359.02,91.13,359.15z M91.06,222.62c-15.03,0.09-26.35,11.35-26.38,26.26
	c-0.02,15.6,11.28,26.9,26.82,26.81c14.96-0.09,26.37-11.43,26.39-26.25C117.92,233.98,106.46,222.53,91.06,222.62z M90.71,85.05
	c-14.48,0.38-26.11,12.48-26.03,27.09c0.09,14.95,12.7,27.48,27.17,26.99c14.38-0.48,26.12-12.71,26.02-27.12
	C117.78,96.97,105.38,84.67,90.71,85.05z M199.02,393.89c-2.27,0-4.6-0.1-6.78,0.38c-2.84,0.62-4.32,2.97-4.38,5.68
	c-0.06,2.79,1.63,5.08,4.36,5.71c2.48,0.57,5.15,0.4,7.74,0.4c16.68,0.01,33.36,0.01,50.04,0.01v-12.18H199.02z M201.87,366.54
	c-2.59,0-5.19,0.02-7.78,0.08c-3.93,0.09-6.18,2.49-6.18,6.04c0.01,3.62,2.52,5.8,6.31,6.01c1.62,0.1,3.24,0.08,4.86,0.08H250
	v-12.21C233.95,366.53,217.91,366.54,201.87,366.54z M153.31,366.63c-11.28-0.14-19.95,8.09-20.18,19.14
	c-0.22,11.17,8.09,20,19.07,20.24c11.91,0.26,20.54-7.98,20.55-19.64C172.77,375.03,164.63,366.77,153.31,366.63z M91.13,359.15
	c-14.33,0.14-26.35,12.31-26.45,26.79c-0.1,15.1,12.05,27.51,26.73,27.33c14.49-0.18,26.42-12.17,26.49-26.62
	C117.97,371.65,105.67,359.02,91.13,359.15z"/>
<path class="st1" d="M30,148.92c3.02,4.42,5.66,9.16,9.12,13.18c7.82,9.09,18.4,11.02,29.84,10.99
	c55.08-0.13,110.16-0.04,165.24-0.09c4.67,0,8.62-0.7,8.64,6.57c0.01,6.8-1.76,8.48-8.54,8.44c-53.14-0.3-106.28,0.45-159.41-0.47
	c-21-0.36-36.37,5.76-44.9,25.6C30,191.74,30,170.33,30,148.92z"/>
<path class="st1" d="M30,285.16c8.87,20.13,24.76,25.96,45.95,25.59c52.79-0.9,105.61-0.24,158.42-0.39
	c5.54-0.02,8.55,0.29,8.52,7.44c-0.02,7.25-3.16,7.56-8.73,7.54c-52.48-0.14-104.98,0.61-157.45-0.43
	c-21.05-0.42-37.28,4.54-46.71,24.46C30,327.98,30,306.57,30,285.16z"/>
<path class="st2" d="M117.87,112.01c0.1,14.41-11.64,26.64-26.02,27.12c-14.47,0.49-27.08-12.04-27.17-26.99
	C64.6,97.53,76.23,85.43,90.71,85.05C105.38,84.67,117.78,96.97,117.87,112.01z"/>
<path class="st2" d="M172.75,112.48c-0.18,11.17-8.39,19.16-19.71,19.2c-11.58,0.05-20.09-8.55-19.91-20.11
	c0.18-10.88,8.83-19.29,19.83-19.27C164.55,92.32,172.95,100.88,172.75,112.48z"/>
<path class="st2" d="M192.24,394.27c-2.84,0.62-4.32,2.97-4.38,5.68c-0.06,2.79,1.63,5.08,4.36,5.71c2.48,0.57,5.15,0.4,7.74,0.4
	c16.68,0.01,33.36,0.01,50.04,0.01v-12.18h-50.98C196.75,393.89,194.42,393.79,192.24,394.27z M201.87,366.54
	c-2.59,0-5.19,0.02-7.78,0.08c-3.93,0.09-6.18,2.49-6.18,6.04c0.01,3.62,2.52,5.8,6.31,6.01c1.62,0.1,3.24,0.08,4.86,0.08H250
	v-12.21C233.95,366.53,217.91,366.54,201.87,366.54z M153.31,366.63c-11.28-0.14-19.95,8.09-20.18,19.14
	c-0.22,11.17,8.09,20,19.07,20.24c11.91,0.26,20.54-7.98,20.55-19.64C172.77,375.03,164.63,366.77,153.31,366.63z M91.13,359.15
	c-14.33,0.14-26.35,12.31-26.45,26.79c-0.1,15.1,12.05,27.51,26.73,27.33c14.49-0.18,26.42-12.17,26.49-26.62
	C117.97,371.65,105.67,359.02,91.13,359.15z"/>
<path class="st2" d="M193.51,256.67c-3.13,0.58-5.46,2.59-5.62,5.83c-0.2,3.8,2.47,5.93,5.87,6.62c2.5,0.51,5.16,0.26,7.75,0.27H250
	v-13.04c-16.58-0.01-33.15,0-49.72,0C198.02,256.35,195.71,256.27,193.51,256.67z M200.71,228.92c-2.26,0-4.59-0.22-6.78,0.21
	c-3.45,0.66-6.17,2.76-6.05,6.49c0.11,3.72,2.89,5.71,6.4,6.18c2.55,0.35,5.17,0.16,7.76,0.17H250v-13.05H200.71z M153.12,229.01
	c-10.93-0.08-20.18,9.39-19.98,20.46c0.19,10.75,9.12,19.74,19.67,19.82c11.11,0.1,20.14-9.14,19.96-20.44
	C172.61,238.03,163.75,229.09,153.12,229.01z M91.06,222.62c-15.03,0.09-26.35,11.35-26.38,26.26c-0.02,15.6,11.28,26.9,26.82,26.81
	c14.96-0.09,26.37-11.43,26.39-26.25C117.92,233.98,106.46,222.53,91.06,222.62z"/>
<g>
	<path class="st3" d="M192.82,92.53c2.53-0.43,5.17-0.29,7.76-0.29H250V63.33c-61.27,0-122.55,0.01-183.82,0.05
		c-14.94,0.01-23.26,8.43-23.46,23.53c-0.2,15.88-0.1,31.76-0.03,47.64c0.08,18.45,7.6,26.03,25.84,26.04
		c59.99,0.02,119.98,0,179.97,0h1.5v-28.82h-48.92c-2.59,0-5.19,0.01-7.77-0.19c-3.48-0.26-5.28-2.7-5.42-5.77
		c-0.15-3.22,1.96-5.52,5.2-5.99c2.87-0.41,5.83-0.26,8.74-0.26H250v-15.13c-16.54,0-33.09,0-49.62-0.01
		c-2.59,0-5.21,0.06-7.76-0.32c-2.92-0.43-4.56-2.75-4.74-5.39C187.67,95.5,189.55,93.08,192.82,92.53z M91.85,139.13
		c-14.47,0.49-27.08-12.04-27.17-26.99C64.6,97.53,76.23,85.43,90.71,85.05c14.67-0.38,27.07,11.92,27.16,26.96
		C117.97,126.42,106.23,138.65,91.85,139.13z M153.04,131.68c-11.58,0.05-20.09-8.55-19.91-20.11c0.18-10.88,8.83-19.29,19.83-19.27
		c11.59,0.02,19.99,8.58,19.79,20.18C172.57,123.65,164.36,131.64,153.04,131.68z"/>
	<path class="st3" d="M194.09,366.62c2.59-0.06,5.19-0.08,7.78-0.08c16.04,0,32.08-0.01,48.13,0v-28.83h-1.03
		c-60.63,0-121.27-0.02-181.9,0.02c-15.9,0.02-24.18,7.96-24.35,23.51c-0.19,16.53-0.19,33.06,0,49.59
		c0.18,16.06,8.56,24.11,24.94,24.12c60.78,0.02,121.56,0.02,182.34,0.02v-28.9c-16.68,0-33.36,0-50.04-0.01
		c-2.59,0-5.26,0.17-7.74-0.4c-2.73-0.63-4.42-2.92-4.36-5.71c0.06-2.71,1.54-5.06,4.38-5.68c2.18-0.48,4.51-0.38,6.78-0.38H250
		v-15.14h-50.92c-1.62,0-3.24,0.02-4.86-0.08c-3.79-0.21-6.3-2.39-6.31-6.01C187.91,369.11,190.16,366.71,194.09,366.62z
		 M91.41,413.27c-14.68,0.18-26.83-12.23-26.73-27.33c0.1-14.48,12.12-26.65,26.45-26.79c14.54-0.13,26.84,12.5,26.77,27.5
		C117.83,401.1,105.9,413.09,91.41,413.27z M152.2,406.01c-10.98-0.24-19.29-9.07-19.07-20.24c0.23-11.05,8.9-19.28,20.18-19.14
		c11.32,0.14,19.46,8.4,19.44,19.74C172.74,398.03,164.11,406.27,152.2,406.01z"/>
	<path class="st3" d="M193.93,229.13c2.19-0.43,4.52-0.21,6.78-0.21H250v-28.38h-0.75c-60.36,0-120.71-0.05-181.07,0.03
		c-17.92,0.02-25.42,7.64-25.49,25.45c-0.07,15.24-0.07,30.49,0,45.73c0.08,18.39,7.58,25.94,26.02,26
		c27.9,0.09,55.81,0.02,83.72,0.02c32.52,0,65.05,0,97.57,0.01v-28.39h-48.49c-2.59-0.01-5.25,0.24-7.75-0.27
		c-3.4-0.69-6.07-2.82-5.87-6.62c0.16-3.24,2.49-5.25,5.62-5.83c2.2-0.4,4.51-0.32,6.77-0.32c16.57,0,33.14-0.01,49.72,0v-14.38
		h-47.96c-2.59-0.01-5.21,0.18-7.76-0.17c-3.51-0.47-6.29-2.46-6.4-6.18C187.76,231.89,190.48,229.79,193.93,229.13z M91.5,275.69
		c-15.54,0.09-26.84-11.21-26.82-26.81c0.03-14.91,11.35-26.17,26.38-26.26c15.4-0.09,26.86,11.36,26.83,26.82
		C117.87,264.26,106.46,275.6,91.5,275.69z M152.81,269.29c-10.55-0.08-19.48-9.07-19.67-19.82c-0.2-11.07,9.05-20.54,19.98-20.46
		c10.63,0.08,19.49,9.02,19.65,19.84C172.95,260.15,163.92,269.39,152.81,269.29z"/>
</g>
<g>
	<path class="st0" d="M250,92.24v12.19c-16.54,0-33.09,0-49.62-0.01c-2.59,0-5.21,0.06-7.76-0.32c-2.92-0.43-4.56-2.75-4.74-5.39
		c-0.21-3.21,1.67-5.63,4.94-6.18c2.53-0.43,5.17-0.29,7.76-0.29H250z"/>
	<path class="st0" d="M250,119.56v12.21h-48.92c-2.59,0-5.19,0.01-7.77-0.19c-3.48-0.26-5.28-2.7-5.42-5.77
		c-0.15-3.22,1.96-5.52,5.2-5.99c2.87-0.41,5.83-0.26,8.74-0.26H250z"/>
	<path class="st0" d="M117.87,112.01c0.1,14.41-11.64,26.64-26.02,27.12c-14.47,0.49-27.08-12.04-27.17-26.99
		C64.6,97.53,76.23,85.43,90.71,85.05C105.38,84.67,117.78,96.97,117.87,112.01z"/>
	<path class="st0" d="M172.75,112.48c-0.18,11.17-8.39,19.16-19.71,19.2c-11.58,0.05-20.09-8.55-19.91-20.11
		c0.18-10.88,8.83-19.29,19.83-19.27C164.55,92.32,172.95,100.88,172.75,112.48z"/>
	<path class="st0" d="M250,366.54v12.21h-50.92c-1.62,0-3.24,0.02-4.86-0.08c-3.79-0.21-6.3-2.39-6.31-6.01
		c0-3.55,2.25-5.95,6.18-6.04c2.59-0.06,5.19-0.08,7.78-0.08C217.91,366.54,233.95,366.53,250,366.54z"/>
	<path class="st0" d="M250,393.89v12.18c-16.68,0-33.36,0-50.04-0.01c-2.59,0-5.26,0.17-7.74-0.4c-2.73-0.63-4.42-2.92-4.36-5.71
		c0.06-2.71,1.54-5.06,4.38-5.68c2.18-0.48,4.51-0.38,6.78-0.38H250z"/>
	<path class="st0" d="M117.9,386.65c-0.07,14.45-12,26.44-26.49,26.62c-14.68,0.18-26.83-12.23-26.73-27.33
		c0.1-14.48,12.12-26.65,26.45-26.79C105.67,359.02,117.97,371.65,117.9,386.65z"/>
	<path class="st0" d="M172.75,386.37c-0.01,11.66-8.64,19.9-20.55,19.64c-10.98-0.24-19.29-9.07-19.07-20.24
		c0.23-11.05,8.9-19.28,20.18-19.14C164.63,366.77,172.77,375.03,172.75,386.37z"/>
	<path class="st0" d="M250,228.92v13.05h-47.96c-2.59-0.01-5.21,0.18-7.76-0.17c-3.51-0.47-6.29-2.46-6.4-6.18
		c-0.12-3.73,2.6-5.83,6.05-6.49c2.19-0.43,4.52-0.21,6.78-0.21H250z"/>
	<path class="st0" d="M250,256.35v13.04h-48.49c-2.59-0.01-5.25,0.24-7.75-0.27c-3.4-0.69-6.07-2.82-5.87-6.62
		c0.16-3.24,2.49-5.25,5.62-5.83c2.2-0.4,4.51-0.32,6.77-0.32C216.85,256.35,233.42,256.34,250,256.35z"/>
	<path class="st0" d="M117.89,249.44c-0.02,14.82-11.43,26.16-26.39,26.25c-15.54,0.09-26.84-11.21-26.82-26.81
		c0.03-14.91,11.35-26.17,26.38-26.26C106.46,222.53,117.92,233.98,117.89,249.44z"/>
	<path class="st0" d="M172.77,248.85c0.18,11.3-8.85,20.54-19.96,20.44c-10.55-0.08-19.48-9.07-19.67-19.82
		c-0.2-11.07,9.05-20.54,19.98-20.46C163.75,229.09,172.61,238.03,172.77,248.85z"/>
</g>
<g>
	<path class="st1" d="M105.67,111.93c0.13,7.53-6.53,14.17-14.28,14.22c-7.84,0.06-14.39-6.26-14.49-13.96
		c-0.09-7.66,6.33-14.02,14.23-14.1C98.93,98.01,105.54,104.31,105.67,111.93z"/>
	<path class="st4" d="M153.58,119.6c-4.82-0.12-7.6-2.87-8.02-6.98c-0.44-4.3,2.39-7.6,6.61-8.03c4.75-0.48,7.96,2.42,8.22,7.31
		C160.63,116.49,157.43,118.59,153.58,119.6z"/>
	<path class="st1" d="M105.67,387.11c-0.48,7.62-7.31,13.53-15.21,13.16c-7.82-0.37-14.01-7.11-13.57-14.77
		c0.43-7.59,7.35-13.62,15.17-13.23C99.78,372.66,106.15,379.6,105.67,387.11z"/>
	<path class="st4" d="M153.36,393.94c-4.54-0.44-7.59-2.96-7.78-7.17c-0.22-4.69,2.72-8.05,7.64-7.9c4.28,0.13,7.08,3,7.17,7.45
		C160.48,390.92,157.3,392.95,153.36,393.94z"/>
	<path class="st5" d="M91.53,263.54c-7.53,0.15-14.32-6.28-14.64-13.85c-0.32-7.82,6.74-15,14.6-14.86
		c7.44,0.13,14.15,6.9,14.24,14.37C105.82,256.55,99.04,263.39,91.53,263.54z"/>
	<path class="st6" d="M153.42,241.97c4.23,0.38,6.99,2.84,6.94,7.31c-0.05,4.51-2.89,6.98-7.44,7c-4.72,0.02-7.33-3.07-7.27-7.22
		C145.71,244.91,148.48,242.07,153.42,241.97z"/>
</g>
<g>
	<path class="st7" d="M455.37,137.56c-0.26,15.05-8.68,22.99-23.98,23.01c-60.47,0.06-120.93,0.02-181.39,0.02v-28.82h57.19
		c35.37,0,70.74,0.01,106.11,0c2.6,0,5.2-0.02,7.79-0.11c3.55-0.14,5.5-2.62,5.65-5.58c0.18-3.54-2.05-6.09-5.88-6.42
		c-2.58-0.22-5.18-0.1-7.78-0.1c-54.36-0.01-108.72-0.01-163.08,0v-15.13h56.5c35.7,0,71.4,0,107.09-0.01c2.6,0,5.2,0.04,7.78-0.15
		c3.52-0.27,5.32-2.86,5.38-5.84c0.06-2.99-1.7-5.63-5.18-5.99c-2.57-0.27-5.18-0.2-7.78-0.2c-54.6-0.01-109.19-0.01-163.79,0V63.33
		c60.65,0,121.31,0.02,181.95,0.05c14.5,0.01,23.02,8.11,23.38,22.65C455.75,103.2,455.67,120.39,455.37,137.56z"/>
	<path class="st7" d="M455.43,271.26c-0.08,18.99-7.5,26.48-26.52,26.49c-59.64,0.03-119.27,0.03-178.91,0.03v-28.39h57.5
		c35,0,70.01,0.01,105.01-0.01c2.91,0,5.87,0.14,8.72-0.31c3.14-0.51,5.42-2.77,5.59-5.89c0.2-3.68-2.31-5.94-5.84-6.58
		c-2.2-0.4-4.52-0.25-6.78-0.25c-54.74-0.01-109.47-0.01-164.2,0v-14.38h163.05c2.27,0,4.54,0.09,6.8-0.09
		c4.03-0.33,7.11-2.54,6.95-6.59c-0.15-3.96-3.23-6.13-7.31-6.33c-1.94-0.09-3.89-0.04-5.83-0.04c-54.55,0-109.11-0.01-163.66,0
		v-28.38c59.14,0,118.27-0.01,177.41,0c21.04,0.01,27.99,6.94,28.03,27.9C455.47,242.72,455.5,256.99,455.43,271.26z"/>
	<path class="st7" d="M455.42,409.79c-0.12,16.87-8.28,25.15-24.92,25.15c-60.17,0.02-120.33,0.03-180.5,0.03v-28.9h57.05
		c36.35,0,72.7-0.02,109.04,0.03c5.08,0.01,10.87,0.14,10.56-6.61c-0.27-5.99-5.86-5.64-10.53-5.64
		c-55.38,0.03-110.75,0.03-166.12,0.04v-15.14c55.39,0,110.78,0,166.18-0.01c1.94,0,3.97,0.19,5.81-0.28
		c3.14-0.81,5.14-3.25,4.77-6.4c-0.29-2.48-1.75-5.01-4.89-5.26c-2.58-0.21-5.18-0.25-7.77-0.25c-35.37-0.02-70.74-0.02-106.11-0.02
		c-19.33,0-38.66,0-57.99,0.01v-28.83c59.98,0,119.94-0.01,179.91,0.01c17.61,0.01,25.33,7.64,25.5,25.39
		C455.57,378.67,455.54,394.23,455.42,409.79z"/>
</g>
<line class="st8" x1="250" y1="487" x2="250" y2="449.76"/>
<g>
	<path class="st0" d="M468.28,420.19c-1.16,16.5-13.32,27.63-29.77,29.29c-3.55,0.35-7.13,0.27-10.7,0.27
		c-59.26,0.01-118.54,0.01-177.81,0.01v-14.79c60.17,0,120.33-0.01,180.5-0.03c16.64,0,24.8-8.28,24.92-25.15
		c0.12-15.56,0.15-31.12-0.01-46.68c-0.17-17.75-7.89-25.38-25.5-25.39c-59.97-0.02-119.93-0.01-179.91-0.01v-39.93
		c59.64,0,119.27,0,178.91-0.03c19.02-0.01,26.44-7.5,26.52-26.49c0.07-14.27,0.04-28.54,0.01-42.82
		c-0.04-20.96-6.99-27.89-28.03-27.9c-59.14-0.01-118.27,0-177.41,0v-39.95c60.46,0,120.92,0.04,181.39-0.02
		c15.3-0.02,23.72-7.96,23.98-23.01c0.3-17.17,0.38-34.36-0.04-51.53c-0.36-14.54-8.88-22.64-23.38-22.65
		c-60.64-0.03-121.3-0.05-181.95-0.05V48.54c60.57,0,121.14,0.02,181.71,0.04c5.2,0,10.4,0.16,15.31,2.18
		c13.96,5.73,21.92,15.69,22,31.19c0.1,20.43,0.5,40.87-0.11,61.29c-0.58,19.33-14.06,31.68-34.46,31.95
		c-29.84,0.41-59.69,0.11-89.54,0.13c-23.36,0.01-46.72,0-70.08,0c-2.92,0-5.85-0.11-8.75,0.24c-3.01,0.36-6.13,0.96-5.97,4.89
		c0.13,3.39,3.04,3.76,5.65,4.09c3.23,0.4,6.48,0.25,9.72,0.25c49.97,0.01,99.93,0,149.89,0.01c6.5,0,12.96,0.11,19.23,2.25
		c15.72,5.36,24.08,15.97,24.38,32.5c0.35,19.77,0.41,39.57-0.01,59.34c-0.4,18.55-12.2,31.06-31.1,34.01
		c-4.83,0.76-9.71,0.6-14.57,0.6c-48.34,0.02-96.68-0.16-145.02,0.22c-6.07,0.05-17.17-3.99-17.33,4.27
		c-0.17,8.76,10.95,4.74,16.92,4.79c49.63,0.38,99.27,0.21,148.91,0.22c4.54,0,9.1-0.17,13.61,0.4c15.26,1.9,26.45,12.5,27.74,27.86
		C470.06,374.2,469.88,397.25,468.28,420.19z"/>
	<path class="st0" d="M426.8,235.29c0.16,4.05-2.92,6.26-6.95,6.59c-2.26,0.18-4.53,0.09-6.8,0.09H250v-13.05
		c54.55-0.01,109.11,0,163.66,0c1.94,0,3.89-0.05,5.83,0.04C423.57,229.16,426.65,231.33,426.8,235.29z"/>
	<path class="st0" d="M426.82,263.18c-0.17,3.12-2.45,5.38-5.59,5.89c-2.85,0.45-5.81,0.31-8.72,0.31
		c-35,0.02-70.01,0.01-105.01,0.01H250v-13.04c54.73-0.01,109.46-0.01,164.2,0c2.26,0,4.58-0.15,6.78,0.25
		C424.51,257.24,427.02,259.5,426.82,263.18z"/>
	<path class="st0" d="M421.99,378.46c-1.84,0.47-3.87,0.28-5.81,0.28c-55.4,0.01-110.79,0.01-166.18,0.01v-12.21
		c19.33-0.01,38.66-0.01,57.99-0.01c35.37,0,70.74,0,106.11,0.02c2.59,0,5.19,0.04,7.77,0.25c3.14,0.25,4.6,2.78,4.89,5.26
		C427.13,375.21,425.13,377.65,421.99,378.46z"/>
	<path class="st0" d="M426.65,399.49c0.31,6.75-5.48,6.62-10.56,6.61c-36.34-0.05-72.69-0.03-109.04-0.03H250v-12.18
		c55.37-0.01,110.74-0.01,166.12-0.04C420.79,393.85,426.38,393.5,426.65,399.49z"/>
	<path class="st0" d="M426.74,126.08c-0.15,2.96-2.1,5.44-5.65,5.58c-2.59,0.09-5.19,0.11-7.79,0.11c-35.37,0.01-70.74,0-106.11,0
		H250v-12.21c54.36-0.01,108.72-0.01,163.08,0c2.6,0,5.2-0.12,7.78,0.1C424.69,119.99,426.92,122.54,426.74,126.08z"/>
	<path class="st0" d="M426.75,98.43c-0.06,2.98-1.86,5.57-5.38,5.84c-2.58,0.19-5.18,0.15-7.78,0.15
		c-35.69,0.01-71.39,0.01-107.09,0.01H250V92.24c54.6-0.01,109.19-0.01,163.79,0c2.6,0,5.21-0.07,7.78,0.2
		C425.05,92.8,426.81,95.44,426.75,98.43z"/>
</g>
<line class="st8" x1="250" y1="48.54" x2="250" y2="13"/>
</svg>
