<?xml version="1.0" encoding="utf-8"?>
<!-- Generator: Adobe Illustrator 24.0.1, SVG Export Plug-In . SVG Version: 6.00 Build 0)  -->
<svg version="1.1" id="Layer_1" xmlns="http://www.w3.org/2000/svg" xmlns:xlink="http://www.w3.org/1999/xlink" x="0px" y="0px"
	 viewBox="0 0 500 500" style="enable-background:new 0 0 500 500;" xml:space="preserve">
<style type="text/css">
	.st0{fill:#FDDAC3;}
	.st1{fill:#CE2124;}
	.st2{fill:#FA8989;}
	.st3{fill:#A91834;}
	.st4{fill:#840029;}
</style>
<rect x="214.81" y="263.85" class="st0" width="71.38" height="20.69"/>
<path class="st1" d="M371.01,376.09v-16.55h-29.48V214.2h28.96v-16.55h-28.96v-19.65h28.96v-16.55h-28.96v-26.9
	c0-4.57-3.71-8.28-8.28-8.28l0,0c-4.57,0-8.28,3.71-8.28,8.28v19.88c-5.55-2.95-12.8-6.16-21.8-8.91v-32.18
	c0-4.57-3.71-8.28-8.28-8.28h0c-4.57,0-8.28,3.71-8.28,8.28v28.17c-8.87-1.63-18.19-2.55-27.86-2.78V98.86
	c0-4.57-3.71-8.28-8.28-8.28h0c-4.57,0-8.28,3.71-8.28,8.28v39.87c-9.67,0.23-18.98,1.15-27.86,2.78v-28.17
	c0-4.57-3.71-8.28-8.28-8.28h0c-4.57,0-8.28,3.71-8.28,8.28v32.18c-8.99,2.75-16.25,5.95-21.8,8.91v-19.88
	c0-4.57-3.71-8.28-8.28-8.28h0c-4.57,0-8.28,3.71-8.28,8.28v26.9H130.5v16.55h28.96v19.65H130.5v16.55h28.96v145.34h-29.48v16.55
	h29.48v21.21H130.5v16.55h28.96v2.07h16.55v-2.07h21.8v2.07h16.55v-2.07h27.86v2.07h16.55v-2.07h27.86v2.07h16.55v-2.07h21.8v2.07
	h16.55v-2.07h28.96V397.3h-28.96v-21.21H371.01z M197.82,397.3h-21.8v-21.21h21.8V397.3z M197.82,359.54h-21.8V209.98
	c3.6-2.53,10.8-6.96,21.8-10.84V359.54z M197.82,181.73c-8.99,2.75-16.25,5.95-21.8,8.91v-16.86c3.6-2.53,10.8-6.96,21.8-10.84
	V181.73z M286.19,263.85v20.69h-71.38v-20.69H286.19z M258.78,155.29c9.76,0.25,19.08,1.28,27.86,3.09v19.34
	c-8.87-1.63-18.19-2.55-27.86-2.78V155.29z M286.63,194.59v52.72h-27.86v-55.81C268.53,191.75,277.85,192.78,286.63,194.59z
	 M214.37,158.38c8.78-1.81,18.1-2.84,27.86-3.09v19.65c-9.67,0.23-18.98,1.15-27.86,2.78V158.38z M242.22,191.49v55.81h-27.86
	v-52.72C223.15,192.78,232.47,191.75,242.22,191.49z M242.22,397.3h-27.86v-21.21h27.86V397.3z M214.37,359.54v-58.45h27.86v58.45
	H214.37z M286.63,397.3h-27.86v-21.21h27.86V397.3z M258.78,359.54v-58.45h27.86v58.45H258.78z M324.98,397.3h-21.8v-21.21h21.8
	V397.3z M324.98,359.54h-21.8v-160.4c11.01,3.89,18.22,8.32,21.8,10.84V359.54z M324.98,190.63c-5.55-2.95-12.8-6.16-21.8-8.91
	v-18.8c11.01,3.89,18.22,8.32,21.8,10.84V190.63z"/>
<g>
	<path class="st2" d="M100.5,140v291H74.93C70,431,66,427,66,422.07V140H100.5z"/>
	<path class="st2" d="M401.5,140v291h-25.57c-4.93,0-8.93-4-8.93-8.93V140H401.5z"/>
</g>
<g>
	<path class="st3" d="M134,140v282.07c0,4.93-4,8.93-8.93,8.93H100.5V140H134z"/>
	<path class="st3" d="M435,140v282.07c0,4.93-4,8.93-8.93,8.93H401.5V140H435z"/>
</g>
<g>
	<path class="st4" d="M141,121.5h-9.37c2.47-4.8,3.87-10.23,3.87-16c0-19.33-15.67-35-35-35s-35,15.67-35,35
		c0,5.77,1.4,11.2,3.87,16H60c-5.25,0-9.5,4.25-9.5,9.5s4.25,9.5,9.5,9.5h81c5.25,0,9.5-4.25,9.5-9.5S146.25,121.5,141,121.5z"/>
	<path class="st4" d="M359,121.5h9.37c-2.47-4.8-3.87-10.23-3.87-16c0-19.33,15.67-35,35-35s35,15.67,35,35c0,5.77-1.4,11.2-3.87,16
		H440c5.25,0,9.5,4.25,9.5,9.5s-4.25,9.5-9.5,9.5h-81c-5.25,0-9.5-4.25-9.5-9.5S353.75,121.5,359,121.5z"/>
</g>
</svg>
