<?xml version="1.0" encoding="utf-8"?>
<!-- Generator: Adobe Illustrator 24.0.1, SVG Export Plug-In . SVG Version: 6.00 Build 0)  -->
<svg version="1.1" id="Layer_1" xmlns="http://www.w3.org/2000/svg" xmlns:xlink="http://www.w3.org/1999/xlink" x="0px" y="0px"
	 viewBox="0 0 500 500" style="enable-background:new 0 0 500 500;" xml:space="preserve">
<style type="text/css">
	.st0{fill:#FDDAC3;}
	.st1{fill:#CE2124;}
	.st2{fill:#FA8989;}
	.st3{fill:#A91834;}
	.st4{fill:#840029;}
</style>
<rect x="187.81" y="263.85" class="st0" width="35.69" height="20.69"/>
<rect x="277.5" y="263.85" class="st0" width="35.69" height="20.69"/>
<path class="st1" d="M223.5,263.85V90.58h-0.03c-2.29,0-4.35,0.93-5.85,2.43c-1.5,1.49-2.43,3.57-2.43,5.85v39.87
	c-9.67,0.23-18.98,1.15-27.86,2.78v-28.17c0-4.57-3.71-8.28-8.28-8.28c-2.29,0-4.35,0.93-5.85,2.43c-1.5,1.49-2.43,3.57-2.43,5.85
	v32.18c-8.99,2.75-16.25,5.95-21.8,8.91v-19.88c0-4.57-3.71-8.28-8.28-8.28c-2.29,0-4.35,0.93-5.85,2.43s-2.43,3.56-2.43,5.85v26.9
	H103.5V178h28.96v19.65H103.5v16.55h28.96v145.34h-29.48v16.55h29.48v21.21H103.5v16.55h28.96v2.07h16.55v-2.07h21.8v2.07h16.55
	v-2.07h27.86v2.07h8.28V284.54h-35.69v-20.69H223.5z M170.82,397.3h-21.8v-21.21h21.8V397.3z M170.82,359.54h-21.8V209.98
	c3.6-2.53,10.8-6.96,21.8-10.84V359.54z M170.82,181.73c-8.99,2.75-16.25,5.95-21.8,8.91v-16.86c3.6-2.53,10.8-6.96,21.8-10.84
	V181.73z M187.37,158.38c8.78-1.81,18.1-2.84,27.86-3.09v19.65c-9.67,0.23-18.98,1.15-27.86,2.78V158.38z M215.22,397.3h-27.86
	v-21.21h27.86V397.3z M215.23,301.09v58.45h-27.86v-58.45H215.23z M187.36,247.3v-52.72c8.79-1.8,18.11-2.83,27.86-3.09v55.81
	H187.36z"/>
<path class="st1" d="M398.01,376.09v-16.55h-29.48V214.2h28.96v-16.55h-28.96V178h28.96v-16.55h-28.96v-26.9
	c0-4.57-3.71-8.28-8.28-8.28c-2.29,0-4.35,0.93-5.85,2.43s-2.43,3.56-2.43,5.85v19.88c-5.55-2.95-12.8-6.16-21.8-8.91v-32.18
	c0-4.57-3.71-8.28-8.28-8.28c-2.29,0-4.35,0.93-5.85,2.43c-1.5,1.49-2.43,3.57-2.43,5.85v28.17c-8.87-1.63-18.19-2.55-27.86-2.78
	V98.86c0-4.56-3.69-8.26-8.25-8.28v173.27h35.69v20.69H277.5v131.38h8.27v-2.07h27.86v2.07h16.55v-2.07h21.8v2.07h16.55v-2.07h28.96
	V397.3h-28.96v-21.21H398.01z M285.77,247.31V191.5c9.76,0.25,19.08,1.28,27.86,3.09v52.72H285.77z M313.63,397.3h-27.86v-21.21
	h27.86V397.3z M313.64,359.54h-27.86v-58.45h27.86V359.54z M313.64,177.72c-8.87-1.63-18.19-2.55-27.86-2.78v-19.65
	c9.76,0.25,19.08,1.28,27.86,3.09V177.72z M351.98,397.3h-21.8v-21.21h21.8V397.3z M351.98,359.54h-21.8v-160.4
	c11.01,3.89,18.22,8.32,21.8,10.84V359.54z M351.98,190.63c-5.55-2.95-12.8-6.16-21.8-8.91v-18.8c11.01,3.89,18.22,8.32,21.8,10.84
	V190.63z"/>
<g>
	<path class="st2" d="M100.5,140v291H74.93C70,431,66,427,66,422.07V140H100.5z"/>
	<path class="st2" d="M401.5,140v291h-25.57c-4.93,0-8.93-4-8.93-8.93V140H401.5z"/>
</g>
<g>
	<path class="st3" d="M134,140v282.07c0,4.93-4,8.93-8.93,8.93H100.5V140H134z"/>
	<path class="st3" d="M435,140v282.07c0,4.93-4,8.93-8.93,8.93H401.5V140H435z"/>
</g>
<g>
	<path class="st4" d="M141,121.5h-9.37c2.47-4.8,3.87-10.23,3.87-16c0-19.33-15.67-35-35-35s-35,15.67-35,35
		c0,5.77,1.4,11.2,3.87,16H60c-5.25,0-9.5,4.25-9.5,9.5s4.25,9.5,9.5,9.5h81c5.25,0,9.5-4.25,9.5-9.5S146.25,121.5,141,121.5z"/>
	<path class="st4" d="M359,121.5h9.37c-2.47-4.8-3.87-10.23-3.87-16c0-19.33,15.67-35,35-35s35,15.67,35,35c0,5.77-1.4,11.2-3.87,16
		H440c5.25,0,9.5,4.25,9.5,9.5s-4.25,9.5-9.5,9.5h-81c-5.25,0-9.5-4.25-9.5-9.5S353.75,121.5,359,121.5z"/>
</g>
</svg>
