<?xml version="1.0" encoding="utf-8"?>
<!-- Generator: Adobe Illustrator 24.0.1, SVG Export Plug-In . SVG Version: 6.00 Build 0)  -->
<svg version="1.1" id="Layer_1" xmlns="http://www.w3.org/2000/svg" xmlns:xlink="http://www.w3.org/1999/xlink" x="0px" y="0px"
	 viewBox="0 0 500 500" style="enable-background:new 0 0 500 500;" xml:space="preserve">
<style type="text/css">
	.st0{fill:#232344;}
	.st1{fill:#212145;}
	.st2{fill:#202043;}
	.st3{fill:#262743;}
	.st4{fill:#212444;}
	.st5{fill:#EFF0F4;}
	.st6{fill:#D5D5DC;}
	.st7{fill:#E2E2EA;}
	.st8{fill:#E0E0E8;}
	.st9{fill:#FDFEFE;}
	.st10{fill:#4F759B;}
	.st11{fill:#53759C;}
	.st12{fill:#006A4E;}
	.st13{fill:#5CA08E;}
	.st14{fill:#2B2E4F;}
	.st15{fill:#F9ECE4;}
	.st16{fill:#F1E3DA;}
	.st17{fill:#1F1F43;}
	.st18{fill:#4B6C96;}
	.st19{fill:#52759E;}
	.st20{fill:#8E9CB7;}
	.st21{fill:#4F779F;}
	.st22{fill:#BCC0CC;}
	.st23{fill:#4D729F;}
	.st24{fill:#9AA7B8;}
	.st25{fill:#92A2B7;}
	.st26{fill:#50739C;}
	.st27{fill:#FEF3E7;}
	.st28{fill:#A7C4E4;}
	.st29{fill:#818E9F;}
	.st30{fill:#F2833D;}
	.st31{fill:#29294B;}
	.st32{fill:#8396B7;}
	.st33{fill:#BBD0EF;}
	.st34{fill:#596887;}
	.st35{fill:#242043;}
	.st36{fill:#212747;}
	.st37{fill:#1E2546;}
	.st38{fill:#31686D;}
	.st39{fill:#A36B36;}
	.st40{fill:#242144;}
	.st41{fill:#272A4B;}
	.st42{fill:#FEF4EA;}
	.st43{fill:#FDEFEB;}
	.st44{fill:#FEEFEB;}
	.st45{fill:#FDF2EB;}
	.st46{fill:#FDF3EA;}
	.st47{fill:#ADC6E5;}
	.st48{fill:#BACFEE;}
	.st49{fill:#A7C2E0;}
	.st50{fill:#222546;}
	.st51{fill:#2B2E4E;}
	.st52{fill:#FCA85F;}
	.st53{fill:#313050;}
	.st54{fill:#30304E;}
	.st55{fill:#1F646E;}
	.st56{fill:#31676C;}
	.st57{fill:none;}
	.st58{fill:#CBD6BB;}
	.st59{fill:#49341F;}
	.st60{fill:#503B1C;}
	.st61{fill:#503A1F;}
	.st62{fill:#422B21;}
	.st63{fill:#3E2D1B;}
	.st64{fill:#48341F;}
	.st65{fill:#8E592A;}
	.st66{fill:#844C25;}
	.st67{fill:#402A1C;}
	.st68{fill:#715130;}
	.st69{fill:#B5AAA3;}
	.st70{fill:#C5D8EF;}
	.st71{fill:#3F2B1D;}
	.st72{fill:#61472D;}
	.st73{fill:#422F1E;}
	.st74{fill:#9F6A36;}
	.st75{fill:#C2CBBF;}
	.st76{fill:#A36D39;}
	.st77{fill:#A36A35;}
	.st78{fill:#EAE8E4;}
	.st79{fill:#4F3A24;}
	.st80{fill:#C2D1E0;}
	.st81{fill:#452F1C;}
	.st82{fill:#AA6E36;}
	.st83{fill:#A06833;}
	.st84{fill:#A46E3B;}
	.st85{fill:#C0C5D1;}
	.st86{fill:#B4A498;}
	.st87{fill:#BCC0C7;}
	.st88{fill:#A25F26;}
	.st89{fill:#7C4720;}
	.st90{fill:#BFC5CE;}
	.st91{fill:#C0C7D7;}
	.st92{fill:#BBC6CE;}
	.st93{fill:#9D6731;}
	.st94{fill:#543D24;}
	.st95{fill:#B7B9B8;}
	.st96{fill:#26294A;}
	.st97{fill:#EC5453;}
	.st98{fill:#ED6565;}
	.st99{fill:#C84846;}
	.st100{fill:#ED6664;}
	.st101{fill:#F2843C;}
	.st102{fill:#EC5353;}
	.st103{fill:#C84745;}
	.st104{fill:#B65D29;}
	.st105{fill:#F9A65C;}
	.st106{fill:#975113;}
	.st107{fill:#EF7539;}
	.st108{fill:#753F26;}
	.st109{fill:#733C1C;}
	.st110{font-family:'ArialMT';}
	.st111{font-size:24.7978px;}
</style>
<path class="st0" d="M104.29,337.64c0.74-0.31,0.83,0.09,0.83,0.7c-0.02,10.92-0.02,21.83-0.05,32.75c0,0.3-0.26,0.59-0.4,0.89
	c-0.16-0.64-0.46-1.28-0.46-1.93C104.22,359.25,104.26,348.44,104.29,337.64z"/>
<path class="st1" d="M110.65,202.91c-0.6,0.66-1.39,0.45-2.12,0.45c-9.69,0.01-19.39,0.01-29.08,0c-0.73,0-1.53,0.21-2.11-0.48
	C88.44,202.67,99.55,202.62,110.65,202.91z"/>
<path class="st2" d="M76.33,222.53c0.51-0.61,1.22-0.47,1.87-0.47c9.83-0.01,19.66-0.01,29.49,0c0.31,0,0.62,0.09,0.91,0.59
	c-10.48,0-20.96,0-31.44,0C76.89,222.6,76.61,222.57,76.33,222.53z"/>
<path class="st3" d="M357.55,375.98c0.52-0.6,1.23-0.45,1.88-0.45c9.34-0.01,18.67-0.01,28.01,0c0.66,0,1.36-0.14,1.89,0.45
	C378.74,376.2,368.15,376.18,357.55,375.98z"/>
<path class="st3" d="M109.66,375.96c0.53-0.57,1.24-0.43,1.9-0.43c9.34-0.01,18.67-0.01,28.01,0c0.66,0,1.36-0.14,1.88,0.46
	C130.85,376.16,120.26,376.23,109.66,375.96z"/>
<path class="st4" d="M68.83,209.95c0.68,1.84,0.71,3.69-0.03,5.53C68.07,213.63,68.12,211.79,68.83,209.95z"/>
<path class="st5" d="M486.77,452.26c-0.47,0.05-0.73-0.08-0.54-0.61c0.15-0.85-0.2-1.51-0.99-1.71c-2.12-0.54-0.76-1.16-0.08-1.78
	c0.17,0.02,0.34,0.03,0.51,0.04c-0.23,0.82,0.46,1.03,0.9,1.45C487.37,450.43,487.6,451.32,486.77,452.26z"/>
<path class="st6" d="M486.77,452.26c-1.33,1.83-2.58,1.03-3.85,0.04c1.1-0.44,2.37,0.55,3.31-0.65
	C486.41,451.86,486.59,452.06,486.77,452.26z"/>
<path class="st7" d="M413.25,452.35c-1.01,1.22-1.9,1.15-2.87,0.49c0.22-0.16,0.44-0.32,0.66-0.49H413.25z"/>
<path class="st8" d="M380.19,452.35c-0.34,1.33-1.25,0.8-1.95,0.83v-0.83H380.19z"/>
<path class="st9" d="M395.9,452.34c-0.22,0.18-0.44,0.36-0.66,0.54c-0.39-0.09-0.97-0.21-0.72-0.69
	C394.97,451.36,395.42,452.32,395.9,452.34z"/>
<path class="st10" d="M101.06,308.29l-0.25,0.03l-0.23-0.08c0-13.57,0-27.15,0-40.72c0.16,0,0.32,0,0.48,0
	C101.06,281.11,101.06,294.7,101.06,308.29z"/>
<ellipse class="st11" cx="114.43" cy="284.96" rx="0.13" ry="9.49"/>
<path class="st12" d="M382.28,227.59c2.61,1.75,4.19,4.2,5.29,7.13c3.49,9.34,7.08,18.65,10.66,27.96c0.55,1.43,0.78,2.88,0.78,4.42
	c-0.04,13.76-0.04,27.52-0.05,41.28c-0.95,0.94-2.17,0.81-3.33,0.82c-30.62,0.02-61.24,0.02-91.86,0.01c-1.01,0-2.03,0.01-2.96-0.48
	c-0.93-1.4,0.5-1.51,1.13-1.8c1.62-0.74,3.21-1.49,4.56-2.65c2.93-2.53,4.73-5.67,4.81-9.61c0.08-4.12,0.08-8.24,0-12.36
	c-0.06-3.3-1.79-5.07-5.1-5.4c-1-0.1-2.02-0.06-3.02-0.06c-35.81,0-71.62,0-107.43,0c-0.92,0-1.85-0.03-2.77,0.04
	c-3.26,0.26-5.13,2.03-5.26,5.3c-0.16,4.11-0.27,8.25,0.03,12.35c0.44,5.95,3.81,9.85,9.14,12.26c0.81,0.36,2.3,0.19,1.88,1.86
	c-1.07,0.65-2.27,0.55-3.44,0.55c-30.19,0.01-60.37,0.01-90.56,0c-1.25,0-2.54,0.14-3.66-0.64c-0.53-0.86-0.28-1.81-0.28-2.71
	c0.03-12.45-0.11-24.89,0.07-37.34c0-0.16-0.07-0.23-0.09-0.23c-0.01,13.22,0.02,26.43-0.02,39.64c-0.06,0.39-0.28,0.54-0.66,0.45
	c-0.01-13.88,0-27.77-0.04-41.65c0-1.48,0.41-2.81,0.92-4.15c3.48-9.11,7.01-18.19,10.39-27.34c1.14-3.09,2.74-5.74,5.42-7.68
	c1-1.37,2.48-1.59,4.02-1.66c6.73-0.02,13.46-0.03,20.19,0c3.06,0.01,3.47,0.33,3.94,3.35c1.43,9.05,2.48,18.16,3.84,27.23
	c0.16,1.08,0.32,2.16,0.6,3.22c0.5,1.93,1.77,2.99,3.7,3.3c1.17,0.19,2.35,0.16,3.53,0.16c62.17,0,124.34,0,186.5,0
	c5.43,0,6.4-0.91,7.14-6.23c1.32-9.49,2.77-18.97,3.97-28.48c0.27-2.09,1.47-2.57,3.3-2.57c6.9,0.01,13.8,0.01,20.69,0
	C379.82,225.92,381.41,225.91,382.28,227.59z"/>
<path class="st13" d="M101.06,308.29c3.95,0.03,7.89,0.09,11.84,0.09c28.3,0.01,56.6,0.01,84.89,0.01c0.42,0,0.84-0.05,1.25-0.07
	c0.98-0.87,2.19-0.75,3.35-0.75c31.57-0.02,63.13-0.02,94.7,0c1.16,0,2.37-0.13,3.36,0.72c3.02,0.03,6.04,0.09,9.06,0.09
	c29.81,0.01,59.63,0,89.44,0c2.19,0,4.37-0.03,6.56,0.02c4.12,0.08,7.01,2.88,7.06,6.94c0.06,4.79,0.06,9.58,0,14.37
	c-0.05,4.13-2.86,6.86-7.04,6.93c-2.6,0.05-5.22,0.12-7.81-0.02c-1.9-0.11-2.43,0.55-2.41,2.43c0.09,9.08,0.05,18.15,0.03,27.23
	c0,0.9,0.27,1.86-0.35,2.69c-1.16-1.05-0.88-2.47-0.89-3.78c-0.04-8.14,0-16.29-0.02-24.43c-0.01-3.37-0.03-3.39-3.32-3.39
	c-11.84-0.01-23.67,0.01-35.51-0.02c-1.23,0-2.54,0.3-3.61-0.66c-22.1,0-44.2,0-66.3,0c-1.38-0.3-1.15-1.48-1.19-2.4
	c-0.11-2.34-0.12-4.68-0.02-7.02c0.12-2.77-0.92-4.69-3.56-5.66c-0.94-0.48-1.96-0.41-2.97-0.41c-18.38,0-36.76,0-55.14,0
	c-0.92,0-1.85-0.04-2.73,0.3c-4.27,1.41-4.83,2.17-4.85,6.72c-0.01,1.93,0.03,3.87-0.02,5.8c-0.02,0.91,0.06,1.87-0.72,2.58
	c-22.23,0.01-44.46,0.03-66.69,0.04c-0.96,0.9-2.18,0.79-3.34,0.79c-12.19,0.02-24.38,0.02-36.56,0c-1.16,0-2.38,0.11-3.35-0.78
	c-3.44-0.01-6.88,0-10.33-0.03c-4.32-0.03-7.32-2.85-7.41-7.16c-0.1-4.61-0.09-9.23,0-13.85c0.08-4.32,3.08-7.19,7.37-7.25
	c2.1-0.03,4.2-0.01,6.3-0.02c0.15-0.05,0.3-0.09,0.45-0.13C100.75,308.11,100.91,308.13,101.06,308.29z"/>
<path class="st14" d="M382.28,227.59c-1.12-0.48-2.17-1.15-3.47-1.05c-1.3-0.45-2.65-0.2-3.97-0.2c-8.86-0.01-17.72-0.16-26.57,0.43
	c-1.15,0.08-2.35,0.15-3.47-0.29c-1.31-0.82-1.4-2.19-1.56-3.52c-0.73-5.73-1.38-11.47-2.11-17.2c-0.73-5.76-3.19-10.49-8.09-13.86
	c-2.95-2.03-6.2-2.84-9.7-2.98c-2.25-0.09-4.52,0.29-6.75-0.3c-1.05-0.58-1.09-1.56-1-2.59c1.34-2.66,3.19-5.03,4.4-7.77
	c0.13-0.3,0.35-0.65,0.65-0.73c3.29-0.91,4.56-3.6,5.77-6.38c0.1-0.22,0.35-0.34,0.57-0.47c6.71-1.06,13.68,4.28,14.97,11.57
	c1.14,6.45,2.06,12.94,3.16,19.4c1.12,6.63,2.09,13.28,3.25,19.89c0.1,0.37,0.2,0.75,0.33,1.11c0.13,0.22,0.3,0.41,0.53,0.54
	c7.33,0.33,14.66,0.15,21.98,0.08c0.2-0.1,0.36-0.25,0.45-0.47c0.01-0.37-0.09-0.72-0.19-1.08c-5.7-19.29-11.42-38.56-17.1-57.85
	c-0.52-1.78-1.09-3.54-1.61-5.32c-1.31-4.53-3.13-5.93-7.79-5.94c-11.95-0.03-23.9-0.02-35.84-0.01c-17.92,0.01-35.84,0-53.77,0.01
	c-3.38,0-4.39,1.44-3.48,4.74c0.33,1.21,1.19,1.28,2.13,1.3c2.86,0.06,5.72,0,8.58,0.03c1.64,0.02,3.21,0.22,4.22,1.76
	c0.91,2.74,0.34,5.59,0.67,8.38c-0.24,1.75-1.45,2.38-3,2.63c-0.3,0.01-0.59-0.03-0.88-0.11c-9.22-0.24-18.44-0.08-27.66-0.08
	c-0.28,0.03-0.55,0.08-0.83,0.14c-1,0.12-1.85-0.22-2.62-0.83c-0.2-0.17-0.37-0.37-0.5-0.6c-0.32-0.59-0.46-1.21-0.38-1.88
	c0.13-2.06,0.12-4.13-0.04-6.19c0.2-1.23,1.05-1.95,2.03-2.57c3.22-1.2,6.57-0.35,9.85-0.63c1.2-0.1,2.5,0.39,3.58-0.52
	c0.47-1.51,0.34-3.01,0.05-4.52c-0.41-1.01-1.35-0.87-2.15-0.95c-1-0.11-2.02-0.05-3.03-0.05c-28.52,0-57.03-0.03-85.55-0.01
	c-1.51,0-3.03,0.09-4.53-0.18c-1.15-0.32-2.15-0.96-3.55-0.53c-1.58,0.49-2.53-0.36-2.23-2.17c2.18-1.01,4.37-0.91,6.56-0.1
	c0.35,1.28,1.39,0.92,2.26,0.91c25.19-0.02,50.39,0,75.58,0c4.79,0,9.57,0,14.36,0c0.42,0,0.84,0.02,1.26,0
	c1.86-0.11,3.66,1.3,5.61-0.74c1.22-1.28,4.46-0.18,5.4,1.08c-0.93,0.29-1.88,0.12-2.82,0.09c16.53-0.78,33.06-0.17,49.6-0.42
	c0.32-0.04,0.64-0.04,0.96,0c13.26,0.07,26.52,0.03,39.78,0.01c1.31,0.13,2.16-1.01,3.5-1.11c3.36-0.25,6.22,0.14,7.73,3.7
	c-0.2-0.6-0.73-0.84-1.1-1.22c-0.43-0.43-0.69-0.95-0.86-1.52c-0.24-0.82-0.86-0.91-1.58-0.9c-1.68,0.02-3.42-0.27-5.03,0.07
	c-3.34,0.7-6.69,0.42-10.03,0.42c-25.71,0.04-51.42,0.04-77.13-0.01c-3.05-0.01-6.12-0.26-9.13-0.9c0.02-0.35,0.19-0.59,0.51-0.74
	c1.21-0.51,2.48-0.39,3.73-0.39c31.92-0.01,63.85,0,95.77-0.01c1.01,0,2.02-0.03,2.98,0.36c2.76,1.81,4.1,4.54,5,7.58
	c5.92,20.09,11.85,40.17,17.78,60.25c0.09,0.31,0.2,0.62,0.51,1.56c1.13-3.11,2.03-5.71,3.02-8.27c1.44-3.71,3.98-6.13,8.09-6.58
	c1.48,0.41,2.99,0.19,4.48,0.19c8.86,0.03,17.73,0.02,26.59,0c0.91,0,1.84,0.19,2.72-0.2c4.99,0.6,8.6,4.65,8.66,9.72
	c0.06,5.03-3.3,9.11-8.15,9.9c-10.45,0.03-20.89,0-31.34,0.02c-0.51,0-1,0.05-1.46,0.29C386.69,223.39,384.05,224.8,382.28,227.59z"
	/>
<path class="st14" d="M146,150.36c0.75,0.85,1.3,1.97,2.76,0.75c0.78-0.65,1.77-0.26,2.29,0.76c-0.15,0.63-0.61,1-1.12,1.29
	c-1.88,1.07-2.86,2.78-3.44,4.77c-5.29,18.04-10.64,36.07-15.96,54.1c-1,3.38-1.93,6.78-3.02,10.13c-0.11,0.43-0.27,0.88,0.32,1.13
	c7.6,0.08,15.19,0.22,22.77-0.08c0.38-0.29,1.37-0.28,0.53-1.15c-0.25-3.06,0.6-5.99,1.07-8.95c1.58-10.03,3.4-20.02,4.79-30.08
	c1.1-7.94,7.97-12.95,14.89-12.38c0.26,0.11,0.45,0.29,0.58,0.54c0.12,1.01-0.1,2.05,0.19,3.06c0.07,1.14-0.56,2.07-0.96,3.06
	c-1.75,4.41-0.08,7.5,4.57,8.55c1.15,0.26,2.33,0.09,3.47,0.38c0.78,0.24,1.25,0.83,1.55,1.52c1.05,2.4,3.11,4.06,4.51,6.2
	c0.27,0.81,0.23,1.61,0.01,2.42c-0.36,1.39-1.32,1.79-2.67,1.68c-1.59-0.13-3.18,0.23-4.76,0.26c-6.74,0.12-11.83,6.32-13.07,12.11
	c-0.83,3.87-0.89,7.83-1.49,11.73c-0.23,1.53-0.06,3.24-1.51,4.36c-5.93,0.51-11.86,0.32-17.79,0.04c-8.1-0.39-16.2-0.37-24.3,0
	c-1.25-0.09-2.2,0.85-3.38,1c-2.23-3.42-5.48-4.7-9.46-4.67c-9.16,0.06-18.32,0.03-27.47,0.01c-0.91,0-1.85,0.23-2.72-0.25
	c0.83-0.64,1.79-0.31,2.67-0.32c9.35-0.03,18.69-0.02,27.55-0.02c0.82-0.12,0.32-0.59,0.52-0.32c0.06,0.09,0,0.14-0.19,0.17
	c-2.25,0.3-4.5,0.11-6.76,0.12c-7.39,0.03-14.78,0-22.17,0.02c-0.83,0-1.68-0.2-2.47,0.22c-4.01-0.75-6.49-3.13-7.53-7.05
	c0.05-1.84-0.01-3.68,0.03-5.53c1.32-4.28,4.27-6.73,8.51-7.07c0.37,0.25,0.79,0.24,1.2,0.24c10.3,0,20.59,0,30.89,0
	c0.42,0,0.84,0.01,1.22-0.22c4.15,0.36,6.71,2.78,8.18,6.48c1.04,2.62,1.95,5.3,3.11,8.46c4.27-14.46,8.37-28.36,12.48-42.25
	c2-6.76,4-13.52,6.01-20.28c0.73-2.45,1.77-4.71,3.99-6.21c0.14,1.49-0.42,2.76-1.67,4.24c1.51-0.53,2.11-1.09,1.76-2.28
	c-0.23-0.79,0.18-1.04,0.88-1.05C145.64,150.07,145.83,150.18,146,150.36z"/>
<path class="st14" d="M104.21,336.68c14.42,0,28.83-0.01,43.25-0.01c0.01,11,0.05,22,0.01,33c-0.01,3.76-2.29,6.06-6.02,6.32
	c-1.22-0.46-2.48-0.2-3.72-0.21c-8.44-0.03-16.89-0.02-25.33-0.01c-0.91,0-1.84-0.18-2.73,0.18c-2.55-0.22-4.19-1.58-4.99-3.99
	c-0.16-10.37-0.02-20.75-0.08-31.12c-0.01-1.07,0.2-2.18-0.31-3.21C104.26,337.32,104.23,337,104.21,336.68z"/>
<path class="st14" d="M351.64,336.69c13.71-0.01,27.43,0.01,41.14-0.08c1.91-0.01,2.14,0.71,2.12,2.33
	c-0.07,9.09-0.04,18.17-0.03,27.26c0,0.92,0.08,1.84,0.12,2.76c-0.22,4.43-1.87,6.47-5.66,7.01c-2.4-0.46-4.83-0.17-7.24-0.19
	c-7.36-0.05-14.72-0.02-22.07-0.01c-0.82,0-1.67-0.18-2.47,0.2c-2.97-0.11-4.81-1.63-5.53-4.51c0.42-0.88,0.21-1.82,0.21-2.73
	c0.02-9.23,0.01-18.45,0.02-27.68c0-0.86-0.17-1.73-0.02-2.11c0,9.5,0.01,19.45-0.01,29.41c0,0.9,0.27,1.85-0.27,2.7
	c-0.45-0.59-0.34-1.28-0.34-1.94C351.61,358.31,351.63,347.5,351.64,336.69z"/>
<path class="st15" d="M214.14,336.63c0-3,0.01-5.99,0.01-8.99c0.01-4.61,0.65-5.45,5.05-6.62c0.7-0.44,1.47-0.25,2.21-0.25
	c19.23-0.01,38.46-0.01,57.7,0c0.73,0,1.52-0.23,2.19,0.28c2.78,1.08,3.67,3.13,3.64,6.06c-0.04,3.18-0.62,6.43,0.4,9.58
	c-1.5,3.64-2.04,4.01-5.96,4.01c-20.07,0-40.15,0-60.22,0C216.16,340.69,214.75,339.53,214.14,336.63z"/>
<path class="st16" d="M258.6,141.79c-6.06,0-12.13,0-18.19,0.01c0.59-5.05,1.17-10.11,1.77-15.16c0.23-1.9,0.55-3.8,0.73-5.71
	c0.11-1.15,0.4-2.28,1.35-2.86c3.02-1.86,6.38-1.35,9.48-0.54c2.56,0.67,2.65,3.25,2.87,5.6c0.41,4.48,0.99,8.96,1.7,13.41
	C258.6,138.3,258.49,140.04,258.6,141.79z"/>
<path class="st14" d="M145.47,148.27c0.55,0.96,1.5,0.6,2.28,0.6c32.64,0.02,65.29,0.02,97.93,0.01c1.04,0,2.2,0.32,2.47-1.35
	c0.16-1.01,1.22-0.69,1.92-0.64c1.32,0.09,0.85,1.19,0.98,1.94l-0.03,0.03c-0.55,0.25-0.86-0.42-1.39-0.36
	c-0.48,0.9,1.73,1.15,0.59,2.13c-0.86,0.74-1.85,0.46-2.75-0.09c-0.43-0.27-0.87-0.46-1.4-0.45c-29.1-0.02-58.2-0.03-87.29,0.03
	c-3.62,0.01-7.17-0.76-10.79-0.51c-0.89,0.06-1.9-0.28-2.48,0.76c-0.16,0.04-0.32,0.08-0.48,0.12c1.29,2.94-0.89,3.12-3.25,3.8
	c0.81-2.08,2.38-3.33,2.65-5.17C144.77,148.83,145.12,148.55,145.47,148.27z"/>
<path class="st17" d="M389.87,222.85c0.23-0.88,0.94-0.8,1.61-0.8c9.95,0,19.89,0,29.84,0c0.51,0,1.01,0.04,1.35,0.49
	c-0.78,0.4-1.62,0.34-2.46,0.34C410.1,222.87,399.98,222.86,389.87,222.85z"/>
<path class="st17" d="M351.95,371.06c0-11.12,0-22.24,0-33.36c0.18,0,0.36,0,0.54,0c0,3.76,0,7.51,0,11.27
	c0,6.63,0.01,13.26-0.01,19.88c0,0.88,0.32,1.86-0.45,2.63C351.9,371.36,351.87,371.22,351.95,371.06z"/>
<path class="st1" d="M422.16,202.92c-0.53,0.59-1.23,0.45-1.89,0.45c-10.01,0.01-20.02,0.01-30.02,0c-0.66,0-1.36,0.14-1.89-0.45
	c9.52-0.06,19.04-0.13,28.56-0.17C418.66,202.75,420.41,202.86,422.16,202.92z"/>
<path class="st14" d="M300.45,308.28c-5.55,0.03-11.1,0.09-16.65,0.09c-27.16,0.01-54.33,0.01-81.49,0c-1.09,0-2.19-0.04-3.28-0.07
	c-6.23-1.74-10.68-5.4-11.81-11.98c-0.89-5.14-0.44-10.4-0.19-15.59c0.12-2.52,2.66-4.44,5.24-4.64c0.75-0.06,1.51-0.02,2.27-0.02
	c36.82,0,73.64,0,110.46,0c5.16,0,7.15,1.99,7.15,7.11c0,3.36,0.01,6.72,0,10.09c-0.01,7.1-3.64,12.17-10.33,14.45
	C301.37,307.89,300.91,308.1,300.45,308.28z"/>
<path class="st15" d="M175.23,293.72c-1.07,3.24-3.12,4.98-6.43,4.99c-15.64,0.05-31.29,0.06-46.93-0.01
	c-3.84-0.02-6.63-2.92-6.69-6.78c-0.07-4.29-0.02-8.58-0.01-12.87c0.01-4.26,1.44-6.2,5.55-7.61c0.57-0.38,1.19-0.43,1.85-0.29
	c2.18,0.32,4.37,0.15,6.55,0.16c13.37,0.04,26.75-0.04,40.13,0.04c0.16,0.02,0.32,0.04,0.48,0.06c2.91,0.55,4.85,2.19,5.62,5.1
	c0.56,0.83,0.44,1.75,0.37,2.67c-0.47,2.92-0.15,5.87-0.22,8.8C175.45,289.9,175.52,291.82,175.23,293.72z"/>
<path class="st15" d="M378.77,271.49c2.78,0.89,4.61,2.65,5.14,5.61c-0.01,0.15-0.03,0.29-0.04,0.44c0.38,4.82-0.15,9.66,0.29,14.48
	c0.08,0.46-0.04,0.88-0.28,1.27c-1.37,3.91-3.43,5.45-7.44,5.45c-15.11,0.01-30.22,0.01-45.34,0c-4.02,0-6.01-1.5-7.43-5.46
	c-0.26-0.39-0.38-0.81-0.3-1.27c0.22-4.41,0.31-8.82-0.05-13.23c-0.11-0.61-0.03-1.19,0.32-1.71c0.68-3.09,2.55-4.97,5.65-5.61
	c0.16,0.01,0.32,0.02,0.48,0.02c4.11-0.3,8.22-0.11,12.33-0.13c11.92-0.06,23.83,0.06,35.75-0.06
	C378.17,271.25,378.48,271.32,378.77,271.49z"/>
<path class="st18" d="M120.2,226.55c0.88-0.72,1.93-0.45,2.92-0.46c5.8-0.02,11.61-0.01,17.41-0.01c7.37-0.01,14.73-0.03,22.1-0.04
	c0.4-0.12,0.58,0.02,0.55,0.44c-0.89,1.05-2.13,0.87-3.28,0.89c-3.2,0.05-6.39,0.03-9.59,0.02c-1.69-0.01-2.48,0.58-2.21,2.42
	c1.38,9.32,2.58,18.65,3.77,27.99c0.19,1.51,1.01,2.21,2.5,2.27c0.93,0.04,1.85,0.05,2.77,0.05c61.56,0,123.12,0,184.68,0
	c0.59,0,1.18,0.01,1.77-0.01c2.93-0.09,3.25-0.34,3.65-3.29c1.12-8.41,2.47-16.8,3.67-25.2c0.58-4.1,0.55-4.1-3.47-4.26
	c-1.08-0.04-2.22,0.08-3.05-0.86c-0.01-0.16-0.03-0.32-0.04-0.48c10.43,0.02,20.87,0.02,31.3,0.06c1.06,0,2.19-0.3,3.16,0.45
	c-7.06,0.01-14.13,0.08-21.19,0.01c-1.85-0.02-2.55,0.35-2.69,2.46c-0.28,4.23-1.07,8.43-1.65,12.65
	c-0.77,5.53-1.65,11.06-2.26,16.61c-0.41,3.76-2.19,5.68-5.94,5.68c-63.57,0.01-127.15,0.01-190.72,0c-4.34,0-5.72-1.76-6.38-6.94
	c-1.22-9.68-2.7-19.33-3.97-29c-0.23-1.76-1.36-1.4-2.37-1.4C134.49,226.57,127.34,226.57,120.2,226.55z"/>
<path class="st19" d="M120.76,271.03c-0.02-0.33-0.51-0.9,0.28-0.86c15.27,0.79,30.55,0.11,45.82,0.36
	c0.96,0.02,2.03-0.38,2.87,0.48c-0.88,0.71-1.92,0.5-2.91,0.5c-14.03,0.01-28.06,0.01-42.1,0.01
	C123.38,271.53,122.05,271.43,120.76,271.03z"/>
<path class="st20" d="M378.77,271.49c-0.19,0.05-0.38,0.09-0.57,0.14c-1.42,0.31-2.85,0.13-4.27,0.14
	c-13.96,0.02-27.92,0.01-41.89,0c-0.92,0-1.85,0.12-2.76-0.12l0.01-0.21c0.17-0.14,0.33-0.29,0.5-0.43
	c0.54-0.34,1.14-0.22,1.72-0.22c15.1-0.01,30.2-0.01,45.3,0c0.65,0,1.35-0.19,1.94,0.28C378.74,271.21,378.75,271.35,378.77,271.49z
	"/>
<path class="st20" d="M120.76,271.03c16.32-0.01,32.65-0.01,48.97-0.02c0.01,0.13,0,0.27-0.01,0.4v0.22
	c-2.75,0.31-5.51,0.12-8.27,0.13c-12.14,0.03-24.28,0.02-36.41,0c-0.91,0-1.84,0.17-2.74-0.17c-0.53-0.05-1.05-0.1-1.58-0.15
	C120.74,271.31,120.75,271.17,120.76,271.03z"/>
<path class="st19" d="M378.75,271.07c-16.32-0.02-32.64-0.04-48.96-0.06c0.75-0.81,1.73-0.47,2.62-0.47
	c14.59-0.02,29.18-0.02,43.76,0C377.04,270.53,378.04,270.17,378.75,271.07z"/>
<path class="st21" d="M175.74,276.67c0.14-0.02,0.28-0.04,0.42-0.06c0.04,5.65,0.08,11.3,0.11,16.94c0,0.05-0.1,0.09-0.16,0.14
	c-0.12-0.17-0.24-0.34-0.35-0.51c-0.47-0.55-0.48-1.22-0.47-1.89C175.4,286.42,174.95,281.52,175.74,276.67z"/>
<path class="st22" d="M175.74,276.67c0.01,5.51,0.01,11.01,0.02,16.52c-0.13,0.05-0.26,0.1-0.39,0.13
	c-0.64-4.73-0.39-9.46-0.12-14.2c0.03-0.87,0.06-1.74,0.09-2.61C175.48,276.56,175.61,276.62,175.74,276.67z"/>
<path class="st23" d="M384.33,277.59c0.94,1.19,0.42,2.58,0.45,3.86c0.08,3.84,0.03,7.68,0.02,11.52c0,0.07-0.05,0.19-0.09,0.2
	c-0.13,0.03-0.28,0.02-0.42,0.03C383.56,288,383.4,282.79,384.33,277.59z"/>
<path class="st24" d="M384.33,277.59c-0.01,5.21-0.03,10.41-0.04,15.62c-0.14,0.02-0.28,0.04-0.42,0.07
	c-0.05-0.36-0.09-0.72-0.14-1.08c-0.34-5.03-0.22-10.07-0.06-15.1h0.23C384.05,277.26,384.19,277.42,384.33,277.59z"/>
<path class="st25" d="M323.79,292.19c-0.04,0.36-0.08,0.71-0.12,1.07c-0.13-0.03-0.26-0.04-0.4-0.03
	c-0.53-5.38-0.44-10.77-0.04-16.15c0.14,0,0.27-0.02,0.41-0.04c0.05,0.53,0.1,1.06,0.14,1.58
	C324.09,283.15,324.07,287.67,323.79,292.19z"/>
<path class="st26" d="M323.23,277.08c0.01,5.38,0.03,10.77,0.04,16.15c-0.59-0.37-0.56-0.97-0.56-1.56c0-4.34,0-8.67,0-13.01
	C322.71,278.08,322.67,277.48,323.23,277.08z"/>
<path class="st27" d="M175.25,279.12c0.04,4.73,0.08,9.46,0.12,14.2c-0.01,0.15-0.06,0.28-0.14,0.41c-1.02-3.7-0.24-7.48-0.42-11.22
	C174.76,281.39,174.36,280.14,175.25,279.12z"/>
<path class="st28" d="M281.3,321.05c-20.7-0.01-41.4-0.03-62.1-0.04c0.74-0.84,1.73-0.5,2.61-0.5c18.97-0.02,37.94-0.02,56.92,0
	C279.6,320.51,280.6,320.15,281.3,321.05z"/>
<path class="st15" d="M264.66,171.1c1.01-0.45,1.99-0.94,2.38-2.09c0.12-2.69,0.48-5.39-0.5-8.01c-0.89-1.39-2.27-1.56-3.75-1.55
	c-3.28,0.01-6.56-0.08-9.84,0.04c-1.59,0.06-1.96-0.49-1.97-2.01c-0.05-5.61-0.11-5.61,5.38-5.61c29.69,0,59.38,0,89.06,0
	c4.65,0,6.54,1.39,7.85,5.83c6.22,21.03,12.42,42.06,18.62,63.09c0.17,0.56,0.26,1.14,0.39,1.71c-0.25,0.22-0.54,0.33-0.87,0.33
	c-6.5-0.18-13-0.03-19.51-0.08c-1.08-0.01-2.17,0.1-3.23-0.19c-0.29-0.14-0.57-0.3-0.83-0.48c-1.32-7.76-2.65-15.52-3.94-23.28
	c-0.92-5.54-1.72-11.11-2.68-16.64c-1.17-6.76-6.47-10.75-14.46-11.03c-1.07-1.28-2.29-2.38-3.78-3.16
	c-0.35-0.85-0.04-1.66,0.15-2.47c0.28-1.2,0.12-2.34-0.3-3.46c-1.75-4.77-5.81-7.74-10.88-7.96c-1.34-0.06-2.69,0.05-4.03-0.03
	c-7.18-0.42-11.93,6.77-11.77,12.63c0.01,0.42,0.05,0.84-0.07,1.25c-1.34,0.95-2.26,2.31-3.38,3.48c-1.4,0.47-2.92,0.34-4.32,0.84
	c-5.83,1.3-9.25,4.85-10.25,10.95c-1.95,11.84-3.85,23.68-5.77,35.52c-0.22,1.32-0.36,2.66-0.76,3.94
	c-0.11,0.24-0.29,0.42-0.53,0.54c-1.11-0.21-2.26-0.08-3.36-0.41c-12.45-0.05-24.88-0.12-37.32,0.05c-0.48,0.11-1.1,0.23-1.37-0.14
	c-0.43-0.6-0.75-0.32-1.15-0.09c-1.11-1.03-0.98-2.47-1.18-3.76c-1.76-11.63-3.91-23.21-5.55-34.85
	c-0.89-6.34-4.21-10.25-10.38-11.8c-0.81-0.2-1.64-0.41-2.29-1c-0.8-2.01,0.59-3.75,0.7-5.66c0.87-1.21,0.71-2.21-0.37-3.3
	c-1.13-1.14-2.08-2.45-1.21-4.26c0.82-1.69,2.3-1.75,3.85-1.75c6.04,0,12.09-0.04,18.13,0.03c0.99,0.01,2.11-0.03,2.54,1.17
	c0.35,0.99-0.07,1.82-0.81,2.47c-0.7,0.63-1.44,0.93-2.06-0.14c-0.21-0.36-0.41-0.75-0.79-0.96c-0.46-0.26-0.98-0.43-1.33,0.11
	c-0.34,0.53,0.21,0.69,0.53,0.92c2.46,1.77,3.69,5.92,2.55,8.63c-0.23,0.55-0.52,1.14-1.24,1.01c-0.59-0.1-0.67-0.68-0.7-1.19
	c-0.06-1.22-0.46-2.43-0.19-3.67c-0.34,1.6,0.41,3.25-0.27,4.86c-0.3,0.71,0.21,1.42,0.98,1.43c1.28,0.01,2.7,0.31,3.66-0.98
	c0.79,0.41,1.59,0.81,2.38,1.22c0.24,0.09,0.49,0.16,0.75,0.22c9.42-0.01,18.83-0.05,28.24,0
	C264.15,171.37,264.42,171.27,264.66,171.1z"/>
<path class="st15" d="M232.49,169.95c-0.49,0.35,0.78,1.63-0.62,1.38c-1.52-0.27-3.15,1.8-4.56-0.24c-0.54-0.78-0.96-1.37-0.08-2.36
	c1.28-1.45,0.18-3.42,0.89-5.13c0,1.91,0.47,3.72,0.91,5.61c1.05-1.73,1.08-6.6,0.01-7.9c-0.34-0.41-0.97-0.67-1.51-0.8
	c-0.79-0.19-1.81,0.03-1.7-1.28c0.07-0.84,0.61-1.52,1.35-1.65c0.98-0.17,2.02,0.05,2.55,1.07c0.21,0.4,0.15,0.93,0.25,1.66
	c1.06-0.82,2.13-1.43,1.72-2.71c-0.38-1.18-1.59-0.66-2.44-0.67c-5.8-0.04-11.6-0.04-17.4-0.01c-1.43,0.01-3.03-0.5-3.8,1.52
	c-0.75,1.93,0.66,2.91,1.67,3.77c1.54,1.31,1.44,2.21-0.05,3.28c-1.48-1.39-2.02-3.4-3.22-4.97c-0.72-1.34-2.01-0.82-3.09-0.9
	c-1.22-0.09-2.46,0.03-3.69-0.07c-0.78-0.11-1.45-0.4-1.86-1.13c-0.64-0.64,0.74-2.28-1.14-2.32c-0.87-0.48-1.35-1.24-1.58-2.18
	c-0.07-0.53,0.18-0.92,0.6-1.27c-0.72,0.22-1.36,0.57-2.08,0.65c-3.55-0.8-6.57,0.05-9.16,2.67c-1.53,1.54-3.52,1.82-5.62,1.37
	c-2.74-0.58-5,0.29-6.64,2.51c-1.65,2.23-2.19,4.62-0.91,7.31c0.57,1.2,1.8,2.34,0.94,3.92c-8.9,0.41-13.28,4.49-14.69,13.43
	c-1.88,11.94-3.88,23.86-5.8,35.79c-0.12,0.73-0.08,1.49-0.11,2.24c-0.25,0.18-0.52,0.32-0.82,0.4c-4.85,0.6-9.73,0.14-14.59,0.29
	c-2.43,0.08-4.87-0.21-7.29,0.22c-0.86-0.05-1.95,0.44-2.23-0.96c6.3-21.34,12.63-42.67,18.88-64.02c0.9-3.08,2.19-5.63,5.48-6.63
	c31.48,0,62.96,0,94.44,0c1.37,0,3.12-0.43,2.47,2.03c-0.18,0.29-0.22,0.62-0.23,0.96c-0.14,3.82-0.14,3.82-4.09,3.82
	c-2.52,0-5.04-0.01-7.54,0.18c-0.31,0.27,0.28,0.38,0.04,0.14c3.93-0.54,7.87-0.42,11.81-0.06c-0.75,0.99-1.81,0.41-2.72,0.48
	c-3.95,0.32-7.95-0.57-11.86,0.57c-0.99,0.5-1.78,1.19-2.07,2.32c0.23,1.95,0,3.89-0.03,5.83c0.22,0.73,0.55,1.39,1.21,1.83
	L232.49,169.95z"/>
<path class="st29" d="M316.63,188.29c2.18-0.01,4.37-0.03,6.55-0.03c9.07,0.02,16.83,6.31,18.28,15.29
	c1.21,7.46,1.95,14.99,2.89,22.48l-0.06,0.01c-2.35,1.38-4.79,0.88-7.24,0.37c-0.7-0.46-0.78-1.16-0.74-1.91
	c2.92-2.88,1.59-5.93,0.28-8.93c-1.81-4.15-4.69-7.45-8.33-10.11c-1.38-1.01-2.8-1.43-4.44-0.75c-0.87,0-1.61-0.44-2.36-0.79
	c-7.34-3.36-14.71-3.29-22.11-0.24c-0.62,0.25-1.23,0.54-1.91,0.57c-1.17-0.14-2.3-0.15-3.35,0.58c-4.58,3.16-8.17,7.07-9.98,12.47
	c-0.75,2.22-1.05,4.37,0,6.56c-0.06,1-0.1,2-1.09,2.61c-2.85,0.41-5.71,1-8.46-0.48c-0.58-0.91-0.57-1.93-0.43-2.93
	c0.9-6.31,1.37-12.68,2.39-18.98c1.6-9.87,9.48-16.54,19.49-16.59c2.43-0.01,4.87,0.15,7.26-0.44c1.09,0.62,0.58,1.6,0.52,2.46
	c-0.2,3.24,1.78,5.85,4.96,6.48c3.01,0.59,5.72-1.1,6.79-4.18C315.96,190.66,315.72,189.3,316.63,188.29z"/>
<path class="st30" d="M303.55,185.7c4.18,2.78,8.35,2.97,12.53,0.01c0.24,0.85-0.03,1.81,0.54,2.59c0.04,5.23-2.56,8.55-6.66,8.51
	c-4.73-0.05-7.65-3.77-6.58-8.4c0.09-0.4,0.05-0.83,0.08-1.24C303.07,186.64,303.1,186.16,303.55,185.7z"/>
<path class="st31" d="M257.07,150.86c14.69,0,29.39-0.01,44.08,0.02c0.96,0,2.03-0.38,2.87,0.48c-17.28,0-34.56,0-51.84,0
	c-0.01-0.17-0.02-0.34-0.02-0.5C253.79,150.86,255.43,150.86,257.07,150.86z"/>
<path class="st31" d="M304.54,151.37c0.66-0.77,1.55-0.49,2.35-0.49c11.89-0.02,23.78-0.02,35.67,0c0.8,0,1.7-0.28,2.35,0.49
	C331.45,151.36,318,151.37,304.54,151.37z"/>
<path class="st32" d="M234.86,171.56c-0.01-0.13,0-0.27,0.01-0.4l-0.01-0.22c9.75-0.2,19.49-0.24,29.24,0.02
	c0.19,0.05,0.38,0.09,0.56,0.14c-0.02,0.13-0.03,0.26-0.02,0.4c-0.41,0.41-0.93,0.31-1.42,0.31c-9.05,0-18.1,0.01-27.15,0
	C235.65,171.81,235.23,171.82,234.86,171.56z"/>
<path class="st15" d="M264.1,170.96c-9.75-0.01-19.49-0.01-29.24-0.02c0.48-0.45,1.08-0.39,1.67-0.39c8.64,0,17.28,0,25.93,0
	C263.03,170.56,263.64,170.47,264.1,170.96z"/>
<path class="st33" d="M371.67,222.55c0.21-0.01,0.42-0.03,0.63-0.04c0.09,0.14,0.18,0.29,0.27,0.43c-0.55,0.7-1.34,0.61-2.08,0.62
	c-6.8,0.02-13.59,0.01-20.39,0c-0.75,0-1.52,0.04-2.15-0.51c-0.03-0.32-0.06-0.65-0.09-0.97c0.2-0.01,0.39-0.02,0.59-0.03
	c2.3,0.57,4.64,0.17,6.96,0.25C360.84,222.49,366.26,222,371.67,222.55z"/>
<path class="st34" d="M347.96,223.05c8.21-0.04,16.41-0.07,24.62-0.11c0.04,0.19,0.08,0.37,0.11,0.56c-0.49,0.47-1.11,0.3-1.68,0.3
	c-7.12,0.01-14.24,0.01-21.36,0c-0.57,0-1.18,0.13-1.7-0.26C347.94,223.38,347.94,223.21,347.96,223.05z"/>
<path class="st35" d="M347.95,223.55c8.25-0.02,16.49-0.03,24.74-0.05c-0.44,0.7-1.15,0.57-1.81,0.57c-7.03,0.01-14.06,0.01-21.09,0
	C349.14,224.06,348.43,224.19,347.95,223.55z"/>
<path class="st15" d="M247.94,158.94c-4.01,0-8.03,0-12.04,0c0-0.17,0-0.34,0-0.5c2.9,0,5.82-0.11,8.71,0.04
	c2.07,0.11,3.27-0.31,2.89-2.7c-0.1-0.64-0.16-1.36,0.46-1.87C247.95,155.58,247.95,157.26,247.94,158.94z"/>
<path class="st36" d="M266.55,160.99c1.73,2.57,1.26,5.28,0.5,8.01C266.28,166.37,266.81,163.66,266.55,160.99z"/>
<path class="st37" d="M231.96,161.98c0.59,2.18,0.67,4.35-0.05,6.52c-0.11-0.1-0.22-0.19-0.33-0.29c-0.54-1.85-0.17-3.72-0.17-5.59
	C231.51,162.34,231.69,162.13,231.96,161.98z"/>
<path class="st15" d="M231.96,161.98c-0.12,0.12-0.19,0.26-0.21,0.43c-0.08,0.2-0.22,0.28-0.43,0.23c-0.27-0.14-0.45-0.36-0.49-0.67
	c0.75-0.78,1.06-2.13,2.54-1.98C232.91,160.67,232.08,161.07,231.96,161.98z"/>
<path class="st15" d="M232.47,169.98c-0.83-0.16-1.28-0.76-1.65-1.44c0.13-0.15,0.3-0.25,0.51-0.27c0.2,0.02,0.37,0.12,0.5,0.28
	l0.08-0.04C232.09,168.99,232.28,169.49,232.47,169.98z"/>
<path class="st15" d="M172.24,171.11c-0.06-1.14-0.69-2.07-1.24-2.98c-1.84-3.05-1.4-5.99,0.61-8.66c1.92-2.55,4.51-3.55,7.76-2.67
	c1.79,0.48,3.52,0.07,4.82-1.39c2.7-3.03,5.99-3.67,9.76-2.47c0.79-0.09,1.19,0.41,1.52,1c0.5,0.67,1,1.33,1.5,2
	c1.05,0.32,0.77,1.3,1.03,2.02c0.28,0.66,0.77,1.01,1.49,1c1.43,0.51,2.91,0.23,4.35,0.22c1.31-0.01,2.43,0.24,3.23,1.35
	c1.12,1.53,2.19,3.09,2.61,4.98c0.32,1.98-0.86,3.65-1.11,5.51c-0.81,2.38-1.16,4.74-0.93,7.33c0.33,3.62-1.48,6.18-4.34,7.13
	c-0.9,0.3-1.79,0.46-2.66-0.06c-0.61-0.69-0.28-1.44-0.08-2.14c0.95-3.27,0.95-6.63,0.78-9.98c-0.18-3.64-1.95-6.36-5.3-7.91
	c-2.12-0.99-3.55-0.7-4.34,1.41c-1.56,4.16-4.59,6.33-8.59,7.78c-3.52,1.27-4.89,4.95-3.72,8.74c0.33,1.07,1.2,2.09,0.43,3.31
	c-1.84,0.25-3.66,0.12-5.4-0.55c-3.51-1.35-5-4.81-3.66-8.32c0.47-1.23,1.33-2.31,1.42-3.68c-0.36-0.85,0.27-1.67,0.09-2.51
	C172.34,171.4,172.33,171.25,172.24,171.11z"/>
<path class="st14" d="M206,201h-33c-6.6,0-12-5.4-12-12v-6c0-6.6,5.4-12,12-12h33c6.6,0,12,5.4,12,12v6C218,195.6,212.6,201,206,201
	z"/>
<path class="st38" d="M163.17,226.11c-0.18-0.02-0.36-0.04-0.54-0.06c0.55-4.9,0.75-9.86,1.74-14.67
	c1.85-8.97,7.21-14.04,17.08-14.08c1.28-0.01,2.99,0.99,3.84-0.97c0.31,0.17,0.55,0.44,0.56,0.77c0.05,2.85,2.27,4,4.17,5.39
	c0.25,0.17-0.42,0.65,0.03,0.54c0.74-0.19,1.46-0.23,2.2-0.28c1.11,0.05,1.88-0.31,1.91-1.57c0.19-0.6,0.6-0.97,1.15-1.22
	c2.06-1.07,2.68-0.88,3.69,1.07c0.28,0.54,0.54,1.08,0.11,1.62c-0.41,0.52-0.93,0.23-1.35,0c-1.82-1.02-1.59,1.18-2.51,1.58
	c-2.38,0.7-4.82,0.37-7.22,0.32c-3.14-0.07-5.74,0.84-7.73,3.32c-2.01,1.51-4.02,3.03-5.71,4.92c-1.02,1.13-1.94,2.32-2.56,3.72
	c-1.62,3.7-1.54,4.22,1.15,6.99c0.27,1.06,0.33,2.07-0.57,2.9C169.45,227.07,166.28,227.43,163.17,226.11z"/>
<path class="st39" d="M190.02,202.82c-3.18-1-4.99-2.99-4.73-6.49c0.06-0.85,0.13-1.7,0.19-2.55c2.36,1.79,4.97,1.92,7.69,1.12
	c0.79-0.23,1.51-0.69,2.38-0.63c1.38,0.4,0.98,1.59,1.14,2.54c-0.05,1.32-0.06,2.66-1.41,3.45c-0.28,0.34-0.57,0.69-0.85,1.03
	c-0.5,1.48-1.87,1.45-3.04,1.77C190.91,203.08,190.41,203.27,190.02,202.82z"/>
<path class="st34" d="M151.11,222.64c0.17-0.03,0.35-0.05,0.52-0.08c0.76,0.37-0.1,0.59-0.08,0.89c-0.38,0.47-0.91,0.35-1.4,0.35
	c-7.48,0.01-14.95,0.01-22.43,0c-0.49,0-1.02,0.13-1.4-0.35c0.13-0.31,0.25-0.62,0.38-0.93c0.58,0.82,1.41,0.49,2.17,0.47
	c5.5-0.41,11-0.06,16.5-0.18C147.28,222.77,149.2,222.98,151.11,222.64z"/>
<path class="st40" d="M126.32,223.46c8.41,0,16.82,0,25.23,0c-0.49,0.83-1.32,0.6-2.04,0.6c-7.05,0.01-14.1,0.01-21.15,0
	C127.63,224.06,126.81,224.29,126.32,223.46z"/>
<path class="st41" d="M393.22,337.59c-13.18,0-26.36,0-39.55,0c0-0.08,0-0.17,0-0.25c13.22,0,26.44,0,39.65,0
	C393.29,337.42,393.25,337.51,393.22,337.59z"/>
<path class="st42" d="M122.3,271.59c15.81,0.01,31.61,0.03,47.42,0.04c-0.64,0.58-1.43,0.39-2.17,0.39
	c-14.37,0.01-28.74,0.01-43.11,0C123.72,272.02,122.92,272.24,122.3,271.59z"/>
<path class="st43" d="M166.11,298.17c-14.43,0-28.85,0-43.28,0c0-0.08,0-0.17,0-0.25c14.41,0,28.81,0,43.22,0
	C166.07,298,166.09,298.08,166.11,298.17z"/>
<path class="st42" d="M329.28,271.64c10.26-0.04,20.51-0.1,30.77-0.11c6.05-0.01,12.1,0.06,18.16,0.09c-0.63,0.61-1.42,0.4-2.16,0.4
	c-14.86,0.01-29.73,0.01-44.59,0C330.71,272.02,329.92,272.21,329.28,271.64z"/>
<path class="st44" d="M376.06,298.21c-14.36,0-28.72,0-43.08,0c0-0.08,0-0.17,0-0.25c14.39,0,28.79,0,43.18,0
	C376.12,298.04,376.09,298.13,376.06,298.21z"/>
<path class="st45" d="M383.68,277.09c0.02,5.03,0.04,10.07,0.06,15.1c-0.93-2.08-0.41-4.28-0.39-6.4
	C383.36,282.89,382.85,279.96,383.68,277.09z"/>
<path class="st46" d="M323.79,292.19c0-4.52-0.01-9.04-0.01-13.57C324.5,283.15,324.49,287.67,323.79,292.19z"/>
<path class="st13" d="M163.17,226.11c3.17-0.01,6.34-0.02,9.51-0.02c0.83-0.69,1.82-0.81,2.84-0.8c10.32,0.01,20.63-0.11,30.95,0.06
	c4.09-0.09,8.18-0.1,12.27,0c17.96-0.15,35.92-0.03,53.88-0.06c0.67,0,1.35,0.03,1.94,0.42c2.91,0.9,5.89,0.24,8.84,0.36
	c1.92-1.29,4.06-0.58,6.11-0.71c12.07-0.15,24.14-0.03,36.21-0.06c1.59,0,3.19,0.01,4.75-0.36c2.15,0.47,4.45,0.03,6.49,1.13
	c2.45,0,4.89,0,7.34,0c1.97,1.13,4.1,0.34,6.16,0.51c1.22,0.1,1.87-0.03,1.67,1.77c-0.76,6.64-2.02,13.2-2.93,19.8
	c-0.45,3.3-1.06,6.6-1.2,9.94c-0.09,2.03-0.9,2.96-2.92,2.85c-0.59-0.03-1.18,0-1.77,0c-62.58,0-125.16,0-187.74,0
	c-4.08,0-4.01-0.01-4.55-3.99c-1.26-9.26-2.58-18.5-3.92-27.75c-0.25-1.7-0.06-2.71,2.08-2.63c3.86,0.14,7.74,0.05,11.61,0.03
	C161.6,226.57,162.49,226.85,163.17,226.11z"/>
<path class="st14" d="M274.55,225.7c-0.58,0.43-1.25,0.42-1.93,0.42c-17.97-0.02-35.94-0.04-53.91-0.05
	c-1.81-2.68-1.21-5.84-1.65-8.77c-0.49-3.32-0.6-6.7-1.92-9.84c-2.73-6.46-8.38-9.75-15.99-9.43c-1.12,0.05-2.63,0.79-3.04-1.16
	c-0.19-0.87-0.37-1.73-0.56-2.6c2.1-2.73,4.43-5.33,5.06-8.9c5.16-0.71,6.76-2.74,6.25-8.18c-0.22-2.32-0.19-4.48,1.71-6.17
	c2.3,0.49,4.62,0.89,6.69,2.12c3.73,2.21,5.76,5.45,6.43,9.73c2.02,12.96,4.14,25.9,6.22,38.84c0.05,0.32,0.22,0.62,0.33,0.94
	c0.23,0.14,0.44,0.29,0.66,0.45c0.26,0.12,0.52,0.2,0.81,0.22c13.54,0.08,27.07,0.05,40.6,0.01c0.31-0.02,0.56-0.16,0.75-0.41
	c2.22-13.77,4.39-27.55,6.69-41.31c0.87-5.25,5.15-9.12,10.64-10.01c1.47,0.52,3.37-0.97,4.54,0.96c1.13,2.37,2.37,4.62,5.31,5.16
	c0.86,0.16,1.06,0.97,1.33,1.66c0.9,2.37,2.29,4.44,3.98,6.3c-0.03,0.49-0.06,0.97-0.09,1.46c-0.35,1.14-1.24,1.12-2.21,1.12
	c-2.85,0.01-5.75-0.22-8.55,0.2c-8.86,1.32-14.8,8.31-15.89,18.23C276.11,213.04,275.31,219.37,274.55,225.7z"/>
<path class="st47" d="M323.08,167.92c-0.31,0.39-0.67,0.75-0.93,1.18c-0.81,1.3-1.49,1.07-2.13-0.13c-1-1.89-1.53-3.91-1.37-6.05
	c0.1-1.32-0.31-1.55-1.56-1.2c-5.09,1.42-10.23,1.75-15.37,0.26c-0.99-0.29-1.35-0.07-1.3,1.02c0.12,2.22-0.37,4.33-1.38,6.31
	c-0.3,0.58-0.72,1.43-1.19,1.5c-0.83,0.14-1.02-0.89-1.42-1.49c-0.28-0.42-0.48-0.88-0.71-1.33c-1.27-6.48,3-12.97,9.49-14.29
	c3.59-0.73,7.21-0.61,10.75,0.31C321.55,155.48,324.97,162.24,323.08,167.92z"/>
<path class="st48" d="M228.29,223.07c-0.08-0.13-0.09-0.28-0.04-0.42c0.34-2.83,1.13,1.26,1.57-0.1c0.45-0.31,0.96-0.24,1.46-0.24
	c11.82,0,23.63,0,35.45,0c0.49,0,1.01-0.1,1.45,0.24c0.79,0.48,1.83-0.89,2.51,0.36c-0.67,0.92-1.67,0.64-2.55,0.64
	c-12.4,0.02-24.8,0.02-37.2,0.01C230.04,223.56,229.09,223.7,228.29,223.07z"/>
<path class="st34" d="M228.29,223.07c13.14,0,26.27,0,39.41-0.02c1,0,2-0.1,2.99-0.15c0.13,0.01,0.25,0.01,0.38,0.02
	c0.05,0.18,0.09,0.36,0.14,0.54c-0.47,0.53-1.09,0.34-1.66,0.34c-13.26,0.01-26.52,0.01-39.78,0.01c-0.5,0-1.01,0.07-1.47-0.22
	C228.29,223.42,228.29,223.24,228.29,223.07z"/>
<path class="st49" d="M268.18,222.55c-12.79,0-25.58,0-38.36,0c0.75-0.82,1.73-0.48,2.61-0.48c10.66-0.02,21.33-0.01,31.99-0.02
	c1.16,0,2.31,0.1,3.48-0.29C268.61,221.51,268.21,222.22,268.18,222.55z"/>
<path class="st15" d="M234.86,171.56c9.93-0.02,19.86-0.04,29.78-0.07c-0.25,0.38-0.61,0.56-1.06,0.56
	c-9.48,0.01-18.97,0.01-28.45,0.01c-0.07,0-0.2-0.04-0.21-0.08C234.88,171.85,234.88,171.7,234.86,171.56z"/>
<path class="st49" d="M371.67,222.55c-6.87,0-13.74,0.02-20.61-0.01c-0.88,0-1.86,0.34-2.6-0.49c6.87,0,13.74-0.01,20.6,0.02
	C369.94,222.07,370.93,221.73,371.67,222.55z"/>
<path class="st50" d="M292.94,172.57c-1.36-1.04-3.18,0.09-4.54-0.96c1.44-0.54,2.93-0.47,4.43-0.41
	C292.86,171.66,292.9,172.11,292.94,172.57z"/>
<ellipse class="st15" cx="221.98" cy="154.16" rx="33.86" ry="0.36"/>
<path class="st15" d="M239.22,157.43c-0.67,0-1.34,0.05-2-0.01c-0.59-0.06-1.54,0.34-1.56-0.68c-0.01-0.66,0.74-0.8,1.36-0.81
	c1.66-0.02,3.24-0.76,4.94-0.52c0.68,0.1,1.4,0.06,1.41,1.01c0.01,0.95-0.7,1-1.39,1.01C241.05,157.43,240.13,157.42,239.22,157.43z
	"/>
<path class="st33" d="M151.11,222.64c-0.34,0.51-0.88,0.41-1.36,0.41c-6.96-0.02-13.92-0.04-20.88-0.06c0.29-0.14,0.58-0.4,0.87-0.4
	C136.86,222.59,143.99,222.62,151.11,222.64z"/>
<path class="st47" d="M207.07,160.52c-2.23-1.94-5.18-0.44-7.58-1.57c1.84,0,3.68,0,5.52-0.02
	C206.12,158.93,207.03,159.14,207.07,160.52z"/>
<path class="st15" d="M231.48,168.47c-0.22,0.02-0.44,0.04-0.66,0.06c-0.39-2.19,0.09-4.38,0-6.56c0.18,0.19,0.36,0.39,0.54,0.58
	C231.77,164.51,231.55,166.49,231.48,168.47z"/>
<path class="st47" d="M195.46,153.93c-0.51-0.33-1.02-0.67-1.52-1c1.1-1.01,2.21-0.44,3.39-0.38
	C197.05,153.93,195.43,152.48,195.46,153.93z"/>
<path class="st47" d="M203.97,157.33c-0.5,0.04-0.82-0.2-0.81-0.69c0.01-0.49,0.39-0.68,0.85-0.69c0.45-0.01,0.9,0.11,0.84,0.63
	C204.8,157.01,204.43,157.28,203.97,157.33z"/>
<path class="st47" d="M197.99,157.96c-0.34-0.67-0.68-1.35-1.03-2.02C199.13,155.68,198.36,156.92,197.99,157.96z"/>
<path class="st51" d="M297.08,204.02c9.12-4.72,18.16-4.37,27.13,0.43c1.93,1.31,3.32,3.18,4.89,4.85c0.81,0.86,0.53,1.86-0.04,2.75
	c-0.58,0.89-0.95,1.94-1.84,2.62c-1,0.31-1.5-0.4-2.1-0.98c-3.4-3.37-7.33-5.69-12.19-6.19c-1.86-0.53-3.72-0.56-5.59-0.02
	c-4.19,0.48-7.81,2.19-10.87,5.09c-0.6,0.57-1.13,1.23-1.94,1.54c-3.02-1.76-3.36-3.34-1.17-5.74
	C294.64,206.96,295.57,205.23,297.08,204.02z"/>
<path class="st52" d="M297.08,204.02c-0.16,1.64-1.42,2.58-2.4,3.65c-2.72,2.97-2.75,2.95-0.3,6.22c1.84,3.07,1.21,6.54-1.61,8.62
	c-1.01,0.74-2.08,1.41-3.32,1.71c-1.93,0.32-3.95,1.38-5.61-0.64c-1.18-0.72-1.31-1.79-1.11-3.04c1.17-7.58,5.63-12.8,11.9-16.74
	C295.44,203.3,296.35,203.06,297.08,204.02z"/>
<path class="st52" d="M327.16,214.57c2.68-3.28,1.57-5.83-1.47-8.11c-0.64-0.48-0.99-1.33-1.47-2.01c0.55-1.27,1.44-1.19,2.46-0.61
	c6.64,3.77,10.71,9.4,12.16,16.9c0.32,1.66-0.58,2.66-2,3.31c-2.14,1.41-4.16,0.47-6.19-0.31c-2.82-1.39-4.76-3.37-4.55-6.79
	C326.14,216.01,326.19,215.08,327.16,214.57z"/>
<path class="st53" d="M283.84,223.59c1.84,0.75,3.68,0.53,5.53,0.04c0.69,0.81,0.68,1.61-0.02,2.41c-1.99,0.01-3.97,0.01-5.96,0.01
	C283.43,225.22,283.38,224.36,283.84,223.59z"/>
<path class="st54" d="M330.88,223.16c1.89,0.91,3.91,0.97,5.95,0.88c0.04,0.67,0.08,1.34,0.12,2c-1.98-0.33-4.22,1.04-5.97-0.88
	C330.15,224.54,330.23,223.87,330.88,223.16z"/>
<path class="st15" d="M231.48,168.47c-0.04-1.97-0.08-3.95-0.12-5.92c0.13-0.05,0.26-0.1,0.39-0.14c0.02,2.04,0.05,4.09,0.07,6.13
	C231.71,168.53,231.59,168.5,231.48,168.47z"/>
<path class="st38" d="M206.58,226.07c-11.3,0.01-22.6,0.01-33.9,0.02c0.03-0.98,0.07-1.96,0.1-2.94c2.15-1.23,4.66-1.94,6.09-4.2
	c1.03-0.63,0.6-1.26-0.02-1.89c-0.68-0.55-0.83-1.43-1.3-2.11c-0.98-1.4-0.69-2.62,0.46-3.79c0.92-0.94,2.02-1.81,1.82-3.36
	c1.29-2.69,3.62-3.81,6.42-3.93c3.08-0.14,6.16-0.05,9.24-0.07c2.57-0.1,4.49,1.24,5.74,4c-0.59,1.54,0.61,2.3,1.46,3.15
	c1.15,1.15,1.4,2.26,0.62,3.81c-1.91,3.82-1.46,5.09,2.26,7.3c0.44,0.26,0.84,0.55,1.11,0.99
	C207.2,224.07,207.4,225.09,206.58,226.07z"/>
<path class="st38" d="M191.33,202.81c1.03-0.51,2.07-1.02,3.1-1.53c0.96,2.28-0.82,1.88-2.02,2.07
	C192.15,202.99,191.56,203.26,191.33,202.81z"/>
<path class="st55" d="M191.33,202.81c0.41,0.08,0.86,0.09,1.09,0.54c-0.89,0-1.85,0.23-2.63-0.05c-0.84-0.3,0.09-0.33,0.23-0.48
	C190.46,202.81,190.89,202.81,191.33,202.81z"/>
<path class="st29" d="M330.88,223.16c0.04,0.67,0.07,1.33,0.11,2c-0.21,1.03-1.01,0.95-1.77,0.95c-13.29-0.02-26.58-0.05-39.87-0.07
	c0.01-0.8,0.01-1.61,0.02-2.41c5.11-2.33,5.65-3.37,5.02-9.73c3.32-3.96,7.49-6.39,12.68-6.98c2.02,0.03,4.03,0.04,6.05-0.01
	c4.9,0.36,8.77,2.78,12.2,6.08c0.58,0.56,0.9,1.44,1.84,1.57C325.94,218.81,326.8,220.81,330.88,223.16z"/>
<path class="st35" d="M228.3,223.59c13.21-0.01,26.42-0.01,39.63-0.02c1.09,0,2.18-0.07,3.28-0.1c-0.58,0.9-1.5,0.59-2.29,0.59
	c-12.83,0.02-25.66,0.01-38.49,0C229.69,224.06,228.89,224.27,228.3,223.59z"/>
<g>
	<path class="st38" d="M200.99,207.81c-1.35-2-3.18-3.36-5.51-4.01c0.12-2.95,0.34-3.04,3.6-1.25c-0.81-1.89-1.61-3.23-3.79-2.3
		c0.6-1.05,0.75-2.21,0.82-3.39c0.56,0.84,1.34,0.7,2.2,0.62c10.56-1.03,17.85,5.06,18.91,15.7c0.43,4.3,1,8.6,1.5,12.89
		c-4.05,0-8.09,0-12.14,0c0.03-1.04,0.01-2.07-0.42-3.05c0.06-0.06,0.11-0.15,0.18-0.17c3.93-1.41,4.11-1.78,2.49-5.87
		c-1.24-3.13-3.51-5.45-6.11-7.47C202.07,209,201.17,208.77,200.99,207.81z"/>
	<path class="st38" d="M179.23,218.9c-1.24,2.79-3.54,3.99-6.45,4.25c-2.5-0.23-3.02-1.65-2.41-3.86c1.43-5.25,4.62-9.04,9.45-11.48
		c0.64,0.19,1.1,0.49,0.7,1.25c-0.15,0.29-0.29,0.67-0.54,0.83c-3.34,2.11-2.47,4.64-0.76,7.26
		C179.74,217.72,179.73,218.31,179.23,218.9z"/>
	<path class="st56" d="M193.9,206.43c2.37,0.76,4.54,1.69,5.22,4.48c0.26,1.07,0.18,1.56-1.06,1.55c-5.04-0.03-10.09-0.03-15.13,0
		c-1.69,0.01-1.81-0.8-1.26-2.09c0.98-2.32,2.99-3.28,5.22-3.96C189.22,205.99,191.56,205.97,193.9,206.43z"/>
	<path class="st38" d="M200.99,207.81c4.23,2.23,7.3,5.51,8.86,10.07c1.5,4.37,0.88,5.19-3.7,5.13c-5.02-2.33-5.74-4.24-3.19-8.92
		c0.5-0.91,0.5-1.43-0.27-2.11c-0.81-0.72-1.53-1.54-2.22-2.38C199.85,208.82,199.66,208.07,200.99,207.81z"/>
</g>
<path class="st38" d="M193.9,206.43c-2.34,0-4.68-0.01-7.02-0.01c2.62-1.19,5.35-0.17,8.19-0.6c-0.26,0.32-0.32,0.49-0.43,0.52
	C194.41,206.41,194.15,206.41,193.9,206.43z"/>
<path class="st38" d="M179.23,218.9c0-0.59-0.01-1.17-0.01-1.76c1-0.4,0.63,0.54,0.56,0.73
	C179.65,218.21,180.43,219.14,179.23,218.9z"/>
<line class="st57" x1="-28" y1="427" x2="536" y2="427"/>
<path class="st58" d="M21.31,92.69c-0.03,0.79-0.06,1.58-0.09,2.37c-2.19-0.66-2.16-1.89-0.87-3.43
	C20.67,91.99,20.99,92.34,21.31,92.69z"/>
<g>
	<path class="st59" d="M204.63,152.36c2.73,2.12,4.07,5.63,9.37,7.08c-10.07,1.75-5.62,8.89-7.76,13.38
		c-0.14,0.18-0.29,0.37-0.43,0.55c-1.31,0.81-2.64,0.78-3.98,0.08c-1.72-1.31-1.05-3.23-1.34-4.9c-0.37-2.14-1.14-3.45-3.85-3.11
		c-4.41,0.56-8.76-0.41-13.12-0.8c-2.24-0.2-3.41,0.37-2.19,2.69c0.24,0.57,0.37,1.16,0.3,1.78c-0.45,1.43-1.74,1.78-3.04,2.14
		c-0.69,0.04-1.33-0.13-1.89-0.53c-0.46-0.46-0.69-1.02-0.73-1.64c-0.1-1,1.65-2.36-0.64-2.97c-0.29-0.31-0.51-0.65-0.69-1.03
		c-0.57-2.62-0.73-5.26-0.76-7.92c-0.01-1.41,0-2.82,1.14-3.94c0.89-2.49,2.44-4.36,5.27-5.03c0.32,0.26,0.54,0.59,0.65,0.98
		c-0.78,4.51-0.78,4.52,3.96,3.19c6.3-1.76,12.55-3.08,18.11,1.72c0.09-0.05,0.32,0.15,0.26,0.09c-0.37-0.41,0.25,0.02-0.16-0.39
		c-0.06-0.35-0.02-0.67,0.1-0.99C203.59,152.32,204,152.01,204.63,152.36z"/>
	<path class="st60" d="M183.56,147.36c3.91-1.12,7.82-1.11,11.74-0.02c-0.32,1.02-1.08,1.65-2.03,2.13
		c-2.55,0.76-5.11,0.75-7.67,0.03C184.64,149.03,183.89,148.38,183.56,147.36z"/>
	<path class="st61" d="M204.63,152.36c-0.34,0.31-0.68,0.62-1.03,0.93c-2.77-0.1-4.7-1.3-5.64-3.83c0.03-0.41,0.19-0.77,0.5-1.07
		c2.68,0,4.04,2.2,6.09,3.26C204.57,151.89,204.6,152.12,204.63,152.36z"/>
	<path class="st62" d="M183.56,147.36c0.65,0.29,1.3,0.58,1.95,0.87c-1.42,1.91-3.12,2.29-5.15,0.83c-0.02-0.29-0.03-0.58-0.05-0.87
		C181.2,147.23,182.44,147.5,183.56,147.36z"/>
	<path class="st63" d="M198.46,148.4c0.01,0.27,0.02,0.54,0.02,0.81c-2.08,1.38-3.76,0.9-5.14-0.99c0.65-0.29,1.31-0.58,1.96-0.87
		C196.54,147.19,197.45,147.93,198.46,148.4z"/>
	<path class="st64" d="M204.4,186.75c-0.05,0.52-0.11,1.03-0.16,1.55c0.45,2.7-1.32,4.28-3.21,5.8c-0.45,0.39-0.9,0.79-1.42,1.08
		c-1.58,0.91-3.21,1.66-5.15,1.45c-1.49-0.71-2.93-0.46-4.35,0.23c-0.68,0.11-1.36,0.12-2.04,0.13
		c-8.51-0.05-12.54-3.58-12.04-10.48c0.13-1.83,0.66-3.42,2.28-4.56c1.44-0.71,2.98-1.09,4.6-1.1c3.4,0.55,6.8,1.01,10.23,0.2
		c5.07,0.71,7.08-2.44,8.64-6.17c4.05,0.02,4.73,1.12,3.83,6.25c-0.31,1.44-0.62,2.88-0.93,4.31c-0.29-0.07-0.45-0.22-0.47-0.47
		C203.95,185.61,204.07,186.19,204.4,186.75z"/>
	<path class="st65" d="M205.61,181.14c-1.54-0.79-1.52-2.08-1.26-3.48c0.33-1.8-0.65-2.44-2.4-2.34c-0.51-0.54-0.53-1.13-0.18-1.75
		c1.4-0.78,3.14,0.29,4.49-0.75h-0.02c0.28-0.09,0.56-0.09,0.84,0c1.94,0.86,0.89,2.8,1.63,4.09
		C208.44,178.83,207.89,180.55,205.61,181.14z"/>
	<path class="st66" d="M208.71,176.92c-0.54-1.36-1.09-2.73-1.63-4.09C210.19,173.26,208.79,175.33,208.71,176.92z"/>
	<path class="st67" d="M204.4,186.75c-0.23-0.47-0.58-0.92-0.65-1.41c-0.07-0.47,0.15-0.98,0.24-1.46c0.83,0.29,0.42,1.07,0.69,1.58
		C204.59,185.89,204.49,186.32,204.4,186.75z"/>
	<path class="st39" d="M180.43,168.12c-3.42-0.58-1.49-2.98-1.44-4.46c0.06-1.78,1.76-1.21,3.03-1.02
		c5.66,0.84,11.33,1.77,17.08,0.71c2.1-0.39,2.9,0.45,2.87,2.39c-0.04,2.31,0.02,4.63,0.04,6.94c-2.13,1.19-2.8-1.33-4.39-1.54
		c-0.29-0.23-0.54-0.49-0.78-0.77c-0.83-1.03-1.65-1.1-2.49-0.01c-0.23,0.3-0.5,0.55-0.79,0.78c-0.47,0.35-1.05,0.5-1.56,0.79
		c-1.93,1.91-3.95,1.99-6.07,0.29c-2.18-1.39-5.45,0.74-7.21-2.01c0.87-0.45,1.74-0.91,2.61-1.36c-0.12-0.22,0.66-0.23,0.16-0.45
		C181.18,168.25,180.77,168.27,180.43,168.12z"/>
	<path class="st68" d="M193.34,148.21c1.71,0.33,3.43,0.66,5.14,0.99c1.71,1.36,3.42,2.72,5.12,4.08c0.03,0.24,0.05,0.49,0.08,0.73
		c0.25,0.22,0.33,0.44,0.24,0.65c-0.09,0.21-0.18,0.31-0.27,0.31c-6.47-3.26-13.01-3.08-19.74-0.65c-1.76,0.64-4.12,2.67-5.7,0.32
		c-1.47-2.18,0.6-3.99,2.15-5.59c1.72-0.28,3.43-0.55,5.15-0.83C188.12,148.23,190.73,148.22,193.34,148.21z"/>
	<path class="st69" d="M178.71,170.2c2.81,0.51,5.91-0.97,8.51,1.07c0.05,1.05-0.34,1.86-1.4,2.3c-1.34,0.41-2.77-0.01-4.11,0.44
		c-1.59,0.28-2.77-0.6-4.02-1.28c-0.52-0.39-0.76-0.93-0.81-1.54c0.09-0.26,0.17-0.53,0.26-0.79
		C177.66,170.32,178.19,170.26,178.71,170.2z"/>
	<path class="st70" d="M191.59,170.57c0.57-0.09,1.14-0.18,1.71-0.27c1.44-1.13,2.87-1.18,4.32-0.01c2.08-0.23,3.22,1.1,4.39,2.39
		c1.42,0.05,2.84,0.1,4.26,0.15c-1.06,1.78-3.03,0.46-4.4,1.16c-0.34,0.35-0.57,0.85-1.19,0.87c-0.55-0.06-1-0.3-1.39-0.67
		c-0.42-0.54-0.87-1.06-1.54-1.35c-1.94-0.88-4.34,0.32-6.14-1.21C191.36,171.28,191.35,170.93,191.59,170.57z"/>
	<path class="st71" d="M177,168.76c-0.31-0.28-0.63-0.55-0.94-0.83c-0.48-0.59-0.59-1.13,0.18-1.6c0.3-0.45,0.61-1.28,0.91-1.28
		c1.13,0.01,0.61,0.98,0.57,1.46C177.65,167.27,177.26,168.01,177,168.76z"/>
	<path class="st72" d="M203.65,154.98c0.01-0.32,0.02-0.64,0.04-0.96c0.94,0.78,1.88,1.56,3.15,2.62
		C204.75,157.05,204.39,155.72,203.65,154.98z"/>
	<path class="st73" d="M180.43,168.12c1.07-0.26,2.14-0.53,3.29,0.02c-0.52,1.16-1.6,0.5-2.39,0.7
		C181.03,168.6,180.73,168.36,180.43,168.12z"/>
	<path class="st74" d="M177.71,172.05c1.45,0.23,2.89,0.47,4.34,0.7c0.66,0.48,0.85,1.14,0.82,1.89c-0.41,1.65-1.5,2.41-3.29,2.23
		c-1.38-0.42-1.76-1.49-1.9-2.71l-0.04-0.17C177.24,173.33,177.21,172.68,177.71,172.05z"/>
	<path class="st75" d="M177.67,174.16c0.53,0.68,1.07,1.37,1.6,2.05c0.38,0.08,0.56,0.3,0.55,0.67c-0.22,0.5-0.61,0.78-1.19,0.79
		c-1.26-0.72-1.34-2.09-1.95-3.16C177.01,174.39,177.34,174.27,177.67,174.16z"/>
	<path class="st76" d="M200.82,174.4c0.35-0.14,0.69-0.28,1.04-0.41c0.03,0.45,0.06,0.89,0.09,1.34c-0.55,6.17-1.76,7.33-7.6,7.29
		c-1.08-0.58-2.28-0.2-3.41-0.4c-1.34-0.68-1.13-1.87-1.12-3.01c0.13-0.79,0.47-1.48,1.06-2.05c0.47-0.39,1.01-0.59,1.63-0.56
		c1.74,0.57,3.48,1.21,5.24,0.02C198.79,175.91,199.53,174.81,200.82,174.4z"/>
	<path class="st77" d="M178.68,182.75c-0.02-1.49-0.04-2.98-0.05-4.46c2.19-1.19,4.65-0.88,7.01-1.15c0.5,0.1,0.93,0.32,1.29,0.67
		c0.86,1.32,0.99,2.64-0.03,3.95c-1.2,1.04-2.86,0.09-4.12,0.86C181.4,182.66,180.04,182.7,178.68,182.75z"/>
	<path class="st78" d="M191.56,184.95c-0.12,2.48-2.35,3.86-4.75,2.78c-1.1-0.49-2-1.4-2.99-2.12
		C186.25,183.85,188.96,184.97,191.56,184.95z"/>
	<path class="st79" d="M182.77,182.61c1.07-0.77,2.36-0.62,3.58-0.78c1.47-1.09,2.93-1.47,4.39,0.02c1.23,0.11,2.53-0.03,3.61,0.75
		C190.48,182.61,186.63,182.61,182.77,182.61z"/>
	<path class="st79" d="M191.56,185.15c-2.55,0.69-5.26-0.72-7.74,0.83C186.2,183.14,188.89,184.26,191.56,185.15z"/>
	<path class="st64" d="M190.51,195.69c1.31-2.52,2.59-1.49,3.88,0.02l-0.36,0.08c-0.53,0.68-1.23,1-2.12,0.91
		c-0.41-0.09-0.77-0.26-1.1-0.5C190.71,196.03,190.61,195.86,190.51,195.69z"/>
	<path class="st80" d="M191.59,170.57c0,0.21-0.01,0.42-0.02,0.63c0.28,0.26,0.48,0.56,0.59,0.93c0.1,0.79-0.15,1.49-0.59,2.14
		c-0.24,0.31-0.55,0.56-0.89,0.77c-1.17,0.29-2.36,0.48-3.53,0.76c-1.19-0.17-1.84-0.85-2.05-1.95c0.01-0.42,0.21-0.74,0.57-0.98
		c0.52-0.53,1.04-1.07,1.56-1.6C189.28,174.45,190.05,170.32,191.59,170.57z"/>
	<path class="st81" d="M193.29,169.61c0.55-3.57,3.16-1.58,4.7-1.29c1.34,0.25,0.6,1.08-0.39,1.35
		C196.16,170.15,194.72,170.25,193.29,169.61z"/>
	<path class="st82" d="M193.29,169.61c1.44,0.02,2.87,0.04,4.31,0.06c0,0.21,0.01,0.41,0.01,0.62c-1.44,0-2.88,0.01-4.32,0.01
		C193.3,170.07,193.3,169.84,193.29,169.61z"/>
	<path class="st83" d="M185.67,172.87c0.06,0.29,0.12,0.57,0.18,0.86c0.08,1,0.58,2.11-0.77,2.75c-1.67,0.26-2.48-0.65-2.98-1.98
		c-0.02-0.58-0.04-1.17-0.05-1.75C183.31,171.35,184.47,172.44,185.67,172.87z"/>
	<path class="st84" d="M199.28,171.79c0.88,0.33,0.82,1.05,0.81,1.76c-0.31,0.88-0.19,1.92-1.12,2.55
		c-0.71,0.49-1.47,0.72-2.34,0.44c-0.81-0.4-1.24-1.04-1.32-1.9c0.17-1.98,1.57-2.57,3.39-2.69
		C198.89,171.89,199.08,171.84,199.28,171.79z"/>
	<path class="st85" d="M198.8,175.38c0.43-0.61,0.86-1.22,1.29-1.84c0.24,0.28,0.49,0.57,0.73,0.85c-0.5,1.26-0.72,2.67-2.01,3.53
		c-0.75,0.33-1.19,0.01-1.45-0.65C197.56,176.45,198.01,175.8,198.8,175.38z"/>
	<path class="st86" d="M191.48,171.89c0.04-0.22,0.07-0.45,0.09-0.68c2.56,0.29,5.22-0.54,7.71,0.59c0.08,0.13,0.1,0.27,0.04,0.42
		C196.71,172.11,193.96,174.8,191.48,171.89z"/>
	<path class="st87" d="M185.46,177.62c-2.1,1.88-4.52,0.81-6.84,0.66c-0.02-0.21-0.02-0.41,0-0.62c0.21-0.22,0.42-0.45,0.63-0.67
		c0.27-0.27,0.59-0.38,0.98-0.37c1.29,0.27,2.57-0.2,3.86-0.03c0.37,0.01,0.74,0.05,1.11,0.1
		C185.49,176.95,185.58,177.26,185.46,177.62z"/>
	<path class="st88" d="M180.39,177.14c-0.38-0.05-0.76-0.1-1.13-0.14c0.03-0.26,0.03-0.53,0.01-0.79c1.25-0.11,2.24-0.61,2.82-1.71
		c0.91,0.63,1.82,1.26,2.73,1.89c0.2,0.14,0.27,0.29,0.22,0.44c-0.06,0.16-0.11,0.24-0.18,0.24l-0.18-0.01
		C183.27,177.57,181.83,177.45,180.39,177.14z"/>
	<path class="st89" d="M190.73,181.85c-1.46-0.01-2.92-0.01-4.39-0.02c0-1.41,0-2.83,0-4.24c-0.62-0.95-0.27-1.53,0.79-1.83
		c0.99-0.13,1.6,0.39,2.09,1.11c0.4,0.89,0.89,1.74,1.49,2.53C191.76,180.22,191.08,181.04,190.73,181.85z"/>
	<path class="st90" d="M197.61,177.13c0.4,0.26,0.8,0.53,1.2,0.79c-2.22,0.31-4.73,2.28-6.33-0.98c0.16-0.18,0.31-0.36,0.47-0.54
		C194.7,175.51,196.22,175.98,197.61,177.13z"/>
	<path class="st77" d="M190.72,179.4c-1.27,0.04-2.41-0.1-2.6-1.62c0.69-0.76,0.87-2.1,2.39-1.94c0.93,0.28,0.8,1.1,1.01,1.75
		C191.25,178.2,190.99,178.8,190.72,179.4z"/>
	<path class="st91" d="M191.52,177.59c-0.29-0.48-0.59-0.96-0.88-1.44c-0.46-0.42-0.42-0.86-0.08-1.32c0.07-0.42,0.13-0.84,0.2-1.25
		c2.28,0.38,2.75,1.55,1.64,3.41l0.08-0.05C192.16,177.16,191.84,177.38,191.52,177.59z"/>
	<path class="st92" d="M186.98,176.01c-0.21,0.53-0.42,1.06-0.64,1.58c-0.29,0.01-0.59,0.02-0.88,0.03
		c-0.13-0.26-0.33-0.44-0.6-0.56c-0.02-0.23-0.03-0.45-0.04-0.68c0.34-0.89,0.68-1.77,1.02-2.66c0.39,0.52,0.77,1.05,1.16,1.57
		c0.32,0.17,0.42,0.33,0.31,0.48C187.2,175.93,187.09,176.01,186.98,176.01z"/>
	<path class="st93" d="M192.4,176.99c-0.31-1.24-0.48-2.54-1.64-3.41c-0.01-0.66-0.06-1.33,0.72-1.69c2.61,0.11,5.23,0.22,7.84,0.33
		c-1.06,0.71-2.51,0.95-3.03,2.3c-0.29-0.2-0.51-0.21-0.6,0c-0.33,0.79,0.3,1.14,0.81,1.54c0.77-0.22,1.54-0.45,2.3-0.67
		c-0.4,0.58-0.79,1.17-1.19,1.75C195.88,177.08,194.14,177.04,192.4,176.99z"/>
	<path class="st76" d="M186.98,176.01c0.02-0.24,0.03-0.47,0.02-0.71c0.94-1.82,2.16-1.78,3.56-0.46c0.03,0.44,0.06,0.88,0.08,1.32
		c-0.84,0.54-1.68,1.08-2.52,1.63C188,177.04,187.72,176.39,186.98,176.01z"/>
	<path class="st94" d="M196.5,176.05c-0.99-0.02-2.29,0.09-2.07-1.3c0.21-1.32,1.15-0.72,1.86-0.24
		C196.36,175.03,196.43,175.54,196.5,176.05z"/>
	<path class="st94" d="M182.69,176.05c-0.99-0.02-2.29,0.09-2.07-1.3c0.21-1.32,1.15-0.72,1.86-0.24
		C182.55,175.03,182.62,175.54,182.69,176.05z"/>
	<path class="st95" d="M180.39,177.14c1.43-0.03,2.86-0.06,4.3-0.09C183.28,178.01,181.85,178.01,180.39,177.14z"/>
</g>
<path class="st96" d="M247.47,149.36c-0.84,0.86-1.91,0.48-2.87,0.48c-30.68,0.02-61.35,0.02-92.03,0.02
	c-2.18,0.28-4.45-0.6-6.57,0.5c-0.17,0-0.33,0-0.5,0c0.41-1.66,1.77-0.97,2.71-0.97c23.6-0.04,47.19-0.03,70.79-0.03
	C228.49,149.35,237.98,149.36,247.47,149.36z"/>
<path class="st97" d="M295.07,167.65c0.02-0.22,0.04-0.44,0.07-0.66c-0.59-2.6-0.98-5.21-0.4-7.87c0.57-1.89,1.43-3.52,3.09-4.71
	c3.43-2.48,6.04-1.75,7.97,2.33c0.01,0.41,0.12,0.9-0.11,1.23c-4.37,6.22-4.13,13.33-3.9,20.46c0.05,1.53-0.02,3.09-1.15,4.32
	c-2.55,1.47-3.4-0.54-4.19-2.28c-0.74-1.63-0.65-3.52-1.15-5.24C295.04,172.71,293.47,170.23,295.07,167.65z"/>
<path class="st98" d="M305.06,156.85c-3.51-4.07-5.92-3.41-9.05,2.48c-3.06-0.56-3.01-2.7-2.48-5.08c0.21-1.97,1.11-3.59,2.38-5.03
	c0.58,0.3,1.17,0.59,1.75,0.89c1.13,1.57,2.49,0.61,3.72,0.27c3.87-1.04,7.8-1.34,11.78-1.12c1.76,0.1,3.63,0.06,4.5,2.16
	c-1.08,3.69-4.05,5.41-7.08,7.08C308.53,158.67,306.49,158.83,305.06,156.85z"/>
<path class="st99" d="M295.98,174.62c0.99,1.46,1.46,3.11,1.87,4.82c0.32,1.34,0.41,3.07,2.38,3.23c2.26-0.19,3.36,0.93,3.44,3.2
	c-0.27,0.72-0.8,1.17-1.47,1.48c-3.18,1.2-5.31-1.33-7.88-2.32c-0.48-0.37-0.96-0.75-1.44-1.12c-1-2.94,1.56-5.11,1.63-7.82
	C295.06,175.65,294.31,173.89,295.98,174.62z"/>
<path class="st100" d="M293.52,154.24c-0.08,2.16,1.18,3.63,2.48,5.08c-0.29,2.55-0.57,5.11-0.86,7.66
	C292.85,162.97,291.67,158.81,293.52,154.24z"/>
<path class="st101" d="M295.98,174.62c-0.48,0.49-0.97,0.98-1.45,1.46c-0.11-0.98-0.42-1.83-1.09-2.61
	c-2.34-2.75-1.77-4.73,1.64-5.83C296.16,169.87,296.34,172.21,295.98,174.62z"/>
<path class="st102" d="M310.8,157.54c1.78-2.4,3.76-4.56,6.54-5.78c3.57-1.81,4.88-1.3,6.53,2.56c2.04,3.35,2.26,7.28,3.35,10.93
	c0.01,0.28-0.03,0.55-0.13,0.81c-0.11,2.8,1.33,5.75-0.71,8.38c-0.74,2.49-0.56,5.63-4.14,6.11c-2.16-1.28-2.27-3.6-2.68-5.71
	c-0.47-2.43-1.1-4.78-2.37-6.91c-0.28-0.72-0.53-1.46-0.97-2.11C314.53,162.97,311.19,161.26,310.8,157.54z"/>
<path class="st103" d="M328.7,184.56c-1.29,0.09-2.14,1.04-3.13,1.71c-1.74,0.73-3.37,1.93-5.43,1.4c-0.84-0.37-1.75-0.65-2.22-1.58
	c-0.08-3.13,1.55-4.92,4.36-5.79c1.09-1.94,2.18-3.89,3.27-5.83c2.21-0.31,0.6,1.91,1.54,2.43
	C327.57,179.47,329.8,181.65,328.7,184.56z"/>
<path class="st30" d="M327.09,176.91c-0.51-0.81-1.03-1.62-1.54-2.43c0.51-2.8,1.03-5.61,1.54-8.41
	C330.49,169.68,327.6,173.29,327.09,176.91z"/>
<path class="st52" d="M322.28,180.3c-1.01,1.99-2.08,3.94-4.14,5.03c-1.31,1.52-3.97,0.95-4.78,3.26c-0.34,0.22-0.71,0.37-1.1,0.45
	c-1.2,0.05-2.4,0.1-3.59-0.05c-0.36-0.09-0.69-0.26-0.99-0.49c-0.45-0.92-0.79-2.01-2.18-1.71c-0.9-0.24-1.75-0.54-2.23-1.44
	c-1.01-0.89-2.02-1.79-3.03-2.69c-0.27-5.42-0.42-10.81,0.36-16.22c0.54-3.72,1.91-6.92,4.46-9.6c1.95-0.13,3.9-0.16,5.74,0.69
	c2.69,2.15,4.9,4.72,6.56,7.79c0.16,0.59-0.04,1.35,0.79,1.59C320.63,171.02,321.63,175.6,322.28,180.3z"/>
<path class="st104" d="M318.15,166.92c-1.09,0.49-2.17,1.09-3.35,0.03c0.46-1.35,2.07-0.56,2.56-1.62
	C317.62,165.85,317.88,166.38,318.15,166.92z"/>
<path class="st78" d="M314.06,180.1c-0.12,2.54-2.24,3.96-4.52,2.85c-1.05-0.51-1.9-1.43-2.84-2.17
	C309.01,178.97,311.58,180.12,314.06,180.1z"/>
<path class="st105" d="M307.5,187.83c-0.29,0.01-0.57,0.02-0.86,0.04c-0.53-0.28-1.07-0.56-1.6-0.84c0.26-0.28,0.52-0.55,0.78-0.83
	c1.07-0.53,2.35-1.11,3.07,0.17C309.33,187.13,307.79,187.12,307.5,187.83z"/>
<path class="st106" d="M306.36,165.89c-0.9,0.89-1.54,2.06-2.98,1.23c-0.22-0.13-0.4-0.84-0.26-1.03
	C304,164.89,305.06,164.89,306.36,165.89z"/>
<path class="st107" d="M313,175.61c-1.58,1.65-2.65,1.51-4.35,0.39C310.22,175.86,311.28,175.76,313,175.61z"/>
<path class="st108" d="M316.27,169.56c0.5,0.56,1.23,1.07,1.49,1.76c0.26,0.68-0.55,0.77-1.05,0.76c-0.77-0.02-1.23-0.55-1.31-1.29
	C315.35,170.25,315.58,169.73,316.27,169.56z"/>
<path class="st109" d="M304.73,172.04c-0.79-0.03-1.24-0.51-1.26-1.25c-0.01-0.43-0.11-1.32,0.7-1.03c0.55,0.19,1.1,0.78,1.37,1.33
	C305.84,171.68,305.35,172.02,304.73,172.04z"/>
<path class="st105" d="M312.46,187.87c-1.4,1.06-2.79,1.06-4.19,0C309.67,187.87,311.06,187.87,312.46,187.87z"/>
<path class="st14" d="M247.47,149.36c0.62,1.04,1.29,1.94,2.82,0.63c-0.97-0.19-2.02-0.24-1.79-1.53c0.09-0.52,0.19-0.95,0.81-1.07
	c1.23-0.25,1.06,1.07,1.7,1.47c0.93,0.89,2.08,0.48,3.13,0.48c32.37,0.02,64.73,0.02,97.1,0.02c3.03,0,5.65,2.97,5.33,6.28
	c-0.03-2.56-2.91-3.11-3.55-5.41c-0.26-0.93-2.19-0.5-3.23-0.28c-0.96,0.2-3-1.43-2.95,1.29c0,0.03-1.24,0.09-1.91,0.13
	c-0.53-0.37-1.13-0.25-1.71-0.25c-12.32-0.01-24.64-0.01-36.96,0c-0.58,0-1.18-0.13-1.7,0.25c-0.17,0-0.34,0-0.52,0
	c-0.87-0.48-1.81-0.24-2.71-0.24c-13.84-0.02-27.68-0.01-41.52-0.02c-0.9,0-1.85,0.23-2.72-0.23c-0.79-0.71-1.77-0.91-2.77-1
	c-2.94-0.27-3.73,0.41-4.5,4.55c-0.2-3.13-1.78-3.07-3.51-3.06c-19.75,0.03-39.51,0.02-59.26,0.02c-11.17,0-22.33-0.03-33.5,0.04
	c-1.56,0.01-1.55-0.47-0.97-1.55c0.87-0.47,1.82-0.23,2.72-0.23c29.74-0.01,59.47-0.01,89.21-0.02
	C245.48,149.6,246.51,149.85,247.47,149.36z"/>
<path class="st12" d="M353.97,147.93c-0.71,0.61-1.56,0.52-2.4,0.52c-33.17,0.14-66.34,0.28-99.52,0.42c-0.34,0-0.67-0.03-1.01-0.05
	c-0.78-0.53-1.61-1.15-2.47-0.3c-1.16,1.14-2.59,1.05-4.01,1.05c-29.8,0.14-59.6,0.27-89.41,0.37c-2.6,0.01-5.19-0.21-7.8-0.18
	c-0.76,0.01-1.77,0.23-1.88-1.04c0.51-3.57,2.45-5.66,5.88-6.24c0.9-0.15,1.84-0.16,2.76-0.16c27.84-0.13,55.67-0.25,83.51-0.37
	c0.92,0,1.85-0.07,2.77-0.11c0.73-0.68,1.63-0.81,2.57-0.82c4.35-0.07,8.7-0.08,13.05-0.06c0.93,0.01,1.84,0.13,2.58,0.79
	c4.29,0.02,8.58,0.07,12.87,0.05c24.48-0.09,48.97-0.2,73.45-0.31C350.41,141.46,352.23,142.74,353.97,147.93z"/>
<text transform="matrix(1 0 0 1 225.7627 298.7998)" class="st15 st110 st111">HOV</text>
<g>
	<path class="st12" d="M184.94,95.82c-1.8,0.9-5.41,1.8-10.03,1.8c-10.71,0-18.77-6.76-18.77-19.22c0-11.89,8.06-19.95,19.84-19.95
		c4.73,0,7.72,1.01,9.02,1.69l-1.18,4c-1.86-0.9-4.51-1.58-7.67-1.58c-8.91,0-14.82,5.69-14.82,15.67c0,9.3,5.35,15.28,14.6,15.28
		c2.99,0,6.03-0.62,8-1.58L184.94,95.82z"/>
	<path class="st12" d="M191.08,59.07h4.9v33.88h16.23v4.11h-21.14V59.07z"/>
	<path class="st12" d="M247.95,77.67c0,13.08-7.95,20.01-17.64,20.01c-10.03,0-17.08-7.78-17.08-19.28
		c0-12.06,7.5-19.95,17.64-19.95C241.24,58.45,247.95,66.4,247.95,77.67z M218.47,78.29c0,8.12,4.4,15.39,12.12,15.39
		c7.78,0,12.17-7.16,12.17-15.78c0-7.55-3.95-15.44-12.12-15.44C222.53,62.45,218.47,69.95,218.47,78.29z"/>
	<path class="st12" d="M253.64,91.09c2.2,1.35,5.41,2.48,8.79,2.48c5.02,0,7.95-2.65,7.95-6.48c0-3.55-2.03-5.58-7.16-7.55
		c-6.2-2.2-10.03-5.41-10.03-10.77c0-5.92,4.9-10.31,12.29-10.31c3.89,0,6.71,0.9,8.4,1.86l-1.35,4c-1.24-0.68-3.78-1.8-7.21-1.8
		c-5.19,0-7.16,3.1-7.16,5.69c0,3.55,2.31,5.3,7.55,7.33c6.43,2.48,9.69,5.58,9.69,11.16c0,5.86-4.34,10.93-13.3,10.93
		c-3.66,0-7.67-1.07-9.7-2.42L253.64,91.09z"/>
	<path class="st12" d="M301.77,79.25H287v13.7h16.46v4.11H282.1V59.07h20.52v4.11H287v12.01h14.77V79.25z"/>
	<path class="st12" d="M309.83,59.58c2.99-0.45,6.54-0.79,10.43-0.79c7.04,0,12.06,1.63,15.39,4.73c3.38,3.1,5.35,7.5,5.35,13.64
		c0,6.2-1.92,11.27-5.47,14.77c-3.55,3.55-9.41,5.47-16.8,5.47c-3.49,0-6.43-0.17-8.91-0.45V59.58z M314.73,93.17
		c1.24,0.23,3.04,0.28,4.96,0.28c10.48,0,16.18-5.86,16.18-16.12c0.06-8.96-5.02-14.65-15.39-14.65c-2.54,0-4.45,0.22-5.75,0.51
		V93.17z"/>
</g>
</svg>
