<?xml version="1.0" encoding="utf-8"?>
<!-- Generator: Adobe Illustrator 24.0.1, SVG Export Plug-In . SVG Version: 6.00 Build 0)  -->
<svg version="1.1" xmlns="http://www.w3.org/2000/svg" xmlns:xlink="http://www.w3.org/1999/xlink" x="0px" y="0px"
	 viewBox="0 0 500 500" style="enable-background:new 0 0 500 500;" xml:space="preserve">
<style type="text/css">
	.st0{fill:#FFC30B;}
	.st1{fill:#050301;}
</style>
<g id="Layer_1">
	<path class="st0" d="M249.26,35.09c7.68,0.09,12.85,3.43,17.42,8.05c6.22,6.28,12.47,12.53,18.72,18.79
		c21.2,21.23,42.39,42.46,63.61,63.67c18.33,18.32,36.7,36.6,55.02,54.92c18.11,18.12,36.18,36.28,54.29,54.4
		c8.25,8.25,8.27,21.53,0.07,29.72c-9.77,9.77-19.5,19.58-29.25,29.38c-8.38,8.42-16.73,16.87-25.13,25.26
		c-13.07,13.05-26.19,26.04-39.25,39.09c-15.04,15.02-30.04,30.08-45.06,45.11c-12.94,12.94-25.89,25.87-38.84,38.8
		c-5.45,5.44-10.9,10.87-16.38,16.27c-7.9,7.77-20.75,8.1-28.92,0.28c-6.42-6.16-12.62-12.55-18.93-18.83
		c-16.29-16.23-32.64-32.41-48.87-48.69c-10.62-10.65-21.17-21.36-31.93-31.86c-10.43-10.18-20.58-20.64-30.85-30.98
		c-12.68-12.76-25.32-25.54-38.04-38.26c-8.46-8.47-17.18-16.69-25.5-25.29c-7.9-8.16-8.73-20.33-0.86-28.95
		c8.23-9,17.12-17.35,25.72-25.99c11.13-11.18,22.33-22.29,33.46-33.46c8.13-8.16,16.16-16.42,24.31-24.57
		c10.5-10.5,21.15-20.85,31.6-31.41c7.35-7.43,14.88-14.68,22.09-22.26c4.26-4.47,8.82-8.7,13.2-13.09
		c8.36-8.39,16.78-16.72,25.19-25.05c6.56-6.5,12.9-13.23,19.7-19.49C239.9,36.91,244.72,35.23,249.26,35.09z M249.94,41.44
		c-5.39-0.11-9.14,2.86-12.71,6.45c-32.89,32.97-65.84,65.88-98.76,98.81c-30.82,30.82-61.62,61.65-92.44,92.47
		c-1.57,1.57-2.86,3.32-3.6,5.43c-2.43,6.92-0.08,12.34,4.89,17.3c33.24,33.12,66.39,66.33,99.57,99.51
		c30.58,30.58,61.14,61.16,91.74,91.72c6.97,6.96,15.52,6.92,22.53-0.04c5.35-5.31,10.66-10.67,15.99-16
		c39.87-39.88,79.73-79.76,119.6-119.63c18.79-18.79,37.59-37.56,56.39-56.33c2.28-2.28,4.04-4.83,4.73-8.04
		c1.34-6.24-1.16-10.98-5.48-15.3c-49.6-49.51-99.14-99.08-148.69-148.63c-14.2-14.2-28.42-28.39-42.6-42.62
		C257.99,43.42,254.41,41.49,249.94,41.44z"/>
	<path class="st1" d="M249.94,41.44c4.47,0.05,8.05,1.97,11.15,5.09c14.18,14.23,28.39,28.42,42.6,42.62
		c49.56,49.55,99.1,99.12,148.69,148.63c4.32,4.32,6.82,9.06,5.48,15.3c-0.69,3.21-2.45,5.76-4.73,8.04
		c-18.8,18.77-37.6,37.55-56.39,56.33c-39.87,39.87-79.74,79.75-119.6,119.63c-5.33,5.33-10.64,10.69-15.99,16
		c-7.01,6.96-15.56,7-22.53,0.04c-30.59-30.56-61.16-61.14-91.74-91.72c-33.18-33.18-66.33-66.38-99.57-99.51
		c-4.97-4.96-7.32-10.38-4.89-17.3c0.74-2.11,2.03-3.86,3.6-5.43c30.82-30.82,61.62-61.65,92.44-92.47
		c32.92-32.93,65.87-65.84,98.76-98.81C240.81,44.31,244.55,41.33,249.94,41.44z M249.68,451.92c2.82,0.01,5-1.29,6.94-3.23
		c7.85-7.9,15.73-15.76,23.61-23.63c55.98-55.98,111.96-111.95,167.95-167.93c5.03-5.02,5.07-9.48,0.05-14.5
		c-26.23-26.23-52.47-52.46-78.71-78.69c-37.39-37.39-74.78-74.79-112.18-112.19c-5.44-5.44-9.59-5.39-15.04,0.06
		c-14.19,14.21-28.4,28.4-42.6,42.6c-38.82,38.82-77.63,77.65-116.45,116.47C72.33,221.8,61.4,232.7,50.53,243.65
		c-3.77,3.8-3.7,8.46-0.02,12.37c0.6,0.64,1.21,1.27,1.83,1.89c40.62,40.62,81.25,81.24,121.87,121.86
		c22.82,22.82,45.65,45.64,68.45,68.49C244.65,450.25,246.74,451.84,249.68,451.92z"/>
	<path class="st0" d="M249.68,451.92c-2.93-0.08-5.03-1.67-7.01-3.66c-22.8-22.85-45.62-45.67-68.45-68.49
		c-40.62-40.62-81.25-81.24-121.87-121.86c-0.62-0.62-1.23-1.25-1.83-1.89c-3.69-3.92-3.76-8.57,0.02-12.37
		c10.87-10.96,21.81-21.85,32.72-32.76c38.82-38.82,77.63-77.65,116.45-116.47c14.2-14.2,28.41-28.39,42.6-42.6
		c5.45-5.46,9.6-5.5,15.04-0.06c37.39,37.39,74.78,74.79,112.18,112.19c26.23,26.23,52.47,52.46,78.71,78.69
		c5.02,5.02,4.98,9.47-0.05,14.5C392.18,313.1,336.2,369.08,280.22,425.06c-7.87,7.87-15.76,15.74-23.61,23.63
		C254.68,450.64,252.49,451.93,249.68,451.92z M427.9,256.62c-0.18-2.98-0.67-6.78-3.55-9.79c-0.45-0.47-0.58-1.07-0.61-1.69
		c-0.41-7.99-2.74-15.2-7.31-21.94c-3.56-5.25-7.08-10.41-11.78-14.7c-0.56-0.51-1.08-0.78-1.83-0.82
		c-9.98-0.6-19.95-1.14-29.95-0.19c-16.35,1.56-32.54,3.79-47.98,9.78c-3.6,1.4-7.2,2.74-10.52,4.76
		c-8.33,5.06-16.46,10.42-23.99,16.6c-3.5,2.87-7.54,4.88-11.04,7.77c-2.77,2.28-6.49,3.39-9.77,5.05
		c-0.64,0.32-1.25,0.71-1.98,0.46c-1.54-0.54-3.18-1.52-3.39,1.36c-0.03,0.49-0.68,0.3-1.09,0.4c-2.05,0.47-2.66,3.15-4.96,3.33
		c-0.05,0,0.02,0.62-0.12,0.73c-1.58,1.16-3.38,2.11-3.89,4.26c-0.01,0.02-0.17,0.02-0.25,0.02c-1.16-0.1-1.07,1.07-1.52,1.46
		c-2.32,2-2.17,4.22-1.38,6.76c0.1,0.33-0.66,0.95-1.05,1.41c-0.74,0.89-1.06,1.78-1.13,3.05c-0.28,4.92,3.07,8.02,5.45,11.59
		c1.31,1.97,3.16,2.83,5.68,2.18c1.94-0.5,4-0.49,5.97-0.88c1.27-0.25,2.06,0,2.93,1.04c7.43,8.84,20.39,7.49,25.84-2.73
		c0.82-1.55,1.79-2.05,3.41-2.24c6.44-0.73,12.87-1.58,19.3-2.43c19.9-2.62,39.79-5.3,59.71-7.82c1.9-0.24,4.09-0.48,5.61,1.77
		c3.93,5.82,9.87,8.31,16.11,6.75c6.64-1.66,10.52-6.03,11.54-12.8c0.19-1.28,0.66-1.8,1.88-2.03c3.19-0.59,6.36-1.27,9.53-1.92
		C426.35,264.21,428.04,262.13,427.9,256.62z M92.26,232.77c-11.29,0.09-11.25-1.3-14.5,10.33c-0.81,2.9-0.67,6.08-3.07,8.44
		c-0.49,0.48-0.67,1.46-0.69,2.21c-0.08,3.36,1.53,6.42,1.9,9.72c0.07,0.6,0.75,0.89,1.31,1.19c2.97,1.59,6.37,1.91,9.47,3.33
		c2.67,1.22,5.97,1.19,9.02,1.42c1.9,0.15,2.87,0.72,3.57,2.64c1.78,4.89,5.81,7.12,10.72,7.68c4.54,0.51,8.6-0.69,11.16-4.83
		c0.86-1.38,1.83-1.23,3.1-1.08c17.15,2.05,34.3,4.05,51.45,6.08c8.71,1.03,17.4,2.12,26.11,3.18c1.63,0.2,2.86,0.56,3.28,2.62
		c0.53,2.53,2.51,4.15,4.81,5.25c5.81,2.77,12.09,0.95,15.55-4.57c0.52-0.83,1.61-1.73,1.86-0.91c0.83,2.71,2.85,1.74,4.46,1.82
		c1.91,0.09,3.88,0.05,5.65-0.88c0.53-0.28,1.24-0.63,1.43-1.11c1.2-3.15,2.81-6.27,2.37-9.77c-0.42-3.37-3.08-5.92-3.66-9.33
		c-0.27-1.57-0.4-3.41-2.99-3.86c-0.85-0.15-1.78-2.22-3.65-1.89c-0.55,0.1-0.55-0.54-0.67-0.94c-0.14-0.5-0.33-1.33-0.83-1.17
		c-1.87,0.61-2.95-1.58-3.54-1.54c-2.34,0.13-4.29-1.83-6.11-1.41c-2.26,0.53-4.11,0.12-6.1-0.45c-4.04-1.16-8.1-2.26-12.1-3.57
		c-2.88-0.94-6.02-1.23-8.46-3.35c-5.36-4.67-11.15-8.79-16.85-13.01c-3.04-2.25-6.33-3.7-9.89-4.69
		c-8.23-2.31-16.71-3.01-25.13-4.18c-10.95-1.53-21.45,0.1-31.86,3.46C103.61,231.46,97.92,234.22,92.26,232.77z M322.65,367.48
		c-0.89-1.12-1.3-1.67-1.74-2.19c-19.96-23.51-39.93-47.02-59.9-70.52c-0.91-1.07-1.72-2.24-2.77-3.16
		c-1.15-1.01-2.87-0.94-3.9-0.23c-0.77,0.53,0.6,1.58,1,2.41c0.3,0.63,0.75,1.18,1.13,1.77c15.12,23.4,30.24,46.8,45.38,70.19
		c0.51,0.78,0.87,1.75,2.09,1.75C309.97,367.47,316,367.48,322.65,367.48z M164.89,160.9c0.74,0.97,1.08,1.47,1.47,1.93
		c20.66,24.31,41.33,48.61,61.94,72.96c1.55,1.83,3.21,1.58,5.3,1.32c-0.23-0.49-0.33-0.81-0.5-1.08
		c-15.92-24.67-31.84-49.33-47.75-74c-0.46-0.72-0.98-1.16-1.89-1.15C177.44,160.91,171.42,160.9,164.89,160.9z M240.34,158.59
		c-2.19,0-4.39,0.09-6.57-0.03c-1.79-0.1-2.18,0.52-2.02,2.28c2.29,26.37,4.5,52.75,6.78,79.13c0.07,0.82-0.55,2.42,1.24,2.33
		c1.47-0.08,2.19-0.86,2.31-2.54c0.45-6.47,1.09-12.93,1.67-19.39c1.79-19.9,3.56-39.81,5.41-59.71c0.16-1.74-0.41-2.14-1.97-2.09
		C244.9,158.66,242.62,158.6,240.34,158.59z M246.96,369.82c2.1,0,4.22-0.13,6.31,0.04c2.12,0.17,2.7-0.56,2.49-2.67
		c-0.81-8.38-1.47-16.77-2.19-25.15c-1.55-18.08-3.09-36.16-4.68-54.24c-0.06-0.64,0.35-1.9-0.87-1.73
		c-0.97,0.13-2.39,0.12-2.45,1.81c-0.04,1.31-0.28,2.61-0.4,3.92c-1.38,15.28-2.77,30.56-4.14,45.84
		c-0.88,9.78-1.67,19.57-2.66,29.34c-0.24,2.41,0.45,3.13,2.79,2.9C243.09,369.66,245.03,369.82,246.96,369.82z M251.36,234.54
		c0.29,0.27,0.57,0.53,0.86,0.8c14.42-16.69,28.85-33.38,43.75-50.63c-6.36,0-11.94,0.07-17.51-0.04c-1.73-0.03-2.64,0.49-3.42,2.08
		c-4.37,8.99-8.87,17.91-13.32,26.86C258.26,220.58,254.81,227.56,251.36,234.54z M191.59,343.64c6.36,0,11.94-0.08,17.52,0.05
		c1.76,0.04,2.63-0.54,3.4-2.11c6.49-13.21,13.08-26.36,19.59-39.56c1.16-2.35,2.09-4.8,3.12-7.21c-0.27-0.2-0.54-0.4-0.81-0.61
		C220.15,310.33,206.26,326.79,191.59,343.64z"/>
	<path class="st1" d="M427.9,256.62c0.13,5.51-1.55,7.59-6.14,8.53c-3.18,0.65-6.35,1.34-9.53,1.92c-1.22,0.22-1.68,0.75-1.88,2.03
		c-1.02,6.77-4.9,11.14-11.54,12.8c-6.24,1.56-12.17-0.93-16.11-6.75c-1.52-2.25-3.71-2.01-5.61-1.77
		c-19.91,2.52-39.81,5.2-59.71,7.82c-6.43,0.85-12.86,1.7-19.3,2.43c-1.63,0.18-2.59,0.69-3.41,2.24
		c-5.45,10.22-18.41,11.58-25.84,2.73c-0.87-1.04-1.66-1.28-2.93-1.04c-1.97,0.39-4.04,0.38-5.97,0.88
		c-2.52,0.65-4.37-0.2-5.68-2.18c-2.38-3.57-5.73-6.68-5.45-11.59c0.07-1.26,0.4-2.16,1.13-3.05c0.39-0.47,1.15-1.08,1.05-1.41
		c-0.79-2.54-0.94-4.76,1.38-6.76c0.45-0.39,0.36-1.56,1.52-1.46c0.09,0.01,0.25,0.01,0.25-0.02c0.51-2.15,2.3-3.1,3.89-4.26
		c0.15-0.11,0.07-0.73,0.12-0.73c2.3-0.17,2.91-2.86,4.96-3.33c0.4-0.09,1.05,0.1,1.09-0.4c0.2-2.88,1.85-1.9,3.39-1.36
		c0.73,0.26,1.34-0.14,1.98-0.46c3.29-1.66,7.01-2.77,9.77-5.05c3.51-2.89,7.54-4.9,11.04-7.77c7.53-6.18,15.66-11.54,23.99-16.6
		c3.32-2.01,6.92-3.36,10.52-4.76c15.45-5.99,31.64-8.22,47.98-9.78c10-0.95,19.97-0.42,29.95,0.19c0.75,0.05,1.27,0.31,1.83,0.82
		c4.71,4.29,8.23,9.45,11.78,14.7c4.57,6.74,6.89,13.95,7.31,21.94c0.03,0.62,0.16,1.22,0.61,1.69
		C427.24,249.84,427.72,253.64,427.9,256.62z M343.54,226.51c0.19,2.52,0.54,6.54,0.77,10.56c0.1,1.85,0.65,2.57,2.71,2.23
		c8.81-1.48,17.63-2.82,26.46-4.15c1.34-0.2,1.78-0.64,1.5-2.05c-1.11-5.67-2.33-11.31-3.91-16.88c-0.51-1.79-1.38-2.09-3.03-1.92
		c-5.84,0.61-11.66,1.31-17.44,2.3C342.33,218.01,343.55,216.2,343.54,226.51z M337.72,230.09c0.03,0,0.06,0,0.08,0
		c0-1.66-0.03-3.33,0.01-4.99c0.15-6.83,0.09-6.91-6.69-4.93c-12.57,3.66-21.11,12.31-28.16,22.8c-0.49,0.73-1,1.58-0.46,2.43
		c0.51,0.8,1.43,0.46,2.18,0.35c10.47-1.61,20.93-3.26,31.4-4.85c1.35-0.2,1.7-0.87,1.67-2.12
		C337.68,235.87,337.72,232.98,337.72,230.09z M388.76,213.16c0,0.14,0,0.28,0,0.42c-2.62,0-5.25,0.05-7.87-0.02
		c-2.09-0.05-2.58,0.84-2.06,2.78c1.23,4.65,2.72,9.22,4.26,13.78c0.53,1.58,1.52,2.24,3.18,1.97c6.65-1.07,13.3-2.13,19.95-3.14
		c2.38-0.36,2.6-1.64,1.73-3.55c-1.19-2.65-2.76-5.04-4.54-7.34c-2.82-3.65-6.14-5.85-10.99-4.94
		C391.25,213.35,389.99,213.16,388.76,213.16z M395.72,277.76c5.31-0.05,9.6-4.44,9.59-9.82c-0.01-5.35-4.37-9.67-9.73-9.65
		c-5.38,0.02-9.81,4.41-9.76,9.66C385.86,273.41,390.3,277.81,395.72,277.76z M290.53,281.08c0.1-5.34-4.13-9.78-9.47-9.96
		c-5.31-0.18-9.96,4.35-10.03,9.74c-0.06,5.23,4.4,9.76,9.67,9.8C286.07,290.69,290.43,286.45,290.53,281.08z"/>
	<path class="st1" d="M92.26,232.77c5.66,1.45,11.35-1.31,17.15-3.18c10.4-3.36,20.91-4.99,31.86-3.46
		c8.42,1.18,16.91,1.88,25.13,4.18c3.56,1,6.85,2.44,9.89,4.69c5.71,4.23,11.49,8.35,16.85,13.01c2.44,2.12,5.58,2.41,8.46,3.35
		c3.99,1.31,8.05,2.41,12.1,3.57c1.99,0.57,3.84,0.98,6.1,0.45c1.81-0.43,3.77,1.54,6.11,1.41c0.59-0.03,1.68,2.15,3.54,1.54
		c0.5-0.16,0.68,0.67,0.83,1.17c0.12,0.4,0.12,1.04,0.67,0.94c1.87-0.34,2.8,1.74,3.65,1.89c2.59,0.46,2.73,2.29,2.99,3.86
		c0.58,3.41,3.24,5.95,3.66,9.33c0.44,3.5-1.18,6.61-2.37,9.77c-0.18,0.48-0.89,0.83-1.43,1.11c-1.77,0.93-3.74,0.97-5.65,0.88
		c-1.61-0.08-3.63,0.89-4.46-1.82c-0.25-0.82-1.34,0.08-1.86,0.91c-3.47,5.52-9.74,7.34-15.55,4.57c-2.31-1.1-4.29-2.71-4.81-5.25
		c-0.43-2.05-1.66-2.42-3.28-2.62c-8.7-1.06-17.4-2.15-26.11-3.18c-17.15-2.04-34.31-4.03-51.45-6.08c-1.27-0.15-2.24-0.3-3.1,1.08
		c-2.56,4.13-6.62,5.34-11.16,4.83c-4.91-0.56-8.94-2.79-10.72-7.68c-0.7-1.92-1.67-2.49-3.57-2.64c-3.05-0.24-6.35-0.2-9.02-1.42
		c-3.09-1.42-6.49-1.73-9.47-3.33c-0.56-0.3-1.24-0.59-1.31-1.19c-0.37-3.3-1.98-6.35-1.9-9.72c0.02-0.75,0.2-1.73,0.69-2.21
		c2.4-2.36,2.25-5.54,3.07-8.44C81.01,231.48,80.97,232.87,92.26,232.77z M151.46,241.42c0.01,0,0.02,0,0.03,0
		c-0.11-2.36-0.27-4.73-0.3-7.09c-0.02-1.37-0.49-2.05-1.93-2.21c-5.15-0.58-10.3-1.08-15.47-0.65c-5.36,0.44-9.74,3.23-13.97,6.23
		c-1.59,1.13-1.82,2.9-1.47,4.75c0.25,1.31,1.09,1.9,2.35,2.09c9.87,1.5,19.74,3,29.6,4.54c1.2,0.19,1.61-0.18,1.53-1.35
		C151.68,245.62,151.58,243.52,151.46,241.42z M186.84,253.13c-0.15-2.19-0.08-4.05-1.47-5.54c-7.52-8.05-16.26-13.76-27.61-14.69
		c-1.91-0.16-2.49,0.03-2.16,2.04c0.75,4.58,1.41,9.17,1.96,13.78c0.19,1.57,0.94,1.97,2.33,2.19c8.13,1.26,16.26,2.54,24.36,3.94
		C186.2,255.19,187.18,254.96,186.84,253.13z M110.67,276.6c4.4-0.07,7.97-3.71,7.94-8.09c-0.02-4.5-3.79-8.16-8.27-8.04
		c-4.37,0.12-7.88,3.82-7.81,8.23C102.61,273.08,106.31,276.68,110.67,276.6z M223.71,281.38c0.16-4.54-3.18-8.21-7.62-8.37
		c-4.52-0.16-8.2,3.21-8.36,7.65c-0.16,4.54,3.15,8.16,7.64,8.36C219.89,289.21,223.55,285.87,223.71,281.38z"/>
	<path class="st1" d="M322.65,367.48c-6.65,0-12.68-0.01-18.71,0.01c-1.22,0-1.58-0.97-2.09-1.75
		c-15.13-23.39-30.25-46.79-45.38-70.19c-0.38-0.59-0.84-1.14-1.13-1.77c-0.39-0.82-1.77-1.88-1-2.41c1.03-0.71,2.74-0.78,3.9,0.23
		c1.04,0.91,1.86,2.09,2.77,3.16c19.97,23.51,39.94,47.01,59.9,70.52C321.35,365.81,321.76,366.36,322.65,367.48z"/>
	<path class="st1" d="M164.89,160.9c6.53,0,12.55,0.01,18.57-0.01c0.91,0,1.43,0.43,1.89,1.15c15.91,24.67,31.84,49.33,47.75,74
		c0.18,0.27,0.28,0.59,0.5,1.08c-2.09,0.26-3.75,0.51-5.3-1.32c-20.61-24.35-41.29-48.65-61.94-72.96
		C165.97,162.36,165.62,161.86,164.89,160.9z"/>
	<path class="st1" d="M240.34,158.6c2.28,0,4.56,0.07,6.84-0.02c1.56-0.06,2.13,0.35,1.97,2.09c-1.85,19.9-3.62,39.8-5.41,59.71
		c-0.58,6.46-1.22,12.92-1.67,19.39c-0.12,1.68-0.84,2.46-2.31,2.54c-1.79,0.1-1.17-1.51-1.24-2.33
		c-2.29-26.37-4.49-52.75-6.78-79.13c-0.15-1.77,0.24-2.38,2.02-2.28C235.95,158.68,238.14,158.59,240.34,158.6z"/>
	<path class="st1" d="M246.96,369.82c-1.93,0-3.87-0.15-5.78,0.04c-2.34,0.24-3.03-0.48-2.79-2.9c0.99-9.77,1.78-19.56,2.66-29.34
		c1.37-15.28,2.75-30.56,4.14-45.84c0.12-1.31,0.36-2.61,0.4-3.92c0.06-1.69,1.48-1.67,2.45-1.81c1.23-0.17,0.82,1.09,0.87,1.73
		c1.58,18.08,3.13,36.16,4.68,54.24c0.72,8.39,1.37,16.78,2.19,25.15c0.2,2.11-0.38,2.83-2.49,2.67
		C251.18,369.69,249.07,369.82,246.96,369.82z"/>
	<path class="st1" d="M251.36,234.54c3.45-6.98,6.9-13.96,10.36-20.93c4.45-8.95,8.95-17.87,13.32-26.86
		c0.78-1.6,1.69-2.12,3.42-2.08c5.57,0.11,11.15,0.04,17.51,0.04c-14.9,17.25-29.33,33.94-43.75,50.63
		C251.94,235.07,251.65,234.8,251.36,234.54z"/>
	<path class="st1" d="M191.59,343.64c14.67-16.85,28.56-33.31,42.82-49.44c0.27,0.2,0.54,0.4,0.81,0.61
		c-1.03,2.41-1.96,4.87-3.12,7.21c-6.51,13.2-13.11,26.35-19.59,39.56c-0.77,1.56-1.64,2.14-3.4,2.11
		C203.53,343.57,197.95,343.64,191.59,343.64z"/>
	<g>
		<path class="st0" d="M343.54,226.51c0.01-10.32-1.21-8.5,7.05-9.91c5.78-0.99,11.61-1.69,17.44-2.3c1.66-0.17,2.52,0.13,3.03,1.92
			c1.58,5.57,2.81,11.2,3.91,16.88c0.28,1.41-0.16,1.84-1.5,2.05c-8.83,1.33-17.66,2.68-26.46,4.15c-2.05,0.34-2.6-0.38-2.71-2.23
			C344.08,233.05,343.73,229.03,343.54,226.51z"/>
		<path class="st0" d="M337.72,230.09c0,2.89-0.05,5.78,0.02,8.67c0.03,1.26-0.32,1.92-1.67,2.12c-10.47,1.59-20.93,3.24-31.4,4.85
			c-0.75,0.12-1.67,0.45-2.18-0.35c-0.54-0.85-0.03-1.7,0.46-2.43c7.05-10.48,15.59-19.14,28.16-22.8c6.78-1.97,6.84-1.9,6.69,4.93
			c-0.04,1.66-0.01,3.33-0.01,4.99C337.78,230.09,337.75,230.09,337.72,230.09z"/>
		<path class="st0" d="M388.76,213.16c1.22,0,2.48,0.19,3.66-0.03c4.85-0.92,8.18,1.28,10.99,4.94c1.78,2.3,3.34,4.69,4.54,7.34
			c0.86,1.91,0.64,3.19-1.73,3.55c-6.66,1.02-13.3,2.08-19.95,3.14c-1.67,0.27-2.65-0.39-3.18-1.97c-1.54-4.56-3.03-9.12-4.26-13.78
			c-0.51-1.94-0.03-2.83,2.06-2.78c2.62,0.06,5.25,0.02,7.87,0.02C388.76,213.45,388.76,213.31,388.76,213.16z"/>
		<path class="st0" d="M395.72,277.76c-5.42,0.05-9.86-4.35-9.91-9.82c-0.05-5.26,4.38-9.64,9.76-9.66c5.36-0.02,9.72,4.3,9.73,9.65
			C405.32,273.32,401.03,277.71,395.72,277.76z"/>
		<path class="st0" d="M290.53,281.08c-0.1,5.37-4.45,9.61-9.83,9.57c-5.27-0.04-9.73-4.56-9.67-9.8c0.06-5.39,4.72-9.91,10.03-9.74
			C286.39,271.3,290.62,275.74,290.53,281.08z"/>
		<path class="st0" d="M151.46,241.42c0.12,2.1,0.22,4.2,0.37,6.3c0.08,1.17-0.33,1.53-1.53,1.35c-9.86-1.54-19.73-3.04-29.6-4.54
			c-1.26-0.19-2.1-0.78-2.35-2.09c-0.35-1.85-0.13-3.62,1.47-4.75c4.23-3,8.61-5.79,13.97-6.23c5.18-0.43,10.33,0.07,15.47,0.65
			c1.44,0.16,1.91,0.84,1.93,2.21c0.03,2.37,0.19,4.73,0.3,7.09C151.47,241.42,151.47,241.42,151.46,241.42z"/>
		<path class="st0" d="M186.84,253.13c0.34,1.83-0.65,2.06-2.58,1.72c-8.11-1.41-16.23-2.69-24.36-3.94
			c-1.39-0.22-2.15-0.61-2.33-2.19c-0.54-4.61-1.2-9.2-1.96-13.78c-0.33-2.01,0.25-2.19,2.16-2.04
			c11.35,0.93,20.09,6.64,27.61,14.69C186.76,249.07,186.69,250.94,186.84,253.13z"/>
		<path class="st0" d="M110.67,276.6c-4.36,0.07-8.06-3.52-8.13-7.9c-0.07-4.41,3.44-8.11,7.81-8.23c4.48-0.12,8.24,3.54,8.27,8.04
			C118.64,272.89,115.07,276.53,110.67,276.6z"/>
		<path class="st0" d="M223.71,281.38c-0.16,4.49-3.82,7.84-8.34,7.64c-4.49-0.2-7.8-3.82-7.64-8.36c0.16-4.44,3.84-7.81,8.36-7.65
			C220.52,273.16,223.87,276.84,223.71,281.38z"/>
	</g>
</g>
<g id="Layer_2">
</g>
</svg>
