<?xml version="1.0" encoding="utf-8"?>
<!-- Generator: Adobe Illustrator 24.0.1, SVG Export Plug-In . SVG Version: 6.00 Build 0)  -->
<svg version="1.1" id="Layer_1" xmlns="http://www.w3.org/2000/svg" xmlns:xlink="http://www.w3.org/1999/xlink" x="0px" y="0px"
	 viewBox="0 0 500 500" style="enable-background:new 0 0 500 500;" xml:space="preserve">
<style type="text/css">
	.st0{fill:#4F5B66;}
	.st1{fill:#A7ADBA;}
	.st2{fill:#FFFFFF;}
	.st3{fill:none;}
</style>
<g>
	<path class="st0" d="M250,197.97v-26.85c-32.54,0.03-58.78,26.23-58.88,58.8c-0.1,32.65,26.19,59.05,58.87,59.11H250v-26.85
		c-17.77-0.04-32.02-14.31-32.03-32.08C217.97,212.28,232.18,198.04,250,197.97z"/>
	<path class="st0" d="M122.74,329.99c0,1.18,0.33,2.49-0.06,3.53c-1.59,4.35-6.8,7.55-11.08,5.97c-2.17-0.8-3.92-1.76-5.47-3.34
		c-22-22.58-35.88-49.38-41.17-80.44c-5.25-30.83-1.32-60.58,11.7-89.07c7.42-16.24,17.58-30.61,30.09-43.32
		c3.94-4,9.8-4.2,13.63-0.46c3.89,3.8,3.73,9.69-0.25,13.76c-23.23,23.77-36.22,52.18-38.27,85.4
		c-1.85,30.02,5.71,57.61,22.62,82.46c4.58,6.73,10.37,12.63,15.51,18.99c1.16,1.43,2.04,3.11,2.87,4.76
		c0.22,0.43-0.23,1.19-0.37,1.8C122.57,330.01,122.66,330,122.74,329.99z"/>
	<path class="st0" d="M153.28,302.96c2.86,2.84,3.56,6.3,2.5,9.99c-1.03,3.64-3.75,5.78-7.47,6.25c-1.6,0.21-3.37-0.11-4.93-0.61
		c-1.62-0.52-3.06-1.41-3.78-3.31c-0.34-0.9-1.85-1.28-2.61-2.1c-14.81-16.06-24.7-34.74-29.56-56.05
		c-2.03-8.9-3.05-17.92-3.03-27.08c0.48-33.41,12.18-62.21,35.55-86.19c3.52-3.62,8.53-4.1,12.41-1.37
		c4.89,3.44,5.16,9.96,1.03,14.66c-4.62,5.25-9.31,10.54-13.22,16.32c-9.81,14.48-15.2,30.62-16.57,48.08
		c-1.8,22.83,3.31,44,15.39,63.46C143.04,291.55,147.82,297.54,153.28,302.96z"/>
	<path class="st0" d="M175.02,161.72c3.92,0.12,6.89,1.9,8.46,5.5c1.61,3.71,1.15,7.32-1.73,10.29c-5.38,5.54-10,11.61-13.56,18.46
		c-14.68,28.25-9.68,62.61,12.49,85.54c2.27,2.35,3.91,4.86,3.62,8.25c-0.34,3.92-2.32,6.76-6.01,8.13
		c-3.65,1.35-7.08,0.73-9.91-2.05c-8.24-8.11-14.73-17.46-19.34-28.06c-15.22-34.99-8.37-74.12,17.78-101.86
		C169.06,163.53,171.46,161.54,175.02,161.72z"/>
</g>
<g>
	<path class="st1" d="M309.08,230.08c-0.25,32.66-26.42,58.99-59.08,58.95v-26.85h0.05c17.81,0,32.11-14.26,32.13-32.04
		c0.01-17.82-14.23-32.14-31.98-32.17H250v-26.85h0.11C281.86,170.63,309.33,198.24,309.08,230.08z"/>
	<path class="st1" d="M421.15,298.34c-7.08,14.32-16.49,27.03-27.68,38.42c-4,4.06-9.95,4.28-13.77,0.46
		c-3.85-3.84-3.63-9.66,0.38-13.75c20.93-21.35,33.55-46.8,37.39-76.48c0.72-5.6,0.94-11.26,1.24-15
		c-0.62-38.2-13.32-69.45-38.76-95.43c-3.9-3.99-4.05-9.83-0.26-13.63c3.82-3.82,9.77-3.62,13.76,0.45
		c18.92,19.28,32.18,41.86,38.9,68.05C441.83,228.4,438.09,264.11,421.15,298.34z"/>
	<path class="st1" d="M395.75,230.12c-0.48,33.33-12.14,62.07-35.41,86.03c-3.55,3.65-8.24,4.24-12.22,1.72
		c-5.17-3.27-5.61-10.05-1.37-14.87c4.66-5.3,9.37-10.65,13.32-16.48c9.76-14.43,15.1-30.53,16.48-47.91
		c1.81-22.82-3.3-43.99-15.37-63.45c-4.09-6.59-8.94-12.59-14.41-18.1c-2.76-2.77-3.69-6.08-2.46-9.84
		c1.16-3.52,3.67-5.63,7.28-6.29c3.39-0.61,6.25,0.51,8.66,2.95c12.92,13.12,22.52,28.31,28.61,45.69
		C393.46,202.68,395.75,216.2,395.75,230.12z"/>
	<path class="st1" d="M353.63,261.49c-4.41,12.76-11.55,23.93-21.04,33.56c-4.22,4.28-10.01,4.65-13.87,0.88
		c-4.01-3.92-3.85-9.68,0.38-14.03c10.68-10.98,17.6-23.94,20.04-39.07c3.92-24.34-2.54-45.69-19.37-63.72
		c-2.69-2.87-3.82-5.88-3.7-9.57c0.01-0.56,0.67-1.1,1.23-1.93c-0.48-1.25,0.13-2.56,2.4-4.18c3.76-2.68,8.86-2.26,12.28,1.14
		c6.98,6.92,12.74,14.74,17.09,23.55C360.8,211.93,362.28,236.45,353.63,261.49z"/>
</g>
<path class="st2" d="M282.18,230.14c-0.02,17.78-14.32,32.04-32.13,32.04H250c-17.77-0.04-32.02-14.31-32.03-32.08
	c0-17.82,14.21-32.06,32.03-32.13h0.2C267.95,198,282.19,212.32,282.18,230.14z"/>
<line class="st3" x1="250" y1="262.18" x2="250" y2="197.97"/>
</svg>
