<?xml version="1.0" encoding="utf-8"?>
<!-- Generator: Adobe Illustrator 24.0.1, SVG Export Plug-In . SVG Version: 6.00 Build 0)  -->
<svg version="1.1" id="Layer_1" xmlns="http://www.w3.org/2000/svg" xmlns:xlink="http://www.w3.org/1999/xlink" x="0px" y="0px"
	 viewBox="0 0 500 500" style="enable-background:new 0 0 500 500;" xml:space="preserve">
<style type="text/css">
	.st0{fill:#FDEE87;}
	.st1{fill:#DB3F3F;}
	.st2{fill:#312F30;}
	.st3{fill:#FF7B7B;}
	.st4{fill:#E0E0E0;}
	.st5{fill:#FFC30B;}
	.st6{fill:#006A4E;}
	.st7{fill:#A29EA0;}
	.st8{fill:#E6E6E6;}
	.st9{fill:#FDFDFD;}
	.st10{fill:#A7A5A6;}
	.st11{fill:none;}
</style>
<path class="st0" d="M134.73,351.3c-0.38,1.62-1.56,1.97-3.03,1.58c-2.32-0.63-4.63-1.3-6.91-2.06
	c-22.27-7.47-44.52-14.99-66.79-22.44c-8.73-2.92-17.5-5.72-26.26-8.58c-1.52-0.5-3.06-0.96-4.54-1.58c-1.33-0.56-2.35-1.6-1.8-3.12
	c0.62-1.72,2.16-1.26,3.42-0.86c5.84,1.89,11.66,3.83,17.48,5.77c25.19,8.39,50.37,16.77,75.55,25.18c3.65,1.22,7.26,2.57,10.9,3.83
	C133.85,349.4,134.71,349.92,134.73,351.3z"/>
<path class="st0" d="M103.41,328.88c-0.43-0.22-1.17-0.51-1.8-0.95c-15.13-10.47-30.24-20.95-45.36-31.43
	c-1.37-0.95-3.56-1.71-2.22-3.91c1.41-2.31,3.2-0.51,4.45,0.34c11.02,7.49,21.97,15.09,32.93,22.66c4.28,2.95,8.57,5.89,12.82,8.89
	c0.97,0.68,1.99,1.51,1.64,2.94C105.6,328.47,104.78,328.86,103.41,328.88z"/>
<path class="st1" d="M307.36,357.17c0.09,0.18,0.19,0.36,0.25,0.55c0.02,0.06-0.12,0.16-0.18,0.25
	C307.4,357.71,307.38,357.44,307.36,357.17z"/>
<path class="st2" d="M255.5,336.29h-0.24v-0.01C255.35,336.28,255.42,336.29,255.5,336.29z"/>
<path class="st2" d="M293.75,291.4c-0.27,0.53-0.55,1.06-0.82,1.58l-0.04-0.02c0.26-0.54,0.52-1.08,0.77-1.62L293.75,291.4z"/>
<path class="st3" d="M293.75,291.4c-0.27,0.53-0.55,1.06-0.82,1.58l-0.04-0.02c0.26-0.54,0.52-1.08,0.77-1.62L293.75,291.4z"/>
<path class="st4" d="M202,185.14c-0.81-0.03-1.62-0.05-2.44-0.06c-35.4-0.23-64.42,28.9-64.49,64.47
	c-0.07,35.43,28.93,64.33,64.56,64.33c0.79,0,1.58-0.01,2.37-0.05c34.33-1.24,61.98-29.52,61.99-64.02
	C263.99,215.15,237.3,186.62,202,185.14z M258.01,255.48c-0.07,0.7-0.16,1.4-0.26,2.09c-0.04,0.31-0.08,0.62-0.14,0.93
	c-0.06,0.4-0.13,0.79-0.2,1.19l-0.15,0.77c-0.13,0.68-0.28,1.36-0.44,2.04c-0.08,0.36-0.17,0.72-0.27,1.08
	c-0.05,0.24-0.12,0.48-0.18,0.72c-0.11,0.41-0.22,0.82-0.35,1.22c-0.46,1.59-1,3.16-1.61,4.69c-0.13,0.37-0.28,0.73-0.43,1.09
	c-0.05,0.13-0.11,0.27-0.17,0.4c-0.18,0.43-0.37,0.85-0.56,1.28c-0.11,0.26-0.23,0.52-0.36,0.78c-0.36,0.78-0.74,1.55-1.14,2.3
	c-0.21,0.42-0.43,0.83-0.67,1.25c-1.09,1.97-2.29,3.87-3.59,5.69c-0.2,0.29-0.41,0.58-0.62,0.86s-0.42,0.57-0.64,0.85
	c-1.24,1.62-2.56,3.18-3.97,4.67c-0.2,0.22-0.41,0.44-0.62,0.66c-0.32,0.33-0.64,0.66-0.97,0.98c-0.39,0.39-0.79,0.77-1.2,1.15
	c-0.3,0.29-0.61,0.57-0.92,0.84c-0.45,0.41-0.91,0.81-1.37,1.19c-0.28,0.24-0.56,0.47-0.84,0.7c-0.28,0.23-0.56,0.46-0.85,0.68
	c-0.48,0.39-0.97,0.76-1.47,1.12c-0.5,0.37-1,0.73-1.51,1.08c-0.16,0.11-0.31,0.22-0.47,0.33c-0.35,0.23-0.69,0.46-1.05,0.69
	c-1.19,0.77-2.41,1.5-3.65,2.18c-0.3,0.17-0.6,0.33-0.9,0.48c-1.3,0.7-2.63,1.34-3.98,1.92c-0.42,0.19-0.85,0.37-1.28,0.54
	c-0.43,0.18-0.86,0.35-1.29,0.51c-0.44,0.17-0.87,0.33-1.31,0.48c-0.91,0.33-1.84,0.63-2.77,0.9c-0.36,0.11-0.72,0.21-1.09,0.31
	c-1.05,0.29-2.11,0.56-3.18,0.78c-0.35,0.08-0.71,0.15-1.07,0.22c-0.23,0.04-0.46,0.09-0.69,0.13c-0.23,0.05-0.46,0.09-0.7,0.12
	c-0.45,0.08-0.9,0.15-1.36,0.21c-0.33,0.05-0.66,0.1-1,0.14c-0.31,0.04-0.62,0.08-0.93,0.11c-1.25,0.14-2.52,0.23-3.79,0.28
	c-0.78,0.04-1.56,0.05-2.35,0.05c-32.38-0.04-58.49-26.23-58.47-58.63c-0.46-32.02,26.39-58.94,59.3-58.54
	c0.51,0.01,1.01,0.02,1.52,0.04c1.37,0.05,2.73,0.16,4.08,0.31c0.3,0.04,0.6,0.07,0.89,0.11c1.69,0.21,3.35,0.5,4.99,0.87
	c0.94,0.2,1.85,0.43,2.77,0.68c0.04,0.01,0.07,0.02,0.1,0.03c0.53,0.15,1.05,0.31,1.57,0.47c0.64,0.2,1.28,0.4,1.92,0.62
	c0.64,0.22,1.27,0.46,1.9,0.7c0.75,0.28,1.51,0.59,2.25,0.92c0.24,0.1,0.48,0.21,0.72,0.32c0.55,0.25,1.1,0.5,1.64,0.77
	c0.06,0.03,0.12,0.06,0.18,0.08c0.52,0.26,1.03,0.52,1.54,0.79c0.96,0.51,1.9,1.04,2.83,1.6c0.59,0.35,1.16,0.71,1.73,1.08
	c0.03,0.02,0.05,0.04,0.08,0.05c0.25,0.17,0.51,0.34,0.75,0.51c0.46,0.3,0.91,0.61,1.35,0.93c0.38,0.26,0.74,0.54,1.12,0.82
	c0.28,0.2,0.55,0.41,0.81,0.62c0.24,0.18,0.48,0.37,0.71,0.56c0.37,0.29,0.73,0.58,1.09,0.89c0.23,0.18,0.45,0.37,0.67,0.57
	c0.23,0.19,0.45,0.39,0.67,0.59c1.36,1.2,2.67,2.48,3.91,3.81c0.19,0.19,0.37,0.38,0.55,0.58c0.4,0.44,0.8,0.89,1.19,1.35
	c0.39,0.45,0.77,0.91,1.15,1.38c0.2,0.23,0.38,0.46,0.56,0.7c0.19,0.24,0.37,0.48,0.55,0.71c0.23,0.29,0.45,0.59,0.67,0.89
	c0.66,0.9,1.29,1.81,1.9,2.74c0.08,0.13,0.17,0.26,0.25,0.39c0.09,0.13,0.17,0.26,0.25,0.39c0.29,0.46,0.57,0.92,0.85,1.39
	c0.19,0.32,0.38,0.65,0.57,0.97c0.05,0.1,0.1,0.19,0.16,0.29c0.18,0.32,0.35,0.64,0.52,0.96c0.2,0.37,0.4,0.75,0.59,1.13
	c0.19,0.38,0.38,0.76,0.56,1.14c0.15,0.29,0.29,0.58,0.42,0.87s0.26,0.59,0.39,0.88c1.08,2.42,1.98,4.92,2.71,7.48
	c0.13,0.41,0.24,0.83,0.35,1.25c0.08,0.31,0.16,0.62,0.23,0.93c0.08,0.3,0.15,0.61,0.22,0.92c0.13,0.55,0.24,1.1,0.35,1.65
	c0.08,0.38,0.15,0.76,0.21,1.14c0.07,0.38,0.13,0.76,0.19,1.14c0.07,0.47,0.14,0.94,0.2,1.41c0.08,0.64,0.15,1.27,0.2,1.9
	c0.04,0.32,0.07,0.64,0.09,0.96c0.12,1.48,0.17,2.98,0.17,4.48c0,1.46-0.06,2.91-0.18,4.34
	C258.1,254.56,258.06,255.02,258.01,255.48z"/>
<path class="st5" d="M199.56,185.08c0.82,0.01,1.63,0.03,2.44,0.06v-51.03c-57.17-1.1-106.85,39.31-116.04,96.53
	c-6.7,41.75,6.5,77.14,37.72,105.67c10.57,9.66,22.98,16.4,36.2,21.69c11.74,3.67,23.6,6.42,36.02,6.73c2.04,0.05,4.08,0.05,6.1,0
	v-50.9c-0.79,0.04-1.58,0.05-2.37,0.05c-35.63,0-64.63-28.9-64.56-64.33C135.14,213.98,164.16,184.85,199.56,185.08z M139.7,164.29
	c0.09-0.07,0.18-0.14,0.27-0.2c0.09-0.06,0.18-0.12,0.27-0.18C140.06,164.03,139.88,164.16,139.7,164.29z"/>
<g>
	<path class="st0" d="M314.71,244.37c-2.27-58.01-48.52-105.79-106.43-109.97c-2.1-0.15-4.19-0.25-6.28-0.29v51.03
		c35.3,1.48,61.99,30.01,61.99,64.67c-0.01,34.5-27.66,62.78-61.99,64.02v50.9c12.71-0.29,25.05-2.51,37.07-6.95
		c0.98-0.36,2.02-0.59,3.03-0.88l0.12-0.03c0.31-0.14,0.62-0.27,0.93-0.41c0.96-0.46,1.91-0.95,2.88-1.38
		C290.05,335.33,316.6,292.53,314.71,244.37z M255.26,336.29v-0.01c0.09,0,0.16,0.01,0.24,0.01H255.26z M292.93,292.98l-0.04-0.02
		c0.26-0.54,0.52-1.08,0.77-1.62l0.09,0.06C293.48,291.93,293.2,292.46,292.93,292.98z"/>
</g>
<g>
	<path class="st6" d="M255.5,336.29h-0.24v-0.01C255.35,336.28,255.42,336.29,255.5,336.29z"/>
</g>
<path class="st7" d="M141.18,249.53c-0.47-32.01,26.38-58.93,59.29-58.54c31.38,0.38,57.91,27,57.84,58.76
	c-0.06,31.67-26.98,58.46-58.67,58.42C167.27,308.12,141.16,281.93,141.18,249.53z M248.18,248.58
	c-0.32-26.99-22.32-48.29-49.83-47.77c-26.8,0.51-48.38,23.09-47.45,50.22c0.88,25.52,20.93,47.14,48.49,47.19
	C227.41,298.27,248.5,276.29,248.18,248.58z"/>
<path class="st8" d="M248.18,248.58c0.33,27.7-20.76,49.69-48.8,49.64c-27.56-0.05-47.61-21.66-48.49-47.19
	c-0.93-27.13,20.65-49.71,47.45-50.22C225.86,200.29,247.86,221.6,248.18,248.58z M220.77,249.55c-0.04-11.7-8.19-21.6-23.34-21.22
	c-8.96,0.23-19.33,8.59-19.05,21.45c0.25,11.48,8.95,21.08,20.85,20.83C211.39,270.35,220.8,261.39,220.77,249.55z M219.08,280.81
	c2.12-0.32,3.33-1.54,3.16-3.77c-0.16-2.03-1.41-3.19-3.45-3.02c-2.17,0.18-3.39,1.56-3.28,3.75
	C215.61,279.87,217.06,280.69,219.08,280.81z M165.67,248.96c-2.13,0.26-3.36,1.48-3.26,3.68c0.09,2.08,1.51,3.15,3.44,3.09
	c2.19-0.06,3.43-1.51,3.33-3.66C169.09,250.04,167.72,249.06,165.67,248.96z M217.42,218.72c-0.42-1.95-1.32-3.46-3.64-3.29
	c-1.98,0.14-3.31,1.26-3.15,3.27c0.16,2.02,1.4,3.5,3.61,3.37C216.16,221.97,217.36,220.82,217.42,218.72z M227.46,233.55
	c1.95-0.34,3.32-1.34,3.35-3.38c0.03-2.32-1.46-3.41-3.63-3.28c-1.98,0.12-3.2,1.32-3.09,3.43
	C224.19,232.41,225.54,233.32,227.46,233.55z M236.78,246.29c-0.4-1.59-1.4-2.93-3.43-2.94c-2.02,0-3.37,1.25-3.33,3.21
	c0.04,2.1,1.45,3.5,3.62,3.44C235.66,249.95,236.7,248.6,236.78,246.29z M188.57,280.06c-0.4-2.04-1.58-3.16-3.59-3.07
	c-2.01,0.09-3.3,1.28-3.24,3.3c0.07,2.23,1.66,3.41,3.73,3.28C187.45,283.46,188.35,281.91,188.57,280.06z M183.69,221.56
	c-0.3-2.03-1.47-3.13-3.45-3.12c-1.97,0-3.32,1.06-3.33,3.1c-0.02,2.22,1.34,3.35,3.54,3.27
	C182.48,224.72,183.45,223.45,183.69,221.56z M230.32,260.54c-2.02,0.28-3.16,1.35-3.2,3.38c-0.04,2.01,0.91,3.34,3.02,3.32
	c2.16-0.03,3.44-1.24,3.41-3.47C233.52,261.69,232.19,260.79,230.32,260.54z M196.69,212.17c-1.71,0.28-3.05,1.19-3.16,3.27
	c-0.11,2.05,0.95,3.42,2.98,3.54c2,0.11,3.3-1.05,3.39-3.13C199.98,213.83,198.93,212.6,196.69,212.17z M168.57,231.64
	c-1.65,0.34-3.07,1.12-3.04,3.28c0.03,2.02,1.07,3.31,3.12,3.36c2.05,0.05,3.18-1.16,3.26-3.2
	C172.01,232.96,170.74,232,168.57,231.64z M175.01,268.72c-0.27-1.69-1.23-2.94-3.31-2.99c-2.1-0.06-3.29,1.13-3.35,3.12
	c-0.06,2.01,1.11,3.24,3.2,3.24C173.56,272.08,174.75,271.03,175.01,268.72z M202.53,280.13c-2.19-0.04-3.29,1.15-3.32,3.14
	c-0.03,1.96,0.95,3.29,3.12,3.28c2.06-0.01,3.2-1.02,3.25-3.14C205.64,281.3,204.53,280.27,202.53,280.13z"/>
<path class="st9" d="M220.77,249.55c0.02,11.84-9.38,20.8-21.55,21.05c-11.9,0.25-20.6-9.35-20.85-20.83
	c-0.28-12.86,10.1-21.22,19.05-21.45C212.59,227.95,220.73,237.85,220.77,249.55z"/>
<path class="st10" d="M219.08,280.81c-2.02-0.11-3.47-0.94-3.57-3.03c-0.11-2.19,1.11-3.57,3.28-3.75c2.04-0.17,3.29,0.99,3.45,3.02
	C222.4,279.26,221.2,280.49,219.08,280.81z"/>
<path class="st10" d="M165.67,248.96c2.05,0.11,3.42,1.09,3.51,3.1c0.09,2.15-1.15,3.6-3.33,3.66c-1.93,0.06-3.35-1.01-3.44-3.09
	C162.31,250.43,163.54,249.22,165.67,248.96z"/>
<path class="st10" d="M217.42,218.72c-0.06,2.1-1.26,3.25-3.18,3.36c-2.21,0.13-3.45-1.36-3.61-3.37c-0.16-2.02,1.17-3.13,3.15-3.27
	C216.1,215.26,217.01,216.77,217.42,218.72z"/>
<path class="st10" d="M227.46,233.55c-1.92-0.23-3.26-1.14-3.37-3.23c-0.11-2.11,1.11-3.31,3.09-3.43c2.16-0.13,3.65,0.96,3.63,3.28
	C230.78,232.22,229.41,233.22,227.46,233.55z"/>
<path class="st10" d="M236.78,246.29c-0.09,2.32-1.12,3.66-3.13,3.72c-2.17,0.06-3.58-1.34-3.62-3.44
	c-0.04-1.96,1.31-3.21,3.33-3.21C235.39,243.35,236.39,244.69,236.78,246.29z"/>
<path class="st10" d="M188.57,280.06c-0.23,1.85-1.13,3.4-3.09,3.52c-2.07,0.12-3.66-1.06-3.73-3.28c-0.06-2.02,1.23-3.21,3.24-3.3
	C187,276.9,188.18,278.02,188.57,280.06z"/>
<path class="st10" d="M183.69,221.56c-0.24,1.89-1.21,3.16-3.24,3.24c-2.19,0.09-3.56-1.05-3.54-3.27c0.02-2.03,1.36-3.09,3.33-3.1
	C182.22,218.43,183.39,219.53,183.69,221.56z"/>
<path class="st10" d="M230.32,260.54c1.86,0.25,3.2,1.15,3.23,3.23c0.03,2.23-1.25,3.44-3.41,3.47c-2.11,0.03-3.05-1.31-3.02-3.32
	C227.16,261.89,228.3,260.81,230.32,260.54z"/>
<path class="st10" d="M196.69,212.17c2.24,0.43,3.29,1.66,3.21,3.68c-0.09,2.08-1.39,3.25-3.39,3.13c-2.02-0.12-3.09-1.49-2.98-3.54
	C193.64,213.36,194.98,212.45,196.69,212.17z"/>
<path class="st10" d="M168.57,231.64c2.17,0.36,3.44,1.32,3.35,3.44c-0.09,2.04-1.21,3.25-3.26,3.2c-2.05-0.05-3.1-1.34-3.12-3.36
	C165.5,232.76,166.92,231.97,168.57,231.64z"/>
<path class="st10" d="M175.01,268.72c-0.27,2.31-1.46,3.36-3.46,3.36c-2.09,0-3.26-1.23-3.2-3.24c0.06-1.98,1.25-3.17,3.35-3.12
	C173.78,265.78,174.74,267.03,175.01,268.72z"/>
<path class="st10" d="M202.53,280.13c2,0.14,3.11,1.17,3.06,3.29c-0.05,2.12-1.19,3.13-3.25,3.14c-2.17,0.01-3.15-1.32-3.12-3.28
	C199.24,281.28,200.34,280.09,202.53,280.13z"/>
<polyline class="st11" points="202,313.83 202,308.11 202,298.16 202,286.54 202,280.14 202,270.38 202,228.55 202,200.88 
	202,191.03 202,185.14 "/>
</svg>
