<?xml version="1.0" encoding="utf-8"?>
<!-- Generator: Adobe Illustrator 24.0.1, SVG Export Plug-In . SVG Version: 6.00 Build 0)  -->
<svg version="1.1" id="Layer_1" xmlns="http://www.w3.org/2000/svg" xmlns:xlink="http://www.w3.org/1999/xlink" x="0px" y="0px"
	 viewBox="0 0 500 500" style="enable-background:new 0 0 500 500;" xml:space="preserve">
<style type="text/css">
	.st0{fill:#FF7B7B;}
	.st1{fill:#DB3F3F;}
	.st2{fill:#A70000;}
	.st3{fill:#312F30;}
	.st4{fill:#E0E0E0;}
	.st5{fill:#A29EA0;}
	.st6{fill:#E6E6E6;}
	.st7{fill:#FDFDFD;}
	.st8{fill:#A7A5A6;}
	.st9{fill:none;}
</style>
<path class="st0" d="M134.73,351.3c-0.38,1.62-1.56,1.97-3.03,1.58c-2.32-0.63-4.63-1.3-6.91-2.06
	c-22.27-7.47-44.52-14.99-66.79-22.44c-8.73-2.92-17.5-5.72-26.26-8.58c-1.52-0.5-3.06-0.96-4.54-1.58c-1.33-0.56-2.35-1.6-1.8-3.12
	c0.62-1.72,2.16-1.26,3.42-0.86c5.84,1.89,11.66,3.83,17.48,5.77c25.19,8.39,50.37,16.77,75.55,25.18c3.65,1.22,7.26,2.57,10.9,3.83
	C133.85,349.4,134.71,349.92,134.73,351.3z"/>
<path class="st0" d="M103.41,328.88c-0.43-0.22-1.17-0.51-1.8-0.95c-15.13-10.47-30.24-20.95-45.36-31.43
	c-1.37-0.95-3.56-1.71-2.22-3.91c1.41-2.31,3.2-0.51,4.45,0.34c11.02,7.49,21.97,15.09,32.93,22.66c4.28,2.95,8.57,5.89,12.82,8.89
	c0.97,0.68,1.99,1.51,1.64,2.94C105.6,328.47,104.78,328.86,103.41,328.88z"/>
<path class="st1" d="M307.36,357.17c0.09,0.18,0.19,0.36,0.25,0.55c0.02,0.06-0.12,0.16-0.18,0.25
	C307.4,357.71,307.38,357.44,307.36,357.17z"/>
<path class="st0" d="M255.26,336.28v0.01c-1.63,3.26-5.03,4.32-7.88,5.77c-3.29,1.68-6.63,3.16-10.01,4.46
	c-0.48,0.18-0.96,0.36-1.44,0.54c-0.49,0.18-0.97,0.35-1.46,0.52c-0.48,0.17-0.97,0.34-1.46,0.5c-0.48,0.16-0.97,0.32-1.46,0.48
	c-0.49,0.15-0.98,0.3-1.47,0.45c-0.49,0.15-0.98,0.29-1.47,0.43c-0.49,0.14-0.98,0.28-1.47,0.41c-0.96,0.26-1.92,0.5-2.88,0.73
	c-1.52,0.36-3.04,0.68-4.57,0.97c-1,0.19-2.01,0.37-3.01,0.53c-2.52,0.4-5.05,0.7-7.6,0.92c-0.51,0.04-1.02,0.08-1.53,0.12
	c-0.49,0.03-0.99,0.07-1.48,0.1c-0.89,0.05-1.79,0.09-2.68,0.11c-0.38,0.02-0.77,0.03-1.15,0.03c-0.08,0.01-0.16,0.01-0.24,0.01
	v-1.42c1.07-0.02,2.15-0.07,3.22-0.13c0.29-0.02,0.57-0.04,0.86-0.07c0.92-0.06,1.84-0.15,2.76-0.25c0.37-0.04,0.75-0.08,1.13-0.13
	c0.62-0.08,1.23-0.16,1.85-0.26c0.14-0.01,0.27-0.03,0.41-0.06c0.64-0.09,1.28-0.2,1.93-0.32c8.37-1.54,16.58-3.41,24.5-6.72
	c5.65-2.36,10.59-6.15,16.55-7.79L255.26,336.28z"/>
<path class="st2" d="M202,351.95v1.42c-3.79,0.07-7.62-0.05-11.48-0.36c-15.16-1.22-29.53-5.45-42.6-13.49
	c-1.32-0.82-2.91-1.46-3.31-3.26c2.15,0.41,3.88,1.67,5.71,2.76c7.7,4.6,16.01,7.96,24.69,9.88
	C183.93,350.87,192.92,352.15,202,351.95z"/>
<path class="st0" d="M291.64,297.95c-7.31,13.52-16.73,25.24-29.24,34.33c-0.54,0.39-1.05,0.84-1.56,1.29
	c-0.26,0.22-0.51,0.45-0.77,0.67c-0.26,0.22-0.52,0.43-0.79,0.63c-0.4,0.31-0.82,0.58-1.26,0.81c-0.75,0.38-1.57,0.61-2.52,0.61
	c-0.08,0-0.15-0.01-0.24-0.01l-0.05-0.06c0.6-1.08,1.59-1.75,2.56-2.47c11.59-8.56,21.51-18.67,29.03-31.06
	c1.98-3.27,3.47-6.86,6.09-9.73l0.04,0.02C293.08,294.79,292.48,296.39,291.64,297.95z"/>
<path class="st3" d="M255.5,336.29h-0.24v-0.01C255.35,336.28,255.42,336.29,255.5,336.29z"/>
<path class="st2" d="M133.38,328.25c-5.48-2.16-8.96-6.47-12.04-11.21c0,0,0.07-0.07,0.07-0.07c4.77,2.93,8.42,7.05,11.99,11.26
	L133.38,328.25z"/>
<path class="st3" d="M300.15,272.15c-0.38,6.11-1.53,11.96-5.62,16.83c0,0-0.03-0.02-0.03-0.02c1.82-5.63,3.14-11.43,5.6-16.84
	L300.15,272.15z"/>
<path class="st2" d="M144.61,336.26c-5.28-0.52-8.82-3.47-11.23-8.01c0,0,0.02-0.02,0.02-0.02
	C137.49,330.41,141.12,333.23,144.61,336.26L144.61,336.26z"/>
<path class="st3" d="M294.53,288.98c0,0.89-0.05,1.77-0.78,2.43c0,0-0.09-0.07-0.09-0.07c0.03-0.88,0.15-1.73,0.84-2.38
	L294.53,288.98z"/>
<path class="st3" d="M293.75,291.4c-0.27,0.53-0.55,1.05-0.82,1.58c0,0-0.04-0.02-0.04-0.02c0.26-0.54,0.51-1.08,0.77-1.62
	L293.75,291.4z"/>
<path class="st0" d="M300.15,272.15c-0.38,6.11-1.53,11.96-5.62,16.83c0,0.89-0.05,1.76-0.78,2.42c-0.27,0.53-0.55,1.06-0.82,1.58
	l-0.04-0.02c0.26-0.54,0.52-1.08,0.77-1.62c0.04-0.88,0.15-1.73,0.84-2.38c1.83-5.63,3.14-11.43,5.6-16.84L300.15,272.15z"/>
<g>
	<path class="st2" d="M255.26,336.28v0.01h0.24C255.42,336.29,255.35,336.28,255.26,336.28z M104.58,207.78
		c3.95-8.88,9.25-16.68,14.79-24.45c1.85-2.6,4.17-4.76,6.78-6.61c0.26-0.27,0.53-0.54,0.79-0.8c0.54-0.27,1.08-0.53,1.63-0.79
		c0.13-0.93,0.67-1.46,1.6-1.6c1.06-3.28,3.84-4.97,6.37-6.91c0.62-0.48,1.25-0.95,1.88-1.41c0.51-0.38,1.03-0.76,1.55-1.12
		c0.8-0.56,1.61-1.1,2.44-1.6c0.16-0.11,0.33-0.21,0.5-0.3c0.37-0.22,0.73-0.43,1.11-0.63c0.36-0.19,0.72-0.37,1.08-0.55
		c0.38-0.18,0.76-0.35,1.14-0.52c0.51-0.22,1.02-0.42,1.55-0.6h0.01c0.08-0.07,0.17-0.13,0.26-0.2c0.08-0.06,0.18-0.13,0.26-0.19
		c0.49-0.36,0.98-0.72,1.49-1.05c0.34-0.22,0.69-0.45,1.03-0.66c0.35-0.22,0.7-0.43,1.05-0.63c1.05-0.62,2.13-1.19,3.22-1.72
		c1.82-0.89,3.69-1.68,5.58-2.39c0.44-0.17,0.88-0.34,1.32-0.5c1.09-0.4,2.18-0.78,3.28-1.15c0.44-0.15,0.88-0.3,1.32-0.45
		c0.44-0.15,0.88-0.29,1.32-0.44c0.64-0.21,1.29-0.42,1.93-0.62c1.11-0.34,2.22-0.66,3.34-0.96c6.2-1.69,12.5-2.75,18.89-3.21
		c0.98-0.07,1.97-0.13,2.96-0.17c2.31-0.1,4.62-0.13,6.95-0.07v-11.37c-57.17-1.1-106.85,39.31-116.04,96.53
		c-6.7,41.75,6.5,77.14,37.72,105.67c10.57,9.66,22.98,16.4,36.2,21.69c11.74,3.67,23.6,6.42,36.02,6.73c2.04,0.05,4.08,0.05,6.1,0
		v-11.36c-3.79,0.07-7.62-0.05-11.48-0.36c-15.16-1.22-29.53-5.45-42.6-13.49c-1.32-0.82-2.91-1.46-3.31-3.26
		c-5.28-0.52-8.82-3.47-11.23-8.01c-5.48-2.16-8.97-6.46-12.04-11.2c-5.39-3.67-8.11-9.41-11.29-14.73
		c-10.92-18.24-15.4-38.15-14.25-59.24C96.46,230.84,99.53,219.15,104.58,207.78z"/>
	<path class="st2" d="M202,145.48v1.56c-5.01-0.13-10.04,0.15-15.08,0.85c-11.71,1.61-22.92,4.79-33.41,10.32
		c-1.78,0.94-3.54,1.92-5.65,1.75l-0.06-0.07h-0.01v-0.01c0.09-0.06,0.17-0.13,0.27-0.19c0.08-0.06,0.18-0.13,0.26-0.19
		c0.49-0.36,0.99-0.71,1.49-1.05c0.34-0.22,0.69-0.45,1.03-0.66c0.35-0.22,0.7-0.43,1.05-0.63c1.05-0.63,2.13-1.2,3.22-1.72
		c1.82-0.89,3.69-1.68,5.58-2.39c0.44-0.17,0.88-0.34,1.32-0.5c1.09-0.4,2.18-0.78,3.28-1.15c0.44-0.15,0.88-0.3,1.32-0.45
		c0.44-0.15,0.88-0.29,1.32-0.44c0.64-0.21,1.29-0.42,1.93-0.62c1.11-0.34,2.22-0.67,3.34-0.96c6.2-1.69,12.5-2.75,18.89-3.21
		c0.98-0.07,1.97-0.13,2.96-0.17C197.36,145.45,199.67,145.42,202,145.48z"/>
	<path class="st2" d="M121.34,317.05c-5.38-3.66-8.1-9.41-11.29-14.73c-10.92-18.24-15.4-38.15-14.25-59.23
		c0.67-12.24,3.73-23.93,8.79-35.3c3.95-8.88,9.25-16.68,14.79-24.45c1.85-2.59,4.17-4.76,6.77-6.61l0.07,0.06
		c-0.19,3.7-3.6,5.12-5.49,7.58c-10.43,13.57-18.22,28.29-21.54,45.3c-2.4,12.33-2.67,24.64-0.58,36.9
		c2.81,16.53,9.46,31.54,19.59,44.97c1.27,1.69,2.91,3.18,3.21,5.45L121.34,317.05z"/>
	<path class="st2" d="M130.17,173.53c1.06-3.28,3.84-4.97,6.36-6.91c3.5-2.67,7.04-5.26,11.26-6.74c0,0,0.07,0.07,0.07,0.07
		c-5.18,5.45-11.77,9.08-17.67,13.59L130.17,173.53z"/>
	<path class="st2" d="M128.57,175.13c0.14-0.93,0.68-1.46,1.61-1.6c0,0,0.02,0.02,0.02,0.02c-0.16,0.91-0.69,1.45-1.61,1.61
		L128.57,175.13z"/>
	<path class="st2" d="M126.94,175.91c0.54-0.26,1.08-0.52,1.63-0.78c0,0,0.02,0.02,0.02,0.02c-0.52,0.28-1.05,0.57-1.57,0.85
		L126.94,175.91z"/>
	<path class="st2" d="M126.15,176.72c0.26-0.27,0.53-0.53,0.79-0.8c0,0,0.07,0.09,0.07,0.08c-0.26,0.26-0.53,0.52-0.79,0.78
		L126.15,176.72z"/>
	<path class="st2" d="M199.29,150.19c0.9-0.01,1.81,0,2.71,0.02v-3.17c-5.01-0.13-10.04,0.15-15.08,0.85
		c-11.71,1.61-22.92,4.79-33.41,10.32c-1.78,0.94-3.54,1.92-5.65,1.75c-5.19,5.45-11.77,9.07-17.67,13.59
		c-0.16,0.91-0.69,1.45-1.61,1.6c-0.52,0.28-1.04,0.57-1.57,0.85c-0.26,0.26-0.53,0.52-0.79,0.78c-0.19,3.7-3.6,5.12-5.49,7.58
		c-10.43,13.58-18.22,28.29-21.54,45.3c-2.4,12.33-2.67,24.63-0.58,36.9c2.81,16.54,9.46,31.54,19.59,44.97
		c1.27,1.69,2.9,3.18,3.2,5.45c4.77,2.93,8.42,7.05,11.99,11.26c4.1,2.17,7.73,4.99,11.22,8.02c2.15,0.41,3.88,1.67,5.71,2.76
		c7.7,4.6,16.01,7.96,24.69,9.88c8.92,1.97,17.91,3.25,26.99,3.05v-3.06c-2,0.07-4.03,0.09-6.09,0.06
		c-18.42-0.29-35.57-6.07-51.07-16.35c-25.85-17.14-40.88-41.82-44.55-71.83c-3.55-29.04,5.62-55.93,25.27-77.85
		C144.96,161.28,169.97,150.37,199.29,150.19z"/>
	<path class="st2" d="M189.34,164.82c4.24-0.4,8.44-1.39,11.18-1.02c0.5,0.01,0.99,0.02,1.48,0.04v-13.63
		c-0.9-0.02-1.81-0.03-2.71-0.02c-29.32,0.18-54.33,11.09-73.73,32.73c-19.65,21.92-28.82,48.81-25.27,77.85
		c3.67,30.01,18.7,54.69,44.55,71.83c15.5,10.28,32.65,16.06,51.07,16.35c2.06,0.03,4.09,0.01,6.09-0.06v-13.52
		c-1.9,0.23-3.82,0.34-5.77,0.09c-29.96-0.69-52.24-14.74-68.31-39.55c-0.88-1.36-1.47-2.82,0-3.9c1.72-1.26,2.6,0.31,3.41,1.56
		c5.96,9.24,13.05,17.43,22.05,23.9c9.7,6.96,20.41,11.24,32.16,13.2c5.53,0.92,11,0.71,16.46,0.16v-17
		c-0.79,0.04-1.58,0.05-2.37,0.05c-35.63,0-64.63-28.9-64.56-64.33c0.07-35.57,29.09-64.7,64.49-64.47
		c0.82,0.01,1.63,0.03,2.44,0.06v-17.38c-2.85,0.02-5.72,0.27-8.61,0.85c-1.28,0.26-2.66,0.13-3.99,0.09
		c-1.21-0.04-2.68-0.1-2.6-1.75C186.86,165.59,188.07,164.94,189.34,164.82z"/>
</g>
<path class="st4" d="M202,185.14c-0.81-0.03-1.62-0.05-2.44-0.06c-35.4-0.23-64.42,28.9-64.49,64.47
	c-0.07,35.43,28.93,64.33,64.56,64.33c0.79,0,1.58-0.01,2.37-0.05c34.33-1.24,61.98-29.52,61.99-64.02
	C263.99,215.15,237.3,186.62,202,185.14z M202,308.11c-0.78,0.04-1.56,0.05-2.35,0.05c-32.38-0.04-58.49-26.23-58.47-58.63
	c-0.46-32.02,26.39-58.94,59.3-58.54c0.51,0.01,1.01,0.02,1.52,0.04c30.71,1.2,56.39,27.47,56.32,58.72
	C258.26,280.62,232.66,306.88,202,308.11z"/>
<path class="st0" d="M209.41,334.41c-2.49,0.16-4.94,0.66-7.41,0.96v-4.54c2.32-0.22,4.64-0.5,6.96-0.78
	c1.37-0.17,3.24-0.75,3.53,1.39C212.77,333.5,210.97,334.32,209.41,334.41z"/>
<path class="st2" d="M202,330.83v4.54c-1.9,0.23-3.82,0.34-5.77,0.09c-29.96-0.69-52.24-14.74-68.31-39.55
	c-0.88-1.36-1.47-2.82,0-3.9c1.72-1.26,2.6,0.31,3.41,1.56c5.96,9.24,13.05,17.43,22.05,23.9c9.7,6.96,20.41,11.24,32.16,13.2
	C191.07,331.59,196.54,331.38,202,330.83z"/>
<g>
	<path class="st0" d="M246.03,355.08c-0.97,0.43-1.92,0.92-2.88,1.38c-0.31,0.14-0.62,0.27-0.93,0.41l-0.12,0.03
		c-1.01,0.29-2.05,0.52-3.03,0.88c-12.02,4.44-24.36,6.66-37.07,6.95v-11.36c0.08,0,0.16,0,0.24-0.01c0.38,0,0.77-0.01,1.15-0.03
		c0.89-0.02,1.79-0.06,2.68-0.11c0.49-0.03,0.99-0.07,1.48-0.1c0.51-0.04,1.02-0.08,1.53-0.12c2.55-0.22,5.08-0.52,7.6-0.92
		c1-0.16,2.01-0.34,3.01-0.53c1.53-0.29,3.05-0.61,4.57-0.97c0.96-0.23,1.92-0.47,2.88-0.73c0.49-0.13,0.98-0.27,1.47-0.41
		c0.49-0.14,0.98-0.28,1.47-0.43c0.49-0.15,0.98-0.3,1.47-0.45c0.49-0.16,0.98-0.32,1.46-0.48c0.49-0.16,0.97-0.32,1.46-0.5
		c0.49-0.17,0.97-0.34,1.46-0.52c0.48-0.18,0.96-0.36,1.44-0.54c3.38-1.3,6.72-2.78,10.01-4.46c2.85-1.45,6.25-2.51,7.88-5.77h0.24
		c0.95,0,1.77-0.23,2.52-0.61c0.44-0.23,0.86-0.5,1.26-0.81c0.27-0.2,0.53-0.41,0.79-0.63c0.26-0.22,0.51-0.45,0.77-0.67
		c0.51-0.45,1.02-0.9,1.56-1.29c12.51-9.09,21.93-20.81,29.24-34.33c0.84-1.56,1.44-3.16,1.29-4.97c0.27-0.52,0.55-1.05,0.82-1.58
		c0.73-0.66,0.78-1.53,0.78-2.42c4.09-4.87,5.24-10.72,5.62-16.83c1.54-0.81,1.7-2.38,1.87-3.79c0.52-4.49,1.14-8.99,1.28-13.49
		c0.35-11.08-0.38-21.98-3.47-32.82c-2.52-8.83-5.87-17.18-10.47-24.97c-11.05-18.72-26.25-33.09-46.26-42.03
		c-13.03-5.82-26.64-9.23-40.95-9.57H202v-11.37c2.09,0.04,4.18,0.14,6.28,0.29c57.91,4.18,104.16,51.96,106.43,109.97
		C316.6,292.53,290.05,335.33,246.03,355.08z"/>
	<path class="st0" d="M303.3,254.87c-0.14,4.5-0.76,9-1.28,13.49c-0.17,1.41-0.33,2.98-1.87,3.79l-0.05-0.03
		c0.84-11.8,2.53-23.5,0.95-35.43c-1.95-14.79-6.53-28.55-14.63-40.98c-5.73-8.8-12.8-16.47-20.66-23.65
		c-12.94-11.81-28.06-18.6-44.71-22.54c-0.79-0.19-1.59-0.37-2.39-0.53c-0.79-0.17-1.58-0.32-2.37-0.47
		c-0.54-0.09-1.07-0.18-1.6-0.27c-0.44-0.08-0.88-0.15-1.32-0.21c-0.27-0.04-0.54-0.08-0.81-0.11c-0.42-0.07-0.85-0.13-1.28-0.18
		c-0.74-0.1-1.47-0.18-2.21-0.26c-0.2-0.02-0.41-0.03-0.61-0.05c-0.24-0.02-0.48-0.05-0.72-0.07c-0.24-0.03-0.48-0.05-0.72-0.06
		c-0.71-0.06-1.42-0.11-2.13-0.15c-0.05,0-0.09-0.01-0.14-0.01c-0.61-0.03-1.24-0.06-1.85-0.08c-0.3-0.01-0.6-0.02-0.9-0.03v-1.56
		h0.15c14.31,0.34,27.92,3.75,40.95,9.57c20.01,8.94,35.21,23.31,46.26,42.03c4.6,7.79,7.95,16.14,10.47,24.97
		C302.92,232.89,303.65,243.79,303.3,254.87z"/>
	<path class="st0" d="M300.1,272.12c-2.46,5.41-3.77,11.21-5.6,16.84c-0.69,0.65-0.8,1.5-0.84,2.38c-0.25,0.54-0.51,1.08-0.77,1.62
		c-2.62,2.87-4.11,6.46-6.09,9.73c-7.52,12.39-17.44,22.5-29.03,31.06c-0.97,0.72-1.96,1.39-2.56,2.47
		c-5.96,1.64-10.9,5.43-16.55,7.79c-7.92,3.31-16.13,5.18-24.5,6.72c-0.64,0.11-1.29,0.22-1.93,0.32c-0.14,0.03-0.27,0.05-0.41,0.06
		c-0.62,0.1-1.23,0.18-1.85,0.26c-0.38,0.05-0.76,0.09-1.13,0.13c-0.92,0.1-1.84,0.19-2.76,0.25c-0.29,0.03-0.57,0.05-0.86,0.07
		c-1.07,0.06-2.15,0.11-3.22,0.13v-3.06c57.72-2.02,95.09-46.34,97.05-95.84c2.26-56.79-42.75-101.72-97.05-102.84v-3.17
		c0.3,0.01,0.6,0.02,0.9,0.03c0.61,0.02,1.24,0.05,1.85,0.08c0.05,0,0.09,0.01,0.14,0.01c0.71,0.04,1.42,0.09,2.13,0.15
		c0.24,0.01,0.48,0.03,0.72,0.06c0.24,0.02,0.48,0.05,0.72,0.07c0.2,0.02,0.41,0.03,0.61,0.05c0.74,0.08,1.47,0.16,2.21,0.26
		c0.43,0.05,0.86,0.11,1.28,0.18c0.27,0.03,0.54,0.07,0.81,0.11c0.44,0.06,0.88,0.13,1.32,0.21c0.53,0.09,1.06,0.18,1.6,0.27
		c0.79,0.15,1.58,0.3,2.37,0.47c0.8,0.16,1.6,0.34,2.39,0.53c16.65,3.94,31.77,10.73,44.71,22.54c7.86,7.18,14.93,14.85,20.66,23.65
		c8.1,12.43,12.68,26.19,14.63,40.98C302.63,248.62,300.94,260.32,300.1,272.12z"/>
	<path class="st0" d="M299.05,253.05c-1.96,49.5-39.33,93.82-97.05,95.84v-13.52c2.47-0.3,4.92-0.8,7.41-0.96
		c1.56-0.09,3.36-0.91,3.08-2.97c-0.29-2.14-2.16-1.56-3.53-1.39c-2.32,0.28-4.64,0.56-6.96,0.78v-17
		c34.33-1.24,61.98-29.52,61.99-64.02c0-34.66-26.69-63.19-61.99-64.67v-17.38c6.18-0.04,12.29,1.04,18.35,2.35
		c21.14,4.57,36.47,17.14,47.5,35.37c0.77,1.28,1.25,3.08,3.12,1.94c1.67-1.02,1.4-2.87,0.42-4.26c-3.29-4.68-6.34-9.61-10.17-13.82
		c-15.49-17.02-35.14-24.73-59.22-25.5v-13.63C256.3,151.33,301.31,196.26,299.05,253.05z"/>
	<path class="st0" d="M270.97,207.42c-1.87,1.14-2.35-0.66-3.12-1.94c-11.03-18.23-26.36-30.8-47.5-35.37
		c-6.06-1.31-12.17-2.39-18.35-2.35v-3.92c24.08,0.77,43.73,8.48,59.22,25.5c3.83,4.21,6.88,9.14,10.17,13.82
		C272.37,204.55,272.64,206.4,270.97,207.42z"/>
</g>
<path class="st2" d="M202,163.84v3.92c-2.85,0.02-5.72,0.27-8.61,0.85c-1.28,0.26-2.66,0.13-3.99,0.09c-1.21-0.04-2.68-0.1-2.6-1.75
	c0.06-1.36,1.27-2.01,2.54-2.13c4.24-0.4,8.44-1.39,11.18-1.02C201.02,163.81,201.51,163.82,202,163.84z"/>
<path class="st5" d="M141.18,249.53c-0.47-32.01,26.38-58.93,59.29-58.54c31.38,0.38,57.91,27,57.84,58.76
	c-0.06,31.67-26.98,58.46-58.67,58.42C167.27,308.12,141.16,281.93,141.18,249.53z M248.18,248.58
	c-0.32-26.99-22.32-48.29-49.83-47.77c-26.8,0.51-48.38,23.09-47.45,50.22c0.88,25.52,20.93,47.14,48.49,47.19
	C227.41,298.27,248.5,276.29,248.18,248.58z"/>
<path class="st6" d="M248.18,248.58c0.33,27.7-20.76,49.69-48.8,49.64c-27.56-0.05-47.61-21.66-48.49-47.19
	c-0.93-27.13,20.65-49.71,47.45-50.22C225.86,200.29,247.86,221.6,248.18,248.58z M220.77,249.55c-0.04-11.7-8.19-21.6-23.34-21.22
	c-8.96,0.23-19.33,8.59-19.05,21.45c0.25,11.48,8.95,21.08,20.85,20.83C211.39,270.35,220.8,261.39,220.77,249.55z M219.08,280.81
	c2.12-0.32,3.33-1.54,3.16-3.77c-0.16-2.03-1.41-3.19-3.45-3.02c-2.17,0.18-3.39,1.56-3.28,3.75
	C215.61,279.87,217.06,280.69,219.08,280.81z M165.67,248.96c-2.13,0.26-3.36,1.48-3.26,3.68c0.09,2.08,1.51,3.15,3.44,3.09
	c2.19-0.06,3.43-1.51,3.33-3.66C169.09,250.04,167.72,249.06,165.67,248.96z M217.42,218.72c-0.42-1.95-1.32-3.46-3.64-3.29
	c-1.98,0.14-3.31,1.26-3.15,3.27c0.16,2.02,1.4,3.5,3.61,3.37C216.16,221.97,217.36,220.82,217.42,218.72z M227.46,233.55
	c1.95-0.34,3.32-1.34,3.35-3.38c0.03-2.32-1.46-3.41-3.63-3.28c-1.98,0.12-3.2,1.32-3.09,3.43
	C224.19,232.41,225.54,233.32,227.46,233.55z M236.78,246.29c-0.4-1.59-1.4-2.93-3.43-2.94c-2.02,0-3.37,1.25-3.33,3.21
	c0.04,2.1,1.45,3.5,3.62,3.44C235.66,249.95,236.7,248.6,236.78,246.29z M188.57,280.06c-0.4-2.04-1.58-3.16-3.59-3.07
	c-2.01,0.09-3.3,1.28-3.24,3.3c0.07,2.23,1.66,3.41,3.73,3.28C187.45,283.46,188.35,281.91,188.57,280.06z M183.69,221.56
	c-0.3-2.03-1.47-3.13-3.45-3.12c-1.97,0-3.32,1.06-3.33,3.1c-0.02,2.22,1.34,3.35,3.54,3.27
	C182.48,224.72,183.45,223.45,183.69,221.56z M230.32,260.54c-2.02,0.28-3.16,1.35-3.2,3.38c-0.04,2.01,0.91,3.34,3.02,3.32
	c2.16-0.03,3.44-1.24,3.41-3.47C233.52,261.69,232.19,260.79,230.32,260.54z M196.69,212.17c-1.71,0.28-3.05,1.19-3.16,3.27
	c-0.11,2.05,0.95,3.42,2.98,3.54c2,0.11,3.3-1.05,3.39-3.13C199.98,213.83,198.93,212.6,196.69,212.17z M168.57,231.64
	c-1.65,0.34-3.07,1.12-3.04,3.28c0.03,2.02,1.07,3.31,3.12,3.36c2.05,0.05,3.18-1.16,3.26-3.2
	C172.01,232.96,170.74,232,168.57,231.64z M175.01,268.72c-0.27-1.69-1.23-2.94-3.31-2.99c-2.1-0.06-3.29,1.13-3.35,3.12
	c-0.06,2.01,1.11,3.24,3.2,3.24C173.56,272.08,174.75,271.03,175.01,268.72z M202.53,280.13c-2.19-0.04-3.29,1.15-3.32,3.14
	c-0.03,1.96,0.95,3.29,3.12,3.28c2.06-0.01,3.2-1.02,3.25-3.14C205.64,281.3,204.53,280.27,202.53,280.13z"/>
<path class="st7" d="M220.77,249.55c0.02,11.84-9.38,20.8-21.55,21.05c-11.9,0.25-20.6-9.35-20.85-20.83
	c-0.28-12.86,10.1-21.22,19.05-21.45C212.59,227.95,220.73,237.85,220.77,249.55z"/>
<path class="st8" d="M219.08,280.81c-2.02-0.11-3.47-0.94-3.57-3.03c-0.11-2.19,1.11-3.57,3.28-3.75c2.04-0.17,3.29,0.99,3.45,3.02
	C222.4,279.26,221.2,280.49,219.08,280.81z"/>
<path class="st8" d="M165.67,248.96c2.05,0.11,3.42,1.09,3.51,3.1c0.09,2.15-1.15,3.6-3.33,3.66c-1.93,0.06-3.35-1.01-3.44-3.09
	C162.31,250.43,163.54,249.22,165.67,248.96z"/>
<path class="st8" d="M217.42,218.72c-0.06,2.1-1.26,3.25-3.18,3.36c-2.21,0.13-3.45-1.36-3.61-3.37c-0.16-2.02,1.17-3.13,3.15-3.27
	C216.1,215.26,217.01,216.77,217.42,218.72z"/>
<path class="st8" d="M227.46,233.55c-1.92-0.23-3.26-1.14-3.37-3.23c-0.11-2.11,1.11-3.31,3.09-3.43c2.16-0.13,3.65,0.96,3.63,3.28
	C230.78,232.22,229.41,233.22,227.46,233.55z"/>
<path class="st8" d="M236.78,246.29c-0.09,2.32-1.12,3.66-3.13,3.72c-2.17,0.06-3.58-1.34-3.62-3.44c-0.04-1.96,1.31-3.21,3.33-3.21
	C235.39,243.35,236.39,244.69,236.78,246.29z"/>
<path class="st8" d="M188.57,280.06c-0.23,1.85-1.13,3.4-3.09,3.52c-2.07,0.12-3.66-1.06-3.73-3.28c-0.06-2.02,1.23-3.21,3.24-3.3
	C187,276.9,188.18,278.02,188.57,280.06z"/>
<path class="st8" d="M183.69,221.56c-0.24,1.89-1.21,3.16-3.24,3.24c-2.19,0.09-3.56-1.05-3.54-3.27c0.02-2.03,1.36-3.09,3.33-3.1
	C182.22,218.43,183.39,219.53,183.69,221.56z"/>
<path class="st8" d="M230.32,260.54c1.86,0.25,3.2,1.15,3.23,3.23c0.03,2.23-1.25,3.44-3.41,3.47c-2.11,0.03-3.05-1.31-3.02-3.32
	C227.16,261.89,228.3,260.81,230.32,260.54z"/>
<path class="st8" d="M196.69,212.17c2.24,0.43,3.29,1.66,3.21,3.68c-0.09,2.08-1.39,3.25-3.39,3.13c-2.02-0.12-3.09-1.49-2.98-3.54
	C193.64,213.36,194.98,212.45,196.69,212.17z"/>
<path class="st8" d="M168.57,231.64c2.17,0.36,3.44,1.32,3.35,3.44c-0.09,2.04-1.21,3.25-3.26,3.2c-2.05-0.05-3.1-1.34-3.12-3.36
	C165.5,232.76,166.92,231.97,168.57,231.64z"/>
<path class="st8" d="M175.01,268.72c-0.27,2.31-1.46,3.36-3.46,3.36c-2.09,0-3.26-1.23-3.2-3.24c0.06-1.98,1.25-3.17,3.35-3.12
	C173.78,265.78,174.74,267.03,175.01,268.72z"/>
<path class="st8" d="M202.53,280.13c2,0.14,3.11,1.17,3.06,3.29c-0.05,2.12-1.19,3.13-3.25,3.14c-2.17,0.01-3.15-1.32-3.12-3.28
	C199.24,281.28,200.34,280.09,202.53,280.13z"/>
<polyline class="st9" points="202,313.83 202,308.11 202,298.16 202,286.54 202,280.14 202,270.38 202,228.55 202,200.88 
	202,191.03 202,185.14 "/>
</svg>
