<?xml version="1.0" encoding="utf-8"?>
<!-- Generator: Adobe Illustrator 24.0.1, SVG Export Plug-In . SVG Version: 6.00 Build 0)  -->
<svg version="1.1" id="Layer_1" xmlns="http://www.w3.org/2000/svg" xmlns:xlink="http://www.w3.org/1999/xlink" x="0px" y="0px"
	 viewBox="0 0 500 500" style="enable-background:new 0 0 500 500;" xml:space="preserve">
<style type="text/css">
	.st0{fill:#FFE40D;}
	.st1{fill:#FDFBFB;}
	.st2{fill:#FFC30B;}
</style>
<g>
	<path class="st0" d="M394.93,234.21c-4.73,3.85-10.69,4.92-16.2,6.89c-25.37,9.08-51.5,15.41-78.06,19.67
		c-13.98,2.24-28.13,3.45-42.3,4.47c-16.46,1.19-32.89,0.95-49.29,0.58c-16.12-0.36-32.21-2.11-48.23-4.54
		c-19.59-2.97-38.92-6.93-57.97-12.3c-18.79-5.29-37.17-11.78-55.05-19.62c-11.98-5.25-24.08-10.26-35.3-17.07
		c-0.5-0.3-1.3-0.1-1.96-0.14c-0.15-1.64-0.43-3.29-0.44-4.93c-0.04-27.47-0.05-54.93-0.06-82.4c0-8.72,6.1-14.78,14.89-14.78
		c150.02,0,300.03,0,450.05,0c8.78,0,14.91,6.06,14.91,14.76c0,18.81,0,37.62-0.04,56.43c0,1.64-0.29,3.29-0.45,4.93
		c-6.71,1.8-11.53,6.82-17.3,10.22c-12.67,7.46-25.15,15.25-38.59,21.29c1.34-7.08,1.08-14.23,1.15-21.38
		c0.03-2.54-0.75-3.55-3.41-3.5c-7.49,0.13-14.98,0.1-22.46,0.02c-2.1-0.02-2.79,0.65-2.95,2.83c-0.79,10.38-0.87,10.38,9.31,10.39
		c0.83,0,1.68,0.1,2.49-0.02c2.7-0.38,3.37,0.85,3.3,3.39c-0.16,5.98-4.12,10.87-10.37,12.36c-6.73,1.6-12.45-0.56-15.23-6.39
		c-4.1-8.62-4.78-17.92-3.96-27.26c0.53-6.03,1.15-12.14,4.32-17.62c4.61-7.98,18.43-9.88,22.47-2.43c2.78,5.13,5.36,5.05,9.49,2.82
		c0.87-0.47,1.8-0.91,2.75-1.13c4.11-0.95,3.64-3.09,2.01-6.11c-4.84-8.96-12.18-13.94-22.37-14.2c-12.8-0.32-22.54,3.77-27.9,16.99
		c-3.03,7.48-4.66,15.32-4.7,23.22C377.41,206.69,378.95,223.37,394.93,234.21z M65.41,150.47c2.24,14.44,4.49,28.66,6.64,42.9
		c1.81,12,3.48,24.02,5.32,36.01c0.24,1.58-0.02,3.57,2.76,3.96c7.8,1.11,9.38,0.22,11.23-7.3c0.91-3.71,1.78-7.43,2.69-11.14
		c2.72-11.1,5.46-22.2,8.48-34.51c0.73,2.72,1.15,4.15,1.5,5.59c3.24,13.16,6.45,26.33,9.69,39.49c2.11,8.57,2.12,8.47,10.8,7.87
		c2.35-0.16,3.15-1.09,3.45-3.25c3.32-23.68,6.82-47.34,9.99-71.04c1.29-9.61,0.44-10.06-9.44-9.05c-2.18,0.22-3.1,1.46-3.33,2.97
		c-0.8,5.28-1.19,10.61-1.9,15.9c-1.03,7.69-2.2,15.36-3.32,23.04c-3.43-11.01-6.23-21.92-8.91-32.85
		c-2.41-9.84-2.64-10.03-12.75-9.01c-1.63,0.17-2.79,0.42-3.16,2.36c-0.89,4.62-1.94,9.2-3.02,13.78c-2.03,8.61-4.12,17.2-6.19,25.8
		c-2.16-9.98-3.62-19.82-4.99-29.67c-1.8-12.95-1.77-12.95-14.93-12.14C65.9,150.19,65.75,150.31,65.41,150.47z M314.72,180.62
		c0.34-0.07,0.68-0.13,1.02-0.2c0.83,1.4,1.69,2.78,2.49,4.2c8.8,15.56,17.68,31.08,26.32,46.73c2.98,5.39,7.7,2.76,11.55,2.75
		c3.45-0.01,1.79-3.66,1.8-5.6c0.12-22.97,0.06-45.93,0.05-68.9c0-8.59-0.01-8.41-8.66-8.58c-3.49-0.07-4.49,0.88-4.44,4.41
		c0.2,13.98,0.07,27.96,0.06,41.94c0,1.69,0,3.38,0,5.06c-9.3-14.45-18.15-28.7-25.81-43.56c-3.39-6.58-7.45-8.62-14.26-7.88
		c-2.77,0.3-3.67,0.94-3.66,3.75c0.07,25.3,0.01,50.59,0,75.89c0,1.13-0.4,2.87,0.72,3.21c3.71,1.1,7.68,0.96,11.34,0.22
		c2.78-0.56,1.4-3.7,1.41-5.65C314.77,212.48,314.72,196.55,314.72,180.62z M210.25,234.34c-4.41-11.79-8.47-22.98-12.81-34.06
		c-1.24-3.17-1.24-4.9,1.92-7.24c8.01-5.92,10.63-14.5,8.38-23.97c-2.19-9.24-8.19-15.28-17.91-17.08
		c-10.4-1.92-20.9-0.24-31.33-0.98c-4.17-0.3-4.86,1.35-4.84,5.06c0.14,22.97,0.05,45.94,0.03,68.9c-0.01,10.01-0.01,9.91,9.96,9.42
		c2.65-0.13,3.41-1.03,3.36-3.56c-0.13-7.15-0.05-14.31-0.05-21.47c-0.01-11.42-0.01-11.27,11.37-11.4
		c3.23-0.03,4.64,1.02,5.68,3.99c3.41,9.72,7.13,19.32,10.67,29c0.65,1.78,1.11,3.46,3.57,3.39
		C202.04,234.26,205.84,234.34,210.25,234.34z M223.75,195.7c0.02,3.48,0.31,8.77,1.5,13.93c0.7,3.02,1.97,5.93,3.15,8.82
		c4.86,11.91,13.05,17.56,25.22,17.5c11.67-0.06,19.93-5.86,24.51-17.76c6.01-15.61,6.44-31.64,1.37-47.46
		c-6.03-18.8-18.65-23.97-37.33-19.22c-4.09,1.04-7.45,3.5-9.68,7.13C225.87,169.45,223.53,181.36,223.75,195.7z"/>
</g>
<path class="st1" d="M158.83,309.57c2.71-11.06,5.46-22.12,8.13-33.19c2.15-8.91,4.11-10.12,13.16-8.64
	c2.71,0.44,2.36,2.5,2.75,4.04c2.78,10.95,5.42,21.94,8.1,32.91c0.39,1.59,0.82,3.17,1.94,4.71c1.75-11.88,3.66-23.74,5.17-35.65
	c0.57-4.49,1.85-6.5,6.95-6.11c7.48,0.58,7.4,0.13,6.32,7.47c-3.5,23.69-6.9,47.4-10.4,71.1c-0.3,2.06,0.36,5.37-3.41,4.64
	c-3.57-0.69-8.61,2.97-10.17-4.12c-3.51-15.88-7.63-31.63-12.27-47.5c-2.69,11.02-5.38,22.05-8.08,33.07
	c-1.26,5.16-2.74,10.29-3.74,15.5c-0.48,2.53-1.49,3.4-3.93,3.16c-1.65-0.16-3.35-0.22-4.99,0.01c-2.82,0.39-3.73-0.94-4.09-3.49
	c-2.7-18.77-5.48-37.52-8.24-56.28c-0.97-6.58-1.89-13.17-2.99-19.73c-0.46-2.75,0.16-3.71,3.2-3.75c9.57-0.1,9.6-0.25,11.05,9.19
	c1.67,10.85,3.27,21.7,4.9,32.55C158.41,309.5,158.62,309.53,158.83,309.57z"/>
<path class="st1" d="M394.93,234.21c-15.99-10.85-17.52-27.52-17.45-44.53c0.03-7.9,1.66-15.74,4.7-23.22
	c5.36-13.22,15.11-17.32,27.9-16.99c10.19,0.26,17.54,5.23,22.37,14.2c1.63,3.02,2.1,5.16-2.01,6.11c-0.95,0.22-1.88,0.66-2.75,1.13
	c-4.13,2.23-6.71,2.31-9.49-2.82c-4.04-7.46-17.87-5.55-22.47,2.43c-3.17,5.48-3.78,11.59-4.32,17.62
	c-0.82,9.34-0.15,18.64,3.96,27.26c2.77,5.83,8.5,7.99,15.23,6.39c6.25-1.49,10.22-6.37,10.37-12.36c0.07-2.54-0.6-3.77-3.3-3.39
	c-0.82,0.11-1.66,0.02-2.49,0.02c-10.18-0.01-10.1,0-9.31-10.39c0.17-2.17,0.86-2.85,2.95-2.83c7.49,0.08,14.98,0.12,22.46-0.02
	c2.65-0.05,3.43,0.96,3.41,3.5c-0.07,7.15,0.19,14.3-1.15,21.38c-8.73,16.39-17.3,20.4-35.65,16.73
	C396.92,234.24,395.92,234.28,394.93,234.21z"/>
<path class="st1" d="M287.92,350.69c-13.79,0.85-13.79,0.85-18.06-11.46c-3.98-11.46-3.98-11.54-16.18-11.42
	c-4.62,0.05-10.3-1.88-13.57,0.84c-2.98,2.48-3.51,7.98-4.99,12.19c-3.62,10.29-3.59,10.3-14.55,10.09
	c-0.8-0.02-1.61-0.12-2.95-0.22c4.15-12.02,8.21-23.76,12.24-35.5c4.91-14.29,9.91-28.55,14.63-42.91c1.09-3.33,2.45-4.72,6.18-4.59
	c8.66,0.3,8.66,0.07,11.47,8.24C270.7,300.73,279.25,325.53,287.92,350.69z M252.93,290.79c-3.08,8.57-5.64,15.69-8.33,23.17
	c5.73,0,10.84,0,16.37,0C258.4,306.52,255.92,299.39,252.93,290.79z"/>
<path class="st1" d="M290.19,267.82c5.38,0,9.8,0.02,14.23-0.01c2.15-0.02,2.63,1.79,3.47,3.13c5.81,9.3,11.57,18.64,17.52,28.26
	c2.74-2.21,3.95-5.3,5.68-7.97c4.17-6.41,8.38-12.81,12.19-19.43c1.83-3.18,3.97-4.42,7.57-4.06c3.13,0.31,6.31,0.07,9.48,0.07
	c0.64,1.9-0.8,2.88-1.49,4.03c-8.03,13.21-16.09,26.4-24.27,39.51c-1.39,2.23-2,4.42-1.98,7.01c0.09,9.65-0.06,19.31,0.09,28.96
	c0.04,2.78-0.73,3.65-3.61,3.69c-9.84,0.13-10.72,0.16-9.65-9.37c2.13-19.02-2.76-35.46-14.51-50.45
	C299.46,284.23,295.38,276.17,290.19,267.82z"/>
<path class="st1" d="M65.41,150.47c0.34-0.16,0.49-0.28,0.64-0.29c13.16-0.81,13.13-0.81,14.93,12.14
	c1.37,9.85,2.84,19.69,4.99,29.67c2.07-8.6,4.16-17.19,6.19-25.8c1.08-4.58,2.12-9.17,3.02-13.78c0.38-1.94,1.54-2.19,3.16-2.36
	c10.11-1.02,10.34-0.84,12.75,9.01c2.68,10.94,5.47,21.84,8.91,32.85c1.11-7.68,2.29-15.35,3.32-23.04c0.71-5.29,1.1-10.63,1.9-15.9
	c0.23-1.51,1.15-2.75,3.33-2.97c9.89-1,10.73-0.55,9.44,9.05c-3.17,23.7-6.68,47.36-9.99,71.04c-0.3,2.16-1.11,3.09-3.45,3.25
	c-8.68,0.6-8.69,0.7-10.8-7.87c-3.24-13.16-6.46-26.32-9.69-39.49c-0.35-1.44-0.77-2.87-1.5-5.59c-3.03,12.31-5.76,23.41-8.48,34.51
	c-0.91,3.71-1.78,7.43-2.69,11.14c-1.84,7.53-3.43,8.41-11.23,7.3c-2.78-0.39-2.52-2.38-2.76-3.96
	c-1.85-11.99-3.51-24.01-5.32-36.01C69.9,179.13,67.65,164.91,65.41,150.47z"/>
<path class="st1" d="M314.72,180.62c0,15.93,0.05,31.86-0.06,47.79c-0.01,1.95,1.37,5.09-1.41,5.65c-3.67,0.74-7.64,0.88-11.34-0.22
	c-1.13-0.33-0.73-2.07-0.72-3.21c0.01-25.3,0.07-50.59,0-75.89c-0.01-2.81,0.89-3.45,3.66-3.75c6.81-0.74,10.87,1.3,14.26,7.88
	c7.66,14.86,16.5,29.11,25.81,43.56c0-1.69,0-3.38,0-5.06c0.01-13.98,0.14-27.96-0.06-41.94c-0.05-3.53,0.96-4.48,4.44-4.41
	c8.65,0.17,8.66-0.01,8.66,8.58c0.01,22.97,0.07,45.93-0.05,68.9c-0.01,1.93,1.66,5.59-1.8,5.6c-3.85,0.01-8.57,2.64-11.55-2.75
	c-8.64-15.65-17.52-31.17-26.32-46.73c-0.8-1.42-1.66-2.8-2.49-4.2C315.41,180.49,315.07,180.55,314.72,180.62z"/>
<path class="st1" d="M210.25,234.34c-4.42,0-8.21-0.08-12,0.03c-2.46,0.07-2.92-1.61-3.57-3.39c-3.54-9.67-7.26-19.28-10.67-29
	c-1.04-2.96-2.46-4.02-5.68-3.99c-11.38,0.12-11.38-0.02-11.37,11.4c0.01,7.16-0.07,14.32,0.05,21.47c0.04,2.52-0.72,3.43-3.36,3.56
	c-9.97,0.48-9.97,0.59-9.96-9.42c0.01-22.97,0.1-45.94-0.03-68.9c-0.02-3.71,0.67-5.36,4.84-5.06c10.42,0.74,20.92-0.94,31.33,0.98
	c9.72,1.79,15.72,7.83,17.91,17.08c2.24,9.46-0.37,18.04-8.38,23.97c-3.16,2.34-3.16,4.07-1.92,7.24
	C201.78,211.36,205.84,222.55,210.25,234.34z M177.42,164.49c0-0.09,0-0.18,0-0.27c-2.16,0-4.33,0.15-6.47-0.04
	c-2.87-0.25-4.28,0.48-4.08,3.76c0.27,4.46,0.08,8.95,0.07,13.43c0,1.71-0.13,3.42,2.41,3.35c5.63-0.14,11.3,0.15,16.88-0.43
	c5.58-0.58,8.91-4.55,9.04-9.53c0.14-5.2-3.24-9.31-8.93-10.19C183.43,164.12,180.4,164.49,177.42,164.49z"/>
<path class="st1" d="M223.75,195.7c-0.22-14.34,2.12-26.25,8.74-37.05c2.23-3.63,5.59-6.09,9.68-7.13
	c18.68-4.74,31.3,0.42,37.33,19.22c5.07,15.82,4.64,31.84-1.37,47.46c-4.58,11.9-12.84,17.7-24.51,17.76
	c-12.17,0.06-20.36-5.59-25.22-17.5c-1.18-2.89-2.45-5.8-3.15-8.82C224.06,204.48,223.77,199.18,223.75,195.7z M269.34,192.16
	c-0.05-6.86-0.68-13.65-3.48-20c-2.36-5.35-5.99-9.16-12.44-9.08c-6.28,0.07-10.36,3.3-12.5,8.94c-5.2,13.75-5.39,27.6-0.03,41.35
	c2.17,5.56,6.05,8.91,12.48,8.91c6.51,0,10.09-3.75,12.35-9.14C268.53,206.46,269.36,199.36,269.34,192.16z"/>
<g>
	<path class="st2" d="M489.43,186.19c0.04,35.8,0.1,71.61,0.13,107.41c0.02,25.98,0.01,51.96,0,77.94
		c-0.01,12.53-5.45,18.03-17.92,18.03c-147.76,0.01-295.52,0.01-443.27,0c-12.47,0-17.92-5.5-17.92-18.03
		c-0.01-51.79-0.01-103.59,0-155.38c0-1.33,0.08-2.66,0.12-3.99c0.66,0.03,1.46-0.17,1.96,0.14c11.23,6.81,23.33,11.82,35.3,17.07
		c17.88,7.84,36.26,14.32,55.05,19.62c19.05,5.36,38.38,9.33,57.97,12.3c16.02,2.43,32.1,4.18,48.23,4.54
		c16.4,0.37,32.83,0.6,49.29-0.58c14.17-1.02,28.33-2.23,42.3-4.47c26.56-4.26,52.69-10.6,78.06-19.67
		c5.5-1.97,11.47-3.04,16.2-6.89c0.99,0.07,1.99,0.03,2.95,0.22c18.35,3.67,26.92-0.34,35.65-16.73
		c13.45-6.04,25.92-13.83,38.59-21.29C477.9,193.01,482.72,187.99,489.43,186.19z M158.83,309.57c-0.21-0.04-0.43-0.07-0.64-0.11
		c-1.63-10.85-3.24-21.71-4.9-32.55c-1.45-9.44-1.48-9.29-11.05-9.19c-3.04,0.03-3.66,0.99-3.2,3.75c1.1,6.56,2.02,13.15,2.99,19.73
		c2.76,18.76,5.55,37.51,8.24,56.28c0.37,2.55,1.28,3.88,4.09,3.49c1.63-0.23,3.34-0.17,4.99-0.01c2.44,0.24,3.45-0.63,3.93-3.16
		c0.99-5.22,2.47-10.34,3.74-15.5c2.7-11.02,5.39-22.04,8.08-33.07c4.64,15.87,8.76,31.62,12.27,47.5c1.57,7.09,6.6,3.43,10.17,4.12
		c3.77,0.73,3.1-2.57,3.41-4.64c3.49-23.69,6.89-47.4,10.4-71.1c1.09-7.34,1.16-6.9-6.32-7.47c-5.1-0.39-6.39,1.62-6.95,6.11
		c-1.5,11.91-3.42,23.77-5.17,35.65c-1.12-1.55-1.55-3.13-1.94-4.71c-2.69-10.97-5.32-21.96-8.1-32.91
		c-0.39-1.53-0.04-3.59-2.75-4.04c-9.05-1.48-11.01-0.27-13.16,8.64C164.29,287.45,161.54,298.51,158.83,309.57z M287.92,350.69
		c-8.67-25.17-17.22-49.96-25.76-74.75c-2.81-8.17-2.81-7.95-11.47-8.24c-3.73-0.13-5.09,1.27-6.18,4.59
		c-4.72,14.36-9.72,28.62-14.63,42.91c-4.04,11.75-8.1,23.49-12.24,35.5c1.34,0.1,2.14,0.21,2.95,0.22
		c10.95,0.21,10.93,0.2,14.55-10.09c1.48-4.21,2.01-9.7,4.99-12.19c3.27-2.72,8.95-0.79,13.57-0.84
		c12.19-0.12,12.19-0.04,16.18,11.42C274.14,351.54,274.14,351.54,287.92,350.69z M290.19,267.82c5.2,8.36,9.27,16.41,14.73,23.38
		c11.75,15,16.64,31.43,14.51,50.45c-1.07,9.52-0.19,9.5,9.65,9.37c2.88-0.04,3.65-0.91,3.61-3.69c-0.15-9.65,0-19.31-0.09-28.96
		c-0.02-2.59,0.59-4.78,1.98-7.01c8.18-13.12,16.24-26.31,24.27-39.51c0.7-1.15,2.14-2.13,1.49-4.03c-3.17,0-6.35,0.25-9.48-0.07
		c-3.6-0.36-5.74,0.88-7.57,4.06c-3.81,6.62-8.02,13.02-12.19,19.43c-1.73,2.66-2.94,5.76-5.68,7.97
		c-5.96-9.62-11.72-18.95-17.52-28.26c-0.84-1.34-1.32-3.14-3.47-3.13C299.99,267.84,295.57,267.82,290.19,267.82z"/>
	<path class="st2" d="M252.93,290.79c2.99,8.61,5.46,15.74,8.04,23.17c-5.53,0-10.64,0-16.37,0
		C247.29,306.48,249.85,299.36,252.93,290.79z"/>
</g>
<g>
	<path class="st0" d="M177.42,164.49c2.98,0,6.02-0.37,8.93,0.08c5.69,0.88,9.07,5,8.93,10.19c-0.13,4.98-3.46,8.94-9.04,9.53
		c-5.58,0.58-11.25,0.29-16.88,0.43c-2.54,0.07-2.41-1.64-2.41-3.35c0.01-4.48,0.2-8.97-0.07-13.43c-0.2-3.28,1.22-4.01,4.08-3.76
		c2.14,0.19,4.31,0.04,6.47,0.04C177.42,164.31,177.42,164.4,177.42,164.49z"/>
	<path class="st0" d="M269.34,192.16c0.02,7.21-0.8,14.3-3.61,20.99c-2.26,5.39-5.84,9.13-12.35,9.14c-6.43,0-10.31-3.35-12.48-8.91
		c-5.36-13.75-5.17-27.6,0.03-41.35c2.13-5.65,6.22-8.87,12.5-8.94c6.44-0.08,10.08,3.73,12.44,9.08
		C268.66,178.51,269.29,185.3,269.34,192.16z"/>
</g>
</svg>
