<?xml version="1.0" encoding="utf-8"?>
<!-- Generator: Adobe Illustrator 24.0.1, SVG Export Plug-In . SVG Version: 6.00 Build 0)  -->
<svg version="1.1" id="Layer_1" xmlns="http://www.w3.org/2000/svg" xmlns:xlink="http://www.w3.org/1999/xlink" x="0px" y="0px"
	 viewBox="0 0 500 500" style="enable-background:new 0 0 500 500;" xml:space="preserve">
<style type="text/css">
	.st0{fill:#A70000;}
	.st1{fill:#FF7B7B;}
	.st2{fill:#DB3F3F;}
	.st3{fill:#312F30;}
	.st4{fill:#E0E0E0;}
	.st5{fill:#A29EA0;}
	.st6{fill:#E6E6E6;}
	.st7{fill:#FDFDFD;}
	.st8{fill:#A7A5A6;}
	.st9{fill:none;}
</style>
<g>
	<path class="st0" d="M300.03,489.64c-0.73-5.16,3.01-8.79,5.15-12.9c3.87-7.44,8.12-14.69,12.25-22.01
		c0.43-0.76,0.56-2.06,1.64-2.01c1.06,0.04,1.12,1.36,1.55,2.12c5.07,9,10.07,18.04,15.12,27.05c0.48,0.86,0.78,1.87,2.03,2.66
		c1.68-2.98,3.36-5.9,5-8.84c4-7.16,8-14.34,12.01-21.5c0.33-0.59,0.36-1.6,1.37-1.53c0.77,0.05,0.84,0.92,1.13,1.46
		c5.27,9.42,10.51,18.85,15.8,28.26c0.41,0.72,0.42,2.05,1.66,1.93c0.9-0.08,1.06-1.21,1.44-1.91c4.96-9.06,9.89-18.12,14.83-27.18
		c0.48-0.87,1-1.73,1.71-2.93c2.13,2.83,3.49,5.68,5.05,8.43c3.64,6.42,7.06,12.98,11.07,19.18c2.68,4.13,3.3,8.41,3.13,13
		c-0.65,1.89-2.35,1.26-3.67,1.26c-34.52,0.03-69.04,0.03-103.56,0.03c-5.28,0-4.18,0.14-4.66-4.02l-0.01,0.01
		c0.05-0.05,0.14-0.13,0.13-0.17C300.17,489.89,300.09,489.77,300.03,489.64z"/>
	<path class="st1" d="M181.74,485.63c-0.27,1.11-1.13,1.35-2.19,1.08c-1.68-0.43-3.35-0.89-5-1.41
		c-16.1-5.1-32.18-10.24-48.28-15.33c-6.31-1.99-12.65-3.91-18.98-5.86c-1.1-0.34-2.21-0.66-3.28-1.08c-0.96-0.38-1.7-1.09-1.3-2.13
		c0.45-1.17,1.56-0.86,2.47-0.59c4.22,1.29,8.43,2.62,12.64,3.94c18.21,5.73,36.41,11.45,54.61,17.2c2.64,0.83,5.25,1.76,7.88,2.62
		C181.11,484.33,181.73,484.69,181.74,485.63z"/>
	<path class="st1" d="M159.1,470.32c-0.31-0.15-0.85-0.35-1.3-0.65c-10.94-7.15-21.86-14.31-32.79-21.47
		c-0.99-0.65-2.57-1.17-1.6-2.67c1.02-1.58,2.31-0.35,3.22,0.23c7.97,5.12,15.88,10.31,23.8,15.48c3.09,2.01,6.2,4.02,9.27,6.07
		c0.7,0.46,1.44,1.03,1.19,2.01C160.68,470.04,160.09,470.3,159.1,470.32z"/>
	<path class="st2" d="M306.53,489.64c0.07,0.12,0.14,0.25,0.18,0.38c0.01,0.04-0.09,0.11-0.13,0.17
		C306.56,490.01,306.55,489.82,306.53,489.64z"/>
	<path class="st1" d="M268.87,475.37L268.87,475.37c-1.18,2.23-3.64,2.96-5.7,3.95c-2.38,1.15-4.79,2.16-7.24,3.05
		c-0.35,0.12-0.69,0.25-1.04,0.37c-0.35,0.12-0.7,0.24-1.06,0.36c-0.35,0.12-0.7,0.23-1.06,0.34c-0.35,0.11-0.7,0.22-1.06,0.33
		c-0.35,0.1-0.71,0.2-1.06,0.31s-0.71,0.2-1.06,0.29c-0.35,0.1-0.71,0.19-1.06,0.28c-0.69,0.18-1.39,0.34-2.08,0.5
		c-1.1,0.25-2.2,0.46-3.3,0.66c-0.72,0.13-1.45,0.25-2.18,0.36c-1.82,0.27-3.65,0.48-5.49,0.63c-0.37,0.03-0.74,0.05-1.11,0.08
		c-0.35,0.02-0.72,0.05-1.07,0.07c-0.64,0.03-1.29,0.06-1.94,0.08c-0.27,0.01-0.56,0.02-0.83,0.02c-0.06,0.01-0.12,0.01-0.17,0.01
		v-0.97c0.77-0.01,1.55-0.05,2.33-0.09c0.21-0.01,0.41-0.03,0.62-0.05c0.67-0.04,1.33-0.1,2-0.17c0.27-0.03,0.54-0.05,0.82-0.09
		c0.45-0.05,0.89-0.11,1.34-0.18c0.1-0.01,0.2-0.02,0.3-0.04c0.46-0.06,0.93-0.14,1.4-0.22c6.05-1.05,11.99-2.33,17.71-4.59
		c4.08-1.61,7.66-4.2,11.96-5.32L268.87,475.37z"/>
	<path class="st0" d="M230.37,486.07v0.97c-2.74,0.05-5.51-0.03-8.3-0.25c-10.96-0.83-21.35-3.72-30.79-9.21
		c-0.95-0.56-2.1-1-2.39-2.23c1.55,0.28,2.8,1.14,4.13,1.89c5.57,3.14,11.57,5.44,17.85,6.75
		C217.31,485.34,223.81,486.21,230.37,486.07z"/>
	<path class="st1" d="M295.17,449.19c-5.28,9.23-12.09,17.24-21.14,23.45c-0.39,0.27-0.76,0.57-1.13,0.88
		c-0.19,0.15-0.37,0.31-0.56,0.46c-0.19,0.15-0.38,0.29-0.57,0.43c-0.29,0.21-0.59,0.4-0.91,0.55c-0.54,0.26-1.13,0.42-1.82,0.42
		c-0.06,0-0.11-0.01-0.17-0.01l-0.04-0.04c0.43-0.74,1.15-1.2,1.85-1.69c8.38-5.85,15.55-12.75,20.99-21.21
		c1.43-2.23,2.51-4.69,4.4-6.65l0.03,0.01C296.21,447.03,295.78,448.13,295.17,449.19z"/>
	<path class="st3" d="M269.05,475.38h-0.17v-0.01C268.94,475.37,268.99,475.38,269.05,475.38z"/>
	<path class="st0" d="M180.77,469.89c-3.96-1.48-6.48-4.42-8.7-7.66l0.05-0.05c3.45,2,6.09,4.81,8.67,7.69L180.77,469.89z"/>
	<path class="st3" d="M301.32,431.57c-0.27,4.17-1.11,8.17-4.06,11.49l-0.02-0.01c1.32-3.85,2.27-7.81,4.05-11.5L301.32,431.57z"/>
	<path class="st0" d="M188.88,475.36c-3.82-0.36-6.38-2.37-8.12-5.47l0.01-0.01C183.74,471.36,186.36,473.29,188.88,475.36
		L188.88,475.36z"/>
	<path class="st3" d="M297.26,443.07c0,0.61-0.04,1.21-0.56,1.66l-0.07-0.05c0.02-0.6,0.11-1.18,0.61-1.63L297.26,443.07z"/>
	<path class="st3" d="M296.7,444.72c-0.2,0.36-0.4,0.72-0.59,1.08l-0.03-0.01c0.19-0.37,0.37-0.74,0.56-1.11L296.7,444.72z"/>
	<path class="st1" d="M301.32,431.57c-0.27,4.17-1.11,8.17-4.06,11.49c0,0.61-0.04,1.2-0.56,1.65c-0.2,0.36-0.4,0.72-0.59,1.08
		l-0.03-0.01c0.19-0.37,0.38-0.74,0.56-1.11c0.03-0.6,0.11-1.18,0.61-1.63c1.32-3.85,2.27-7.81,4.05-11.5L301.32,431.57z"/>
	<g>
		<path class="st0" d="M268.87,475.37L268.87,475.37l0.17,0.01C268.99,475.38,268.94,475.37,268.87,475.37z M159.95,387.61
			c2.86-6.06,6.69-11.39,10.69-16.7c1.34-1.78,3.01-3.25,4.9-4.51c0.19-0.18,0.38-0.37,0.57-0.55c0.39-0.18,0.78-0.36,1.18-0.54
			c0.09-0.64,0.48-1,1.16-1.09c0.77-2.24,2.78-3.39,4.6-4.72c0.45-0.33,0.9-0.65,1.36-0.96c0.37-0.26,0.74-0.52,1.12-0.76
			c0.58-0.38,1.16-0.75,1.76-1.09c0.12-0.08,0.24-0.14,0.36-0.2c0.27-0.15,0.53-0.29,0.8-0.43c0.26-0.13,0.52-0.25,0.78-0.38
			c0.27-0.12,0.55-0.24,0.82-0.36c0.37-0.15,0.74-0.29,1.12-0.41h0.01c0.06-0.05,0.12-0.09,0.19-0.14c0.06-0.04,0.13-0.09,0.19-0.13
			c0.35-0.25,0.71-0.49,1.08-0.72c0.25-0.15,0.5-0.31,0.74-0.45c0.25-0.15,0.51-0.29,0.76-0.43c0.76-0.42,1.54-0.81,2.33-1.17
			c1.32-0.61,2.67-1.15,4.03-1.63c0.32-0.12,0.64-0.23,0.95-0.34c0.79-0.27,1.58-0.53,2.37-0.79c0.32-0.1,0.64-0.2,0.95-0.31
			c0.32-0.1,0.64-0.2,0.95-0.3c0.46-0.14,0.93-0.29,1.4-0.42c0.8-0.23,1.6-0.45,2.41-0.66c4.48-1.15,9.04-1.88,13.66-2.19
			c0.71-0.05,1.42-0.09,2.14-0.12c1.67-0.07,3.34-0.09,5.02-0.05v-7.77c-41.33-0.75-77.24,26.85-83.88,65.93
			c-4.84,28.51,4.7,52.68,27.27,72.17c7.64,6.6,16.61,11.2,26.17,14.81c8.49,2.51,17.06,4.38,26.04,4.6c1.47,0.03,2.95,0.03,4.41,0
			v-7.76c-2.74,0.05-5.51-0.03-8.3-0.25c-10.96-0.83-21.35-3.72-30.79-9.21c-0.95-0.56-2.1-1-2.39-2.23
			c-3.82-0.36-6.38-2.37-8.12-5.47c-3.96-1.48-6.48-4.41-8.7-7.65c-3.9-2.51-5.86-6.43-8.16-10.06
			c-7.89-12.46-11.13-26.06-10.3-40.46C154.08,403.36,156.3,395.38,159.95,387.61z"/>
		<path class="st0" d="M230.37,345.06v1.07c-3.62-0.09-7.26,0.1-10.9,0.58c-8.47,1.1-16.57,3.27-24.15,7.05
			c-1.29,0.64-2.56,1.31-4.08,1.2l-0.04-0.05h-0.01v-0.01c0.07-0.04,0.12-0.09,0.2-0.13c0.06-0.04,0.13-0.09,0.19-0.13
			c0.35-0.25,0.72-0.48,1.08-0.72c0.25-0.15,0.5-0.31,0.74-0.45c0.25-0.15,0.51-0.29,0.76-0.43c0.76-0.43,1.54-0.82,2.33-1.17
			c1.32-0.61,2.67-1.15,4.03-1.63c0.32-0.12,0.64-0.23,0.95-0.34c0.79-0.27,1.58-0.53,2.37-0.79c0.32-0.1,0.64-0.2,0.95-0.31
			s0.64-0.2,0.95-0.3c0.46-0.14,0.93-0.29,1.4-0.42c0.8-0.23,1.6-0.46,2.41-0.66c4.48-1.15,9.04-1.88,13.66-2.19
			c0.71-0.05,1.42-0.09,2.14-0.12C227.02,345.04,228.69,345.02,230.37,345.06z"/>
		<path class="st0" d="M172.06,462.24c-3.89-2.5-5.86-6.43-8.16-10.06c-7.89-12.46-11.13-26.06-10.3-40.45
			c0.48-8.36,2.7-16.34,6.35-24.11c2.86-6.06,6.69-11.39,10.69-16.7c1.34-1.77,3.01-3.25,4.89-4.51l0.05,0.04
			c-0.14,2.53-2.6,3.5-3.97,5.18c-7.54,9.27-13.17,19.32-15.57,30.94c-1.73,8.42-1.93,16.83-0.42,25.2
			c2.03,11.29,6.84,21.54,14.16,30.71c0.92,1.15,2.1,2.17,2.32,3.72L172.06,462.24z"/>
		<path class="st0" d="M178.45,364.22c0.77-2.24,2.78-3.39,4.6-4.72c2.53-1.82,5.09-3.59,8.14-4.6l0.05,0.05
			c-3.74,3.72-8.51,6.2-12.77,9.28L178.45,364.22z"/>
		<path class="st0" d="M177.29,365.31c0.1-0.64,0.49-1,1.16-1.09l0.01,0.01c-0.12,0.62-0.5,0.99-1.16,1.1L177.29,365.31z"/>
		<path class="st0" d="M176.11,365.84c0.39-0.18,0.78-0.36,1.18-0.53l0.01,0.01c-0.38,0.19-0.76,0.39-1.13,0.58L176.11,365.84z"/>
		<path class="st0" d="M175.54,366.4c0.19-0.18,0.38-0.36,0.57-0.55c0,0,0.05,0.06,0.05,0.05c-0.19,0.18-0.38,0.36-0.57,0.53
			L175.54,366.4z"/>
		<path class="st0" d="M228.41,348.28c0.65-0.01,1.31,0,1.96,0.01v-2.17c-3.62-0.09-7.26,0.1-10.9,0.58
			c-8.47,1.1-16.57,3.27-24.15,7.05c-1.29,0.64-2.56,1.31-4.08,1.2c-3.75,3.72-8.51,6.19-12.77,9.28c-0.12,0.62-0.5,0.99-1.16,1.09
			c-0.38,0.19-0.75,0.39-1.13,0.58c-0.19,0.18-0.38,0.36-0.57,0.53c-0.14,2.53-2.6,3.5-3.97,5.18
			c-7.54,9.27-13.17,19.32-15.57,30.94c-1.73,8.42-1.93,16.82-0.42,25.2c2.03,11.3,6.84,21.54,14.16,30.71
			c0.92,1.15,2.1,2.17,2.31,3.72c3.45,2,6.09,4.81,8.67,7.69c2.96,1.48,5.59,3.41,8.11,5.48c1.55,0.28,2.8,1.14,4.13,1.89
			c5.57,3.14,11.57,5.44,17.85,6.75c6.45,1.35,12.95,2.22,19.51,2.08v-2.09c-1.45,0.05-2.91,0.06-4.4,0.04
			c-13.32-0.2-25.71-4.15-36.92-11.17c-18.69-11.71-29.55-28.56-32.2-49.06c-2.57-19.83,4.06-38.2,18.27-53.17
			C189.14,355.85,207.22,348.4,228.41,348.28z"/>
		<path class="st0" d="M221.22,358.27c3.07-0.27,6.1-0.95,8.08-0.7c0.36,0.01,0.72,0.01,1.07,0.03v-9.31
			c-0.65-0.01-1.31-0.02-1.96-0.01c-21.2,0.12-39.27,7.57-53.3,22.35c-14.2,14.97-20.83,33.34-18.27,53.17
			c2.65,20.5,13.52,37.35,32.2,49.06c11.2,7.02,23.6,10.97,36.92,11.17c1.49,0.02,2.96,0.01,4.4-0.04v-9.23
			c-1.37,0.16-2.76,0.23-4.17,0.06c-21.66-0.47-37.76-10.07-49.38-27.01c-0.64-0.93-1.06-1.93,0-2.66c1.24-0.86,1.88,0.21,2.47,1.07
			c4.31,6.31,9.43,11.9,15.94,16.32c7.01,4.75,14.75,7.68,23.25,9.02c4,0.63,7.95,0.48,11.9,0.11v-11.61
			c-0.57,0.03-1.14,0.03-1.71,0.03c-25.76,0-46.72-19.74-46.67-43.94c0.05-24.29,21.03-44.19,46.62-44.03
			c0.59,0.01,1.18,0.02,1.76,0.04v-11.87c-2.06,0.01-4.13,0.18-6.22,0.58c-0.93,0.18-1.92,0.09-2.88,0.06
			c-0.87-0.03-1.94-0.07-1.88-1.2C219.43,358.8,220.3,358.35,221.22,358.27z"/>
	</g>
	<path class="st4" d="M230.37,372.15c-0.59-0.02-1.17-0.03-1.76-0.04c-25.59-0.16-46.57,19.74-46.62,44.03
		c-0.05,24.2,20.91,43.94,46.67,43.94c0.57,0,1.14-0.01,1.71-0.03c24.82-0.85,44.8-20.16,44.81-43.72
		C275.18,392.64,255.89,373.16,230.37,372.15z M230.37,456.13c-0.56,0.03-1.13,0.03-1.7,0.03c-23.41-0.03-42.28-17.91-42.27-40.04
		c-0.33-21.87,19.08-40.25,42.87-39.98c0.37,0.01,0.73,0.01,1.1,0.03c22.2,0.82,40.76,18.76,40.71,40.1
		C271.04,437.36,252.53,455.29,230.37,456.13z"/>
	<path class="st1" d="M235.73,474.09c-1.8,0.11-3.57,0.45-5.36,0.66v-3.1c1.68-0.15,3.35-0.34,5.03-0.53
		c0.99-0.12,2.34-0.51,2.55,0.95C238.16,473.47,236.86,474.03,235.73,474.09z"/>
	<path class="st0" d="M230.37,471.65v3.1c-1.37,0.16-2.76,0.23-4.17,0.06c-21.66-0.47-37.76-10.07-49.38-27.01
		c-0.64-0.93-1.06-1.93,0-2.66c1.24-0.86,1.88,0.21,2.47,1.07c4.31,6.31,9.43,11.9,15.94,16.32c7.01,4.75,14.75,7.68,23.25,9.02
		C222.47,472.17,226.42,472.02,230.37,471.65z"/>
	<g>
		<path class="st1" d="M262.2,488.21c-0.7,0.29-1.39,0.63-2.08,0.94c-0.22,0.1-0.45,0.18-0.67,0.28l-0.09,0.02
			c-0.73,0.2-1.48,0.36-2.19,0.6c-8.69,3.03-17.61,4.55-26.8,4.75v-7.76c0.06,0,0.12,0,0.17-0.01c0.27,0,0.56-0.01,0.83-0.02
			c0.64-0.01,1.29-0.04,1.94-0.08c0.35-0.02,0.72-0.05,1.07-0.07c0.37-0.03,0.74-0.05,1.11-0.08c1.84-0.15,3.67-0.36,5.49-0.63
			c0.72-0.11,1.45-0.23,2.18-0.36c1.11-0.2,2.2-0.42,3.3-0.66c0.69-0.16,1.39-0.32,2.08-0.5c0.35-0.09,0.71-0.18,1.06-0.28
			c0.35-0.1,0.71-0.19,1.06-0.29c0.35-0.1,0.71-0.2,1.06-0.31c0.35-0.11,0.71-0.22,1.06-0.33c0.35-0.11,0.7-0.22,1.06-0.34
			c0.35-0.12,0.7-0.23,1.06-0.36c0.35-0.12,0.69-0.25,1.04-0.37c2.44-0.89,4.86-1.9,7.24-3.05c2.06-0.99,4.52-1.71,5.7-3.94h0.17
			c0.69,0,1.28-0.16,1.82-0.42c0.32-0.16,0.62-0.34,0.91-0.55c0.2-0.14,0.38-0.28,0.57-0.43c0.19-0.15,0.37-0.31,0.56-0.46
			c0.37-0.31,0.74-0.61,1.13-0.88c9.04-6.21,15.85-14.21,21.14-23.45c0.61-1.07,1.04-2.16,0.93-3.39c0.2-0.36,0.4-0.72,0.59-1.08
			c0.53-0.45,0.56-1.04,0.56-1.65c2.96-3.33,3.79-7.32,4.06-11.49c1.11-0.55,1.23-1.63,1.35-2.59c0.38-3.07,0.82-6.14,0.93-9.21
			c0.25-7.57-0.27-15.01-2.51-22.42c-1.82-6.03-4.24-11.73-7.57-17.05c-7.99-12.79-18.98-22.6-33.44-28.71
			c-9.42-3.97-19.26-6.3-29.6-6.54h-0.11v-7.77c1.51,0.03,3.02,0.1,4.54,0.2c41.86,2.85,75.3,35.49,76.94,75.11
			C313.21,445.49,294.02,474.72,262.2,488.21z"/>
		<path class="st1" d="M303.6,419.77c-0.1,3.07-0.55,6.15-0.93,9.21c-0.12,0.96-0.24,2.04-1.35,2.59l-0.04-0.02
			c0.61-8.06,1.83-16.05,0.69-24.2c-1.41-10.1-4.72-19.5-10.58-27.99c-4.14-6.01-9.25-11.25-14.93-16.15
			c-9.35-8.07-20.28-12.7-32.32-15.39c-0.57-0.13-1.15-0.25-1.73-0.36c-0.57-0.12-1.14-0.22-1.71-0.32
			c-0.39-0.06-0.77-0.12-1.16-0.18c-0.32-0.05-0.64-0.1-0.95-0.14c-0.2-0.03-0.39-0.05-0.59-0.08c-0.3-0.05-0.61-0.09-0.93-0.12
			c-0.53-0.07-1.06-0.12-1.6-0.18c-0.14-0.01-0.3-0.02-0.44-0.03c-0.17-0.01-0.35-0.03-0.52-0.05c-0.17-0.02-0.35-0.03-0.52-0.04
			c-0.51-0.04-1.03-0.08-1.54-0.1c-0.04,0-0.07-0.01-0.1-0.01c-0.44-0.02-0.9-0.04-1.34-0.05c-0.22-0.01-0.43-0.01-0.65-0.02v-1.07
			h0.11c10.34,0.23,20.18,2.56,29.6,6.54c14.46,6.11,25.45,15.92,33.44,28.71c3.33,5.32,5.75,11.02,7.57,17.05
			C303.32,404.76,303.85,412.2,303.6,419.77z"/>
		<path class="st1" d="M301.29,431.55c-1.78,3.69-2.73,7.66-4.05,11.5c-0.5,0.44-0.58,1.02-0.61,1.63
			c-0.18,0.37-0.37,0.74-0.56,1.11c-1.89,1.96-2.97,4.41-4.4,6.65c-5.44,8.46-12.61,15.37-20.99,21.21
			c-0.7,0.49-1.42,0.95-1.85,1.69c-4.31,1.12-7.88,3.71-11.96,5.32c-5.73,2.26-11.66,3.54-17.71,4.59c-0.46,0.08-0.93,0.15-1.4,0.22
			c-0.1,0.02-0.2,0.03-0.3,0.04c-0.45,0.07-0.89,0.12-1.34,0.18c-0.27,0.03-0.55,0.06-0.82,0.09c-0.67,0.07-1.33,0.13-2,0.17
			c-0.21,0.02-0.41,0.03-0.62,0.05c-0.77,0.04-1.55,0.08-2.33,0.09v-2.09c41.73-1.38,68.74-31.65,70.16-65.46
			c1.63-38.79-30.9-69.47-70.16-70.24v-2.17c0.22,0.01,0.43,0.01,0.65,0.02c0.44,0.01,0.9,0.03,1.34,0.05c0.04,0,0.07,0.01,0.1,0.01
			c0.51,0.03,1.03,0.06,1.54,0.1c0.17,0.01,0.35,0.02,0.52,0.04c0.17,0.01,0.35,0.03,0.52,0.05c0.14,0.01,0.3,0.02,0.44,0.03
			c0.53,0.05,1.06,0.11,1.6,0.18c0.31,0.03,0.62,0.08,0.93,0.12c0.2,0.02,0.39,0.05,0.59,0.08c0.32,0.04,0.64,0.09,0.95,0.14
			c0.38,0.06,0.77,0.12,1.16,0.18c0.57,0.1,1.14,0.2,1.71,0.32c0.58,0.11,1.16,0.23,1.73,0.36c12.04,2.69,22.97,7.33,32.32,15.39
			c5.68,4.9,10.79,10.14,14.93,16.15c5.86,8.49,9.17,17.89,10.58,27.99C303.12,415.5,301.89,423.49,301.29,431.55z"/>
		<path class="st1" d="M300.53,418.53c-1.42,33.81-28.43,64.08-70.16,65.46v-9.23c1.79-0.2,3.56-0.55,5.36-0.66
			c1.13-0.06,2.43-0.62,2.23-2.03c-0.21-1.46-1.56-1.07-2.55-0.95c-1.68,0.19-3.35,0.38-5.03,0.53v-11.61
			c24.82-0.85,44.8-20.16,44.81-43.72c0-23.67-19.29-43.16-44.81-44.17v-11.87c4.47-0.03,8.88,0.71,13.26,1.6
			c15.28,3.12,26.36,11.71,34.34,24.16c0.56,0.87,0.9,2.1,2.26,1.32c1.21-0.7,1.01-1.96,0.3-2.91c-2.38-3.2-4.58-6.56-7.35-9.44
			c-11.2-11.62-25.4-16.89-42.81-17.42v-9.31C269.62,349.06,302.16,379.74,300.53,418.53z"/>
		<path class="st1" d="M280.23,387.36c-1.35,0.78-1.7-0.45-2.26-1.32c-7.97-12.45-19.06-21.04-34.34-24.16
			c-4.38-0.89-8.8-1.63-13.26-1.6v-2.68c17.41,0.53,31.61,5.79,42.81,17.42c2.77,2.88,4.97,6.24,7.35,9.44
			C281.24,385.4,281.44,386.67,280.23,387.36z"/>
	</g>
	<path class="st0" d="M230.37,357.6v2.68c-2.06,0.01-4.13,0.18-6.22,0.58c-0.93,0.18-1.92,0.09-2.88,0.06
		c-0.87-0.03-1.94-0.07-1.88-1.2c0.04-0.93,0.92-1.37,1.84-1.45c3.07-0.27,6.1-0.95,8.08-0.7
		C229.66,357.58,230.02,357.59,230.37,357.6z"/>
	<path class="st5" d="M186.41,416.12c-0.34-21.86,19.07-40.25,42.86-39.98c22.68,0.26,41.86,18.44,41.81,40.13
		c-0.04,21.63-19.5,39.93-42.41,39.9C205.27,456.14,186.39,438.25,186.41,416.12z M263.75,415.47
		c-0.23-18.43-16.13-32.98-36.02-32.63c-19.37,0.35-34.97,15.77-34.3,34.3c0.64,17.43,15.13,32.2,35.05,32.23
		C248.74,449.41,263.99,434.4,263.75,415.47z"/>
	<path class="st6" d="M263.75,415.47c0.24,18.92-15.01,33.94-35.28,33.9c-19.92-0.03-34.42-14.79-35.05-32.23
		c-0.67-18.53,14.93-33.95,34.3-34.3C247.62,382.49,263.52,397.05,263.75,415.47z M243.94,416.14c-0.03-7.99-5.92-14.75-16.87-14.49
		c-6.48,0.16-13.97,5.87-13.77,14.65c0.18,7.84,6.47,14.4,15.07,14.23C237.16,430.34,243.96,424.22,243.94,416.14z M242.72,437.49
		c1.53-0.22,2.41-1.05,2.28-2.57c-0.12-1.39-1.02-2.18-2.49-2.06c-1.57,0.12-2.45,1.07-2.37,2.56
		C240.21,436.84,241.26,437.4,242.72,437.49z M204.11,415.73c-1.54,0.18-2.43,1.01-2.36,2.51c0.07,1.42,1.09,2.15,2.49,2.11
		c1.58-0.04,2.48-1.03,2.41-2.5C206.58,416.47,205.59,415.8,204.11,415.73z M241.52,395.08c-0.3-1.33-0.95-2.36-2.63-2.25
		c-1.43,0.1-2.39,0.86-2.28,2.23c0.12,1.38,1.01,2.39,2.61,2.3C240.61,397.3,241.47,396.52,241.52,395.08z M248.78,405.21
		c1.41-0.23,2.4-0.92,2.42-2.31c0.02-1.58-1.06-2.33-2.62-2.24c-1.43,0.08-2.31,0.9-2.23,2.34
		C246.41,404.43,247.39,405.05,248.78,405.21z M255.51,413.91c-0.29-1.09-1.01-2-2.48-2.01c-1.46,0-2.44,0.85-2.41,2.19
		c0.03,1.43,1.05,2.39,2.62,2.35C254.7,416.41,255.46,415.49,255.51,413.91z M220.66,436.97c-0.29-1.39-1.14-2.16-2.6-2.1
		s-2.39,0.87-2.34,2.25c0.05,1.52,1.2,2.33,2.7,2.24C219.85,439.3,220.5,438.24,220.66,436.97z M217.14,397.02
		c-0.22-1.39-1.06-2.14-2.49-2.13c-1.42,0-2.4,0.72-2.41,2.12c-0.01,1.52,0.97,2.29,2.56,2.23
		C216.26,399.18,216.96,398.31,217.14,397.02z M250.84,423.64c-1.46,0.19-2.28,0.92-2.31,2.31c-0.03,1.37,0.66,2.28,2.18,2.27
		c1.56-0.02,2.49-0.85,2.47-2.37C253.16,424.43,252.2,423.81,250.84,423.64z M226.53,390.61c-1.24,0.19-2.2,0.81-2.28,2.23
		c-0.08,1.4,0.69,2.34,2.15,2.42c1.45,0.08,2.39-0.72,2.45-2.14C228.91,391.74,228.15,390.9,226.53,390.61z M206.21,403.91
		c-1.19,0.23-2.22,0.76-2.2,2.24c0.02,1.38,0.77,2.26,2.26,2.29c1.48,0.03,2.3-0.79,2.36-2.19
		C208.69,404.81,207.77,404.15,206.21,403.91z M210.86,429.23c-0.2-1.15-0.89-2.01-2.39-2.04c-1.52-0.04-2.38,0.77-2.42,2.13
		c-0.04,1.37,0.8,2.21,2.31,2.21C209.81,431.52,210.67,430.81,210.86,429.23z M230.75,437.02c-1.58-0.03-2.38,0.79-2.4,2.14
		c-0.02,1.34,0.69,2.25,2.26,2.24c1.49-0.01,2.31-0.7,2.35-2.14C233,437.82,232.2,437.12,230.75,437.02z"/>
	<path class="st7" d="M243.94,416.14c0.01,8.09-6.78,14.21-15.58,14.38c-8.6,0.17-14.89-6.39-15.07-14.23
		c-0.2-8.78,7.3-14.49,13.77-14.65C238.03,401.39,243.91,408.15,243.94,416.14z"/>
	<path class="st8" d="M242.72,437.49c-1.46-0.08-2.51-0.64-2.58-2.07c-0.08-1.5,0.8-2.44,2.37-2.56c1.47-0.12,2.38,0.68,2.49,2.06
		C245.12,436.43,244.25,437.27,242.72,437.49z"/>
	<path class="st8" d="M204.11,415.73c1.48,0.08,2.47,0.74,2.54,2.12c0.07,1.47-0.83,2.46-2.41,2.5c-1.4,0.04-2.42-0.69-2.49-2.11
		C201.68,416.74,202.57,415.91,204.11,415.73z"/>
	<path class="st8" d="M241.52,395.08c-0.04,1.43-0.91,2.22-2.3,2.29c-1.6,0.09-2.49-0.93-2.61-2.3c-0.12-1.38,0.85-2.14,2.28-2.23
		C240.56,392.72,241.22,393.75,241.52,395.08z"/>
	<path class="st8" d="M248.78,405.21c-1.39-0.16-2.36-0.78-2.44-2.21c-0.08-1.44,0.8-2.26,2.23-2.34c1.56-0.09,2.64,0.66,2.62,2.24
		C251.18,404.3,250.19,404.98,248.78,405.21z"/>
	<path class="st8" d="M255.51,413.91c-0.07,1.58-0.81,2.5-2.26,2.54c-1.57,0.04-2.59-0.92-2.62-2.35c-0.03-1.34,0.95-2.19,2.41-2.19
		C254.51,411.9,255.23,412.82,255.51,413.91z"/>
	<path class="st8" d="M220.66,436.97c-0.17,1.26-0.82,2.32-2.23,2.4c-1.5,0.08-2.65-0.72-2.7-2.24c-0.04-1.38,0.89-2.19,2.34-2.25
		C219.53,434.82,220.38,435.58,220.66,436.97z"/>
	<path class="st8" d="M217.14,397.02c-0.17,1.29-0.87,2.16-2.34,2.21c-1.58,0.06-2.57-0.72-2.56-2.23c0.01-1.39,0.98-2.11,2.41-2.12
		C216.07,394.88,216.92,395.63,217.14,397.02z"/>
	<path class="st8" d="M250.84,423.64c1.34,0.17,2.31,0.79,2.33,2.21c0.02,1.52-0.9,2.35-2.47,2.37c-1.53,0.02-2.2-0.89-2.18-2.27
		C248.56,424.57,249.38,423.83,250.84,423.64z"/>
	<path class="st8" d="M226.53,390.61c1.62,0.29,2.38,1.13,2.32,2.51c-0.07,1.42-1,2.22-2.45,2.14c-1.46-0.08-2.23-1.02-2.15-2.42
		C224.33,391.42,225.3,390.8,226.53,390.61z"/>
	<path class="st8" d="M206.21,403.91c1.57,0.25,2.49,0.9,2.42,2.35c-0.07,1.39-0.87,2.22-2.36,2.19s-2.24-0.92-2.26-2.29
		C203.99,404.67,205.01,404.13,206.21,403.91z"/>
	<path class="st8" d="M210.86,429.23c-0.2,1.58-1.06,2.29-2.5,2.29c-1.51,0-2.36-0.84-2.31-2.21c0.04-1.35,0.9-2.17,2.42-2.13
		C209.97,427.22,210.67,428.08,210.86,429.23z"/>
	<path class="st8" d="M230.75,437.02c1.45,0.1,2.25,0.8,2.21,2.25c-0.04,1.45-0.86,2.14-2.35,2.14c-1.57,0.01-2.28-0.9-2.26-2.24
		C228.38,437.81,229.17,437,230.75,437.02z"/>
	<polyline class="st9" points="230.37,460.04 230.37,456.13 230.37,449.34 230.37,441.4 230.37,437.03 230.37,430.36 230.37,401.79 
		230.37,382.9 230.37,376.17 230.37,372.15 	"/>
</g>
<path class="st1" d="M181.74,320.63c-0.27,1.11-1.13,1.35-2.19,1.08c-1.68-0.43-3.35-0.89-5-1.41c-16.1-5.1-32.18-10.24-48.28-15.33
	c-6.31-1.99-12.65-3.91-18.98-5.86c-1.1-0.34-2.21-0.66-3.28-1.08c-0.96-0.38-1.7-1.09-1.3-2.13c0.45-1.17,1.56-0.86,2.47-0.59
	c4.22,1.29,8.43,2.62,12.64,3.94c18.21,5.73,36.41,11.45,54.61,17.2c2.64,0.83,5.25,1.76,7.88,2.62
	C181.11,319.33,181.73,319.69,181.74,320.63z"/>
<path class="st1" d="M159.1,305.32c-0.31-0.15-0.85-0.35-1.3-0.65c-10.94-7.15-21.86-14.31-32.79-21.47
	c-0.99-0.65-2.57-1.17-1.6-2.67c1.02-1.58,2.31-0.35,3.22,0.23c7.97,5.12,15.88,10.31,23.8,15.48c3.09,2.01,6.2,4.02,9.27,6.07
	c0.7,0.46,1.44,1.03,1.19,2.01C160.68,305.04,160.09,305.3,159.1,305.32z"/>
<path class="st2" d="M306.53,324.64c0.07,0.12,0.14,0.25,0.18,0.38c0.01,0.04-0.09,0.11-0.13,0.17
	C306.56,325.01,306.55,324.82,306.53,324.64z"/>
<path class="st1" d="M268.87,310.37L268.87,310.37c-1.18,2.23-3.64,2.96-5.7,3.95c-2.38,1.15-4.79,2.16-7.24,3.05
	c-0.35,0.12-0.69,0.25-1.04,0.37c-0.35,0.12-0.7,0.24-1.06,0.36c-0.35,0.12-0.7,0.23-1.06,0.34c-0.35,0.11-0.7,0.22-1.06,0.33
	c-0.35,0.1-0.71,0.2-1.06,0.31s-0.71,0.2-1.06,0.29c-0.35,0.1-0.71,0.19-1.06,0.28c-0.69,0.18-1.39,0.34-2.08,0.5
	c-1.1,0.25-2.2,0.46-3.3,0.66c-0.72,0.13-1.45,0.25-2.18,0.36c-1.82,0.27-3.65,0.48-5.49,0.63c-0.37,0.03-0.74,0.05-1.11,0.08
	c-0.35,0.02-0.72,0.05-1.07,0.07c-0.64,0.03-1.29,0.06-1.94,0.08c-0.27,0.01-0.56,0.02-0.83,0.02c-0.06,0.01-0.12,0.01-0.17,0.01
	v-0.97c0.77-0.01,1.55-0.05,2.33-0.09c0.21-0.01,0.41-0.03,0.62-0.05c0.67-0.04,1.33-0.1,2-0.17c0.27-0.03,0.54-0.05,0.82-0.09
	c0.45-0.05,0.89-0.11,1.34-0.18c0.1-0.01,0.2-0.02,0.3-0.04c0.46-0.06,0.93-0.14,1.4-0.22c6.05-1.05,11.99-2.33,17.71-4.59
	c4.08-1.61,7.66-4.2,11.96-5.32L268.87,310.37z"/>
<path class="st0" d="M230.37,321.07v0.97c-2.74,0.05-5.51-0.03-8.3-0.25c-10.96-0.83-21.35-3.72-30.79-9.21
	c-0.95-0.56-2.1-1-2.39-2.23c1.55,0.28,2.8,1.14,4.13,1.89c5.57,3.14,11.57,5.44,17.85,6.75
	C217.31,320.34,223.81,321.21,230.37,321.07z"/>
<path class="st1" d="M295.17,284.19c-5.28,9.23-12.09,17.24-21.14,23.45c-0.39,0.27-0.76,0.57-1.13,0.88
	c-0.19,0.15-0.37,0.31-0.56,0.46c-0.19,0.15-0.38,0.29-0.57,0.43c-0.29,0.21-0.59,0.4-0.91,0.55c-0.54,0.26-1.13,0.42-1.82,0.42
	c-0.06,0-0.11-0.01-0.17-0.01l-0.04-0.04c0.43-0.74,1.15-1.2,1.85-1.69c8.38-5.85,15.55-12.75,20.99-21.21
	c1.43-2.23,2.51-4.69,4.4-6.65l0.03,0.01C296.21,282.03,295.78,283.13,295.17,284.19z"/>
<path class="st3" d="M269.05,310.38h-0.17v-0.01C268.94,310.37,268.99,310.38,269.05,310.38z"/>
<path class="st0" d="M180.77,304.89c-3.96-1.48-6.48-4.42-8.7-7.66l0.05-0.05c3.45,2,6.09,4.81,8.67,7.69L180.77,304.89z"/>
<path class="st3" d="M301.32,266.57c-0.27,4.17-1.11,8.17-4.06,11.49l-0.02-0.01c1.32-3.85,2.27-7.81,4.05-11.5L301.32,266.57z"/>
<path class="st0" d="M188.88,310.36c-3.82-0.36-6.38-2.37-8.12-5.47l0.01-0.01C183.74,306.36,186.36,308.29,188.88,310.36
	L188.88,310.36z"/>
<path class="st3" d="M297.26,278.07c0,0.61-0.04,1.21-0.56,1.66l-0.07-0.05c0.02-0.6,0.11-1.18,0.61-1.63L297.26,278.07z"/>
<path class="st3" d="M296.7,279.72c-0.2,0.36-0.4,0.72-0.59,1.08l-0.03-0.01c0.19-0.37,0.37-0.74,0.56-1.11L296.7,279.72z"/>
<path class="st1" d="M301.32,266.57c-0.27,4.17-1.11,8.17-4.06,11.49c0,0.61-0.04,1.2-0.56,1.65c-0.2,0.36-0.4,0.72-0.59,1.08
	l-0.03-0.01c0.19-0.37,0.38-0.74,0.56-1.11c0.03-0.6,0.11-1.18,0.61-1.63c1.32-3.85,2.27-7.81,4.05-11.5L301.32,266.57z"/>
<path class="st0" d="M268.87,310.37L268.87,310.37l0.17,0.01C268.99,310.38,268.94,310.37,268.87,310.37z M159.95,222.61
	c2.86-6.06,6.69-11.39,10.69-16.7c1.34-1.78,3.01-3.25,4.9-4.51c0.19-0.18,0.38-0.37,0.57-0.55c0.39-0.18,0.78-0.36,1.18-0.54
	c0.09-0.64,0.48-1,1.16-1.09c0.77-2.24,2.78-3.39,4.6-4.72c0.45-0.33,0.9-0.65,1.36-0.96c0.37-0.26,0.74-0.52,1.12-0.76
	c0.58-0.38,1.16-0.75,1.76-1.09c0.12-0.08,0.24-0.14,0.36-0.2c0.27-0.15,0.53-0.29,0.8-0.43c0.26-0.13,0.52-0.25,0.78-0.38
	c0.27-0.12,0.55-0.24,0.82-0.36c0.37-0.15,0.74-0.29,1.12-0.41h0.01c0.06-0.05,0.12-0.09,0.19-0.14c0.06-0.04,0.13-0.09,0.19-0.13
	c0.35-0.25,0.71-0.49,1.08-0.72c0.25-0.15,0.5-0.31,0.74-0.45c0.25-0.15,0.51-0.29,0.76-0.43c0.76-0.42,1.54-0.81,2.33-1.17
	c1.32-0.61,2.67-1.15,4.03-1.63c0.32-0.12,0.64-0.23,0.95-0.34c0.79-0.27,1.58-0.53,2.37-0.79c0.32-0.1,0.64-0.2,0.95-0.31
	c0.32-0.1,0.64-0.2,0.95-0.3c0.46-0.14,0.93-0.29,1.4-0.42c0.8-0.23,1.6-0.45,2.41-0.66c4.48-1.15,9.04-1.88,13.66-2.19
	c0.71-0.05,1.42-0.09,2.14-0.12c1.67-0.07,3.34-0.09,5.02-0.05v-7.77c-41.33-0.75-77.24,26.85-83.88,65.93
	c-4.84,28.51,4.7,52.68,27.27,72.17c7.64,6.6,16.61,11.2,26.17,14.81c8.49,2.51,17.06,4.38,26.04,4.6c1.47,0.03,2.95,0.03,4.41,0
	v-7.76c-2.74,0.05-5.51-0.03-8.3-0.25c-10.96-0.83-21.35-3.72-30.79-9.21c-0.95-0.56-2.1-1-2.39-2.23
	c-3.82-0.36-6.38-2.37-8.12-5.47c-3.96-1.48-6.48-4.41-8.7-7.65c-3.9-2.51-5.86-6.43-8.16-10.06c-7.89-12.46-11.13-26.06-10.3-40.46
	C154.08,238.36,156.3,230.38,159.95,222.61z"/>
<path class="st0" d="M230.37,180.06v1.07c-3.62-0.09-7.26,0.1-10.9,0.58c-8.47,1.1-16.57,3.27-24.15,7.05
	c-1.29,0.64-2.56,1.31-4.08,1.2l-0.04-0.05h-0.01v-0.01c0.07-0.04,0.12-0.09,0.2-0.13c0.06-0.04,0.13-0.09,0.19-0.13
	c0.35-0.25,0.72-0.48,1.08-0.72c0.25-0.15,0.5-0.31,0.74-0.45c0.25-0.15,0.51-0.29,0.76-0.43c0.76-0.43,1.54-0.82,2.33-1.17
	c1.32-0.61,2.67-1.15,4.03-1.63c0.32-0.12,0.64-0.23,0.95-0.34c0.79-0.27,1.58-0.53,2.37-0.79c0.32-0.1,0.64-0.2,0.95-0.31
	c0.32-0.1,0.64-0.2,0.95-0.3c0.46-0.14,0.93-0.29,1.4-0.42c0.8-0.23,1.6-0.46,2.41-0.66c4.48-1.15,9.04-1.88,13.66-2.19
	c0.71-0.05,1.42-0.09,2.14-0.12C227.02,180.04,228.69,180.02,230.37,180.06z"/>
<path class="st0" d="M172.06,297.24c-3.89-2.5-5.86-6.43-8.16-10.06c-7.89-12.46-11.13-26.06-10.3-40.45
	c0.48-8.36,2.7-16.34,6.35-24.11c2.86-6.06,6.69-11.39,10.69-16.7c1.34-1.77,3.01-3.25,4.89-4.51l0.05,0.04
	c-0.14,2.53-2.6,3.5-3.97,5.18c-7.54,9.27-13.17,19.32-15.57,30.94c-1.73,8.42-1.93,16.83-0.42,25.2
	c2.03,11.29,6.84,21.54,14.16,30.71c0.92,1.15,2.1,2.17,2.32,3.72L172.06,297.24z"/>
<path class="st0" d="M178.45,199.22c0.77-2.24,2.78-3.39,4.6-4.72c2.53-1.82,5.09-3.59,8.14-4.6l0.05,0.05
	c-3.74,3.72-8.51,6.2-12.77,9.28L178.45,199.22z"/>
<path class="st0" d="M177.29,200.31c0.1-0.64,0.49-1,1.16-1.09l0.01,0.01c-0.12,0.62-0.5,0.99-1.16,1.1L177.29,200.31z"/>
<path class="st0" d="M176.11,200.84c0.39-0.18,0.78-0.36,1.18-0.53l0.01,0.01c-0.38,0.19-0.76,0.39-1.13,0.58L176.11,200.84z"/>
<path class="st0" d="M175.54,201.4c0.19-0.18,0.38-0.36,0.57-0.55c0,0,0.05,0.06,0.05,0.05c-0.19,0.18-0.38,0.36-0.57,0.53
	L175.54,201.4z"/>
<path class="st0" d="M228.41,183.28c0.65-0.01,1.31,0,1.96,0.01v-2.17c-3.62-0.09-7.26,0.1-10.9,0.58
	c-8.47,1.1-16.57,3.27-24.15,7.05c-1.29,0.64-2.56,1.31-4.08,1.2c-3.75,3.72-8.51,6.19-12.77,9.28c-0.12,0.62-0.5,0.99-1.16,1.09
	c-0.38,0.19-0.75,0.39-1.13,0.58c-0.19,0.18-0.38,0.36-0.57,0.53c-0.14,2.53-2.6,3.5-3.97,5.18c-7.54,9.27-13.17,19.32-15.57,30.94
	c-1.73,8.42-1.93,16.82-0.42,25.2c2.03,11.3,6.84,21.54,14.16,30.71c0.92,1.15,2.1,2.17,2.31,3.72c3.45,2,6.09,4.81,8.67,7.69
	c2.96,1.48,5.59,3.41,8.11,5.48c1.55,0.28,2.8,1.14,4.13,1.89c5.57,3.14,11.57,5.44,17.85,6.75c6.45,1.35,12.95,2.22,19.51,2.08
	v-2.09c-1.45,0.05-2.91,0.06-4.4,0.04c-13.32-0.2-25.71-4.15-36.92-11.17c-18.69-11.71-29.55-28.56-32.2-49.06
	c-2.57-19.83,4.06-38.2,18.27-53.17C189.14,190.85,207.22,183.4,228.41,183.28z"/>
<path class="st0" d="M221.22,193.27c3.07-0.27,6.1-0.95,8.08-0.7c0.36,0.01,0.72,0.01,1.07,0.03v-9.31
	c-0.65-0.01-1.31-0.02-1.96-0.01c-21.2,0.12-39.27,7.57-53.3,22.35c-14.2,14.97-20.83,33.34-18.27,53.17
	c2.65,20.5,13.52,37.35,32.2,49.06c11.2,7.02,23.6,10.97,36.92,11.17c1.49,0.02,2.96,0.01,4.4-0.04v-9.23
	c-1.37,0.16-2.76,0.23-4.17,0.06c-21.66-0.47-37.76-10.07-49.38-27.01c-0.64-0.93-1.06-1.93,0-2.66c1.24-0.86,1.88,0.21,2.47,1.07
	c4.31,6.31,9.43,11.9,15.94,16.32c7.01,4.75,14.75,7.68,23.25,9.02c4,0.63,7.95,0.48,11.9,0.11v-11.61
	c-0.57,0.03-1.14,0.03-1.71,0.03c-25.76,0-46.72-19.74-46.67-43.94c0.05-24.29,21.03-44.19,46.62-44.03
	c0.59,0.01,1.18,0.02,1.76,0.04v-11.87c-2.06,0.01-4.13,0.18-6.22,0.58c-0.93,0.18-1.92,0.09-2.88,0.06
	c-0.87-0.03-1.94-0.07-1.88-1.2C219.43,193.8,220.3,193.35,221.22,193.27z"/>
<path class="st4" d="M230.37,207.15c-0.59-0.02-1.17-0.03-1.76-0.04c-25.59-0.16-46.57,19.74-46.62,44.03
	c-0.05,24.2,20.91,43.94,46.67,43.94c0.57,0,1.14-0.01,1.71-0.03c24.82-0.85,44.8-20.16,44.81-43.72
	C275.18,227.64,255.89,208.16,230.37,207.15z M230.37,291.13c-0.56,0.03-1.13,0.03-1.7,0.03c-23.41-0.03-42.28-17.91-42.27-40.04
	c-0.33-21.87,19.08-40.25,42.87-39.98c0.37,0.01,0.73,0.01,1.1,0.03c22.2,0.82,40.76,18.76,40.71,40.1
	C271.04,272.36,252.53,290.29,230.37,291.13z"/>
<path class="st1" d="M235.73,309.09c-1.8,0.11-3.57,0.45-5.36,0.66v-3.1c1.68-0.15,3.35-0.34,5.03-0.53
	c0.99-0.12,2.34-0.51,2.55,0.95C238.16,308.47,236.86,309.03,235.73,309.09z"/>
<path class="st0" d="M230.37,306.65v3.1c-1.37,0.16-2.76,0.23-4.17,0.06c-21.66-0.47-37.76-10.07-49.38-27.01
	c-0.64-0.93-1.06-1.93,0-2.66c1.24-0.86,1.88,0.21,2.47,1.07c4.31,6.31,9.43,11.9,15.94,16.32c7.01,4.75,14.75,7.68,23.25,9.02
	C222.47,307.17,226.42,307.02,230.37,306.65z"/>
<path class="st1" d="M262.2,323.21c-0.7,0.29-1.39,0.63-2.08,0.94c-0.22,0.1-0.45,0.18-0.67,0.28l-0.09,0.02
	c-0.73,0.2-1.48,0.36-2.19,0.6c-8.69,3.03-17.61,4.55-26.8,4.75v-7.76c0.06,0,0.12,0,0.17-0.01c0.27,0,0.56-0.01,0.83-0.02
	c0.64-0.01,1.29-0.04,1.94-0.08c0.35-0.02,0.72-0.05,1.07-0.07c0.37-0.03,0.74-0.05,1.11-0.08c1.84-0.15,3.67-0.36,5.49-0.63
	c0.72-0.11,1.45-0.23,2.18-0.36c1.11-0.2,2.2-0.42,3.3-0.66c0.69-0.16,1.39-0.32,2.08-0.5c0.35-0.09,0.71-0.18,1.06-0.28
	c0.35-0.1,0.71-0.19,1.06-0.29c0.35-0.1,0.71-0.2,1.06-0.31c0.35-0.11,0.71-0.22,1.06-0.33c0.35-0.11,0.7-0.22,1.06-0.34
	c0.35-0.12,0.7-0.23,1.06-0.36c0.35-0.12,0.69-0.25,1.04-0.37c2.44-0.89,4.86-1.9,7.24-3.05c2.06-0.99,4.52-1.71,5.7-3.94h0.17
	c0.69,0,1.28-0.16,1.82-0.42c0.32-0.16,0.62-0.34,0.91-0.55c0.2-0.14,0.38-0.28,0.57-0.43c0.19-0.15,0.37-0.31,0.56-0.46
	c0.37-0.31,0.74-0.61,1.13-0.88c9.04-6.21,15.85-14.21,21.14-23.45c0.61-1.07,1.04-2.16,0.93-3.39c0.2-0.36,0.4-0.72,0.59-1.08
	c0.53-0.45,0.56-1.04,0.56-1.65c2.96-3.33,3.79-7.32,4.06-11.49c1.11-0.55,1.23-1.63,1.35-2.59c0.38-3.07,0.82-6.14,0.93-9.21
	c0.25-7.57-0.27-15.01-2.51-22.42c-1.82-6.03-4.24-11.73-7.57-17.05c-7.99-12.79-18.98-22.6-33.44-28.71
	c-9.42-3.97-19.26-6.3-29.6-6.54h-0.11v-7.77c1.51,0.03,3.02,0.1,4.54,0.2c41.86,2.85,75.3,35.49,76.94,75.11
	C313.21,280.49,294.02,309.72,262.2,323.21z"/>
<path class="st1" d="M303.6,254.77c-0.1,3.07-0.55,6.15-0.93,9.21c-0.12,0.96-0.24,2.04-1.35,2.59l-0.04-0.02
	c0.61-8.06,1.83-16.05,0.69-24.2c-1.41-10.1-4.72-19.5-10.58-27.99c-4.14-6.01-9.25-11.25-14.93-16.15
	c-9.35-8.07-20.28-12.7-32.32-15.39c-0.57-0.13-1.15-0.25-1.73-0.36c-0.57-0.12-1.14-0.22-1.71-0.32c-0.39-0.06-0.77-0.12-1.16-0.18
	c-0.32-0.05-0.64-0.1-0.95-0.14c-0.2-0.03-0.39-0.05-0.59-0.08c-0.3-0.05-0.61-0.09-0.93-0.12c-0.53-0.07-1.06-0.12-1.6-0.18
	c-0.14-0.01-0.3-0.02-0.44-0.03c-0.17-0.01-0.35-0.03-0.52-0.05c-0.17-0.02-0.35-0.03-0.52-0.04c-0.51-0.04-1.03-0.08-1.54-0.1
	c-0.04,0-0.07-0.01-0.1-0.01c-0.44-0.02-0.9-0.04-1.34-0.05c-0.22-0.01-0.43-0.01-0.65-0.02v-1.07h0.11
	c10.34,0.23,20.18,2.56,29.6,6.54c14.46,6.11,25.45,15.92,33.44,28.71c3.33,5.32,5.75,11.02,7.57,17.05
	C303.32,239.76,303.85,247.2,303.6,254.77z"/>
<path class="st1" d="M301.29,266.55c-1.78,3.69-2.73,7.66-4.05,11.5c-0.5,0.44-0.58,1.02-0.61,1.63c-0.18,0.37-0.37,0.74-0.56,1.11
	c-1.89,1.96-2.97,4.41-4.4,6.65c-5.44,8.46-12.61,15.37-20.99,21.21c-0.7,0.49-1.42,0.95-1.85,1.69c-4.31,1.12-7.88,3.71-11.96,5.32
	c-5.73,2.26-11.66,3.54-17.71,4.59c-0.46,0.08-0.93,0.15-1.4,0.22c-0.1,0.02-0.2,0.03-0.3,0.04c-0.45,0.07-0.89,0.12-1.34,0.18
	c-0.27,0.03-0.55,0.06-0.82,0.09c-0.67,0.07-1.33,0.13-2,0.17c-0.21,0.02-0.41,0.03-0.62,0.05c-0.77,0.04-1.55,0.08-2.33,0.09v-2.09
	c41.73-1.38,68.74-31.65,70.16-65.46c1.63-38.79-30.9-69.47-70.16-70.24v-2.17c0.22,0.01,0.43,0.01,0.65,0.02
	c0.44,0.01,0.9,0.03,1.34,0.05c0.04,0,0.07,0.01,0.1,0.01c0.51,0.03,1.03,0.06,1.54,0.1c0.17,0.01,0.35,0.02,0.52,0.04
	c0.17,0.01,0.35,0.03,0.52,0.05c0.14,0.01,0.3,0.02,0.44,0.03c0.53,0.05,1.06,0.11,1.6,0.18c0.31,0.03,0.62,0.08,0.93,0.12
	c0.2,0.02,0.39,0.05,0.59,0.08c0.32,0.04,0.64,0.09,0.95,0.14c0.38,0.06,0.77,0.12,1.16,0.18c0.57,0.1,1.14,0.2,1.71,0.32
	c0.58,0.11,1.16,0.23,1.73,0.36c12.04,2.69,22.97,7.33,32.32,15.39c5.68,4.9,10.79,10.14,14.93,16.15
	c5.86,8.49,9.17,17.89,10.58,27.99C303.12,250.5,301.89,258.49,301.29,266.55z"/>
<path class="st1" d="M300.53,253.53c-1.42,33.81-28.43,64.08-70.16,65.46v-9.23c1.79-0.2,3.56-0.55,5.36-0.66
	c1.13-0.06,2.43-0.62,2.23-2.03c-0.21-1.46-1.56-1.07-2.55-0.95c-1.68,0.19-3.35,0.38-5.03,0.53v-11.61
	c24.82-0.85,44.8-20.16,44.81-43.72c0-23.67-19.29-43.16-44.81-44.17v-11.87c4.47-0.03,8.88,0.71,13.26,1.6
	c15.28,3.12,26.36,11.71,34.34,24.16c0.56,0.87,0.9,2.1,2.26,1.32c1.21-0.7,1.01-1.96,0.3-2.91c-2.38-3.2-4.58-6.56-7.35-9.44
	c-11.2-11.62-25.4-16.89-42.81-17.42v-9.31C269.62,184.06,302.16,214.74,300.53,253.53z"/>
<path class="st1" d="M280.23,222.36c-1.35,0.78-1.7-0.45-2.26-1.32c-7.97-12.45-19.06-21.04-34.34-24.16
	c-4.38-0.89-8.8-1.63-13.26-1.6v-2.68c17.41,0.53,31.61,5.79,42.81,17.42c2.77,2.88,4.97,6.24,7.35,9.44
	C281.24,220.4,281.44,221.67,280.23,222.36z"/>
<path class="st0" d="M230.37,192.6v2.68c-2.06,0.01-4.13,0.18-6.22,0.58c-0.93,0.18-1.92,0.09-2.88,0.06
	c-0.87-0.03-1.94-0.07-1.88-1.2c0.04-0.93,0.92-1.37,1.84-1.45c3.07-0.27,6.1-0.95,8.08-0.7
	C229.66,192.58,230.02,192.59,230.37,192.6z"/>
<path class="st5" d="M186.41,251.12c-0.34-21.86,19.07-40.25,42.86-39.98c22.68,0.26,41.86,18.44,41.81,40.13
	c-0.04,21.63-19.5,39.93-42.41,39.9C205.27,291.14,186.39,273.25,186.41,251.12z M263.75,250.47
	c-0.23-18.43-16.13-32.98-36.02-32.63c-19.37,0.35-34.97,15.77-34.3,34.3c0.64,17.43,15.13,32.2,35.05,32.23
	C248.74,284.41,263.99,269.4,263.75,250.47z"/>
<path class="st6" d="M263.75,250.47c0.24,18.92-15.01,33.94-35.28,33.9c-19.92-0.03-34.42-14.79-35.05-32.23
	c-0.67-18.53,14.93-33.95,34.3-34.3C247.62,217.49,263.52,232.05,263.75,250.47z M243.94,251.14c-0.03-7.99-5.92-14.75-16.87-14.49
	c-6.48,0.16-13.97,5.87-13.77,14.65c0.18,7.84,6.47,14.4,15.07,14.23C237.16,265.34,243.96,259.22,243.94,251.14z M242.72,272.49
	c1.53-0.22,2.41-1.05,2.28-2.57c-0.12-1.39-1.02-2.18-2.49-2.06c-1.57,0.12-2.45,1.07-2.37,2.56
	C240.21,271.84,241.26,272.4,242.72,272.49z M204.11,250.73c-1.54,0.18-2.43,1.01-2.36,2.51c0.07,1.42,1.09,2.15,2.49,2.11
	c1.58-0.04,2.48-1.03,2.41-2.5C206.58,251.47,205.59,250.8,204.11,250.73z M241.52,230.08c-0.3-1.33-0.95-2.36-2.63-2.25
	c-1.43,0.1-2.39,0.86-2.28,2.23c0.12,1.38,1.01,2.39,2.61,2.3C240.61,232.3,241.47,231.52,241.52,230.08z M248.78,240.21
	c1.41-0.23,2.4-0.92,2.42-2.31c0.02-1.58-1.06-2.33-2.62-2.24c-1.43,0.08-2.31,0.9-2.23,2.34
	C246.41,239.43,247.39,240.05,248.78,240.21z M255.51,248.91c-0.29-1.09-1.01-2-2.48-2.01c-1.46,0-2.44,0.85-2.41,2.19
	c0.03,1.43,1.05,2.39,2.62,2.35C254.7,251.41,255.46,250.49,255.51,248.91z M220.66,271.97c-0.29-1.39-1.14-2.16-2.6-2.1
	s-2.39,0.87-2.34,2.25c0.05,1.52,1.2,2.33,2.7,2.24C219.85,274.3,220.5,273.24,220.66,271.97z M217.14,232.02
	c-0.22-1.39-1.06-2.14-2.49-2.13c-1.42,0-2.4,0.72-2.41,2.12c-0.01,1.52,0.97,2.29,2.56,2.23
	C216.26,234.18,216.96,233.31,217.14,232.02z M250.84,258.64c-1.46,0.19-2.28,0.92-2.31,2.31c-0.03,1.37,0.66,2.28,2.18,2.27
	c1.56-0.02,2.49-0.85,2.47-2.37C253.16,259.43,252.2,258.81,250.84,258.64z M226.53,225.61c-1.24,0.19-2.2,0.81-2.28,2.23
	c-0.08,1.4,0.69,2.34,2.15,2.42c1.45,0.08,2.39-0.72,2.45-2.14C228.91,226.74,228.15,225.9,226.53,225.61z M206.21,238.91
	c-1.19,0.23-2.22,0.76-2.2,2.24c0.02,1.38,0.77,2.26,2.26,2.29c1.48,0.03,2.3-0.79,2.36-2.19
	C208.69,239.81,207.77,239.15,206.21,238.91z M210.86,264.23c-0.2-1.15-0.89-2.01-2.39-2.04c-1.52-0.04-2.38,0.77-2.42,2.13
	c-0.04,1.37,0.8,2.21,2.31,2.21C209.81,266.52,210.67,265.81,210.86,264.23z M230.75,272.02c-1.58-0.03-2.38,0.79-2.4,2.14
	c-0.02,1.34,0.69,2.25,2.26,2.24c1.49-0.01,2.31-0.7,2.35-2.14C233,272.82,232.2,272.12,230.75,272.02z"/>
<path class="st7" d="M243.94,251.14c0.01,8.09-6.78,14.21-15.58,14.38c-8.6,0.17-14.89-6.39-15.07-14.23
	c-0.2-8.78,7.3-14.49,13.77-14.65C238.03,236.39,243.91,243.15,243.94,251.14z"/>
<path class="st8" d="M242.72,272.49c-1.46-0.08-2.51-0.64-2.58-2.07c-0.08-1.5,0.8-2.44,2.37-2.56c1.47-0.12,2.38,0.68,2.49,2.06
	C245.12,271.43,244.25,272.27,242.72,272.49z"/>
<path class="st8" d="M204.11,250.73c1.48,0.08,2.47,0.74,2.54,2.12c0.07,1.47-0.83,2.46-2.41,2.5c-1.4,0.04-2.42-0.69-2.49-2.11
	C201.68,251.74,202.57,250.91,204.11,250.73z"/>
<path class="st8" d="M241.52,230.08c-0.04,1.43-0.91,2.22-2.3,2.29c-1.6,0.09-2.49-0.93-2.61-2.3c-0.12-1.38,0.85-2.14,2.28-2.23
	C240.56,227.72,241.22,228.75,241.52,230.08z"/>
<path class="st8" d="M248.78,240.21c-1.39-0.16-2.36-0.78-2.44-2.21c-0.08-1.44,0.8-2.26,2.23-2.34c1.56-0.09,2.64,0.66,2.62,2.24
	C251.18,239.3,250.19,239.98,248.78,240.21z"/>
<path class="st8" d="M255.51,248.91c-0.07,1.58-0.81,2.5-2.26,2.54c-1.57,0.04-2.59-0.92-2.62-2.35c-0.03-1.34,0.95-2.19,2.41-2.19
	C254.51,246.9,255.23,247.82,255.51,248.91z"/>
<path class="st8" d="M220.66,271.97c-0.17,1.26-0.82,2.32-2.23,2.4c-1.5,0.08-2.65-0.72-2.7-2.24c-0.04-1.38,0.89-2.19,2.34-2.25
	C219.53,269.82,220.38,270.58,220.66,271.97z"/>
<path class="st8" d="M217.14,232.02c-0.17,1.29-0.87,2.16-2.34,2.21c-1.58,0.06-2.57-0.72-2.56-2.23c0.01-1.39,0.98-2.11,2.41-2.12
	C216.07,229.88,216.92,230.63,217.14,232.02z"/>
<path class="st8" d="M250.84,258.64c1.34,0.17,2.31,0.79,2.33,2.21c0.02,1.52-0.9,2.35-2.47,2.37c-1.53,0.02-2.2-0.89-2.18-2.27
	C248.56,259.57,249.38,258.83,250.84,258.64z"/>
<path class="st8" d="M226.53,225.61c1.62,0.29,2.38,1.13,2.32,2.51c-0.07,1.42-1,2.22-2.45,2.14c-1.46-0.08-2.23-1.02-2.15-2.42
	C224.33,226.42,225.3,225.8,226.53,225.61z"/>
<path class="st8" d="M206.21,238.91c1.57,0.25,2.49,0.9,2.42,2.35c-0.07,1.39-0.87,2.22-2.36,2.19c-1.48-0.03-2.24-0.92-2.26-2.29
	C203.99,239.67,205.01,239.13,206.21,238.91z"/>
<path class="st8" d="M210.86,264.23c-0.2,1.58-1.06,2.29-2.5,2.29c-1.51,0-2.36-0.84-2.31-2.21c0.04-1.35,0.9-2.17,2.42-2.13
	C209.97,262.22,210.67,263.08,210.86,264.23z"/>
<path class="st8" d="M230.75,272.02c1.45,0.1,2.25,0.8,2.21,2.25c-0.04,1.45-0.86,2.14-2.35,2.14c-1.57,0.01-2.28-0.9-2.26-2.24
	C228.38,272.81,229.17,272,230.75,272.02z"/>
<polyline class="st9" points="230.37,295.04 230.37,291.13 230.37,284.34 230.37,276.4 230.37,272.03 230.37,265.36 230.37,236.79 
	230.37,217.9 230.37,211.17 230.37,207.15 "/>
<g>
	<path class="st0" d="M300.03,159.64c-0.73-5.16,3.01-8.79,5.15-12.9c3.87-7.44,8.12-14.69,12.25-22.01
		c0.43-0.76,0.56-2.06,1.64-2.01c1.06,0.04,1.12,1.36,1.55,2.12c5.07,9,10.07,18.04,15.12,27.05c0.48,0.86,0.78,1.87,2.03,2.66
		c1.68-2.98,3.36-5.9,5-8.84c4-7.16,8-14.34,12.01-21.5c0.33-0.59,0.36-1.6,1.37-1.53c0.77,0.05,0.84,0.92,1.13,1.46
		c5.27,9.42,10.51,18.85,15.8,28.26c0.41,0.72,0.42,2.05,1.66,1.93c0.9-0.08,1.06-1.21,1.44-1.91c4.96-9.06,9.89-18.12,14.83-27.18
		c0.48-0.87,1-1.73,1.71-2.93c2.13,2.83,3.49,5.68,5.05,8.43c3.64,6.42,7.06,12.98,11.07,19.18c2.68,4.13,3.3,8.41,3.13,13
		c-0.65,1.89-2.35,1.26-3.67,1.26c-34.52,0.03-69.04,0.03-103.56,0.03c-5.28,0-4.18,0.14-4.66-4.02l-0.01,0.01
		c0.05-0.05,0.14-0.13,0.13-0.17C300.17,159.89,300.09,159.77,300.03,159.64z"/>
	<path class="st1" d="M181.74,155.63c-0.27,1.11-1.13,1.35-2.19,1.08c-1.68-0.43-3.35-0.89-5-1.41
		c-16.1-5.1-32.18-10.24-48.28-15.33c-6.31-1.99-12.65-3.91-18.98-5.86c-1.1-0.34-2.21-0.66-3.28-1.08c-0.96-0.38-1.7-1.09-1.3-2.13
		c0.45-1.17,1.56-0.86,2.47-0.59c4.22,1.29,8.43,2.62,12.64,3.94c18.21,5.73,36.41,11.45,54.61,17.2c2.64,0.83,5.25,1.76,7.88,2.62
		C181.11,154.33,181.73,154.69,181.74,155.63z"/>
	<path class="st1" d="M159.1,140.32c-0.31-0.15-0.85-0.35-1.3-0.65c-10.94-7.15-21.86-14.31-32.79-21.47
		c-0.99-0.65-2.57-1.17-1.6-2.67c1.02-1.58,2.31-0.35,3.22,0.23c7.97,5.12,15.88,10.31,23.8,15.48c3.09,2.01,6.2,4.02,9.27,6.07
		c0.7,0.46,1.44,1.03,1.19,2.01C160.68,140.04,160.09,140.3,159.1,140.32z"/>
	<path class="st2" d="M306.53,159.64c0.07,0.12,0.14,0.25,0.18,0.38c0.01,0.04-0.09,0.11-0.13,0.17
		C306.56,160.01,306.55,159.82,306.53,159.64z"/>
	<path class="st1" d="M268.87,145.37L268.87,145.37c-1.18,2.23-3.64,2.96-5.7,3.95c-2.38,1.15-4.79,2.16-7.24,3.05
		c-0.35,0.12-0.69,0.25-1.04,0.37c-0.35,0.12-0.7,0.24-1.06,0.36c-0.35,0.12-0.7,0.23-1.06,0.34c-0.35,0.11-0.7,0.22-1.06,0.33
		c-0.35,0.1-0.71,0.2-1.06,0.31c-0.35,0.1-0.71,0.2-1.06,0.29c-0.35,0.1-0.71,0.19-1.06,0.28c-0.69,0.18-1.39,0.34-2.08,0.5
		c-1.1,0.25-2.2,0.46-3.3,0.66c-0.72,0.13-1.45,0.25-2.18,0.36c-1.82,0.27-3.65,0.48-5.49,0.63c-0.37,0.03-0.74,0.05-1.11,0.08
		c-0.35,0.02-0.72,0.05-1.07,0.07c-0.64,0.03-1.29,0.06-1.94,0.08c-0.27,0.01-0.56,0.02-0.83,0.02c-0.06,0.01-0.12,0.01-0.17,0.01
		v-0.97c0.77-0.01,1.55-0.05,2.33-0.09c0.21-0.01,0.41-0.03,0.62-0.05c0.67-0.04,1.33-0.1,2-0.17c0.27-0.03,0.54-0.05,0.82-0.09
		c0.45-0.05,0.89-0.11,1.34-0.18c0.1-0.01,0.2-0.02,0.3-0.04c0.46-0.06,0.93-0.14,1.4-0.22c6.05-1.05,11.99-2.33,17.71-4.59
		c4.08-1.61,7.66-4.2,11.96-5.32L268.87,145.37z"/>
	<path class="st0" d="M230.37,156.07v0.97c-2.74,0.05-5.51-0.03-8.3-0.25c-10.96-0.83-21.35-3.72-30.79-9.21
		c-0.95-0.56-2.1-1-2.39-2.23c1.55,0.28,2.8,1.14,4.13,1.88c5.57,3.14,11.57,5.44,17.85,6.75
		C217.31,155.34,223.81,156.21,230.37,156.07z"/>
	<path class="st1" d="M295.17,119.19c-5.28,9.23-12.09,17.24-21.14,23.45c-0.39,0.27-0.76,0.57-1.13,0.88
		c-0.19,0.15-0.37,0.31-0.56,0.46c-0.19,0.15-0.38,0.29-0.57,0.43c-0.29,0.21-0.59,0.4-0.91,0.55c-0.54,0.26-1.13,0.42-1.82,0.42
		c-0.06,0-0.11-0.01-0.17-0.01l-0.04-0.04c0.43-0.74,1.15-1.2,1.85-1.69c8.38-5.85,15.55-12.75,20.99-21.21
		c1.43-2.23,2.51-4.69,4.4-6.65l0.03,0.01C296.21,117.03,295.78,118.13,295.17,119.19z"/>
	<path class="st3" d="M269.05,145.38h-0.17v-0.01C268.94,145.37,268.99,145.38,269.05,145.38z"/>
	<path class="st0" d="M180.77,139.89c-3.96-1.48-6.48-4.42-8.7-7.66l0.05-0.05c3.45,2,6.09,4.81,8.67,7.69L180.77,139.89z"/>
	<path class="st3" d="M301.32,101.57c-0.27,4.17-1.11,8.17-4.06,11.49l-0.02-0.01c1.32-3.85,2.27-7.81,4.05-11.5L301.32,101.57z"/>
	<path class="st0" d="M188.88,145.36c-3.82-0.36-6.38-2.37-8.12-5.47l0.01-0.01C183.74,141.36,186.36,143.29,188.88,145.36
		L188.88,145.36z"/>
	<path class="st3" d="M297.26,113.07c0,0.61-0.04,1.21-0.56,1.66l-0.07-0.05c0.02-0.6,0.11-1.18,0.61-1.63L297.26,113.07z"/>
	<path class="st3" d="M296.7,114.72c-0.2,0.36-0.4,0.72-0.59,1.08l-0.03-0.01c0.19-0.37,0.37-0.74,0.56-1.11L296.7,114.72z"/>
	<path class="st1" d="M301.32,101.57c-0.27,4.17-1.11,8.17-4.06,11.49c0,0.61-0.04,1.2-0.56,1.65c-0.2,0.36-0.4,0.72-0.59,1.08
		l-0.03-0.01c0.19-0.37,0.38-0.74,0.56-1.11c0.03-0.6,0.11-1.18,0.61-1.63c1.32-3.85,2.27-7.81,4.05-11.5L301.32,101.57z"/>
	<g>
		<path class="st0" d="M268.87,145.37L268.87,145.37l0.17,0.01C268.99,145.38,268.94,145.37,268.87,145.37z M159.95,57.61
			c2.86-6.06,6.69-11.39,10.69-16.7c1.34-1.78,3.01-3.25,4.9-4.51c0.19-0.18,0.38-0.37,0.57-0.55c0.39-0.18,0.78-0.36,1.18-0.54
			c0.09-0.64,0.48-1,1.16-1.09c0.77-2.24,2.78-3.39,4.6-4.72c0.45-0.33,0.9-0.65,1.36-0.96c0.37-0.26,0.74-0.52,1.12-0.76
			c0.58-0.38,1.16-0.75,1.76-1.09c0.12-0.08,0.24-0.14,0.36-0.2c0.27-0.15,0.53-0.29,0.8-0.43c0.26-0.13,0.52-0.25,0.78-0.38
			c0.27-0.12,0.55-0.24,0.82-0.36c0.37-0.15,0.74-0.29,1.12-0.41h0.01c0.06-0.05,0.12-0.09,0.19-0.14c0.06-0.04,0.13-0.09,0.19-0.13
			c0.35-0.25,0.71-0.49,1.08-0.72c0.25-0.15,0.5-0.31,0.74-0.45c0.25-0.15,0.51-0.29,0.76-0.43c0.76-0.42,1.54-0.81,2.33-1.17
			c1.32-0.61,2.67-1.15,4.03-1.63c0.32-0.12,0.64-0.23,0.95-0.34c0.79-0.27,1.58-0.53,2.37-0.79c0.32-0.1,0.64-0.2,0.95-0.31
			c0.32-0.1,0.64-0.2,0.95-0.3c0.46-0.14,0.93-0.29,1.4-0.42c0.8-0.23,1.6-0.45,2.41-0.66c4.48-1.15,9.04-1.88,13.66-2.19
			c0.71-0.05,1.42-0.09,2.14-0.12c1.67-0.07,3.34-0.09,5.02-0.05V7.3c-41.33-0.75-77.24,26.85-83.88,65.93
			c-4.84,28.51,4.7,52.68,27.27,72.17c7.64,6.6,16.61,11.2,26.17,14.81c8.49,2.51,17.06,4.38,26.04,4.6c1.47,0.03,2.95,0.03,4.41,0
			v-7.76c-2.74,0.05-5.51-0.03-8.3-0.25c-10.96-0.83-21.35-3.72-30.79-9.21c-0.95-0.56-2.1-1-2.39-2.23
			c-3.82-0.36-6.38-2.37-8.12-5.47c-3.96-1.48-6.48-4.41-8.7-7.65c-3.9-2.51-5.86-6.43-8.16-10.06
			c-7.89-12.46-11.13-26.06-10.3-40.46C154.08,73.36,156.3,65.38,159.95,57.61z"/>
		<path class="st0" d="M230.37,15.06v1.07c-3.62-0.09-7.26,0.1-10.9,0.58c-8.47,1.1-16.57,3.27-24.15,7.05
			c-1.29,0.64-2.56,1.31-4.08,1.2l-0.04-0.05h-0.01V24.9c0.07-0.04,0.12-0.09,0.2-0.13c0.06-0.04,0.13-0.09,0.19-0.13
			c0.35-0.25,0.72-0.48,1.08-0.72c0.25-0.15,0.5-0.31,0.74-0.45c0.25-0.15,0.51-0.29,0.76-0.43c0.76-0.43,1.54-0.82,2.33-1.17
			c1.32-0.61,2.67-1.15,4.03-1.63c0.32-0.12,0.64-0.23,0.95-0.34c0.79-0.27,1.58-0.53,2.37-0.79c0.32-0.1,0.64-0.2,0.95-0.31
			c0.32-0.1,0.64-0.2,0.95-0.3c0.46-0.14,0.93-0.29,1.4-0.42c0.8-0.23,1.6-0.46,2.41-0.66c4.48-1.15,9.04-1.88,13.66-2.19
			c0.71-0.05,1.42-0.09,2.14-0.12C227.02,15.04,228.69,15.02,230.37,15.06z"/>
		<path class="st0" d="M172.06,132.24c-3.89-2.5-5.86-6.43-8.16-10.06c-7.89-12.46-11.13-26.06-10.3-40.45
			c0.48-8.36,2.7-16.34,6.35-24.11c2.86-6.06,6.69-11.39,10.69-16.7c1.34-1.77,3.01-3.25,4.89-4.51l0.05,0.04
			c-0.14,2.53-2.6,3.5-3.97,5.18c-7.54,9.27-13.17,19.32-15.57,30.94c-1.73,8.42-1.93,16.83-0.42,25.2
			c2.03,11.29,6.84,21.54,14.16,30.71c0.92,1.15,2.1,2.17,2.32,3.72L172.06,132.24z"/>
		<path class="st0" d="M178.45,34.22c0.77-2.24,2.78-3.39,4.6-4.72c2.53-1.82,5.09-3.59,8.14-4.6l0.05,0.05
			c-3.74,3.72-8.51,6.2-12.77,9.28L178.45,34.22z"/>
		<path class="st0" d="M177.29,35.31c0.1-0.64,0.49-1,1.16-1.09l0.01,0.01c-0.12,0.62-0.5,0.99-1.16,1.1L177.29,35.31z"/>
		<path class="st0" d="M176.11,35.84c0.39-0.18,0.78-0.36,1.18-0.53l0.01,0.01c-0.38,0.19-0.76,0.39-1.13,0.58L176.11,35.84z"/>
		<path class="st0" d="M175.54,36.4c0.19-0.18,0.38-0.36,0.57-0.55c0,0,0.05,0.06,0.05,0.05c-0.19,0.18-0.38,0.36-0.57,0.53
			L175.54,36.4z"/>
		<path class="st0" d="M228.41,18.28c0.65-0.01,1.31,0,1.96,0.01v-2.17c-3.62-0.09-7.26,0.1-10.9,0.58
			c-8.47,1.1-16.57,3.27-24.15,7.05c-1.29,0.64-2.56,1.31-4.08,1.2c-3.75,3.72-8.51,6.19-12.77,9.28c-0.12,0.62-0.5,0.99-1.16,1.09
			c-0.38,0.19-0.75,0.39-1.13,0.58c-0.19,0.18-0.38,0.36-0.57,0.53c-0.14,2.53-2.6,3.5-3.97,5.18
			c-7.54,9.27-13.17,19.32-15.57,30.94c-1.73,8.42-1.93,16.82-0.42,25.2c2.03,11.3,6.84,21.54,14.16,30.71
			c0.92,1.15,2.1,2.17,2.31,3.72c3.45,2,6.09,4.81,8.67,7.69c2.96,1.48,5.59,3.41,8.11,5.48c1.55,0.28,2.8,1.14,4.13,1.88
			c5.57,3.14,11.57,5.44,17.85,6.75c6.45,1.35,12.95,2.22,19.51,2.08v-2.09c-1.45,0.05-2.91,0.06-4.4,0.04
			c-13.32-0.2-25.71-4.15-36.92-11.17c-18.69-11.71-29.55-28.56-32.2-49.06c-2.57-19.83,4.06-38.2,18.27-53.17
			C189.14,25.85,207.22,18.4,228.41,18.28z"/>
		<path class="st0" d="M221.22,28.27c3.07-0.27,6.1-0.95,8.08-0.7c0.36,0.01,0.72,0.01,1.07,0.03v-9.31
			c-0.65-0.01-1.31-0.02-1.96-0.01c-21.2,0.12-39.27,7.57-53.3,22.35c-14.2,14.97-20.83,33.34-18.27,53.17
			c2.65,20.5,13.52,37.35,32.2,49.06c11.2,7.02,23.6,10.97,36.92,11.17c1.49,0.02,2.96,0.01,4.4-0.04v-9.23
			c-1.37,0.16-2.76,0.23-4.17,0.06c-21.66-0.47-37.76-10.07-49.38-27.01c-0.64-0.93-1.06-1.93,0-2.66c1.24-0.86,1.88,0.21,2.47,1.07
			c4.31,6.31,9.43,11.9,15.94,16.32c7.01,4.75,14.75,7.68,23.25,9.02c4,0.63,7.95,0.48,11.9,0.11v-11.61
			c-0.57,0.03-1.14,0.03-1.71,0.03c-25.76,0-46.72-19.74-46.67-43.94c0.05-24.29,21.03-44.19,46.62-44.03
			c0.59,0.01,1.18,0.02,1.76,0.04V30.28c-2.06,0.01-4.13,0.18-6.22,0.58c-0.93,0.18-1.92,0.09-2.88,0.06
			c-0.87-0.03-1.94-0.07-1.88-1.2C219.43,28.8,220.3,28.35,221.22,28.27z"/>
	</g>
	<path class="st4" d="M230.37,42.15c-0.59-0.02-1.17-0.03-1.76-0.04c-25.59-0.16-46.57,19.74-46.62,44.03
		c-0.05,24.2,20.91,43.94,46.67,43.94c0.57,0,1.14-0.01,1.71-0.03c24.82-0.85,44.8-20.16,44.81-43.72
		C275.18,62.64,255.89,43.16,230.37,42.15z M230.37,126.13c-0.56,0.03-1.13,0.03-1.7,0.03c-23.41-0.03-42.28-17.91-42.27-40.04
		c-0.33-21.87,19.08-40.25,42.87-39.98c0.37,0.01,0.73,0.01,1.1,0.03c22.2,0.82,40.76,18.76,40.71,40.1
		C271.04,107.36,252.53,125.29,230.37,126.13z"/>
	<path class="st1" d="M235.73,144.09c-1.8,0.11-3.57,0.45-5.36,0.66v-3.1c1.68-0.15,3.35-0.34,5.03-0.53
		c0.99-0.12,2.34-0.51,2.55,0.95C238.16,143.47,236.86,144.03,235.73,144.09z"/>
	<path class="st0" d="M230.37,141.65v3.1c-1.37,0.16-2.76,0.23-4.17,0.06c-21.66-0.47-37.76-10.07-49.38-27.01
		c-0.64-0.93-1.06-1.93,0-2.66c1.24-0.86,1.88,0.21,2.47,1.07c4.31,6.31,9.43,11.9,15.94,16.32c7.01,4.75,14.75,7.68,23.25,9.02
		C222.47,142.17,226.42,142.02,230.37,141.65z"/>
	<g>
		<path class="st1" d="M262.2,158.21c-0.7,0.29-1.39,0.63-2.08,0.94c-0.22,0.1-0.45,0.18-0.67,0.28l-0.09,0.02
			c-0.73,0.2-1.48,0.36-2.19,0.6c-8.69,3.03-17.61,4.55-26.8,4.75v-7.76c0.06,0,0.12,0,0.17-0.01c0.27,0,0.56-0.01,0.83-0.02
			c0.64-0.01,1.29-0.04,1.94-0.08c0.35-0.02,0.72-0.05,1.07-0.07c0.37-0.03,0.74-0.05,1.11-0.08c1.84-0.15,3.67-0.36,5.49-0.63
			c0.72-0.11,1.45-0.23,2.18-0.36c1.11-0.2,2.2-0.42,3.3-0.66c0.69-0.16,1.39-0.32,2.08-0.5c0.35-0.09,0.71-0.18,1.06-0.28
			s0.71-0.19,1.06-0.29c0.35-0.1,0.71-0.2,1.06-0.31c0.35-0.11,0.71-0.22,1.06-0.33c0.35-0.11,0.7-0.22,1.06-0.34
			c0.35-0.12,0.7-0.23,1.06-0.36c0.35-0.12,0.69-0.25,1.04-0.37c2.44-0.89,4.86-1.9,7.24-3.05c2.06-0.99,4.52-1.71,5.7-3.94h0.17
			c0.69,0,1.28-0.16,1.82-0.42c0.32-0.16,0.62-0.34,0.91-0.55c0.2-0.14,0.38-0.28,0.57-0.43s0.37-0.31,0.56-0.46
			c0.37-0.31,0.74-0.61,1.13-0.88c9.04-6.21,15.85-14.21,21.14-23.45c0.61-1.07,1.04-2.16,0.93-3.39c0.2-0.36,0.4-0.72,0.59-1.08
			c0.53-0.45,0.56-1.04,0.56-1.65c2.96-3.33,3.79-7.32,4.06-11.49c1.11-0.55,1.23-1.63,1.35-2.59c0.38-3.07,0.82-6.14,0.93-9.21
			c0.25-7.57-0.27-15.01-2.51-22.42c-1.82-6.03-4.24-11.73-7.57-17.05c-7.99-12.79-18.98-22.6-33.44-28.71
			c-9.42-3.97-19.26-6.3-29.6-6.54h-0.11V7.3c1.51,0.03,3.02,0.1,4.54,0.2c41.86,2.85,75.3,35.49,76.94,75.11
			C313.21,115.49,294.02,144.72,262.2,158.21z"/>
		<path class="st1" d="M303.6,89.77c-0.1,3.07-0.55,6.15-0.93,9.21c-0.12,0.96-0.24,2.04-1.35,2.59l-0.04-0.02
			c0.61-8.06,1.83-16.05,0.69-24.2c-1.41-10.1-4.72-19.5-10.58-27.99c-4.14-6.01-9.25-11.25-14.93-16.15
			c-9.35-8.07-20.28-12.7-32.32-15.39c-0.57-0.13-1.15-0.25-1.73-0.36c-0.57-0.12-1.14-0.22-1.71-0.32
			c-0.39-0.06-0.77-0.12-1.16-0.18c-0.32-0.05-0.64-0.1-0.95-0.14c-0.2-0.03-0.39-0.05-0.59-0.08c-0.3-0.05-0.61-0.09-0.93-0.12
			c-0.53-0.07-1.06-0.12-1.6-0.18c-0.14-0.01-0.3-0.02-0.44-0.03c-0.17-0.01-0.35-0.03-0.52-0.05c-0.17-0.02-0.35-0.03-0.52-0.04
			c-0.51-0.04-1.03-0.08-1.54-0.1c-0.04,0-0.07-0.01-0.1-0.01c-0.44-0.02-0.9-0.04-1.34-0.05c-0.22-0.01-0.43-0.01-0.65-0.02v-1.07
			h0.11c10.34,0.23,20.18,2.56,29.6,6.54c14.46,6.11,25.45,15.92,33.44,28.71c3.33,5.32,5.75,11.02,7.57,17.05
			C303.32,74.76,303.85,82.2,303.6,89.77z"/>
		<path class="st1" d="M301.29,101.55c-1.78,3.69-2.73,7.66-4.05,11.5c-0.5,0.44-0.58,1.02-0.61,1.63
			c-0.18,0.37-0.37,0.74-0.56,1.11c-1.89,1.96-2.97,4.41-4.4,6.65c-5.44,8.46-12.61,15.37-20.99,21.21
			c-0.7,0.49-1.42,0.95-1.85,1.69c-4.31,1.12-7.88,3.71-11.96,5.32c-5.73,2.26-11.66,3.54-17.71,4.59c-0.46,0.08-0.93,0.15-1.4,0.22
			c-0.1,0.02-0.2,0.03-0.3,0.04c-0.45,0.07-0.89,0.12-1.34,0.18c-0.27,0.03-0.55,0.06-0.82,0.09c-0.67,0.07-1.33,0.13-2,0.17
			c-0.21,0.02-0.41,0.03-0.62,0.05c-0.77,0.04-1.55,0.08-2.33,0.09v-2.09c41.73-1.38,68.74-31.65,70.16-65.46
			c1.63-38.79-30.9-69.47-70.16-70.24v-2.17c0.22,0.01,0.43,0.01,0.65,0.02c0.44,0.01,0.9,0.03,1.34,0.05c0.04,0,0.07,0.01,0.1,0.01
			c0.51,0.03,1.03,0.06,1.54,0.1c0.17,0.01,0.35,0.02,0.52,0.04c0.17,0.01,0.35,0.03,0.52,0.05c0.14,0.01,0.3,0.02,0.44,0.03
			c0.53,0.05,1.06,0.11,1.6,0.18c0.31,0.03,0.62,0.08,0.93,0.12c0.2,0.02,0.39,0.05,0.59,0.08c0.32,0.04,0.64,0.09,0.95,0.14
			c0.38,0.06,0.77,0.12,1.16,0.18c0.57,0.1,1.14,0.2,1.71,0.32c0.58,0.11,1.16,0.23,1.73,0.36c12.04,2.69,22.97,7.33,32.32,15.39
			c5.68,4.9,10.79,10.14,14.93,16.15c5.86,8.49,9.17,17.89,10.58,27.99C303.12,85.5,301.89,93.49,301.29,101.55z"/>
		<path class="st1" d="M300.53,88.53c-1.42,33.81-28.43,64.08-70.16,65.46v-9.23c1.79-0.2,3.56-0.55,5.36-0.66
			c1.13-0.06,2.43-0.62,2.23-2.03c-0.21-1.46-1.56-1.07-2.55-0.95c-1.68,0.19-3.35,0.38-5.03,0.53v-11.61
			c24.82-0.85,44.8-20.16,44.81-43.72c0-23.67-19.29-43.16-44.81-44.17V30.28c4.47-0.03,8.88,0.71,13.26,1.6
			C258.92,35,270,43.59,277.97,56.04c0.56,0.87,0.9,2.1,2.26,1.32c1.21-0.7,1.01-1.96,0.3-2.91c-2.38-3.2-4.58-6.56-7.35-9.44
			c-11.2-11.62-25.4-16.89-42.81-17.42v-9.31C269.62,19.06,302.16,49.74,300.53,88.53z"/>
		<path class="st1" d="M280.23,57.36c-1.35,0.78-1.7-0.45-2.26-1.32C270,43.59,258.92,35,243.64,31.88
			c-4.38-0.89-8.8-1.63-13.26-1.6V27.6c17.41,0.53,31.61,5.79,42.81,17.42c2.77,2.88,4.97,6.24,7.35,9.44
			C281.24,55.4,281.44,56.67,280.23,57.36z"/>
	</g>
	<path class="st0" d="M230.37,27.6v2.68c-2.06,0.01-4.13,0.18-6.22,0.58c-0.93,0.18-1.92,0.09-2.88,0.06
		c-0.87-0.03-1.94-0.07-1.88-1.2c0.04-0.93,0.92-1.37,1.84-1.45c3.07-0.27,6.1-0.95,8.08-0.7C229.66,27.58,230.02,27.59,230.37,27.6
		z"/>
	<path class="st5" d="M186.41,86.12c-0.34-21.86,19.07-40.25,42.86-39.98c22.68,0.26,41.86,18.44,41.81,40.13
		c-0.04,21.63-19.5,39.93-42.41,39.9C205.27,126.14,186.39,108.25,186.41,86.12z M263.75,85.47c-0.23-18.43-16.13-32.98-36.02-32.63
		c-19.37,0.35-34.97,15.77-34.3,34.3c0.64,17.43,15.13,32.2,35.05,32.23C248.74,119.41,263.99,104.4,263.75,85.47z"/>
	<path class="st6" d="M263.75,85.47c0.24,18.92-15.01,33.94-35.28,33.9c-19.92-0.03-34.42-14.79-35.05-32.23
		c-0.67-18.53,14.93-33.95,34.3-34.3C247.62,52.49,263.52,67.05,263.75,85.47z M243.94,86.14c-0.03-7.99-5.92-14.75-16.87-14.49
		c-6.48,0.16-13.97,5.87-13.77,14.65c0.18,7.84,6.47,14.4,15.07,14.23C237.16,100.34,243.96,94.22,243.94,86.14z M242.72,107.49
		c1.53-0.22,2.41-1.05,2.28-2.57c-0.12-1.39-1.02-2.18-2.49-2.06c-1.57,0.12-2.45,1.07-2.37,2.56
		C240.21,106.84,241.26,107.4,242.72,107.49z M204.11,85.73c-1.54,0.18-2.43,1.01-2.36,2.51c0.07,1.42,1.09,2.15,2.49,2.11
		c1.58-0.04,2.48-1.03,2.41-2.5C206.58,86.47,205.59,85.8,204.11,85.73z M241.52,65.08c-0.3-1.33-0.95-2.36-2.63-2.25
		c-1.43,0.1-2.39,0.86-2.28,2.23c0.12,1.38,1.01,2.39,2.61,2.3C240.61,67.3,241.47,66.52,241.52,65.08z M248.78,75.21
		c1.41-0.23,2.4-0.92,2.42-2.31c0.02-1.58-1.06-2.33-2.62-2.24c-1.43,0.08-2.31,0.9-2.23,2.34
		C246.41,74.43,247.39,75.05,248.78,75.21z M255.51,83.91c-0.29-1.09-1.01-2-2.48-2.01c-1.46,0-2.44,0.85-2.41,2.19
		c0.03,1.43,1.05,2.39,2.62,2.35C254.7,86.41,255.46,85.49,255.51,83.91z M220.66,106.97c-0.29-1.39-1.14-2.16-2.6-2.1
		s-2.39,0.87-2.34,2.25c0.05,1.52,1.2,2.33,2.7,2.24C219.85,109.3,220.5,108.24,220.66,106.97z M217.14,67.02
		c-0.22-1.39-1.06-2.14-2.49-2.13c-1.42,0-2.4,0.72-2.41,2.12c-0.01,1.52,0.97,2.29,2.56,2.23
		C216.26,69.18,216.96,68.31,217.14,67.02z M250.84,93.64c-1.46,0.19-2.28,0.92-2.31,2.31c-0.03,1.37,0.66,2.28,2.18,2.27
		c1.56-0.02,2.49-0.85,2.47-2.37C253.16,94.43,252.2,93.81,250.84,93.64z M226.53,60.61c-1.24,0.19-2.2,0.81-2.28,2.23
		c-0.08,1.4,0.69,2.34,2.15,2.42c1.45,0.08,2.39-0.72,2.45-2.14C228.91,61.74,228.15,60.9,226.53,60.61z M206.21,73.91
		c-1.19,0.23-2.22,0.76-2.2,2.24c0.02,1.38,0.77,2.26,2.26,2.29c1.48,0.03,2.3-0.79,2.36-2.19
		C208.69,74.81,207.77,74.15,206.21,73.91z M210.86,99.23c-0.2-1.15-0.89-2.01-2.39-2.04c-1.52-0.04-2.38,0.77-2.42,2.13
		c-0.04,1.37,0.8,2.21,2.31,2.21C209.81,101.52,210.67,100.81,210.86,99.23z M230.75,107.02c-1.58-0.03-2.38,0.79-2.4,2.14
		c-0.02,1.34,0.69,2.25,2.26,2.24c1.49-0.01,2.31-0.7,2.35-2.14C233,107.82,232.2,107.12,230.75,107.02z"/>
	<path class="st7" d="M243.94,86.14c0.01,8.09-6.78,14.21-15.58,14.38c-8.6,0.17-14.89-6.39-15.07-14.23
		c-0.2-8.78,7.3-14.49,13.77-14.65C238.03,71.39,243.91,78.15,243.94,86.14z"/>
	<path class="st8" d="M242.72,107.49c-1.46-0.08-2.51-0.64-2.58-2.07c-0.08-1.5,0.8-2.44,2.37-2.56c1.47-0.12,2.38,0.68,2.49,2.06
		C245.12,106.43,244.25,107.27,242.72,107.49z"/>
	<path class="st8" d="M204.11,85.73c1.48,0.08,2.47,0.74,2.54,2.12c0.07,1.47-0.83,2.46-2.41,2.5c-1.4,0.04-2.42-0.69-2.49-2.11
		C201.68,86.74,202.57,85.91,204.11,85.73z"/>
	<path class="st8" d="M241.52,65.08c-0.04,1.43-0.91,2.22-2.3,2.29c-1.6,0.09-2.49-0.93-2.61-2.3c-0.12-1.38,0.85-2.14,2.28-2.23
		C240.56,62.72,241.22,63.75,241.52,65.08z"/>
	<path class="st8" d="M248.78,75.21c-1.39-0.16-2.36-0.78-2.44-2.21c-0.08-1.44,0.8-2.26,2.23-2.34c1.56-0.09,2.64,0.66,2.62,2.24
		C251.18,74.3,250.19,74.98,248.78,75.21z"/>
	<path class="st8" d="M255.51,83.91c-0.07,1.58-0.81,2.5-2.26,2.54c-1.57,0.04-2.59-0.92-2.62-2.35c-0.03-1.34,0.95-2.19,2.41-2.19
		C254.51,81.9,255.23,82.82,255.51,83.91z"/>
	<path class="st8" d="M220.66,106.97c-0.17,1.26-0.82,2.32-2.23,2.4c-1.5,0.08-2.65-0.72-2.7-2.24c-0.04-1.38,0.89-2.19,2.34-2.25
		C219.53,104.82,220.38,105.58,220.66,106.97z"/>
	<path class="st8" d="M217.14,67.02c-0.17,1.29-0.87,2.16-2.34,2.21c-1.58,0.06-2.57-0.72-2.56-2.23c0.01-1.39,0.98-2.11,2.41-2.12
		C216.07,64.88,216.92,65.63,217.14,67.02z"/>
	<path class="st8" d="M250.84,93.64c1.34,0.17,2.31,0.79,2.33,2.21c0.02,1.52-0.9,2.35-2.47,2.37c-1.53,0.02-2.2-0.89-2.18-2.27
		C248.56,94.57,249.38,93.83,250.84,93.64z"/>
	<path class="st8" d="M226.53,60.61c1.62,0.29,2.38,1.13,2.32,2.51c-0.07,1.42-1,2.22-2.45,2.14c-1.46-0.08-2.23-1.02-2.15-2.42
		C224.33,61.42,225.3,60.8,226.53,60.61z"/>
	<path class="st8" d="M206.21,73.91c1.57,0.25,2.49,0.9,2.42,2.35c-0.07,1.39-0.87,2.22-2.36,2.19s-2.24-0.92-2.26-2.29
		C203.99,74.67,205.01,74.13,206.21,73.91z"/>
	<path class="st8" d="M210.86,99.23c-0.2,1.58-1.06,2.29-2.5,2.29c-1.51,0-2.36-0.84-2.31-2.21c0.04-1.35,0.9-2.17,2.42-2.13
		C209.97,97.22,210.67,98.08,210.86,99.23z"/>
	<path class="st8" d="M230.75,107.02c1.45,0.1,2.25,0.8,2.21,2.25c-0.04,1.45-0.86,2.14-2.35,2.14c-1.57,0.01-2.28-0.9-2.26-2.24
		C228.38,107.81,229.17,107,230.75,107.02z"/>
	<polyline class="st9" points="230.37,130.04 230.37,126.13 230.37,119.34 230.37,111.4 230.37,107.03 230.37,100.36 230.37,71.79 
		230.37,52.9 230.37,46.17 230.37,42.15 	"/>
</g>
</svg>
